<svg width="130" height="94" viewBox="0 0 130 94" fill="none" xmlns="http://www.w3.org/2000/svg">
<g opacity="0.05" clip-path="url(#clip0_3005_46047)">
<path d="M12.0352 8.03136C14.0549 7.45801 16.1134 6.99933 18.0824 6.28416C21.5063 5.04392 24.5239 3.10058 27.0456 0.420949C27.0964 0.366632 27.1681 0.33042 27.2308 0.285156C27.2308 1.30511 27.2368 2.32506 27.2398 3.34199C25.1992 5.20084 22.8867 6.62515 20.3889 7.76279C17.7358 8.96983 14.9602 9.7695 12.1188 10.3579C12.0949 9.60051 12.071 8.84309 12.0471 8.08266L12.0352 8.02834V8.03136Z" fill="#FEB140"/>
<path d="M27.2394 3.34199C27.2394 2.32204 27.2335 1.30209 27.2305 0.285156C27.3052 0.312315 27.4038 0.315332 27.4516 0.369649C30.8994 4.05415 35.2167 6.16647 39.9882 7.47008C40.278 7.54854 40.5439 7.70244 40.8217 7.82012C40.7829 8.54737 40.7441 9.27763 40.7082 10.0049C36.1519 8.88534 31.8973 7.10797 28.1776 4.1658C27.8639 3.8912 27.5531 3.61961 27.2394 3.34501V3.34199Z" fill="#FE9700"/>
<path d="M40.708 10.0018C40.7468 9.27457 40.7857 8.5443 40.8215 7.81706L40.8096 7.77783C40.8903 7.77783 40.9739 7.77783 41.0546 7.77783C42.3214 8.01924 43.5852 8.26065 44.8938 8.51111C44.855 9.02712 44.8162 9.52503 44.7773 10.0259C44.7474 10.4062 44.6817 10.6808 44.6727 10.723C44.5652 11.3507 44.4278 14.0575 44.2485 21.0281C43.3342 21.0613 42.417 21.0976 41.5027 21.1307C41.8165 17.5398 42.1272 13.9488 42.4409 10.3549C42.0465 10.3066 41.6282 10.2311 41.1831 10.1255C41.0187 10.0863 40.8634 10.0441 40.708 9.99879V10.0018Z" fill="#FE9700"/>
<path d="M129.85 37.1059C129.808 37.8573 129.847 38.6238 129.71 39.354C129.536 40.2684 128.987 40.9594 128.102 41.3245C128.102 39.8067 128.129 38.2888 128.084 36.774C128.066 36.1795 128.228 35.9864 128.819 36.0256C129.109 36.0437 129.521 36.27 129.725 35.8083C129.793 35.8506 129.862 35.8959 129.931 35.9381C129.904 36.3274 129.877 36.7166 129.85 37.1059Z" fill="#004C99"/>
<path d="M12.1456 28.5481C11.306 21.8732 10.4694 15.1982 9.62988 8.52025C10.3081 8.39351 11.0013 8.26677 11.6944 8.13701C11.6795 8.1521 11.6735 8.16417 11.6765 8.17021C11.6944 8.20944 12.032 8.10382 12.6863 7.85034C12.5997 9.6941 12.5101 11.5379 12.4234 13.3816L12.1456 28.5481Z" fill="#FEB140"/>
<path d="M128.104 30.7661C129.221 31.258 129.708 32.1814 129.83 33.3522C129.851 33.5423 129.848 33.7354 129.854 33.9286C129.813 34.517 129.771 35.1054 129.729 35.6939C129.188 35.7331 128.644 35.7723 128.104 35.8116C128.104 34.1307 128.104 32.4499 128.104 30.7661Z" fill="#004C99"/>
<path d="M13.6337 25.3976L10.8223 13.3966C11.0135 13.1944 11.0404 13.0978 11.0135 13.0495C10.9836 12.9922 10.894 13.0103 10.8611 12.953C10.8193 12.8775 10.9179 12.7357 11.0314 12.606C11.2495 12.606 11.4676 12.606 11.6887 12.606C11.7724 15.189 11.7365 17.1716 11.6887 18.5325C11.6887 18.5325 11.5602 22.0873 12.4147 23.5448C12.6926 24.0216 13.0242 24.5195 13.0242 24.5195C13.2692 24.8906 13.4843 25.1894 13.6337 25.3916V25.3976Z" fill="#FEB140"/>
<path d="M127.759 41.4453C127.747 41.4755 127.738 41.5057 127.729 41.5358C126.77 41.5871 125.814 41.6354 124.855 41.6867C123.576 41.6867 122.298 41.6867 121.019 41.6867C117.424 41.6867 113.827 41.6807 110.233 41.6807C106.639 41.6807 103.044 41.6747 99.4532 41.6807C99.2919 41.6807 99.1275 41.7501 98.9662 41.7863C98.9274 41.7501 98.8855 41.7139 98.8467 41.6777C98.8527 41.6384 98.8556 41.5992 98.8616 41.557C98.9363 41.3638 99.0738 41.1737 99.0767 40.9776C99.0947 39.5141 99.0977 38.0475 99.0767 36.584C99.0708 36.1886 99.1753 36.0257 99.5936 36.0408C100.481 36.074 101.371 36.0589 102.262 36.0649C102.372 36.2339 102.45 36.4602 102.605 36.5628C103.027 36.8435 103.038 37.0819 102.728 37.2901C102.286 37.1543 101.945 37.0487 101.554 36.931C101.494 37.616 101.828 37.8845 102.223 38.1169C102.554 38.7566 103.848 38.5635 104.018 37.8272C104.105 37.453 104.377 36.9008 103.744 36.6413C103.693 36.4451 103.642 36.246 103.591 36.0498C103.606 36.0106 103.618 35.9714 103.633 35.9321C104.476 35.9714 105.315 36.0106 106.158 36.0498C106.068 36.424 105.978 36.7952 105.871 37.2448H107.171C107.2 37.5285 107.227 37.7699 107.254 38.0324H108.019C107.879 38.1078 107.741 38.1803 107.442 38.3402H108.198C108.384 37.9992 108.578 37.7337 108.676 37.4349C108.754 37.2026 108.847 36.8555 108.378 36.8706C108.339 36.7469 108.297 36.6262 108.258 36.5025C108.258 36.3516 108.258 36.2007 108.258 36.0468C109.274 36.0468 110.29 36.0529 111.306 36.0559C111.087 36.7047 110.869 37.3504 110.636 38.0445C110.977 38.0445 111.243 38.0445 111.509 38.0445C111.332 38.1109 111.156 38.1803 110.914 38.2738C111.709 38.4941 111.831 38.4337 112.07 37.8091C112.298 37.2176 112.54 36.6322 112.773 36.0438L115.252 36.0619C114.664 37.0034 114.798 37.619 115.701 38.141C115.916 38.5846 116.322 38.5424 116.687 38.485C117.156 38.4126 117.493 38.1199 117.61 37.6401C117.711 37.2146 117.693 36.7982 117.275 36.5206L116.979 35.9231C117.009 35.9231 117.042 35.9231 117.072 35.9291C117.804 35.9684 118.533 36.0076 119.265 36.0498C119.307 36.3275 119.349 36.6081 119.39 36.8857C119.411 37.4711 119.737 37.8574 120.215 38.138C120.834 38.7778 121.745 38.5635 122.05 37.6462C122.217 37.1422 122.22 36.587 122.298 36.0529C124.114 36.0529 125.934 36.0529 127.75 36.0529L127.762 41.4544L127.759 41.4453Z" fill="#004C99"/>
<path d="M127.992 30.6757C129.014 31.4089 129.48 32.1814 129.707 32.6673C130.341 34.0131 129.725 34.4416 129.803 38.2408C129.809 38.5426 129.827 39.2396 129.498 40.0242C129.355 40.3682 129.047 41.0955 128.36 41.4274C127.894 41.6507 127.484 41.5783 126.657 41.4545C126.011 41.358 125.052 41.2162 123.827 41.0653C123.49 40.8661 123.134 40.679 122.767 40.504C118.494 38.4852 114.019 39.1491 111.058 39.985C106.424 41.2011 102.566 41.8499 99.749 42.218C98.8647 42.3357 96.5073 42.8879 94.6968 41.6205C94.2874 41.3338 93.7108 40.9295 93.4389 40.1962C93.1611 39.4478 93.421 38.953 93.6092 36.1526C93.6361 35.7452 93.6301 35.7875 93.6391 35.697C93.7945 34.3783 94.4368 33.7385 95.118 32.4349C95.2734 32.1392 95.3899 31.8827 95.4825 31.6624C95.6977 31.1524 95.8261 30.7813 95.8411 30.739C96.6836 28.4456 110.666 30.6425 110.666 30.6425C115.686 31.4301 120.965 32.3565 121.195 34.0705C121.204 34.1308 121.368 35.3741 120.807 35.697C120.648 35.7875 120.424 35.8086 120.236 35.7452C119.728 35.5793 119.641 34.8731 119.447 34.8973C119.367 34.9063 119.259 35.0421 119.181 35.703C118.632 35.697 118.085 35.6939 117.535 35.6879C117.523 35.2685 117.655 34.8007 117.177 34.5261C116.636 34.1761 116.561 34.0765 116.576 34.0433C116.645 33.9075 118.778 34.5563 119.91 36.1858C120.254 36.6807 120.293 36.9583 120.236 37.1695C120.066 37.7851 119.011 38.0145 118.405 38.0175C116.597 38.0205 115.393 35.9776 115.226 35.6879C114.449 35.6879 113.672 35.6879 112.895 35.6909C113.036 35.2534 113.176 34.8158 113.325 34.3511C113.203 34.3239 113.095 34.2968 112.988 34.2726C112.925 34.1972 112.865 34.0614 112.803 34.0614C112.115 34.0463 111.431 34.0524 110.717 34.0524C110.708 34.4658 110.52 34.9426 111.07 34.9697C111.679 34.9999 111.682 35.2594 111.506 35.7C111.476 35.709 111.446 35.7181 111.416 35.7241C110.75 35.7181 110.084 35.697 109.42 35.709C109.071 35.7151 108.724 35.7814 108.375 35.8237C108.336 35.9022 108.297 35.9776 108.258 36.056C108.258 36.2069 108.258 36.3578 108.258 36.5117C108.136 36.3216 108.01 36.1285 107.888 35.9384C107.95 35.3258 108.013 34.7102 108.07 34.1338C107.353 33.9166 106.958 34.0946 106.779 34.7253C106.684 35.0572 106.522 35.365 106.391 35.6849C106.325 35.6939 106.259 35.7 106.194 35.709C105.378 35.709 104.565 35.709 103.75 35.706C103.78 35.5189 103.839 35.3288 103.836 35.1417C103.827 34.502 103.212 33.9105 102.614 33.9467C101.96 33.986 101.581 34.4839 101.652 35.2262C106.212 35.2986 110.774 35.3711 115.333 35.4435C110.825 35.4646 106.313 35.4827 101.805 35.5038C102.071 35.5551 102.22 35.5853 102.369 35.6155C102.324 35.6517 102.283 35.6849 102.238 35.7211C101.186 35.7151 100.134 35.709 99.0858 35.7C99.0858 33.983 99.0858 32.2659 99.0858 30.5489C101.589 30.5489 104.096 30.5489 106.6 30.5429C106.803 30.5429 107.009 30.4825 107.212 30.4524C108.216 30.4463 109.223 30.4403 110.227 30.4312C112.121 30.4312 114.019 30.4252 115.913 30.4252C116.492 30.4252 117.075 30.4252 117.655 30.4252C118.506 30.4252 119.355 30.4252 120.206 30.4252H122.88C124.117 30.4252 125.357 30.4252 126.594 30.4252C127.06 30.5127 127.526 30.6002 127.992 30.6847V30.6757Z" fill="#004C99"/>
<path d="M12.0166 27.7574C12.0226 22.7059 12.0286 17.6574 12.0315 12.606C12.1331 12.6452 12.2377 12.6814 12.3393 12.7206C12.4409 13.5505 12.5395 14.3833 12.641 15.2132C12.9816 18.0527 13.3013 20.8983 13.6658 23.7349C13.8481 25.1592 13.9885 26.6107 14.3739 27.9867C14.7115 29.1938 15.2254 30.2831 15.9126 31.2488C16.9613 32.7244 18.1385 33.5331 18.7599 33.9495C20.5167 35.1294 22.2287 35.5881 23.8899 36.0317C24.5263 36.2037 25.0641 36.3183 25.4346 36.3938C24.4008 36.5537 23.3372 36.6955 22.2466 36.8162C21.9987 36.8434 21.7507 36.8706 21.5027 36.8947C20.5466 36.7468 19.5905 36.599 18.6315 36.4511C18.2909 36.3214 17.8666 36.1192 17.4214 35.7993C17.1107 35.576 16.8568 35.3467 16.6596 35.1415C16.3817 34.9182 16.0052 34.6043 15.581 34.2C15.581 34.2 15.2942 33.9314 15.0432 33.6659C13.6629 32.2084 12.7964 30.437 12.1451 28.548C12.1032 28.2855 12.0614 28.0199 12.0196 27.7574H12.0166Z" fill="#FEB140"/>
<path d="M70.8579 18.1193H110.102C110.102 21.3572 110.102 24.5951 110.105 27.833C103.344 27.833 96.5824 27.839 89.8212 27.836C89.627 27.836 89.4328 27.7696 89.2356 27.7364C89.3849 27.6489 89.5343 27.5584 89.6837 27.4709C89.7943 27.5161 89.9108 27.6067 90.0094 27.5976C90.7832 27.5131 91.5869 27.4799 92.3189 27.2928C92.9314 27.1359 93.6275 26.8825 93.9831 26.5113C94.6583 25.8052 95.1154 24.9844 95.6622 24.2119C94.7748 24.0187 94.3386 23.8709 94.3566 23.7683C94.3805 23.6355 95.1692 23.5752 96.7258 23.5933C96.4569 23.5993 96.188 23.6053 95.9191 23.6144C96.3135 23.4907 96.3823 23.4243 96.3703 23.385C96.3554 23.3277 96.206 23.2734 95.9909 23.2492C95.8564 23.2342 95.6921 22.9988 95.6742 22.8539C95.6263 22.5099 95.6592 22.1629 95.6592 21.8159C96.0297 21.7133 96.433 21.5202 96.3972 21.3934C96.3315 21.155 96.0148 20.9589 95.7996 20.7416C95.6712 20.7235 95.6921 20.636 95.6532 20.5726C95.5487 20.4097 95.4142 20.2588 95.2947 20.1049C95.1483 20.2437 94.99 20.3795 94.8555 20.5274C94.7569 20.636 94.7091 20.8503 94.6016 20.8653C93.9323 20.9498 94.0966 21.318 94.0847 21.6318C94.01 21.4779 93.9323 21.321 93.8845 21.2214C93.7052 21.2395 93.511 21.2606 93.3198 21.2818C93.263 21.1671 93.2033 21.0524 93.1465 20.9378C92.776 20.8442 92.3876 20.7839 92.044 20.6541C90.7444 20.1653 89.4895 20.5877 88.2257 20.7477C88.1152 20.7627 88.0554 20.9951 87.9717 21.1249C87.8492 21.0947 87.7297 21.0615 87.6043 21.0343C85.9281 20.6601 84.727 21.496 84.993 22.7906C85.1095 23.3579 85.6742 23.6174 86.0924 23.9886C86.5705 24.6977 87.0366 25.4099 87.5355 26.113C87.6042 26.2095 87.8224 26.2518 87.9688 26.3182C87.5684 26.8161 87.4459 27.2989 88.1271 27.7274C87.8134 27.7636 87.4997 27.8028 87.186 27.839C87.186 27.495 87.1949 27.148 87.177 26.804C87.1411 26.1371 86.7916 25.9742 85.9311 26.2095C85.8206 25.9349 85.713 25.6573 85.6025 25.3827C85.5009 25.3918 85.3963 25.4008 85.2947 25.4068V27.839C84.3625 27.8239 83.4274 27.8058 82.4952 27.7908C81.0461 27.2084 79.137 26.2427 79.0892 24.9995C78.9487 21.4568 93.9711 16.9907 96.9021 19.4772C98.4318 20.7748 96.5705 23.892 95.6801 25.0628C95.0557 25.8836 93.6754 27.7002 90.8818 28.3762C90.4904 28.4697 87.165 29.2724 85.0706 28.2223C84.7002 28.0352 84.0279 27.6218 83.1884 27.7002C82.6177 27.7545 82.1845 28.0171 81.9066 28.2343C81.8857 28.1016 81.8648 27.9718 81.8439 27.839C80.2006 27.9718 78.8621 27.3713 78.6559 26.6923C78.3094 25.5577 81.1597 24.3235 81.7154 24.6373C82.0022 24.8003 81.7662 25.4249 81.3688 26.1371V27.836C81.2941 27.8209 81.1716 27.7998 81.0252 27.7787C80.1887 27.658 79.857 27.7455 79.4477 27.5886C79.3073 27.5343 79.1161 27.4377 78.9308 27.2415C73.3407 26.3514 70.5741 25.778 70.6249 25.5215C70.6757 25.271 73.4513 25.3254 78.9458 25.6875C79.0444 25.8203 79.1549 26.0224 79.134 26.2638C79.1101 26.5354 78.8711 26.6441 78.88 26.8704C78.889 27.1631 79.1639 27.4498 79.3192 27.7395C78.4707 27.9326 78.4109 27.8903 78.3811 27.2536C78.3631 26.8643 78.2855 26.4781 78.2317 26.0888C78.1241 26.2699 77.9957 26.4449 77.918 26.632C77.7895 26.9488 77.6939 27.2747 77.5833 27.5946C76.8962 27.6218 76.8693 27.2566 76.8334 26.8945C76.8095 26.638 76.7826 26.3845 76.7557 26.128C76.6303 26.1431 76.5048 26.1552 76.3823 26.1703C76.5227 26.6923 76.6631 27.2144 76.8035 27.7395C75.97 27.9265 75.9012 27.8873 75.8714 27.3049C75.8385 26.7044 75.7698 26.1039 75.719 25.5034C75.6144 25.6482 75.4352 25.7871 75.4172 25.9379C75.3754 26.3332 75.4023 26.7316 75.4023 27.1691C74.7002 26.7104 74.4014 26.4087 74.503 26.2608C74.748 25.9078 77.2816 26.4419 82.1068 27.8602L73.3706 27.836L71.4973 27.9869C69.8182 28.0261 68.1391 28.0654 66.46 28.1016C66.4839 27.7606 66.687 25.5638 69.0384 24.3658C69.7943 23.9795 70.5591 23.8075 71.1447 23.723C71.9126 22.9113 71.7961 22.0935 71.1836 21.2697C71.2583 21.149 71.3569 20.9498 71.3151 20.7205C71.1955 20.0838 70.1289 19.9389 69.9496 19.4078C69.866 19.1574 69.9556 18.753 70.846 18.1133L70.8579 18.1193ZM72.7492 23.8528H73.6784C73.6784 23.2945 73.7023 22.7936 73.6724 22.2927C73.6395 21.7978 74.001 21.656 74.5777 21.6228C75.229 21.5865 75.2917 21.8793 75.2828 22.2534C75.2708 22.7725 75.2798 23.2915 75.2798 23.7864C74.3177 24.1394 73.5648 24.1575 73.3885 23.8528C73.2332 23.5842 73.5051 23.032 73.8965 22.7242C74.745 22.0543 75.9251 22.7 76.2 22.2142C76.3643 21.9245 76.0865 21.4387 75.8206 21.1943C75.4142 20.8231 74.7002 20.808 73.7889 21.1943C73.4513 20.9408 73.1017 20.7537 72.7283 21.1671C72.6984 22.0995 72.6655 23.029 72.6356 23.9614C72.6745 23.9252 72.7103 23.889 72.7492 23.8528Z" fill="#004C99"/>
<path d="M43.8515 17.9984C43.9442 17.9984 44.4282 17.9984 44.5208 17.9984C52.9373 17.9924 61.3358 18.0316 69.7135 18.1191C69.7135 19.0968 69.7135 20.0715 69.7165 21.0492C69.4326 21.007 69.1488 20.9255 68.865 20.9255C68.1927 20.9255 67.7446 21.2997 67.5175 21.9937C67.3651 22.4614 67.6101 23.4874 67.9298 23.7288C68.5154 24.1694 69.1428 24.2117 69.7135 23.8526C69.7523 24.5919 69.7942 25.3282 69.833 26.0675C69.5641 26.0765 69.2922 26.0856 69.0233 26.0946C68.9845 26.5262 68.9337 26.9577 68.9128 27.3922C68.9008 27.6457 68.8978 27.869 68.5572 27.8388C68.5542 27.4677 68.62 27.0784 68.5244 26.7344C68.4556 26.4869 68.2077 26.1912 67.9776 26.1188C67.7714 26.0554 67.4846 26.2727 67.2307 26.3662L67.2904 26.5292C67.7844 26.3562 68.0772 26.4135 68.1688 26.7012C67.1052 26.9698 66.9588 27.1629 67.389 27.7362C67.1231 27.7362 66.8542 27.7362 66.5883 27.7332C66.8253 27.4234 66.5734 27.0563 65.8324 26.6318C66.0684 25.9106 66.4658 26.6952 66.7885 26.5473C66.8632 26.6861 66.8273 26.84 66.7407 26.8913C66.6152 26.9698 66.4001 26.8219 66.406 26.7314C66.412 26.671 66.5256 26.6288 66.5913 26.6107C66.902 26.7283 66.9827 26.849 66.9976 26.9426C67.0185 27.1025 66.8482 27.2594 66.9259 27.4496C66.9438 27.4918 66.9677 27.522 66.9588 27.5642C66.9409 27.6608 66.7855 27.7061 66.7257 27.7242C66.3224 27.8388 65.2647 27.7453 65.2617 27.522C65.2617 27.4707 65.3155 27.3922 65.6262 27.2926C65.8832 27.2836 66.1431 27.2745 66.4001 27.2685C66.1879 27.4254 65.9728 27.5823 65.7607 27.7423C65.5336 27.7755 65.3095 27.8087 65.0825 27.8449C65.0825 27.8449 64.0696 28.1738 63.6842 27.8449C63.5408 27.7242 63.4093 27.4465 63.5557 26.7374C63.4213 26.5201 63.2839 26.2998 63.1494 26.0826C63.3376 25.8563 63.5288 25.6299 63.7171 25.4036C63.7051 26.2184 63.6962 27.0301 63.6842 27.8449C63.5318 27.8449 63.3824 27.8449 63.2301 27.8449C62.513 27.7242 62.0589 26.6891 62.2591 26.1459C62.4144 25.7295 62.8596 25.5545 62.9821 25.5092C62.9433 25.8472 62.8775 26.1822 62.8715 26.5201C62.8596 27.8449 62.8656 27.8449 61.5868 27.8449C60.2393 27.8449 58.8949 27.8449 57.5474 27.8449C57.3352 27.4737 57.1261 27.0995 56.908 26.7344C56.7228 26.4236 56.4987 26.2998 56.0923 26.3813C55.0855 26.5835 54.2459 26.1761 53.6663 25.3674C53.0867 24.5587 52.994 23.6504 53.493 22.7361C54.1682 21.4988 55.6203 20.9164 57.0066 21.8066C58.124 22.5248 58.5901 23.7439 57.7715 25.1622C57.4099 25.7899 57.6639 26.1701 57.9298 26.6348C57.9866 26.7314 58.0822 26.8068 58.1539 26.8943C58.3182 27.0874 58.4795 27.2806 58.6409 27.4737C58.847 27.2323 59.0891 27.015 59.2474 26.7465C59.6418 26.0916 60.0481 25.4338 60.3469 24.7337C60.5172 24.3384 60.6666 23.7741 60.5112 23.4301C59.9854 22.2623 59.3101 21.1639 58.7156 20.0293C58.4766 19.5706 58.118 19.4076 57.631 19.4076C56.3373 19.4137 55.0407 19.4227 53.747 19.4046C53.2241 19.3956 52.8566 19.5917 52.6116 20.0504C52.0141 21.1639 51.3896 22.2623 50.8279 23.3939C50.6995 23.6564 50.6666 24.0789 50.7861 24.3324C51.3329 25.4791 51.9543 26.5926 52.5459 27.7181C52.3875 27.7604 52.2262 27.7996 52.0649 27.8388C48.8889 28.6053 44.9809 28.9071 40.335 28.041C40.078 26.324 39.9017 24.3203 39.9346 22.0903C39.9555 20.669 40.0571 19.3563 40.2005 18.1614C40.6278 18.1101 41.055 18.0588 41.4852 18.0044L41.5211 18.0105L43.8426 18.0044L43.8515 17.9984ZM62.9881 24.091C62.9492 23.8465 62.8805 23.6021 62.8775 23.3547C62.8626 22.6274 62.8715 21.8972 62.8715 21.1699C62.758 22.0601 62.749 22.9503 62.767 23.8375C62.767 23.9612 62.9104 24.0849 62.9881 24.2086C63.5298 24.2066 63.8007 23.927 63.8007 23.3697C63.8007 22.8477 63.8157 22.3287 63.7948 21.8066C63.7858 21.5501 63.7111 21.2997 63.6663 21.0462C63.4571 21.01 63.248 20.9738 63.0179 20.9345V23.8375C63.2271 23.8526 63.3974 23.8646 63.5677 23.8797C63.3735 23.9491 63.1823 24.0216 62.9881 24.091ZM54.1623 23.9884C54.1742 24.8695 54.8614 25.5726 55.7248 25.5817C56.5286 25.5907 57.3024 24.7518 57.2845 23.8858C57.2695 23.0469 56.4987 22.3166 55.6442 22.3317C54.7628 22.3468 54.1473 23.0348 54.1593 23.9853L54.1623 23.9884ZM67.0156 23.0801C66.7407 22.8055 66.5495 22.9714 66.2776 23.1434C66.0565 23.2822 65.6203 23.3728 65.4589 23.246C65.2139 23.0529 65.0167 22.6636 65.0018 22.3468C64.9928 22.1355 65.3215 21.7402 65.5247 21.7221C65.9161 21.6889 66.3284 21.864 66.8482 21.9786C67.1231 21.8278 67.0574 21.5381 66.7526 21.2936C66.5524 21.1307 66.2985 20.9889 66.0505 20.9406C65.438 20.8259 64.8972 20.9949 64.5447 21.5592C64.1533 22.1838 64.216 22.8266 64.5417 23.4422C64.7957 23.919 65.5336 24.2207 66.1103 24.0759C66.5973 23.9552 66.9767 23.6715 67.0156 23.0801ZM62.6564 19.9659C62.9582 20.2194 63.1225 20.3582 63.2868 20.494C63.4213 20.3189 63.6394 20.156 63.6633 19.9689C63.6782 19.8361 63.4392 19.5525 63.3018 19.5464C63.1375 19.5374 62.9642 19.7516 62.6564 19.9659Z" fill="#004C99"/>
<path d="M110.233 41.6777C110.296 43.0809 110.302 44.5655 110.224 46.1257C110.203 46.5692 110.173 47.0038 110.14 47.4323C110.146 47.7099 110.146 47.9996 110.14 48.2983C110.134 48.5971 110.119 48.8868 110.101 49.1644C110.131 49.2941 110.161 49.4963 110.152 49.7377C110.146 49.9158 110.113 50.0455 110.113 50.0727C110.107 52.8972 110.098 55.7247 110.119 58.5491C110.122 59.0108 109.994 59.1647 109.534 59.1436C108.763 59.1074 107.989 59.1315 107.218 59.1315C107.218 53.7602 107.218 48.3889 107.218 42.9632H99.0856C99.008 42.9572 98.9273 42.9511 98.8496 42.9451C98.8885 42.5558 98.9273 42.1696 98.9661 41.7803C99.1275 41.7441 99.2918 41.6747 99.4531 41.6747C103.047 41.6717 106.642 41.6747 110.233 41.6747V41.6777Z" fill="#95B1C1"/>
<path d="M98.9664 41.7804C99.301 42.0278 99.6386 42.2783 99.9733 42.5257C100.087 42.5408 100.206 42.5649 100.329 42.6042C101.18 42.8607 101.679 43.5457 101.906 43.9138C101.461 43.8836 100.995 43.8655 100.508 43.8625C99.6356 43.8565 100.717 43.1404 99.9733 43.2158C100.048 42.6545 98.0193 43.1202 97.8788 42.9542C97.4486 42.4412 96.5911 42.8214 95.9249 42.2028C95.7068 42.0006 95.5215 41.7502 95.3691 41.4424C96.4895 41.5178 97.607 41.5933 98.7274 41.6687C98.7662 41.6687 98.808 41.6717 98.8469 41.6747C98.8857 41.711 98.9275 41.7472 98.9664 41.7834V41.7804Z" fill="#95B1C1"/>
<path d="M110.198 27.8298C110.207 28.6929 110.216 29.5559 110.228 30.422C109.224 30.428 108.217 30.434 107.213 30.4431L107.204 30.4069C107.204 29.5559 107.204 28.7049 107.204 27.854L107.225 27.8329C108.217 27.8329 109.209 27.8329 110.198 27.8329V27.8298Z" fill="#95B1C1"/>
<path d="M26.4181 65.3478C26.4181 64.3701 26.4181 63.3924 26.4181 62.4147C26.4181 61.44 26.4151 60.4623 26.4121 59.4876L26.436 59.4846C30.9684 59.4846 35.4979 59.4846 40.0303 59.4907C40.2932 59.4907 40.5561 59.5631 40.819 59.6023C40.819 60.0731 40.819 60.5408 40.822 61.0115C40.819 61.0447 40.8161 61.0809 40.8131 61.1171C40.6248 61.2077 40.4217 61.2801 40.2454 61.3978C37.7984 63.0273 36.5137 65.3237 36.3763 68.281C36.3494 69.1923 36.3195 70.1006 36.2986 71.0119C36.2866 71.4887 36.2986 71.9685 36.2986 72.5147H34.0847V77.4243C31.799 77.4243 29.5134 77.4243 27.2278 77.4303C27.0306 77.4303 26.8304 77.5028 26.6332 77.545C26.6004 77.5058 26.5675 77.4666 26.5346 77.4273C26.4958 76.4828 26.4569 75.5413 26.4181 74.5968C26.4181 73.8605 26.4301 73.1242 26.4181 72.3879C26.4181 72.225 26.3464 72.062 26.3105 71.8991C26.3494 71.6939 26.4151 71.4917 26.4181 71.2865C26.4301 70.4778 26.4211 69.6691 26.4211 68.8603C26.4211 67.6895 26.4181 66.5217 26.4151 65.3509L26.4181 65.3478Z" fill="#DCE7ED"/>
<path d="M26.6367 77.5389C26.8339 77.4997 27.0341 77.4273 27.2313 77.4242C29.5169 77.4152 31.8025 77.4182 34.0882 77.4182C34.0882 77.5329 34.0911 77.6506 34.0941 77.7652C34.0971 78.6615 34.1001 79.5607 34.1061 80.4569L34.0643 80.475C32.9737 80.475 31.8802 80.4449 30.7897 80.4781C30.0218 80.5022 29.3108 80.3423 28.6325 80.0013C27.7272 79.3766 26.9445 78.6524 26.6367 77.5359V77.5389Z" fill="#95B1C1"/>
<path d="M26.4146 59.6807C26.4057 54.2731 26.4117 50.3895 26.4176 47.7642C26.4236 44.8371 26.4176 41.91 26.4206 38.9799C26.4206 38.6721 26.4206 37.8091 26.4146 36.6563C26.4057 35.3799 26.3937 34.3418 26.3848 33.678C31.2727 31.7286 36.1607 29.7792 41.0486 27.8298C45.9635 43.8473 46.1129 56.2889 44.123 58.4857C42.7427 60.0096 40.956 61.4128 40.956 61.4128C39.6534 62.4388 39.002 62.9518 38.1296 63.335C34.7236 64.8408 31.0875 63.2234 30.3525 62.8763C28.4583 61.9801 27.1915 60.6765 26.4146 59.6777V59.6807ZM27.5829 41.7199C27.5829 43.1231 27.5769 44.5293 27.5918 45.9325C27.5918 46.1528 27.6546 46.3972 27.7621 46.5813C28.0071 47.0007 28.4463 47.043 28.8377 46.9132C29.0588 46.8408 29.1514 46.711 29.1634 46.7231C29.1992 46.7623 28.1266 48.1685 27.6426 47.9694C27.3438 47.8456 27.4066 47.1727 27.4126 46.2735C27.4245 44.65 27.1257 43.0386 26.9943 41.4181C26.8001 39.0553 26.7224 38.6178 27.0719 37.9901C27.4514 37.3081 28.2163 36.6141 29.0947 36.5779C31.0935 36.4904 32.6082 39.8278 32.0675 40.4555C31.7119 40.8689 30.2659 40.3589 29.3217 39.6076C28.0967 38.6329 27.8727 37.3685 27.5858 37.4439C27.2572 37.5284 27.5858 39.0946 27.5858 41.7139L27.5829 41.7199ZM35.5781 54.0197C35.0642 55.2539 38.0191 57.0041 37.5619 57.9486C36.8359 59.4393 28.3985 57.2877 28.4642 55.8363C28.4792 55.4923 29.4293 55.7186 29.4382 54.8555C29.4562 53.217 29.4562 51.5754 29.4382 49.9368C29.4382 49.6984 29.3635 49.5023 29.2411 49.3544C28.9542 49.0135 28.4583 49.107 28.4463 49.0497C28.3925 48.7781 38.7391 44.0314 42.3692 47.8939C43.4448 49.0376 44.0483 51.0624 43.3223 52.2091C41.93 54.412 36.2652 52.3811 35.5811 54.0197H35.5781Z" fill="#DCE7ED"/>
<path d="M26.415 36.6593C26.415 37.4349 26.418 38.2074 26.421 38.9829C25.3782 38.7475 24.2937 38.479 23.1763 38.1651C22.2053 37.8935 21.2761 37.6129 20.3857 37.3202L17.4219 35.7993C19.579 35.8778 21.7362 35.9562 23.8903 36.0347C24.0816 36.0679 24.2728 36.1011 24.464 36.1373C25.1153 36.3123 25.7637 36.4843 26.415 36.6593Z" fill="#FEB140"/>
<path d="M110.119 76.8509C110.021 78.6403 108.368 80.2548 106.4 80.4841C103.761 80.475 101.123 80.469 98.485 80.46C97.2988 79.6814 96.7341 78.2692 97.0598 76.9927C97.4572 75.4477 98.954 74.8895 99.0825 74.8412C99.1213 74.8019 99.1602 74.7597 99.199 74.7205C101.395 73.275 103.215 71.4494 104.601 69.2013C104.601 69.2013 105.515 67.7166 106.143 66.0237C107.397 62.6319 107.254 58.703 107.221 57.9637C108.186 57.9305 109.154 57.8943 110.119 57.8611C110.119 61.959 110.113 66.0569 110.11 70.1548C109.782 70.5531 109.782 71.3951 110.11 71.7934C110.113 73.4802 110.116 75.1671 110.119 76.8539V76.8509Z" fill="#95B1C1"/>
<path d="M98.7368 30.4129C98.0257 30.4129 97.3146 30.4098 96.6035 30.4219C96.4213 30.4249 96.239 30.4883 96.0538 30.5245C94.6227 30.8082 93.6397 31.973 93.6277 33.4184C93.6218 34.1758 93.6337 34.9302 93.6367 35.6876C93.6367 35.7299 93.6367 35.7721 93.6337 35.8144L93.6218 35.8053V36.6563C93.0571 39.7463 92.1398 40.6878 91.3361 40.9051C89.6212 41.3758 88.19 38.6087 84.3687 37.7456C82.9675 37.4288 81.7335 37.468 80.8611 37.5646C79.5345 38.3643 78.4858 38.4699 77.8136 38.4367C75.4294 38.328 74.3 36.3606 71.1987 36.0347C70.5235 35.9622 69.9708 35.9924 69.6481 36.0226C68.2468 36.1644 41.7246 38.8018 41.3213 37.6913C41.1061 37.0999 41.0524 36.4843 41.0524 36.4843C41.0524 36.4843 41.0135 36.0437 41.0494 35.6876C41.2077 34.1336 57.9481 31.3242 59.9349 30.9892C61.626 30.7026 65.5369 30.0296 70.0694 27.8328C70.153 27.7936 70.2367 27.7513 70.3203 27.7121C70.7416 27.7543 71.1599 27.7936 71.5812 27.8358C71.6977 27.8358 71.8142 27.8358 71.9277 27.8358C72.2773 27.7966 72.6299 27.7574 72.9794 27.7181C73.087 27.7513 73.1766 27.7694 73.2423 27.7815C73.2901 27.7906 73.3529 27.7996 73.3738 27.7694C73.3738 27.7694 73.3798 27.7604 73.3858 27.691C73.332 27.6548 73.4903 27.7664 73.5441 27.7996C73.6188 27.8509 73.7742 27.872 74.1207 27.7332C74.3568 27.7302 74.5898 27.7242 74.8259 27.7212C74.9962 27.7725 75.0888 27.7996 75.0888 27.7996C75.1724 27.7755 75.1933 27.7785 75.1933 27.7785C75.2471 27.7785 75.2531 27.8117 75.3069 27.8177C75.3517 27.8238 75.3875 27.8087 75.4025 27.8026C75.4593 27.7815 75.6027 27.7574 75.9761 27.7362C76.251 27.7332 76.5229 27.7302 76.7948 27.7272C77.1862 27.863 77.5806 28.0018 77.9749 28.1406C79.1282 28.548 80.2725 28.9584 81.4079 29.3748C81.5901 29.7822 81.62 30.0628 81.4975 30.2107C81.1987 30.5668 80.0126 30.1654 77.9391 29.0036C76.7858 28.7351 76.5109 28.5872 76.5199 28.4997C76.5229 28.4605 76.5976 28.4665 76.6723 28.385C76.8067 28.2402 76.9053 28.0139 77.0278 27.8419C77.2071 27.7845 77.237 27.7815 77.237 27.7815C77.3385 27.7694 77.3774 27.8388 77.4909 27.8388C77.6074 27.8388 77.724 27.8388 77.8435 27.8388C78.1901 27.8026 78.5396 27.7664 78.8862 27.7302C79.1581 27.7302 79.43 27.7302 79.7019 27.7302C79.9319 27.7664 80.162 27.8026 80.392 27.8388C80.5085 27.8388 80.6281 27.8388 80.7446 27.8388C80.9776 27.8388 81.2107 27.8388 81.4437 27.8388C81.5602 27.8388 81.6768 27.8388 81.7933 27.8388C82.0263 27.8026 82.2564 27.7634 82.4894 27.7272C82.7613 27.7272 83.0332 27.7332 83.3081 27.7332C83.4515 27.7694 83.5949 27.8328 83.7413 27.8328C88.7398 27.8328 93.7383 27.8328 98.7398 27.8298V27.8419C98.7398 28.6989 98.7398 29.5528 98.7398 30.4098L98.7368 30.4129Z" fill="#DCE7ED"/>
<path d="M88.0585 24.2087C87.6552 24.9812 87.3146 25.802 86.8186 26.5082C86.5557 26.8793 86.0418 27.1328 85.5877 27.2897C85.0469 27.4768 84.4523 27.51 83.8817 27.5945C83.8099 27.6066 83.7203 27.513 83.6396 27.4678C83.6486 27.3561 83.6576 27.2475 83.6665 27.1358C84.049 27.1358 84.4344 27.1449 84.8168 27.1358C85.7072 27.1117 86.3525 26.5776 86.8754 25.9529C87.219 25.5425 87.3534 24.9571 87.6223 24.4743C87.694 24.3445 87.9121 24.2932 88.0615 24.2087H88.0585Z" fill="#004C99"/>
<path d="M71.1 21.17C71.1059 22.0632 71.1089 22.9595 71.1149 23.8527C71.1119 23.8708 71.1149 23.8949 71.103 23.907C71.082 23.9281 71.0552 23.9432 71.0312 23.9613C71.0552 23.0289 71.0761 22.0994 71.1 21.167V21.17Z" fill="#004C99"/>
<path d="M68.9523 27.9779C68.9942 27.9809 68.9971 27.999 69.039 27.996C69.0927 27.996 69.1316 27.9688 69.1615 27.9477C69.1884 27.9296 69.2302 27.8964 69.266 27.8391C69.4184 27.8391 69.5678 27.8421 69.7202 27.8451C69.7202 29.9906 69.7202 32.1392 69.7202 34.2847C65.6927 34.2847 61.6652 34.2847 57.6377 34.2877C56.6727 34.2877 55.9765 34.7917 55.6778 35.6939C55.6389 35.6939 55.6001 35.6939 55.5612 35.6939C50.7241 35.6939 45.8899 35.6939 41.0527 35.6939C41.0527 33.0777 41.0527 30.4584 41.0527 27.8421V27.8331C44.7247 27.8331 48.3996 27.8391 52.0745 27.8331C52.2359 27.8331 52.3972 27.7546 52.5556 27.7123C52.5615 27.7365 52.5735 27.7667 52.5884 27.7968C52.6243 27.8662 52.6691 27.9115 52.702 27.9387C52.7498 28.0171 53.0923 27.5132 53.0923 27.8421C53.2118 27.9145 53.2849 27.6188 53.4911 27.7123C53.7151 27.8149 55.165 27.9236 57.0264 27.9387C57.1549 27.9387 57.2711 28.0141 57.4025 27.9387C57.4294 27.7848 57.4913 27.993 57.5182 27.8421H57.5541C60.2161 27.818 61.2559 27.824 61.5935 27.8421C61.6712 27.8451 61.7369 27.8512 61.8325 27.8421C62.3135 27.7938 62.6482 27.4619 62.7946 27.5675C62.8125 27.5796 62.8573 27.6218 62.944 27.6792C62.9798 27.7033 63.0097 27.7214 63.0276 27.7335C63.0635 27.7455 63.1083 27.7636 63.1561 27.7878C63.186 27.8059 63.2129 27.824 63.2368 27.8421C63.3891 27.8421 63.5385 27.8421 63.6909 27.8421C63.8074 27.8421 63.9239 27.8421 64.0435 27.8421C64.3422 27.818 64.5155 27.7908 64.6201 27.7576C64.653 27.7486 64.7306 27.7214 64.8053 27.7576C64.8501 27.7787 64.877 27.8119 64.892 27.8361C64.9189 27.8421 64.9517 27.8451 64.9876 27.8451C65.0264 27.8451 65.0593 27.8451 65.0892 27.8421C65.3162 27.8089 65.5403 27.7757 65.7674 27.7395C66.0423 27.7395 66.3171 27.7365 66.592 27.7335C66.8579 27.7335 67.1268 27.7335 67.3927 27.7365C67.3927 27.7365 68.1695 27.7154 68.5609 27.8391C68.6117 27.8542 68.6804 27.8783 68.7223 27.9387C68.7462 27.9749 68.7462 28.002 68.7731 28.0171C68.8179 28.0443 68.8627 27.9719 68.9523 27.9779Z" fill="#DCE7ED"/>
<path d="M107.201 30.4041C104.497 30.4041 101.793 30.4041 99.0889 30.4041C99.0889 29.5531 99.0889 28.6991 99.0859 27.8481C101.79 27.8481 104.497 27.8481 107.201 27.8481C107.201 28.6991 107.201 29.5501 107.201 30.401V30.4041Z" fill="#DCE7ED"/>
<path d="M99.0859 27.848C99.0859 28.699 99.0859 29.5529 99.0889 30.4039C98.9724 30.4039 98.8529 30.4099 98.7363 30.413C98.7363 29.556 98.7363 28.702 98.7363 27.845C98.8529 27.845 98.9694 27.845 99.0859 27.848Z" fill="#B9CACA"/>
<path d="M98.2827 42.9693C101.261 42.9693 104.24 42.9693 107.222 42.9663C107.222 48.392 107.222 53.7633 107.222 59.1347H107.201C107.177 59.1347 107.306 61.0116 106.956 61.5035C106.532 62.104 104.581 61.8113 99.0894 59.1347C98.4709 58.3561 94.8797 53.6969 96.0718 47.8669C96.5199 45.6761 97.4999 44.0255 98.2827 42.9663V42.9693Z" fill="#DCE7ED"/>
<path d="M120.804 35.6907C120.92 35.7299 121.04 35.7691 121.156 35.8114C121.109 36.1071 121.073 36.4058 121.013 36.6986C120.953 37.0033 120.932 37.3685 120.451 37.2085C120.451 36.7468 120.451 36.2821 120.448 35.8204L120.801 35.6907H120.804Z" fill="#004C99"/>
<path d="M95.3699 41.6717C95.8688 42.2752 96.326 42.4653 96.6636 42.5197C97.1476 42.5981 97.4673 42.4171 97.9603 42.5981C98.3337 42.7339 98.5847 42.9964 98.7401 43.1986C98.7401 48.3557 98.7311 53.5098 98.752 58.6669C98.752 59.2281 98.6056 59.3851 98.0469 59.382C93.1739 59.3609 88.2979 59.37 83.4249 59.37C83.389 58.8962 83.3502 58.4255 83.3143 57.9517C83.0634 56.7869 82.2089 56.0929 81.0018 56.0898C77.3598 56.0808 73.7177 56.0778 70.0756 56.0717C69.8575 55.942 68.4622 55.088 68.2322 53.4585C68.1874 53.1416 68.0499 52.173 68.6714 51.3009C69.1076 50.6913 69.6962 50.4348 69.9591 50.3413C70.0368 50.2628 70.1145 50.1874 70.1922 50.1089C70.3744 50.0788 70.5567 50.0275 70.7389 50.0063C70.8674 49.9913 70.8913 50.0003 70.9212 49.9943C71.2887 49.9068 70.8465 48.2893 71.2648 47.7582C72.2716 46.4878 78.516 51.0866 80.4999 49.3726C80.6284 49.261 81.0974 49.1161 81.0974 47.725C81.1005 44.3556 81.0885 40.5492 81.1094 36.9582C81.1094 36.4392 80.9958 36.2581 80.4431 36.2642C76.9863 36.2913 73.5295 36.2762 70.0697 36.2762C70.0697 36.24 70.0697 36.2008 70.0697 36.1646C73.7087 36.1616 77.3508 36.1585 80.9899 36.1555C84.9546 36.1585 88.9193 36.1616 92.8841 36.1736C93.1291 36.1736 93.3711 36.246 93.6161 36.2853C93.6191 36.928 93.6699 37.5708 93.6191 38.2075C93.4936 39.7404 94.0643 40.8901 95.3729 41.6717H95.3699Z" fill="#DCE7ED"/>
<path d="M95.3693 41.4393C94.0637 40.6577 93.49 39.508 93.6155 37.9751C93.6663 37.3383 93.6155 36.6926 93.6155 36.0528C93.6245 36.0106 93.6334 35.9714 93.6454 35.9321C95.3424 35.9321 97.0424 35.9321 98.7395 35.9321C98.7395 37.8453 98.7335 39.7554 98.7335 41.6686C97.6131 41.5932 96.4927 41.5177 95.3753 41.4423L95.3693 41.4393Z" fill="#004C99"/>
<path d="M98.7337 35.6936C97.0337 35.6936 95.3366 35.6906 93.6366 35.6875C93.6336 34.9301 93.6217 34.1727 93.6276 33.4183C93.6396 31.9759 94.6225 30.8081 96.0537 30.5244C96.7857 30.5274 97.5177 30.5486 98.2467 30.5274C98.6261 30.5154 98.7456 30.6481 98.7426 31.0284C98.7247 32.5824 98.7337 34.1365 98.7337 35.6936Z" fill="#004C99"/>
<path d="M55.3478 86.5674C55.2941 86.9537 55.2403 87.3399 55.1865 87.7232C54.5382 89.2953 53.4297 90.2972 51.7297 90.5597C48.2848 90.5597 44.8369 90.5597 41.3921 90.5537C41.2008 90.5537 41.0096 90.5386 40.8184 90.5295C40.8184 90.0316 40.8184 89.5337 40.8154 89.0358C42.393 87.7956 44.0691 87.4637 44.9415 88.1487C45.1148 88.2844 45.321 88.5108 45.4674 88.9061C48.5806 88.894 52.13 86.2264 53.122 83.1605C53.1937 83.0006 53.2654 82.8407 53.3371 82.6777C53.349 82.6415 53.358 82.6053 53.367 82.5691C53.9794 82.5691 54.5949 82.5721 55.2074 82.5751C55.2463 82.7984 55.312 83.0248 55.315 83.2481C55.3359 84.3555 55.3389 85.463 55.3508 86.5704L55.3478 86.5674Z" fill="#004C99"/>
<path d="M34.7771 88.6738C34.6815 88.1397 34.5858 87.6056 34.4873 87.0714C34.3887 85.3303 34.2871 83.5921 34.1885 81.851C34.8786 81.5583 35.8377 81.2444 37.0059 81.1207C38.9241 80.9185 40.4777 81.3259 41.374 81.6398C41.7654 82.8166 42.1419 84.253 42.3659 85.9157C42.5243 87.0926 42.5781 88.1729 42.5751 89.1264C41.1977 88.9997 40.0743 88.9937 39.2766 89.0148C38.2608 89.0419 37.2659 88.9725 35.8377 88.8941C35.4822 88.876 35.1326 88.7523 34.7801 88.6738H34.7771Z" fill="#004C99"/>
<path d="M34.7775 88.6741C35.13 88.7495 35.4796 88.8732 35.8351 88.8944C36.9794 88.9577 38.1267 88.9849 39.274 89.0151C39.7521 89.0271 40.2331 89.006 40.7111 89.003L40.7619 89.009L40.8127 88.997V89.0392C40.8127 89.5371 40.8127 90.035 40.8127 90.5329C39.767 90.542 38.7213 90.551 37.6756 90.5601C37.571 90.548 37.4634 90.5389 37.3589 90.5269C36.2952 90.1949 35.3631 89.6789 34.7715 88.6741H34.7775Z" fill="#004C99"/>
<path d="M34.0909 77.7682C34.0909 77.6535 34.0879 77.5359 34.085 77.4212C34.085 75.8068 34.085 74.1923 34.085 72.5115H36.2989C36.2989 71.9653 36.2899 71.4886 36.2989 71.0088C36.3198 70.0974 36.3497 69.1891 36.3766 68.2778C36.3766 69.6629 36.3766 71.051 36.3766 72.4874H38.713C39.2627 72.4874 39.8155 72.4874 40.3652 72.4874C40.4758 72.4934 40.5863 72.4995 40.6968 72.5055C40.6968 74.2527 40.6998 75.9969 40.7028 77.7441L40.6968 77.7803C38.4949 77.7742 36.2899 77.7712 34.0879 77.7652L34.0909 77.7682Z" fill="#16557F"/>
<path d="M38.7153 72.4844C37.9086 72.4934 37.1049 72.4994 36.2982 72.5085C36.0114 70.2302 36.2384 68.4136 36.4774 67.2428C36.6627 66.3254 36.8599 65.393 37.4634 64.3066C37.7711 63.7484 38.6675 62.4448 40.248 61.3916C40.4213 61.277 40.6244 61.2045 40.8157 61.114C40.968 62.0223 41.1204 62.9306 41.2758 63.8419C41.0248 63.8359 40.8396 63.8872 40.8157 63.9777C40.8127 63.9928 40.8127 64.0109 40.8186 64.032C40.735 64.0743 40.6513 64.1165 40.5677 64.1588C40.4093 64.3489 40.2689 64.5601 40.0896 64.7231C39.0887 65.6344 38.778 66.8354 38.7362 68.1179C38.6884 69.5724 38.7212 71.0299 38.7183 72.4844H38.7153Z" fill="#004C99"/>
<path d="M34.0908 77.7683C36.8246 77.7623 39.5584 77.7563 42.2892 77.7502C42.2175 78.387 42.083 79.1383 41.8321 79.9652C41.5064 81.0364 41.0822 81.9115 40.6967 82.5724C37.5536 82.5543 35.2949 82.5784 34.7959 82.5845C34.3 82.5905 34.1715 82.4275 34.1894 81.9508C34.2073 81.4559 34.1356 80.9549 34.1028 80.457C34.0998 79.5608 34.0968 78.6616 34.0908 77.7653V77.7683Z" fill="#004C99"/>
<path d="M26.439 27.8268C26.436 25.9167 26.4061 24.0065 26.433 22.0964C26.4629 20.0535 28.3332 18.1313 30.335 18.1131C33.7888 18.086 37.2457 18.1131 40.6995 18.1131C40.6995 21.348 40.6995 24.5829 40.6995 27.8178C35.946 27.8178 31.1925 27.8208 26.439 27.8238V27.8268ZM30.09 20.9195C29.2236 20.9135 28.5424 21.5593 28.5364 22.3891C28.5304 23.1948 29.2684 23.9492 30.0482 23.9311C30.9146 23.913 31.5361 23.2763 31.5391 22.4012C31.5391 21.5562 30.9236 20.9256 30.093 20.9195H30.09ZM38.3123 20.9195C37.4219 20.9195 36.7527 21.5864 36.7736 22.4585C36.7885 23.222 37.5444 23.9522 38.2974 23.9311C39.11 23.907 39.7733 23.2431 39.7793 22.4464C39.7853 21.5653 39.1668 20.9195 38.3123 20.9195ZM34.1683 20.9195C33.3108 20.9195 32.6894 21.5532 32.6923 22.4344C32.6923 23.2521 33.4034 23.9492 34.2191 23.9311C34.963 23.913 35.707 23.2129 35.689 22.4706C35.6651 21.4838 35.0288 20.9105 34.1713 20.9195H34.1683Z" fill="#004C99"/>
<path d="M26.4389 27.8268C31.1924 27.8268 35.9459 27.8238 40.6994 27.8208V27.8449C40.6994 30.2651 40.6874 32.6882 40.7084 35.1083C40.7114 35.5761 40.5739 35.7028 40.1198 35.6998C35.5545 35.6847 30.9922 35.6877 26.4269 35.6877L26.418 35.6907C26.4239 33.0684 26.4299 30.4461 26.4359 27.8238L26.4389 27.8268Z" fill="#DCE7ED"/>
<path d="M107.213 59.4815C107.255 62.9699 106.43 66.2259 104.598 69.1982C103.212 71.4494 101.396 73.275 99.1966 74.7174C99.1578 74.4972 99.0861 74.2739 99.0861 74.0536C99.0801 69.1982 99.0801 64.3399 99.0801 59.4845C101.787 59.4845 104.491 59.4845 107.198 59.4845L107.21 59.4785L107.213 59.4815Z" fill="#DCE7ED"/>
<path d="M110.111 70.1519C110.111 70.698 110.111 71.2442 110.111 71.7904C109.782 71.3921 109.782 70.5502 110.111 70.1519Z" fill="#004C99"/>
<path d="M98.7305 80.4599C89.1757 80.4599 79.6209 80.4599 70.0661 80.4629C70.0661 79.6572 70.078 78.8515 70.0571 78.0458C70.0511 77.8768 69.9197 77.7109 69.845 77.5419L69.833 77.5298C69.833 77.4936 69.833 77.4574 69.842 77.4212C69.9167 77.4212 69.9914 77.4212 70.0661 77.4182C76.8931 77.4182 83.7171 77.4182 90.5441 77.4242C92.1216 77.4242 93.6603 77.1677 95.1333 76.6366C96.3612 76.193 97.5384 75.5986 98.7365 75.0735C98.7365 76.869 98.7365 78.6644 98.7335 80.4599H98.7305Z" fill="#95B1C1"/>
<path d="M70.0664 34.2875C72.9406 34.2875 75.8148 34.2996 78.692 34.2845C79.7616 34.2785 80.5654 34.6526 80.9836 35.6967H80.9777C77.3416 35.6967 73.7085 35.6967 70.0724 35.6967C70.0724 35.229 70.0724 34.7613 70.0724 34.2905L70.0664 34.2875Z" fill="#D8DBD2"/>
<path d="M71.9277 27.8391V26.0618C72.3281 26.6924 72.6538 27.2085 72.9794 27.7215C72.6299 27.7607 72.2803 27.7999 71.9277 27.8391Z" fill="#004C99"/>
<path d="M80.992 26.3241C81.3386 26.303 81.4611 26.4871 81.4491 26.813C81.4372 27.154 81.4431 27.498 81.4431 27.839C81.2101 27.839 80.9771 27.839 80.744 27.839C80.8307 27.335 80.508 26.7617 80.992 26.3241Z" fill="#004C99"/>
<path d="M69.295 25.0628C67.7593 26.3242 65.6798 26.5294 64.1202 25.603C62.3753 24.5649 62.0795 22.5914 62.0347 22.2383C62.0138 22.0844 61.7569 19.9208 62.6442 19.5044C63.9529 18.8888 66.4775 20.8804 66.5343 20.7899C66.5881 20.7024 63.7318 19.3052 63.8782 18.6202C64.2487 16.87 84.2934 19.1151 84.2725 20.8864C84.2695 21.2365 81.4641 22.009 75.8531 23.5389C74.1202 24.0127 72.6353 24.408 71.491 24.7067C70.759 24.8274 70.024 24.9451 69.292 25.0658L69.295 25.0628Z" fill="#004C99"/>
<path d="M55.6738 35.6936C55.9756 34.7944 56.6717 34.2905 57.6368 34.2874C61.6643 34.2844 65.6917 34.2844 69.7192 34.2844V34.2905C69.7192 34.5047 69.7192 34.719 69.7192 34.9362C69.7192 35.4412 69.4683 35.6936 68.9663 35.6936C64.5355 35.6936 60.1076 35.6936 55.6768 35.6936H55.6738Z" fill="#D8DBD2"/>
<path d="M64.2847 26.3301C64.437 26.4055 64.5864 26.4779 64.7388 26.5534C64.7388 26.7435 64.7089 26.9366 64.7388 27.1207C64.8195 27.679 64.6372 27.9566 64.0426 27.8419C64.1054 27.3349 63.8395 26.7737 64.2876 26.3301H64.2847Z" fill="#004C99"/>
<path d="M99.0859 59.2492C99.0859 59.21 99.0859 59.1738 99.0859 59.1345C101.79 59.1345 104.494 59.1345 107.198 59.1345C107.201 59.1738 107.207 59.213 107.21 59.2522C104.503 59.2522 101.793 59.2522 99.0859 59.2522V59.2492Z" fill="#D7E5E2"/>
<path d="M70.0653 36.0408C73.567 35.7783 75.5508 36.1434 77.7797 36.0288C78.679 35.9835 79.5963 36.2883 80.4776 36.1072C80.5553 36.0921 80.8093 36.0318 80.9706 36.1706C81.1469 36.3215 81.1051 36.6293 81.1051 36.7258C81.0991 37.7397 81.0961 38.7537 81.0931 39.7706C81.0931 41.2402 81.0991 46.6349 81.0931 47.4927C81.0871 48.3504 81.1469 48.751 80.6211 49.2821C80.0773 49.8283 79.2168 49.777 78.8523 49.7559C75.4971 49.5657 72.2733 49.3817 70.1699 50.3051C69.5036 50.5978 68.5177 51.1892 67.5586 52.5381C68.1353 51.1289 68.5207 49.602 67.8455 48.8777C67.1613 48.1475 65.8616 48.7329 65.6136 48.2229C65.264 47.5017 67.3465 45.2747 70.0175 44.466C71.6459 43.9741 73.809 43.9107 74.0809 44.6199C74.2303 45.0122 73.7731 45.5644 73.313 46.005V44.9458H70.0683C69.2527 45.9838 67.9918 46.4818 66.8117 46.2343C65.7749 46.017 64.8368 45.2325 64.5619 44.288C63.9584 42.2179 66.3964 38.9407 68.7179 38.8563C71.7295 38.7476 77.7137 43.5956 77.2359 43.6543C76.7582 43.713 77.7289 43.5728 77.8365 43.5456V42.4834C75.2102 42.4834 72.6378 42.4834 70.0653 42.4834C70.0863 42.3627 70.1102 42.1485 70.0564 41.901C69.7038 40.2081 66.5428 40.0814 66.5219 39.3783C66.495 38.3644 73.0292 36.6956 74.1108 38.5122C74.5828 39.3029 74.2661 41.1557 74.5679 41.1949C74.5918 41.1949 74.6336 41.1949 74.7173 41.1798C74.8637 41.1557 75.0101 41.1014 75.1595 41.0682V40.018H69.9428C69.9428 39.5624 69.9399 39.1037 69.9369 38.648C72.5571 38.648 75.1804 38.648 77.8066 38.648V37.5587C74.8517 38.3855 71.8968 39.2093 68.942 40.0361C64.6008 38.4006 64.4125 37.5828 64.4603 37.2992C64.6008 36.4482 67.4869 36.234 70.0594 36.0408H70.0653Z" fill="#F5FAEE"/>
<path d="M70.0718 55.8393C73.7139 55.8453 77.3559 55.8483 80.998 55.8574C82.208 55.8574 83.0595 56.5514 83.3105 57.7193C83.3673 58.0723 83.4121 58.4465 83.445 58.8358C83.5645 60.3144 83.442 61.6331 83.2358 62.7225C83.194 62.3151 83.0087 60.8606 82.223 60.1243C82.1393 60.0458 82.0736 59.9553 81.9451 59.8919C81.3894 59.6173 80.7948 60.1967 80.496 59.9794C80.3945 59.904 80.3078 59.7199 80.3945 59.2281C80.3795 59.216 80.3467 59.1918 80.3317 59.1798C80.3108 59.1647 80.2899 59.1466 80.269 59.1315C79.7103 58.4797 78.9364 58.4767 78.2732 59.1224C77.5203 59.1224 76.7673 59.1164 76.0144 59.1345C75.6589 59.1436 75.3033 59.2039 74.9508 59.2431C74.903 59.2069 74.8522 59.1677 74.8044 59.1315C74.1979 58.4767 73.5286 58.4737 72.7518 59.1224C71.8585 59.1224 70.9651 59.1224 70.0718 59.1224C70.0718 58.2443 70.0837 57.3632 70.0628 56.4851C70.0598 56.31 69.9254 56.138 69.8507 55.963C69.8447 55.9328 69.8447 55.9057 69.8447 55.8755C69.9224 55.8604 70.0001 55.8483 70.0748 55.8333L70.0718 55.8393Z" fill="#004C99"/>
<path d="M69.845 77.5418C70.1617 77.5901 74.733 78.2992 74.7121 79.1231C74.6912 79.9378 70.1886 80.4146 69.845 80.4508C67.416 80.5262 65.4501 80.4991 64.0847 80.4599C62.5759 80.4146 61.0641 80.4568 59.5582 80.3573C59.0413 80.3241 57.7656 80.2305 56.1134 80.478C55.8385 80.5202 55.6114 80.5594 55.459 80.5896C55.4531 81.2505 55.4471 81.9143 55.4411 82.5752C55.4411 82.6144 55.4411 82.6537 55.4411 82.6929C55.4411 82.7713 55.4441 82.8528 55.4471 82.9313C55.4411 83.9392 55.4411 84.947 55.4292 85.9519C55.4292 86.1571 55.3754 86.3653 55.3485 86.5705C55.3395 85.463 55.3336 84.3556 55.3126 83.2481C55.3096 83.0218 55.2409 82.7985 55.2051 82.5752C55.2439 82.4726 55.3126 82.37 55.3126 82.2674C55.3216 80.7676 55.3246 79.2679 55.3246 77.7651C55.3246 76.0149 55.3216 74.2617 55.3186 72.5115C55.3575 72.6744 55.4262 72.8344 55.4292 72.9973C55.459 74.2044 55.4531 74.2225 56.6153 74.2496C56.9798 74.2587 57.0814 74.3914 57.0694 74.7355C57.0515 75.4174 57.0963 76.1054 57.0545 76.7844C57.0216 77.3064 57.1889 77.4422 57.7028 77.4392C61.7034 77.4181 65.707 77.4302 69.7076 77.4302C69.7465 77.4634 69.7883 77.4996 69.8271 77.5328L69.8391 77.5448L69.845 77.5418Z" fill="#95B1C1"/>
<path d="M53.4782 83.0522C53.0718 83.8609 51.8827 86.0547 49.7644 87.4941C49.2894 87.817 48.3751 88.4417 47.0426 88.7525C46.4839 88.8822 45.7788 88.9335 45.465 88.9637C45.3186 88.9758 45.0468 88.9999 43.6425 89.0724C43.0509 89.1025 42.7522 89.1176 42.5729 89.1267C41.088 89.19 39.2804 89.1448 39.2744 89.015C39.2685 88.9064 40.5054 89.187 41.0402 88.5171C41.8409 87.5153 41.0492 84.3649 41.0402 83.4355C41.0372 83.0643 41.1866 82.9677 41.5212 82.9798C42.062 82.9979 42.5998 82.9828 43.1406 82.9828C43.8576 83.0884 44.0668 83.2967 44.1176 83.4687C44.1863 83.6889 43.9981 83.8398 43.9234 84.4524C43.9025 84.6153 43.9025 84.721 43.8457 84.8899C43.7859 85.071 43.7053 85.1857 43.7441 85.2249C43.7919 85.2702 43.9473 85.1193 44.01 85.1615C44.1475 85.2521 43.768 86.1664 43.7232 86.1513C43.6903 86.1392 43.7322 85.6202 44.01 85.4844C44.2251 85.3788 44.3865 85.5991 44.7211 85.5991C45.2021 85.5991 45.7549 85.1495 45.8564 84.6636C45.9491 84.2049 45.5696 83.9575 45.7339 83.5109C45.8027 83.3268 45.9341 83.1518 46.1522 82.9889C46.0955 82.7957 46.0477 82.5392 46.0925 82.2465C46.4659 79.9049 52.4862 78.2663 53.7859 79.8747C54.1415 80.3153 54.2968 81.1873 53.4662 83.0552L53.4782 83.0522Z" fill="#004C99"/>
<path d="M55.3276 77.7651C55.3276 79.2649 55.3246 80.7646 55.3157 82.2674C55.3157 82.37 55.244 82.4726 55.2081 82.5752C54.5956 82.5752 53.9801 82.5722 53.3677 82.5692L53.3438 82.5812C53.3856 82.4726 53.4364 82.37 53.4662 82.2584C53.8606 80.7888 53.8278 79.286 53.8218 77.7832C54.3237 77.7772 54.8287 77.7712 55.3306 77.7651H55.3276Z" fill="#004C99"/>
<path d="M38.7153 72.4845C38.7153 71.03 38.6854 69.5725 38.7332 68.1181C38.775 66.8356 39.0858 65.6346 40.0867 64.7232C40.2689 64.5573 40.4063 64.3491 40.5677 64.159C40.7589 63.8813 40.9172 63.8029 41.0427 63.8089C41.7956 63.8542 42.6292 67.0227 41.6283 67.9491C41.3475 68.2086 40.3824 68.8362 40.6932 68.616C42.3693 69.7989 42.8623 71.3771 42.3902 72.0591C41.9211 72.735 40.5229 72.5117 40.3675 72.4876C39.8178 72.4876 39.265 72.4876 38.7153 72.4876V72.4845Z" fill="#95B1C1"/>
<path d="M40.3672 72.4876C40.4419 71.2624 40.5136 70.0403 40.5913 68.8151C40.5943 68.7457 40.657 68.6824 40.6929 68.616C40.6929 69.9045 40.6988 71.193 40.7018 72.4845V72.5057C40.5883 72.4996 40.4777 72.4936 40.3672 72.4876Z" fill="#C4D9D4"/>
<path d="M40.8132 61.1139C40.9268 61.0113 41.0702 60.8997 41.2674 60.8122C41.357 60.7699 41.4347 60.7458 41.4825 60.7307C41.3391 60.785 41.2674 60.8122 41.2674 60.8122C41.2674 60.8122 41.4795 60.7337 41.4825 60.7307C43.6217 59.8496 45.761 59.8405 47.9091 60.7035C49.4478 61.3222 50.637 62.3753 51.6289 63.6849C52.5372 65.1002 53.066 66.6452 53.1108 68.3321C53.1467 69.7141 53.1138 71.0992 53.1108 72.4813C52.337 72.4813 51.5662 72.4813 50.7923 72.4843C50.7923 71.1233 50.8192 69.7594 50.7863 68.3984C50.7565 67.1522 50.4338 65.9844 49.6301 64.9916C49.3881 64.6476 48.0914 62.8611 45.6773 62.4719C42.7135 61.9951 40.6429 64.032 40.4338 64.2432C40.2934 64.1527 39.4658 63.6125 39.4688 62.8551C39.4688 62.318 39.9199 61.9136 40.8162 61.1049L40.8132 61.1139Z" fill="#004C99"/>
<path d="M41.1684 63.5884C43.7349 61.5847 47.8072 62.1671 49.6327 65.0006C49.4743 64.9342 49.31 64.8769 49.1546 64.8015C47.0662 63.8117 45.0106 63.8962 43.1343 65.233C42.3247 65.8094 41.742 66.7086 41.0578 67.463C41.0549 66.2469 41.0489 65.0278 41.0459 63.8087C41.0877 63.7363 41.1296 63.6608 41.1714 63.5884H41.1684Z" fill="#95B1C1"/>
<path d="M51.6284 63.6881C50.6395 62.3754 49.4474 61.3223 47.9087 60.7067C45.7605 59.8436 43.6213 59.8527 41.4821 60.7338C41.3416 60.7912 41.1922 60.8364 41.0488 60.8907C41.0488 59.3216 41.0488 57.7494 41.0518 56.1803C40.9921 41.9522 42.2798 38.2225 43.6601 37.975C43.8005 37.9509 43.9073 37.6159 44.6124 37.628C47.0146 37.6612 48.7303 37.7427 49.537 37.628C56.5911 36.6352 57.5143 36.2671 58.082 36.9098C59.1665 38.141 56.612 40.1266 57.3769 43.0084C57.9625 45.2173 60.9861 46.9192 67.0064 50.2325C69.0291 51.343 70.0389 51.9013 70.6096 52.0823C77.0572 54.1222 83.5017 49.4721 83.5585 49.5988C83.6063 49.7045 79.1695 53.1355 70.7948 55.5556C63.5555 57.6468 57.4127 58.4827 53.3255 58.8569C53.3135 59.0168 53.2478 59.9945 53.2299 60.758C53.2149 61.4369 53.2418 61.7779 53.2478 62.0163C53.2837 63.2897 54.2188 64.2916 55.4378 64.2946C60.1973 64.3067 64.9538 64.2946 69.7133 64.2886C69.7551 64.3006 69.7939 64.3127 69.8358 64.3278C69.8358 64.361 69.8358 64.3912 69.8358 64.4244C69.7969 64.6477 69.7282 64.8679 69.7282 65.0912C69.7193 69.2073 69.7193 73.3233 69.7163 77.4393C65.7157 77.4393 61.7121 77.4272 57.7115 77.4484C57.2006 77.4484 57.0303 77.3156 57.0632 76.7935C57.108 76.1146 57.0632 75.4266 57.0781 74.7446C57.0871 74.4006 56.9885 74.2678 56.624 74.2587C55.4617 74.2316 55.4647 74.2165 55.4378 73.0064C55.4348 72.8435 55.3661 72.6836 55.3273 72.5206C55.1749 72.5116 55.0225 72.5055 54.8701 72.4965C54.8701 71.8537 54.8582 71.211 54.8642 70.5682C54.8791 68.8783 54.5385 67.2669 53.5854 65.8728C53.0387 65.0762 52.2917 64.4183 51.6344 63.7001L51.6284 63.6881Z" fill="#DCE7ED"/>
<path d="M30.0899 20.9194C30.9204 20.9255 31.5389 21.5562 31.5359 22.4011C31.5359 23.2732 30.9145 23.9129 30.045 23.931C29.2682 23.9461 28.5273 23.1947 28.5332 22.389C28.5392 21.5592 29.2204 20.9164 30.0869 20.9194H30.0899Z" fill="#1E1E1E"/>
<path d="M38.3125 20.9194C39.164 20.9194 39.7825 21.5652 39.7795 22.4463C39.7735 23.243 39.1102 23.9069 38.2975 23.931C37.5446 23.9521 36.7887 23.2219 36.7738 22.4584C36.7559 21.5863 37.4221 20.9194 38.3125 20.9194Z" fill="#1E1E1E"/>
<path d="M34.1684 20.9195C35.0259 20.9105 35.6623 21.4838 35.6862 22.4706C35.7041 23.2129 34.9601 23.913 34.2162 23.9311C33.4005 23.9492 32.6895 23.2522 32.6895 22.4344C32.6895 21.5502 33.3079 20.9165 34.1654 20.9195H34.1684Z" fill="#1E1E1E"/>
<path d="M98.7363 59.4875C98.7752 59.4875 98.814 59.4875 98.8529 59.4875C98.8499 64.6416 98.8469 69.7927 98.8439 74.9468C98.808 74.9558 98.7722 74.9588 98.7363 74.9588C98.7363 69.8017 98.7363 64.6446 98.7363 59.4906V59.4875Z" fill="#D7E5E2"/>
<path d="M106.953 59.2523C106.409 63.8028 104.784 70.1398 99.7553 74.2951C99.4207 74.5727 99.0801 74.8322 98.7335 75.0736C97.5354 75.6017 96.3583 76.1931 95.1303 76.6367C93.2032 77.3308 91.5659 77.37 90.5411 77.4243C87.398 77.5993 79.2265 77.6989 68.3242 77.5299C68.8889 72.2039 68.1031 69.9014 67.2307 68.797C66.9857 68.4862 66.0715 67.43 66.0625 65.9966C66.0625 65.7764 66.0565 64.9103 66.5196 64.2796C67.1441 63.4287 68.375 63.3532 71.9125 63.5826C73.7649 63.7033 79.0234 64.0865 80.2782 63.4015C80.568 63.2446 80.9504 62.8613 81.551 62.8613C81.7571 62.8613 82.1306 62.9066 82.3129 62.6803C82.3876 62.5898 82.3696 62.5264 82.4413 62.4479C82.5429 62.3363 82.767 62.2608 83.3138 62.4208C83.3496 61.772 83.3885 61.1202 83.4153 60.4714C83.4303 60.1425 83.4243 59.8136 83.4273 59.4846C83.3645 58.3681 83.6155 57.5775 83.989 57.0042C87.4936 51.6389 105.988 58.863 106.95 59.2432L106.953 59.2523Z" fill="#DCE7ED"/>
<path d="M80.9776 35.8114C77.3415 35.8114 73.7054 35.8114 70.0693 35.8114C70.0693 35.7722 70.0693 35.736 70.0693 35.6968C73.7054 35.6968 77.3385 35.6968 80.9746 35.6968C80.9746 35.736 80.9776 35.7752 80.9746 35.8145L80.9776 35.8114Z" fill="#D9DBD5"/>
<path d="M69.8327 34.2905C69.8327 34.7945 69.8327 35.3014 69.8327 35.8054C65.2943 35.8054 60.7559 35.8084 56.2175 35.8054C56.0383 35.8054 55.856 35.7329 55.6768 35.6937C60.1076 35.6937 64.5354 35.6937 68.9663 35.6937C69.4682 35.6937 69.7192 35.4412 69.7192 34.9363C69.7192 34.722 69.7192 34.5078 69.7192 34.2905C69.758 34.2905 69.7939 34.2905 69.8327 34.2905Z" fill="#D9DBD5"/>
<path d="M69.6051 50.6973C69.3153 51.2012 69.0285 51.7112 68.7357 52.2121C68.4489 52.704 68.1471 52.6949 67.8543 52.185C67.5257 51.6116 67.191 51.0413 66.8833 50.4589C66.6234 49.967 66.2768 49.7347 65.6852 49.7407C63.056 49.7709 60.4268 49.7558 57.7976 49.7528C56.4142 49.7528 55.5597 48.8897 55.5597 47.5016C55.5597 43.9107 55.5687 40.3167 55.5508 36.7258C55.5508 36.2158 55.6464 36.0227 56.2081 36.0257C60.7524 36.0528 65.2938 36.0408 69.8382 36.0438C69.8382 36.5869 69.8352 37.1301 69.8322 37.6733C69.6261 37.6401 69.4199 37.5767 69.2137 37.5767C65.8914 37.5707 62.572 37.5707 59.2496 37.5767C59.0823 37.5767 58.918 37.6039 58.7507 37.6159V38.6118H69.9577L69.9458 38.648C69.9458 39.1036 69.9487 39.5623 69.9517 40.018C69.9099 40.0602 69.8711 40.0994 69.8292 40.1417C69.6231 40.1055 69.4169 40.0391 69.2137 40.0361C66.8176 40.03 64.4184 40.03 62.0222 40.0331C61.8549 40.0331 61.6876 40.0572 61.5203 40.0723V41.1013H69.8382C69.8382 41.566 69.8382 42.0277 69.8382 42.4924C69.8382 42.4924 69.8472 42.5075 69.8472 42.5045C66.1453 42.5045 62.4405 42.5045 58.6461 42.5045C58.7148 42.9149 58.7656 43.2287 58.8164 43.5425C62.4525 43.5425 66.0886 43.5425 69.7217 43.5425C69.7605 43.5516 69.7993 43.5576 69.8352 43.5667C69.8352 44.0284 69.8352 44.4931 69.8382 44.9548C69.8382 44.9548 69.8472 44.9699 69.8472 44.9668C67.7976 44.9608 65.7509 44.9548 63.7014 44.9548C63.5789 44.9548 63.4564 45.0272 63.3339 45.0664C63.3339 45.3833 63.3339 45.7001 63.3339 46.014C63.534 46.0502 63.9717 45.8753 64.1719 45.8753C66.2872 45.631 67.7916 46.1256 69.7217 46.1256C69.7217 47.3055 69.7157 48.4884 69.7247 49.6683C69.7247 49.8916 69.7874 50.1119 69.8233 50.3352C69.8233 50.3744 69.8232 50.4136 69.8262 50.4559C69.7515 50.5373 69.6798 50.6188 69.6051 50.6973Z" fill="#F5FAEE"/>
<path d="M70.0457 42.4863H77.9543C77.9543 42.9329 77.9543 43.286 77.9543 43.636C75.4804 43.636 73.0036 43.636 70.5297 43.63C70.3236 43.63 70.1174 43.5606 69.9113 43.5244C69.8784 43.1864 69.8455 42.8484 69.8127 42.5105L69.8037 42.4954C69.8844 42.4954 69.9621 42.4893 70.0427 42.4893L70.0457 42.4863Z" fill="#95A9B7"/>
<path d="M69.9493 37.6825C69.9882 37.6432 70.03 37.601 70.0688 37.5618C72.6353 37.5618 75.2048 37.5618 77.8131 37.5618V38.6511C75.1869 38.6511 72.5636 38.6511 69.9434 38.6511L69.9553 38.6149C69.9553 38.3041 69.9523 37.9963 69.9493 37.6855V37.6825Z" fill="#95A9B7"/>
<path d="M69.8301 40.1447C69.8719 40.1025 69.9107 40.0632 69.9526 40.021C71.6675 40.021 73.3825 40.021 75.1692 40.021C75.1692 40.4223 75.1692 40.7452 75.1692 41.0711C73.5528 41.0772 71.9394 41.0832 70.3231 41.0832C70.1976 41.0832 70.0721 41.0198 69.9496 40.9866C69.9107 40.706 69.8719 40.4254 69.8331 40.1447H69.8301Z" fill="#95A9B7"/>
<path d="M73.3137 46.2736C72.3517 46.2767 71.3896 46.2887 70.4246 46.2736C70.2603 46.2736 70.0959 46.171 69.9346 46.1167C69.9047 45.6098 69.8718 45.1058 69.842 44.5989L69.833 44.5777C69.9107 44.5747 69.9884 44.5717 70.069 44.5657H73.3137V46.2736Z" fill="#95A9B7"/>
<path d="M72.7461 59.1286C73.5229 58.4798 74.1922 58.4829 74.7987 59.1377C74.1414 59.1739 73.4811 59.2071 72.8238 59.2433C72.7969 59.2041 72.773 59.1679 72.7461 59.1286Z" fill="#FAB142"/>
<path d="M78.2705 59.1286C78.9338 58.4828 79.7076 58.4858 80.2663 59.1376C79.609 59.1738 78.9487 59.213 78.2914 59.2493C78.2854 59.21 78.2765 59.1708 78.2705 59.1316V59.1286Z" fill="#FBB141"/>
<path d="M63.3311 46.0138C63.3311 45.6246 63.3311 45.2323 63.3311 44.843C65.2492 44.843 67.1703 44.8672 69.0884 44.8279C69.6083 44.8189 69.7935 45.018 69.7159 45.6397C69.7009 45.7574 69.7099 45.8781 69.7099 45.9988C67.5856 46.0048 65.4583 46.0078 63.334 46.0138H63.3311Z" fill="#95A9B7"/>
<path d="M69.8213 50.3382C69.7884 50.1149 69.7257 49.8946 69.7227 49.6713C69.7138 48.4915 69.7197 47.3085 69.7197 46.1287C69.7586 46.3308 69.8273 46.53 69.8303 46.7322C69.8422 47.9 69.8392 49.0648 69.8392 50.2326C69.8392 50.2688 69.8303 50.302 69.8213 50.3382Z" fill="#F7FAF2"/>
<path d="M81.0967 64.3098C78.3091 64.5482 73.23 64.337 71.5658 64.2887C70.6665 64.2646 69.9225 64.2676 69.4266 64.2766C68.2165 62.7286 68.1119 61.8595 68.3599 61.3405C68.6886 60.6465 69.7283 60.393 69.6506 60.058C69.5789 59.7442 68.6527 59.8468 68.5601 59.4937C68.4705 59.1497 69.319 58.9355 69.4385 58.2505C69.5371 57.6771 68.9724 57.4297 69.1128 56.7869C69.1338 56.6904 69.2831 56.0084 69.7194 55.8877C70.4454 55.6825 71.2043 57.2486 72.498 58.3199C72.5278 58.347 72.7519 58.4587 72.8505 58.7242C73.1702 59.5933 73.1433 59.9102 73.0118 60.0037C72.9521 60.0459 72.8595 60.052 72.8416 60.1184C72.8206 60.1878 72.8983 60.2723 73.1672 60.4926C73.4779 60.749 73.6363 60.8788 73.7976 60.9452C73.9709 61.0176 74.1143 61.0749 74.2846 61.0508C74.694 60.9905 74.9001 60.4956 74.924 60.4352C74.694 60.1787 74.3862 59.7593 74.4579 59.3187C74.673 57.9608 78.3241 57.2486 78.7394 57.9789C78.8409 58.1569 78.7872 58.4889 78.2763 59.1286C77.8669 59.9494 77.9446 60.8064 78.3988 61.2017C78.6886 61.4552 79.0919 61.4853 79.1756 61.4914C80.2661 61.5548 80.8607 60.737 80.6187 59.4967C81.515 59.4967 82.4083 59.4907 83.3046 59.4907C83.3106 60.4714 83.3166 61.4522 83.3196 62.4329C83.0686 63.5947 82.3456 64.2072 81.1027 64.3128L81.0967 64.3098Z" fill="#004C99"/>
<path d="M69.9501 37.6824C69.9501 37.9932 69.9531 38.301 69.9561 38.6118C66.2333 38.6118 62.5106 38.6118 58.749 38.6118V37.616C58.9163 37.6009 59.0837 37.5768 59.248 37.5768C62.5704 37.5768 65.8897 37.5738 69.2121 37.5768C69.4183 37.5768 69.6244 37.6402 69.8306 37.6733C69.8694 37.6733 69.9112 37.6794 69.9501 37.6824Z" fill="#95A9B7"/>
<path d="M54.8642 72.4875C55.0166 72.4966 55.1689 72.5026 55.3213 72.5117C55.3213 74.2649 55.3243 76.0151 55.3273 77.7684C54.8253 77.7744 54.3204 77.7804 53.8185 77.7865L53.8155 77.7472C53.8155 77.7171 53.8155 77.6839 53.8125 77.6537C53.8125 75.9367 53.8185 74.2197 53.8185 72.5026C54.168 72.4966 54.5146 72.4936 54.8642 72.4875Z" fill="#07324E"/>
<path d="M46.5222 81.6397C46.5281 81.8751 46.5162 82.2523 46.3787 82.6778C46.1666 83.3356 45.8917 83.3839 45.838 83.8728C45.8051 84.1594 45.8947 84.1655 46.068 85.2216C46.1606 85.7889 46.1487 85.8765 46.0889 85.961C45.8917 86.2386 45.3211 86.2205 44.7564 86.2024C44.6399 86.1993 44.5174 86.1903 44.4965 86.1873C44.2425 86.1631 43.9885 86.1179 43.7316 86.0877C43.5464 85.282 43.645 84.7418 43.7764 84.3918C43.872 84.1413 44.0393 83.8486 43.9198 83.5529C43.8182 83.3024 43.5762 83.2089 43.5852 82.9977C43.5942 82.8528 43.7137 82.7412 43.8153 82.6687C44.7176 82.3247 45.6199 81.9807 46.5222 81.6367V81.6397Z" fill="#95BBB1"/>
<path d="M43.7321 83.0281C44.261 83.3721 44.255 83.8066 44.0608 84.3709C43.8726 84.9171 43.8367 85.5146 43.7321 86.091C43.3587 86.0457 43.2571 85.8013 43.3288 85.4754C43.4035 85.1374 43.5081 84.8055 43.6156 84.4765C43.774 83.9817 43.8606 83.7342 43.7829 83.5863C43.7232 83.4747 43.6515 83.4626 43.29 83.0824C43.2272 83.016 43.1764 82.9617 43.1436 82.9255C43.1555 82.9134 43.2511 82.8169 43.2601 82.8048C43.272 82.7927 43.3676 82.6962 43.3766 82.6841C43.4095 82.6901 43.4423 82.6992 43.4722 82.7082C43.5559 82.8169 43.6425 82.9225 43.7262 83.0311L43.7321 83.0281Z" fill="#004C99"/>
<path d="M41.0519 82.6899C41.0519 80.5414 41.0519 78.3929 41.0519 76.2473C42.0199 75.7706 44.3802 74.7747 47.4755 75.0916C50.774 75.4296 52.9879 77.0651 53.8125 77.7441L53.8155 77.7833C53.8155 78.5347 53.8275 79.2861 53.7857 80.0344C53.7468 80.7587 53.6273 81.3079 53.457 82.2614C53.3166 83.052 53.1821 83.7099 53.0776 84.1867C50.3647 85.7166 47.7773 85.5808 46.8601 84.3406C46.6868 84.1052 46.3611 83.5439 46.4896 82.4606C46.7615 81.504 46.5404 80.7707 45.8382 80.2185C45.3244 79.8142 44.7537 79.9439 44.186 80.0012C43.9291 80.3241 43.0955 81.4557 43.209 83.0038C43.2538 83.6314 43.4421 84.1354 43.6094 84.4824C42.7549 83.8879 41.9004 83.2934 41.0459 82.699L41.0519 82.6899Z" fill="#004C99"/>
<path d="M44.1925 79.9951C44.7602 79.9377 45.3309 79.808 45.8448 80.2124C46.2272 80.5141 46.4214 80.8702 46.4871 81.0422C46.7321 81.6759 46.5469 82.2402 46.4961 82.385C46.4901 82.4152 46.4782 82.4665 46.4423 82.5178C46.4244 82.545 46.4035 82.5631 46.3885 82.5782C46.1883 82.554 45.9374 82.5419 45.6476 82.5782C45.2412 82.6264 44.9186 82.7441 44.6945 82.8467C44.5033 82.8679 44.2971 82.8829 44.076 82.886C43.9087 82.886 43.7503 82.886 43.598 82.8769C43.583 82.8437 43.5382 82.7351 43.4307 82.6958C43.4157 82.6898 43.4008 82.6868 43.3828 82.6838C43.3739 82.6445 43.3679 82.6053 43.3589 82.5661C43.3201 82.3398 43.2783 82.1104 43.2454 81.8811C43.1259 81.0301 43.7025 80.5352 44.1955 79.9951H44.1925Z" fill="#95BBB1"/>
<path d="M44.1919 79.9954C44.1261 80.0436 43.1581 80.7618 43.2418 81.8814C43.2836 82.4155 43.5435 82.7957 43.681 82.9677C43.7138 83.01 43.4838 82.8108 43.3643 82.8621C43.2985 82.8923 43.2716 82.9798 43.2597 83.0582C42.7518 82.3581 42.6831 81.4649 43.0804 80.8101C43.43 80.2307 44.0186 80.0436 44.1919 79.9954Z" fill="#004C99"/>
<path d="M41.0552 72.4843C40.9715 72.4813 40.846 72.4843 40.7026 72.5054C40.5413 72.5326 40.5203 72.5567 40.4875 72.5477C40.2813 72.4873 40.5174 71.4342 40.5652 70.1849C40.598 69.3098 40.5084 68.9628 40.7146 68.2868C40.8221 67.9338 40.9566 67.6531 41.0611 67.463C41.7453 66.7116 42.3279 65.8094 43.1376 65.233C45.0139 63.8962 47.0725 63.8147 49.1579 64.8015C49.3133 64.8739 49.4776 64.9343 49.636 65.0006C50.4397 65.9904 50.7594 67.1582 50.7922 68.4075C50.8251 69.7685 50.7982 71.1294 50.7982 72.4934C47.5535 72.4934 44.3058 72.4903 41.0611 72.4873L41.0552 72.4843Z" fill="#DCE7ED"/>
<path d="M54.8646 72.4874C54.5151 72.4934 54.1685 72.4965 53.8189 72.5025C53.5829 72.4995 53.3469 72.4934 53.1108 72.4904C53.1108 71.1084 53.1437 69.7233 53.1108 68.3412C53.066 66.6544 52.5372 65.1094 51.6289 63.6941C52.2862 64.4153 53.0331 65.0701 53.5799 65.8668C54.533 67.2609 54.8766 68.8723 54.8587 70.5622C54.8527 71.2049 54.8616 71.8477 54.8646 72.4904V72.4874Z" fill="#95B1C1"/>
<path d="M53.1143 72.4875C53.3503 72.4906 53.5863 72.4966 53.8224 72.4996C53.8224 74.2166 53.8164 75.9337 53.8164 77.6507C53.7805 77.6507 53.7417 77.6507 53.7058 77.6507C53.7058 76.1902 53.679 74.7296 53.7208 73.2691C53.7357 72.7078 53.5445 72.5962 53.0306 72.5992C49.039 72.6173 45.0474 72.6113 41.0557 72.6113C41.0557 72.5751 41.0557 72.5358 41.0527 72.4996C44.3004 72.4966 47.5481 72.4936 50.7988 72.4906C51.5726 72.4906 52.3434 72.4906 53.1173 72.4875H53.1143Z" fill="#A5D692"/>
<path d="M53.2246 59.4877C53.2276 59.4093 53.2306 59.3278 53.2336 59.2493L53.2485 59.2584C53.2336 59.0049 53.2485 58.6911 53.3591 58.3622C53.377 58.3078 53.3949 58.2565 53.4158 58.2083C53.8102 58.2596 54.2076 58.3139 54.6079 58.3712C55.8927 58.5553 56.8338 58.7092 56.9234 58.7243C57.8437 58.8721 61.2258 59.0381 71.1541 59.1528C59.4242 60.9482 56.299 61.2259 56.2602 61.0086C56.2303 60.8487 57.8377 60.2331 59.5019 60.5197C60.0247 60.6103 60.9091 60.8577 60.8942 61.0871C60.8732 61.4039 58.2799 61.428 58.25 61.1957C58.2321 61.072 58.9252 60.8336 60.924 60.4051C61.1182 60.1033 61.3124 59.7985 61.5037 59.4968C61.3244 60.6465 61.7516 61.3707 62.633 61.4914C63.5533 61.6182 64.5721 60.737 64.1508 59.4847C64.6707 59.4847 65.1905 59.4696 65.7104 59.4907C66.1227 59.5088 66.532 59.5692 66.9414 59.6114C66.8756 60.2542 66.9234 60.8577 67.527 61.256C68.3127 61.7751 69.1105 61.5005 69.711 60.5167C69.711 61.769 69.711 63.0244 69.711 64.2767C64.9515 64.2797 60.195 64.2948 55.4355 64.2827C54.2165 64.2797 53.2844 63.2809 53.2455 62.0044C53.2216 61.1655 53.2306 60.3266 53.2246 59.4847V59.4877Z" fill="#004C99"/>
<path d="M69.7198 59.2522C69.675 59.2582 69.6302 59.2642 69.5854 59.2703C69.5017 59.228 69.4181 59.1827 69.3344 59.1405C68.6502 58.4706 67.9182 58.4736 67.3028 59.1465L67.2639 59.1284C67.0518 59.1284 66.8397 59.1284 66.6275 59.1375C65.7252 59.1616 64.8229 59.1888 63.9206 59.2159C63.8818 59.1888 63.84 59.1646 63.8011 59.1375C63.2305 58.4796 62.4357 58.4827 61.8382 59.1435L61.7963 59.1254C61.2735 59.1284 60.7536 59.1254 60.2308 59.1405C59.6422 59.1616 59.0506 59.2039 58.462 59.2371L58.3276 59.1375C57.7181 58.4796 56.995 58.4796 56.3228 59.1314L53.2514 59.1254L53.2305 59.1405C53.2753 58.5792 53.2484 57.9998 53.3828 57.4627C53.6189 56.5333 54.4315 55.8785 55.3846 55.8754C60.162 55.8604 64.9365 55.8815 69.7139 55.8875C69.7169 56.9708 69.7198 58.0542 69.7228 59.1375C69.7228 59.1767 69.7169 59.2159 69.7139 59.2552L69.7198 59.2522Z" fill="#004C99"/>
<path d="M69.7161 43.5427C65.9575 43.5427 62.199 43.5427 58.4434 43.5427C58.4434 43.1534 58.4434 42.7611 58.4434 42.3236C58.7362 42.3236 58.9124 42.3236 59.0917 42.3236C62.4171 42.3236 65.7454 42.3387 69.0708 42.3085C69.6056 42.3024 69.8058 42.5016 69.7221 43.1655C69.7072 43.2892 69.7191 43.419 69.7191 43.5457L69.7161 43.5427Z" fill="#95A9B7"/>
<path d="M69.947 40.9867C69.9111 41.0259 69.8723 41.0652 69.8364 41.1044C67.0758 41.1044 64.3181 41.1044 61.5186 41.1044V40.0754C61.6889 40.0633 61.8562 40.0362 62.0205 40.0362C64.4167 40.0362 66.8158 40.0331 69.212 40.0392C69.4182 40.0392 69.6243 40.1086 69.8275 40.1448C69.8663 40.4254 69.9052 40.7061 69.944 40.9867H69.947Z" fill="#95A9B7"/>
<path d="M75.1744 59.6899C75.1923 59.7805 75.3357 60.55 74.8398 61.066C74.6127 61.3044 74.3378 61.3949 74.2333 61.4281C73.6985 61.591 73.1876 61.4945 72.7962 61.0841C72.357 60.6224 72.2524 60.0732 72.5362 59.4757C72.7842 58.8993 73.3638 58.5523 73.9464 58.6187C74.4334 58.673 74.8577 59.008 75.0519 59.4847L75.1744 59.6899Z" fill="#FEB140"/>
<path d="M77.9657 59.4876C78.0463 59.3729 78.1479 59.2492 78.2734 59.1285C78.3093 59.0953 78.3451 59.0621 78.378 59.0319C78.6379 59.0169 78.9218 59.0108 79.2205 59.0199C79.588 59.0289 79.9256 59.0591 80.2334 59.0983C80.2991 59.1225 80.4903 59.1979 80.577 59.391C80.5919 59.4273 80.6039 59.4635 80.6098 59.4967C80.8518 60.7369 80.2603 61.5547 79.1668 61.4913C78.2316 61.437 77.7476 60.6343 77.9627 59.4906L77.9657 59.4876Z" fill="#FDB140"/>
<path d="M40.5622 72.4888C47.6522 72.5975 52.7087 72.5206 53.2644 72.4693C53.3391 72.4632 53.4613 72.2882 53.6406 72.4693C53.9085 72.6727 53.9145 73.1829 53.9085 73.2734C53.8667 73.8015 53.9145 75.425 54.0131 77.7847C51.2733 77.6067 49.2297 77.6097 47.8225 77.6489C46.2987 77.6912 45.7699 77.7757 44.5031 77.7123C43.6396 77.6701 42.7373 77.5765 41.7484 77.6882C41.6199 77.7033 41.3151 77.7395 40.8969 77.7485C40.371 77.7576 39.8213 77.7183 39.5554 77.661C38.5156 77.4437 37.3892 76.0617 37.4699 74.912C37.5715 73.4877 38.9548 72.3017 40.5592 72.4888H40.5622Z" fill="#16557F"/>
<path d="M63.8006 59.1345C63.8275 59.1616 64.4071 59.7652 64.2099 60.5015C64.0217 61.2106 63.2419 61.5606 62.6294 61.4912C62.492 61.4761 62.1633 61.4218 61.8825 61.1533C61.524 60.8153 61.3835 60.245 61.5001 59.4966C61.512 59.4393 61.5568 59.2823 61.7002 59.1616C61.7869 59.0892 61.8765 59.056 61.9333 59.0439C62.5547 59.0741 63.1762 59.1073 63.8006 59.1375V59.1345Z" fill="#FEB140"/>
<path d="M58.5098 59.394C58.7877 60.0941 58.6771 60.8213 58.2499 61.1985C57.9451 61.464 57.5627 61.4852 57.4491 61.4912C57.3834 61.4942 56.6843 61.5214 56.26 61.0084C55.8597 60.5256 55.8507 59.747 56.2809 59.1284L58.3335 59.1345C58.3933 59.222 58.453 59.3065 58.5128 59.394H58.5098Z" fill="#FEB140"/>
<path d="M69.3335 59.1375C69.3992 59.1919 69.465 59.2552 69.5217 59.3337C69.8564 59.7833 69.7428 60.3597 69.707 60.5166C69.4441 61.099 68.9332 61.4883 68.3894 61.5094C67.9352 61.5275 67.5588 61.28 67.5229 61.2559C66.9194 60.8576 66.8716 60.2541 66.9373 59.6113C66.9583 59.5359 67.0031 59.4001 67.1166 59.2673C67.2152 59.1526 67.3198 59.0923 67.3855 59.0591C68.0338 59.0862 68.6822 59.1134 69.3305 59.1406L69.3335 59.1375Z" fill="#FEB140"/>
<path d="M69.3344 59.1377C68.6562 59.1377 67.981 59.1407 67.3027 59.1437C67.9182 58.4678 68.6472 58.4678 69.3344 59.1377Z" fill="#FAB142"/>
<path d="M58.3299 59.1346C57.6696 59.1708 57.0093 59.21 56.352 59.2463C56.3431 59.207 56.3371 59.1678 56.3281 59.1286C56.9974 58.4768 57.7234 58.4798 58.3299 59.1346Z" fill="#FCB141"/>
<path d="M61.8379 59.1406C62.4354 58.4797 63.2302 58.4767 63.8008 59.1346C63.1465 59.1346 62.4922 59.1376 61.8379 59.1406Z" fill="#FCB141"/>
<path d="M79.2892 61.5877C80.1258 61.5877 80.804 60.9027 80.804 60.0578C80.804 59.2128 80.1258 58.5278 79.2892 58.5278C78.4526 58.5278 77.7744 59.2128 77.7744 60.0578C77.7744 60.9027 78.4526 61.5877 79.2892 61.5877Z" fill="#FDB140"/>
<path d="M62.8204 61.5877C63.657 61.5877 64.3352 60.9027 64.3352 60.0578C64.3352 59.2128 63.657 58.5278 62.8204 58.5278C61.9839 58.5278 61.3057 59.2128 61.3057 60.0578C61.3057 60.9027 61.9839 61.5877 62.8204 61.5877Z" fill="#FDB140"/>
<path d="M57.3292 61.5938C58.1658 61.5938 58.844 60.9088 58.844 60.0639C58.844 59.2189 58.1658 58.5339 57.3292 58.5339C56.4926 58.5339 55.8145 59.2189 55.8145 60.0639C55.8145 60.9088 56.4926 61.5938 57.3292 61.5938Z" fill="#FDB140"/>
<path d="M26.9336 27.6392L109.688 27.6392" stroke="#1E1E1E" stroke-width="0.752315"/>
</g>
<g clip-path="url(#clip1_3005_46047)">
<path d="M36.7008 64.4502C40.2072 58.2821 46.8956 53.5461 53.9758 54.0023C48.7532 59.6817 45.7078 67.0253 45.3784 74.7339C45.2622 77.7072 45.4425 81.0264 43.4683 83.2528C42.2399 84.6381 40.3623 85.309 38.5162 85.4498C36.67 85.5905 34.8243 85.2569 33.0028 84.9248L32.5609 85.0605C32.3927 77.9674 33.1945 70.6182 36.7008 64.4502Z" fill="#F0F0F0"/>
<path d="M53.9858 54.1508C48.75 56.6714 44.2856 60.8809 41.545 66.0147C40.9525 67.1246 40.448 68.3021 40.228 69.5471C40.0078 70.7926 40.1616 71.9783 40.587 73.1613C40.9759 74.2428 41.499 75.304 41.6183 76.4612C41.744 77.6809 41.2952 78.8214 40.4873 79.7266C39.4989 80.8341 38.1714 81.5203 36.85 82.1464C35.3828 82.8414 33.8478 83.5401 32.8086 84.8373C32.6827 84.9945 32.4462 84.79 32.5719 84.633C34.3799 82.3761 37.4748 81.9518 39.6209 80.1337C40.6224 79.2853 41.3742 78.1301 41.3268 76.7764C41.2853 75.5926 40.7468 74.4978 40.3436 73.4062C39.9201 72.26 39.709 71.1075 39.8608 69.8854C40.0161 68.6353 40.4756 67.4356 41.0372 66.3154C42.3036 63.7891 44.0367 61.4697 46.022 59.4648C48.3038 57.1602 50.963 55.2629 53.8845 53.8549C54.0654 53.7679 54.1655 54.0643 53.9858 54.1508Z" fill="white"/>
<path d="M42.3476 64.299C41.5449 63.7121 40.977 62.859 40.7453 61.892C40.5136 60.9251 40.6331 59.9072 41.0826 59.0203C41.1742 58.8411 41.4568 58.975 41.3652 59.1544C40.9451 59.9795 40.8338 60.9277 41.0515 61.8277C41.2691 62.7277 41.8012 63.5202 42.5519 64.0623C42.7149 64.1803 42.5096 64.4163 42.3476 64.299Z" fill="white"/>
<path d="M40.318 72.6388C42.3293 72.3449 44.1559 71.3038 45.4336 69.723C45.5601 69.5662 45.7966 69.7708 45.6703 69.9273C44.3376 71.5699 42.4345 72.6495 40.3409 72.9507C40.1413 72.9793 40.1195 72.6672 40.318 72.6388Z" fill="white"/>
<path d="M48.4586 57.545C48.7219 57.8368 49.0535 58.0586 49.4236 58.1906C49.7938 58.3226 50.191 58.3606 50.5795 58.3011C50.7786 58.27 50.8002 58.5821 50.6023 58.613C50.1728 58.6767 49.7343 58.6342 49.325 58.4893C48.9157 58.3444 48.5481 58.1015 48.2543 57.7817C48.2241 57.7539 48.2056 57.7156 48.2026 57.6747C48.1996 57.6337 48.2123 57.5931 48.2381 57.5612C48.2653 57.53 48.3037 57.5108 48.345 57.5077C48.3863 57.5047 48.4271 57.5181 48.4586 57.545Z" fill="white"/>
<path d="M68.063 73.4602C67.9392 73.4831 67.8154 73.5061 67.6905 73.5314C66.028 73.8486 64.394 74.3002 62.8046 74.882C62.681 74.925 62.5564 74.9705 62.4343 75.017C58.6201 76.4594 55.1069 78.5974 52.0732 81.3223C50.867 82.4078 49.7451 83.5834 48.7173 84.839C47.2979 86.5732 45.8969 88.5664 44.0422 89.6971C43.85 89.8172 43.6506 89.9253 43.445 90.0208L32.7602 85.5889C32.741 85.5667 32.7206 85.5468 32.7013 85.5245L32.2666 85.367C32.3151 85.2986 32.3668 85.2286 32.4153 85.1601C32.4433 85.1203 32.4736 85.0815 32.5016 85.0416C32.521 85.0154 32.5405 84.9892 32.5565 84.9644C32.5629 84.9556 32.5695 84.9469 32.5749 84.9406C32.5909 84.9158 32.6084 84.8945 32.6234 84.8721C32.9116 84.4803 33.2031 84.0897 33.4979 83.7006C33.4989 83.6981 33.4989 83.6981 33.5023 83.6967C35.7557 80.737 38.2761 77.9395 41.1409 75.6135C41.2271 75.5435 41.3142 75.4711 41.4053 75.4031C42.7024 74.3618 44.0825 73.4283 45.5317 72.6118C46.3267 72.1673 47.1437 71.7633 47.9796 71.4014C50.1411 70.4704 52.4355 69.8852 54.7789 69.6673C59.4504 69.2335 64.2086 70.2986 67.7915 73.2333C67.8831 73.3084 67.9724 73.3826 68.063 73.4602Z" fill="#F0F0F0"/>
<path d="M67.9826 73.5856C62.2846 72.4458 56.1856 73.119 50.9065 75.568C49.7651 76.0975 48.6534 76.7339 47.7282 77.5955C46.8025 78.4575 46.2114 79.4967 45.8388 80.6974C45.4982 81.7951 45.2769 82.9573 44.6754 83.9531C44.0414 85.0027 42.9964 85.6431 41.8064 85.8794C40.3504 86.1686 38.8774 85.9173 37.4454 85.6216C35.8554 85.2932 34.2092 84.9269 32.5984 85.337C32.4032 85.3867 32.3375 85.0809 32.5324 85.0313C35.3349 84.3178 38.0614 85.8424 40.8696 85.6829C42.1799 85.6084 43.4758 85.1387 44.2529 84.0293C44.9325 83.0591 45.1617 81.8608 45.497 80.7464C45.849 79.5763 46.3743 78.5289 47.2313 77.6446C48.108 76.74 49.1972 76.0587 50.3199 75.5024C52.8521 74.2477 55.6323 73.4393 58.4246 73.0338C61.634 72.5675 64.8995 72.6536 68.0799 73.2884C68.2767 73.3278 68.1781 73.6248 67.9826 73.5856Z" fill="white"/>
<path d="M52.5804 74.6816C52.2929 73.7298 52.3531 72.7067 52.7503 71.7951C53.1474 70.8836 53.8557 70.1428 54.7486 69.7052C54.9296 69.6173 55.0747 69.8944 54.8935 69.9825C54.0613 70.3884 53.4016 71.0784 53.0335 71.9281C52.6654 72.7777 52.6131 73.7309 52.8861 74.6157C52.9452 74.808 52.6392 74.8729 52.5804 74.6816Z" fill="white"/>
<path d="M45.9383 80.1183C47.7211 81.0945 49.8064 81.363 51.7783 80.8701C51.9737 80.8211 52.0394 81.1268 51.8443 81.1757C49.7913 81.6848 47.6218 81.4011 45.7688 80.3811C45.5922 80.2837 45.7627 80.0215 45.9383 80.1183Z" fill="white"/>
<path d="M61.5261 72.9679C61.5606 73.3594 61.6918 73.7362 61.9079 74.0644C62.124 74.3927 62.4182 74.6621 62.7642 74.8485C62.9419 74.9436 62.7713 75.2058 62.5947 75.1113C62.2134 74.9036 61.8888 74.6056 61.6493 74.2435C61.4097 73.8814 61.2625 73.4661 61.2204 73.0339C61.213 72.9935 61.2213 72.9518 61.2436 72.9173C61.2658 72.8828 61.3004 72.858 61.3402 72.8481C61.3808 72.8396 61.423 72.8474 61.4578 72.8698C61.4926 72.8923 61.5171 72.9275 61.5261 72.9679Z" fill="white"/>
<path d="M47.7092 80.772C46.2128 73.5367 44.3423 71.1245 44.3423 71.1245L43.6278 70.5704L42.7685 69.9029L42.7726 69.8171L42.5688 69.7478L42.5209 69.7106L42.4424 69.6503L42.4298 69.6639L42.4032 69.6915L38.5146 68.3697L33.5814 66.694L31.297 63.7247C30.9249 63.2411 30.4459 62.8503 29.8975 62.5828C29.3491 62.3153 28.7462 62.1785 28.1361 62.183L20.8404 62.237C19.854 62.2443 18.9059 62.6203 18.1826 63.2912L13.3873 67.7392L5.91521 71.3078L5.9026 71.2952L5.82414 71.3513L4.66963 71.9033L4.71728 72.1513L4.00271 72.6669C4.00271 72.6669 2.13224 74.9115 0.635861 81.6437C0.255199 83.3567 0.0678227 87.0314 0.000190062 91.5595C-0.00320712 91.7886 0.0389673 92.016 0.12426 92.2286C0.209553 92.4413 0.336263 92.6348 0.497022 92.798C0.657781 92.9612 0.849383 93.0908 1.06069 93.1793C1.27199 93.2679 1.49878 93.3135 1.72787 93.3135H41.6377L46.619 93.3135C46.8479 93.3134 47.0745 93.2678 47.2857 93.1794C47.4969 93.091 47.6884 92.9616 47.8491 92.7986C48.0098 92.6356 48.1366 92.4422 48.222 92.2298C48.3074 92.0174 48.3498 91.7902 48.3467 91.5613C48.2806 86.634 48.0933 82.6297 47.7092 80.772Z" fill="#3F3D56"/>
<path d="M52.8302 31.6279C51.2774 31.6279 49.7883 32.2447 48.6903 33.3427C47.5924 34.4406 46.9756 35.9298 46.9756 37.4825C46.9756 39.0352 47.5924 40.5244 48.6903 41.6223C49.7883 42.7202 51.2774 43.3371 52.8302 43.3371H96.4606C98.0133 43.3371 99.5025 42.7202 100.6 41.6223C101.698 40.5244 102.315 39.0352 102.315 37.4825C102.315 35.9298 101.698 34.4406 100.6 33.3427C99.5025 32.2447 98.0133 31.6279 96.4606 31.6279H52.8302Z" fill="#E5E5E5"/>
<path d="M52.8299 32.8127C51.5914 32.8127 50.4036 33.3047 49.5279 34.1805C48.6521 35.0562 48.1602 36.244 48.1602 37.4825C48.1602 38.7209 48.6521 39.9087 49.5279 40.7844C50.4036 41.6602 51.5914 42.1522 52.8299 42.1522H96.4603C97.6988 42.1522 98.8866 41.6602 99.7623 40.7844C100.638 39.9087 101.13 38.7209 101.13 37.4825C101.13 36.244 100.638 35.0562 99.7623 34.1805C98.8866 33.3047 97.6988 32.8127 96.4603 32.8127H52.8299Z" fill="white"/>
<path d="M25.6343 59.4421C30.913 59.4421 35.1923 55.1628 35.1923 49.884C35.1923 44.6052 30.913 40.3259 25.6343 40.3259C20.3555 40.3259 16.0762 44.6052 16.0762 49.884C16.0762 55.1628 20.3555 59.4421 25.6343 59.4421Z" fill="#9E616A"/>
<path d="M23.1886 58.974C23.1477 58.8841 23.107 58.7939 23.0664 58.7034C23.0821 58.7039 23.0975 58.7061 23.1132 58.7065L23.1886 58.974Z" fill="#2F2E41"/>
<path d="M15.81 40.7607C16.2934 40.3751 16.8584 40.0203 17.4765 40.0402C18.0945 40.0601 18.7213 40.6183 18.5932 41.2233C19.7285 39.2133 21.5355 37.6673 23.697 36.8567C25.8586 36.0462 28.2366 36.023 30.4136 36.791C31.9497 37.333 33.4562 38.4172 33.809 40.0075C33.8996 40.4157 33.9191 40.8634 34.1739 41.1949C34.4953 41.6128 35.1102 41.7074 35.6165 41.5603C35.6216 41.5589 35.6266 41.5574 35.6317 41.5559C35.7172 41.5266 35.8095 41.5238 35.8967 41.5476C35.9839 41.5714 36.0619 41.6209 36.1207 41.6896C36.1795 41.7582 36.2163 41.8429 36.2264 41.9328C36.2365 42.0226 36.2194 42.1134 36.1774 42.1934L35.7427 43.004C36.2906 43.1261 36.8599 43.114 37.4021 42.9687C37.4922 42.9451 37.5874 42.9499 37.6746 42.9825C37.7618 43.0151 37.8368 43.0739 37.8893 43.1508C37.9418 43.2277 37.9692 43.319 37.9678 43.4121C37.9663 43.5052 37.9361 43.5956 37.8813 43.6709C36.4481 45.6386 34.0537 46.9092 31.6102 46.8943C29.8735 46.8837 28.119 46.2852 26.4288 46.6845C25.775 46.839 25.164 47.138 24.6408 47.5594C24.1175 47.9808 23.6952 48.514 23.4049 49.1199C23.1146 49.7258 22.9636 50.3891 22.9631 51.0609C22.9625 51.7328 23.1124 52.3962 23.4017 53.0026C22.8825 52.4347 21.8788 52.5692 21.3476 53.126C20.8165 53.6828 20.679 54.5139 20.7325 55.2816C20.8144 56.4557 21.2744 57.562 21.7593 58.6388C17.6934 58.5108 13.8478 55.6586 12.5533 51.801C11.2534 47.9272 12.6157 43.3089 15.81 40.7607Z" fill="#2F2E41"/>
<path opacity="0.2" d="M9.40723 78.5876L12.0881 93.1735L13.6966 93.3136L9.40723 78.5876Z" fill="black"/>
<path opacity="0.2" d="M38.9378 77.4875L36.257 93.1629L34.6484 93.3135L38.9378 77.4875Z" fill="black"/>
<path d="M18.0968 35.8519C17.5828 36.0666 17.0464 35.8313 16.8215 35.2927C16.5931 34.7457 16.8064 34.1905 17.3287 33.9725C17.851 33.7544 18.3778 33.9902 18.6098 34.5459C18.8384 35.0933 18.6274 35.6304 18.0968 35.8519ZM17.1122 32.896L16.7035 33.0666C16.6014 33.1088 16.4872 33.111 16.3835 33.073C16.2798 33.035 16.1941 32.9594 16.1435 32.8612L16.1233 32.8217C15.6835 32.0286 15.6332 31.0647 15.9744 29.9584C16.2905 28.9659 16.4218 28.2679 16.1578 27.6355C15.8525 26.9044 15.2006 26.6753 14.3692 27.0071C14.0468 27.1417 13.9442 27.1396 13.6905 27.3913C13.6353 27.4467 13.5695 27.4905 13.497 27.5199C13.4246 27.5494 13.3469 27.5639 13.2687 27.5627C13.1931 27.5618 13.1184 27.5457 13.0492 27.5153C12.98 27.485 12.9175 27.441 12.8657 27.386C12.7657 27.28 12.7097 27.14 12.709 26.9943C12.7083 26.8486 12.7628 26.7081 12.8617 26.6011C13.2882 26.1546 13.8026 25.8014 14.3725 25.5638C16.1586 24.8179 17.0578 25.9191 17.4693 26.9045C17.8718 27.8683 17.6454 28.7626 17.2816 29.9208C16.9768 30.8832 16.9945 31.5963 17.3408 32.3054C17.3658 32.359 17.3797 32.4171 17.3817 32.4762C17.3837 32.5353 17.3737 32.5942 17.3523 32.6494C17.331 32.7046 17.2987 32.7548 17.2574 32.7972C17.2162 32.8396 17.1667 32.8732 17.1122 32.896Z" fill="#004C99"/>
<path d="M62.4675 40.2746H53.7867C53.7591 40.2748 53.7318 40.2696 53.7062 40.2591C53.6807 40.2487 53.6575 40.2333 53.6379 40.2139C53.6183 40.1945 53.6028 40.1713 53.5922 40.1459C53.5816 40.1204 53.5762 40.0931 53.5762 40.0655C53.5762 40.038 53.5816 40.0107 53.5922 39.9852C53.6028 39.9597 53.6183 39.9366 53.6379 39.9172C53.6575 39.8978 53.6807 39.8824 53.7062 39.872C53.7318 39.8615 53.7591 39.8563 53.7867 39.8565H62.4675C62.5227 39.8568 62.5756 39.879 62.6145 39.9182C62.6534 39.9574 62.6752 40.0103 62.6752 40.0655C62.6752 40.1207 62.6534 40.1737 62.6145 40.2129C62.5756 40.2521 62.5227 40.2743 62.4675 40.2746Z" fill="#004C99"/>
<path d="M73.4793 40.3445H64.7984C64.7708 40.3446 64.7435 40.3394 64.718 40.329C64.6924 40.3185 64.6692 40.3032 64.6496 40.2837C64.6301 40.2643 64.6145 40.2412 64.6039 40.2157C64.5933 40.1903 64.5879 40.1629 64.5879 40.1354C64.5879 40.1078 64.5933 40.0805 64.6039 40.055C64.6145 40.0296 64.6301 40.0064 64.6496 39.987C64.6692 39.9676 64.6924 39.9522 64.718 39.9418C64.7435 39.9314 64.7708 39.9261 64.7984 39.9263H73.4793C73.5068 39.9261 73.5342 39.9314 73.5597 39.9418C73.5852 39.9522 73.6085 39.9676 73.628 39.987C73.6476 40.0064 73.6631 40.0296 73.6737 40.055C73.6843 40.0805 73.6898 40.1078 73.6898 40.1354C73.6898 40.1629 73.6843 40.1903 73.6737 40.2157C73.6631 40.2412 73.6476 40.2643 73.628 40.2837C73.6085 40.3032 73.5852 40.3185 73.5597 40.329C73.5342 40.3394 73.5068 40.3446 73.4793 40.3445Z" fill="#004C99"/>
<path d="M84.4911 40.414H75.8102C75.755 40.4137 75.7022 40.3915 75.6633 40.3523C75.6244 40.3131 75.6025 40.2602 75.6025 40.2049C75.6025 40.1497 75.6244 40.0968 75.6633 40.0576C75.7022 40.0184 75.755 39.9962 75.8102 39.9959H84.491C84.5186 39.9957 84.546 40.0009 84.5715 40.0114C84.597 40.0218 84.6203 40.0372 84.6398 40.0566C84.6594 40.076 84.6749 40.0991 84.6855 40.1246C84.6961 40.1501 84.7016 40.1774 84.7016 40.2049C84.7016 40.2325 84.6961 40.2598 84.6855 40.2853C84.6749 40.3108 84.6594 40.3339 84.6398 40.3533C84.6203 40.3727 84.597 40.3881 84.5715 40.3985C84.546 40.409 84.5186 40.4142 84.4911 40.414Z" fill="#004C99"/>
<path d="M95.5037 40.4839H86.8229C86.7677 40.4835 86.7149 40.4613 86.676 40.4221C86.6371 40.3829 86.6152 40.33 86.6152 40.2748C86.6152 40.2196 86.6371 40.1666 86.676 40.1274C86.7149 40.0882 86.7677 40.066 86.8229 40.0657H95.5037C95.559 40.066 95.6118 40.0882 95.6507 40.1274C95.6896 40.1666 95.7114 40.2196 95.7114 40.2748C95.7114 40.33 95.6896 40.3829 95.6507 40.4221C95.6118 40.4613 95.559 40.4835 95.5037 40.4839Z" fill="#004C99"/>
<path d="M58.1075 38.3503C58.9986 38.3503 59.7209 37.628 59.7209 36.7369C59.7209 35.8459 58.9986 35.1235 58.1075 35.1235C57.2165 35.1235 56.4941 35.8459 56.4941 36.7369C56.4941 37.628 57.2165 38.3503 58.1075 38.3503Z" fill="#004C99"/>
<path d="M69.1866 38.3503C70.0777 38.3503 70.8 37.628 70.8 36.7369C70.8 35.8459 70.0777 35.1235 69.1866 35.1235C68.2956 35.1235 67.5732 35.8459 67.5732 36.7369C67.5732 37.628 68.2956 38.3503 69.1866 38.3503Z" fill="#004C99"/>
<path d="M80.2648 38.3503C81.1558 38.3503 81.8782 37.628 81.8782 36.7369C81.8782 35.8459 81.1558 35.1235 80.2648 35.1235C79.3737 35.1235 78.6514 35.8459 78.6514 36.7369C78.6514 37.628 79.3737 38.3503 80.2648 38.3503Z" fill="#004C99"/>
<path d="M91.3439 38.3503C92.2349 38.3503 92.9573 37.628 92.9573 36.7369C92.9573 35.8459 92.2349 35.1235 91.3439 35.1235C90.4528 35.1235 89.7305 35.8459 89.7305 36.7369C89.7305 37.628 90.4528 38.3503 91.3439 38.3503Z" fill="#004C99"/>
</g>
<defs>
<clipPath id="clip0_3005_46047">
<rect width="120.37" height="90.2778" fill="white" transform="translate(9.62988 0.285156)"/>
</clipPath>
<clipPath id="clip1_3005_46047">
<rect width="102.315" height="67.9953" fill="white" transform="translate(0 25.3179)"/>
</clipPath>
</defs>
</svg>
