<svg width="26" height="25" viewBox="0 0 26 25" fill="none" xmlns="http://www.w3.org/2000/svg">
<path d="M15.8379 2.88101C15.892 2.92333 15.9461 2.96554 16.0003 3.00765C16.3293 3.26375 16.6548 3.52431 16.9801 3.78514C17.2695 4.01698 17.561 4.24614 17.8529 4.47481C18.0237 4.60868 18.1943 4.74286 18.3649 4.87697C18.5066 4.98836 18.6484 5.09967 18.7903 5.21083C19.1161 5.46621 19.4404 5.72346 19.7633 5.98243C20.0527 6.21426 20.3442 6.44341 20.6361 6.67207C20.8068 6.8059 20.9774 6.93999 21.1479 7.07413C21.2906 7.18639 21.4336 7.29837 21.577 7.40981C21.7199 7.52099 21.8621 7.63299 22.0037 7.74572C22.0599 7.79033 22.1161 7.83475 22.1725 7.879C23.0405 8.56296 23.564 9.4381 23.6993 10.547C23.7038 10.6745 23.7063 10.8006 23.7061 10.928C23.7063 10.9833 23.7063 10.9833 23.7066 11.0397C23.707 11.1624 23.7071 11.2852 23.7071 11.4079C23.7074 11.4962 23.7076 11.5846 23.7079 11.6729C23.7085 11.9124 23.7088 12.152 23.709 12.3915C23.7092 12.5414 23.7094 12.6913 23.7096 12.8413C23.7103 13.3111 23.7107 13.781 23.7109 14.2509C23.7112 14.7918 23.712 15.3327 23.7134 15.8735C23.7145 16.2926 23.715 16.7116 23.715 17.1307C23.7151 17.3805 23.7154 17.6303 23.7163 17.8801C23.7171 18.1154 23.7172 18.3508 23.7167 18.5861C23.7167 18.672 23.7169 18.7578 23.7174 18.8436C23.7238 20.0404 23.434 21.0504 22.5762 21.924C22.5432 21.9582 22.5101 21.9925 22.4761 22.0277C21.7489 22.7289 20.7838 22.957 19.8015 22.9562C19.7435 22.9564 19.6855 22.9565 19.6258 22.9567C19.4654 22.957 19.305 22.9571 19.1446 22.9572C18.9714 22.9573 18.7982 22.9576 18.625 22.958C18.2464 22.9586 17.8679 22.9589 17.4894 22.9591C17.2527 22.9593 17.0161 22.9595 16.7795 22.9597C16.1236 22.9603 15.4677 22.9608 14.8119 22.961C14.749 22.961 14.749 22.961 14.6848 22.961C14.6427 22.961 14.6007 22.961 14.5574 22.961C14.4722 22.9611 14.387 22.9611 14.3018 22.9611C14.2384 22.9611 14.2384 22.9611 14.1738 22.9611C13.4897 22.9613 12.8057 22.9622 12.1217 22.9633C11.4185 22.9645 10.7152 22.9651 10.012 22.9651C9.61753 22.9652 9.22308 22.9655 8.82863 22.9663C8.49261 22.9671 8.1566 22.9673 7.82058 22.9669C7.6494 22.9668 7.47823 22.9668 7.30706 22.9675C5.94738 22.972 4.83797 22.8198 3.82622 21.8263C3.79198 21.7933 3.75774 21.7602 3.72246 21.7262C3.08748 21.0676 2.79285 20.1504 2.79398 19.2481C2.79383 19.2112 2.79369 19.1744 2.79354 19.1364C2.79311 19.0136 2.79304 18.8909 2.79296 18.7682C2.79274 18.6798 2.79249 18.5915 2.79223 18.5032C2.79159 18.2636 2.79127 18.0241 2.79106 17.7846C2.79091 17.6347 2.79071 17.4847 2.7905 17.3348C2.78983 16.8649 2.78936 16.3951 2.78917 15.9252C2.78895 15.3843 2.78809 14.8434 2.78668 14.3025C2.78562 13.8835 2.78513 13.4644 2.78506 13.0454C2.78501 12.7956 2.78473 12.5458 2.78385 12.296C2.78304 12.0606 2.78295 11.8253 2.78337 11.59C2.78341 11.5041 2.7832 11.4183 2.78271 11.3325C2.7772 10.2982 2.95762 9.36444 3.63091 8.54507C3.65628 8.51177 3.68164 8.47847 3.70778 8.44417C3.94917 8.14319 4.25844 7.9215 4.56303 7.68914C4.71801 7.56982 4.87015 7.447 5.02251 7.32436C5.39842 7.02283 5.77738 6.72528 6.15677 6.42815C6.47982 6.17506 6.80195 5.92093 7.12212 5.66421C7.44222 5.40755 7.76428 5.15349 8.08726 4.90048C8.22953 4.78899 8.37162 4.67727 8.51372 4.56558C8.68397 4.43176 8.85424 4.29799 9.0247 4.16446C9.28606 3.9596 9.54683 3.75412 9.80555 3.54592C11.6624 2.05274 11.6624 2.05274 12.6153 1.90444C12.651 1.89846 12.6867 1.89248 12.7234 1.88632C13.9106 1.72632 14.9292 2.14733 15.8379 2.88101ZM11.052 3.99089C10.882 4.13119 10.7093 4.26718 10.534 4.40078C10.0442 4.77479 9.56135 5.15745 9.08053 5.54296C8.79113 5.7748 8.49967 6.00395 8.20776 6.23262C8.0655 6.34412 7.92341 6.45583 7.7813 6.56753C7.61106 6.70134 7.44078 6.83511 7.27032 6.96864C6.97557 7.19966 6.68188 7.43189 6.3897 7.66616C6.15356 7.8555 5.91668 8.04381 5.67864 8.23074C5.65084 8.25267 5.62305 8.2746 5.59441 8.2972C5.45047 8.41054 5.30561 8.52232 5.15889 8.63204C4.52344 9.11089 4.03096 9.67649 3.90987 10.4953C3.86496 10.8959 3.86781 11.2966 3.86796 11.6991C3.86781 11.7802 3.86765 11.8614 3.86746 11.9425C3.86703 12.1618 3.86692 12.381 3.86688 12.6002C3.86685 12.7376 3.86675 12.8749 3.86662 13.0122C3.86617 13.4924 3.86597 13.9726 3.866 14.4528C3.86603 14.8986 3.86552 15.3445 3.86475 15.7904C3.86411 16.1746 3.86385 16.5588 3.86388 16.9431C3.86389 17.1719 3.86375 17.4007 3.86323 17.6296C3.86276 17.8451 3.86276 18.0606 3.86311 18.2761C3.86316 18.3546 3.86305 18.4331 3.86275 18.5116C3.85949 19.432 3.9167 20.2763 4.55865 20.9962C4.59688 21.0413 4.59688 21.0413 4.63589 21.0872C5.11955 21.6179 5.76801 21.827 6.46294 21.8751C6.6528 21.8815 6.84244 21.882 7.03239 21.8817C7.08776 21.8818 7.14312 21.8819 7.20017 21.882C7.38464 21.8823 7.56912 21.8823 7.7536 21.8822C7.88629 21.8824 8.01899 21.8825 8.15169 21.8827C8.47412 21.8831 8.79655 21.8833 9.11898 21.8833C9.38126 21.8833 9.64354 21.8834 9.90582 21.8836C10.6506 21.884 11.3955 21.8842 12.1403 21.8842C12.2004 21.8842 12.2004 21.8842 12.2618 21.8842C12.3019 21.8842 12.342 21.8842 12.3834 21.8842C13.0337 21.8842 13.6839 21.8846 14.3342 21.8853C15.0031 21.886 15.6719 21.8864 16.3408 21.8863C16.7158 21.8863 17.0909 21.8864 17.4659 21.887C17.7853 21.8874 18.1046 21.8875 18.4239 21.8872C18.5866 21.887 18.7493 21.8871 18.9119 21.8874C20.4381 21.9069 20.4381 21.9069 21.7461 21.1916C21.7762 21.1661 21.8062 21.1406 21.8371 21.1143C22.3843 20.6157 22.5834 19.9529 22.6251 19.2384C22.632 18.9662 22.6322 18.6941 22.6321 18.4218C22.6323 18.3406 22.6325 18.2594 22.6326 18.1781C22.6331 17.9589 22.6332 17.7397 22.6332 17.5204C22.6333 17.3831 22.6334 17.2458 22.6335 17.1085C22.6339 16.6283 22.6341 16.1482 22.6341 15.6681C22.6341 15.2222 22.6346 14.7763 22.6354 14.3304C22.636 13.9461 22.6363 13.5619 22.6362 13.1776C22.6362 12.9487 22.6363 12.7199 22.6369 12.491C22.6373 12.2756 22.6373 12.0601 22.637 11.8447C22.6369 11.7662 22.6371 11.6877 22.6374 11.6091C22.6407 10.6606 22.5458 9.819 21.8926 9.08218C21.7064 8.90753 21.5085 8.75001 21.3067 8.5939C21.2515 8.55028 21.1963 8.50661 21.1411 8.46286C20.998 8.34951 20.8541 8.23699 20.7101 8.12471C20.5669 8.01292 20.4241 7.90055 20.2813 7.78823C20.1111 7.65441 19.9408 7.52065 19.7703 7.38712C19.4445 7.13174 19.1203 6.87449 18.7973 6.61552C18.4799 6.36127 18.1601 6.11026 17.8399 5.85952C17.4576 5.56009 17.0766 5.25915 16.6977 4.95537C16.4363 4.74599 16.1734 4.5387 15.9097 4.33231C15.7953 4.24273 15.6814 4.15253 15.5679 4.06184C13.9624 2.78178 12.6838 2.64208 11.052 3.99089Z" fill="#484C52"/>
<path d="M10.6879 18.2061C10.7577 18.2056 10.7577 18.2056 10.8289 18.2051C10.8802 18.2049 10.9314 18.2048 10.9842 18.2047C11.038 18.2044 11.0919 18.204 11.1473 18.2037C11.3261 18.2027 11.5049 18.2022 11.6837 18.2017C11.7446 18.2015 11.8056 18.2013 11.8684 18.2011C12.1577 18.2002 12.4471 18.1995 12.7364 18.1991C13.0702 18.1986 13.404 18.1973 13.7377 18.1953C14.027 18.1937 14.3162 18.1931 14.6054 18.1929C14.7284 18.1926 14.8514 18.1921 14.9743 18.1912C15.1464 18.19 15.3184 18.19 15.4905 18.1904C15.5413 18.1897 15.5922 18.1891 15.6446 18.1885C15.9353 18.1906 16.1054 18.2133 16.3261 18.4086C16.4168 18.59 16.4035 18.7971 16.375 18.9946C16.268 19.1325 16.188 19.2102 16.0332 19.2875C15.9596 19.2925 15.8858 19.2943 15.8121 19.2947C15.7423 19.2952 15.7423 19.2952 15.671 19.2958C15.5942 19.296 15.5942 19.296 15.5158 19.2962C15.4619 19.2965 15.4081 19.2968 15.3526 19.2972C15.1738 19.2981 14.9951 19.2987 14.8163 19.2992C14.7553 19.2994 14.6944 19.2996 14.6316 19.2998C14.3422 19.3007 14.0529 19.3014 13.7636 19.3018C13.4298 19.3023 13.096 19.3036 12.7622 19.3055C12.473 19.3072 12.1838 19.3078 11.8945 19.308C11.7716 19.3082 11.6486 19.3088 11.5256 19.3097C11.3536 19.3109 11.1815 19.3108 11.0095 19.3105C10.9586 19.3111 10.9078 19.3117 10.8554 19.3124C10.5647 19.3103 10.3945 19.2876 10.1738 19.0922C10.0831 18.9109 10.0964 18.7038 10.125 18.5063C10.2955 18.2863 10.416 18.2075 10.6879 18.2061Z" fill="#474B50"/>
</svg>
