<svg width="26" height="25" viewBox="0 0 26 25" fill="none" xmlns="http://www.w3.org/2000/svg">
<path d="M15.6884 3.05452C15.8326 3.15545 15.9783 3.25435 16.1238 3.35348C16.282 3.46134 16.4399 3.56971 16.5977 3.67805C16.7919 3.81126 16.9863 3.94419 17.1807 4.07714C17.258 4.13004 17.3353 4.18293 17.4126 4.23583C17.4509 4.26202 17.4892 4.2882 17.5286 4.31518C18.6303 5.06896 18.6303 5.06896 19.732 5.82275C19.7894 5.86203 19.7894 5.86203 19.848 5.90212C19.9252 5.95493 20.0024 6.00775 20.0796 6.06057C20.3141 6.22104 20.5486 6.38147 20.7832 6.54185C20.8612 6.59522 20.9392 6.64864 21.0172 6.70209C21.1999 6.82738 21.3829 6.95219 21.5668 7.07568C22.6171 7.78306 23.3583 8.53935 23.6504 9.81444C23.692 10.0615 23.7064 10.3021 23.7061 10.552C23.7063 10.6097 23.7063 10.6097 23.7066 10.6686C23.707 10.7967 23.7071 10.9248 23.7071 11.053C23.7074 11.1452 23.7076 11.2374 23.7079 11.3295C23.7085 11.5796 23.7088 11.8296 23.709 12.0796C23.7092 12.2361 23.7094 12.3925 23.7096 12.549C23.7103 13.0393 23.7107 13.5296 23.7109 14.0199C23.7111 14.5845 23.712 15.149 23.7134 15.7136C23.7145 16.1508 23.715 16.5881 23.715 17.0254C23.7151 17.2862 23.7154 17.5469 23.7162 17.8076C23.7171 18.0532 23.7172 18.2988 23.7167 18.5444C23.7167 18.634 23.7169 18.7236 23.7174 18.8132C23.7236 20.0225 23.4448 21.0393 22.5762 21.9238C22.5432 21.9581 22.5101 21.9923 22.4761 22.0276C21.7488 22.7288 20.7838 22.9568 19.8015 22.9561C19.7435 22.9562 19.6855 22.9564 19.6257 22.9565C19.4654 22.9569 19.305 22.957 19.1446 22.957C18.9714 22.9571 18.7982 22.9575 18.625 22.9578C18.2464 22.9585 17.8679 22.9588 17.4893 22.959C17.2527 22.9591 17.0161 22.9593 16.7795 22.9595C16.1236 22.9601 15.4677 22.9606 14.8119 22.9608C14.7489 22.9608 14.7489 22.9608 14.6848 22.9608C14.6427 22.9609 14.6007 22.9609 14.5574 22.9609C14.4722 22.9609 14.387 22.9609 14.3018 22.9609C14.2384 22.961 14.2384 22.961 14.1738 22.961C13.4897 22.9612 12.8057 22.962 12.1217 22.9632C11.4184 22.9643 10.7152 22.9649 10.012 22.965C9.61752 22.965 9.22307 22.9653 8.82862 22.9662C8.4926 22.9669 8.15659 22.9672 7.82057 22.9668C7.64939 22.9666 7.47823 22.9666 7.30705 22.9673C5.94738 22.9719 4.83797 22.8196 3.82622 21.8262C3.79198 21.7931 3.75774 21.7601 3.72246 21.726C3.08238 21.0622 2.79288 20.1417 2.79397 19.2331C2.79382 19.1946 2.79368 19.1562 2.79353 19.1166C2.79311 18.9884 2.79303 18.8603 2.79296 18.7322C2.79273 18.64 2.79249 18.5478 2.79222 18.4556C2.79158 18.2056 2.79127 17.9556 2.79105 17.7056C2.79091 17.5491 2.79071 17.3926 2.79049 17.2362C2.78982 16.7458 2.78935 16.2555 2.78916 15.7652C2.78894 15.2007 2.78809 14.6361 2.78667 14.0716C2.78561 13.6343 2.78512 13.197 2.78506 12.7597C2.78501 12.499 2.78472 12.2383 2.78385 11.9775C2.78304 11.7319 2.78294 11.4863 2.78336 11.2407C2.7834 11.1511 2.78319 11.0615 2.78271 10.9719C2.77745 9.94219 2.95126 9.04868 3.58208 8.20312C3.60807 8.16806 3.63407 8.133 3.66085 8.09688C4.0417 7.6253 4.59062 7.29648 5.09231 6.96715C5.31101 6.82343 5.52693 6.67575 5.74272 6.5277C5.78172 6.50096 5.82072 6.47422 5.8609 6.44668C5.94051 6.39209 6.0201 6.33748 6.09968 6.28287C6.29388 6.14966 6.48828 6.01673 6.68266 5.88378C6.75997 5.83088 6.83729 5.77799 6.9146 5.72509C7.68771 5.19612 8.46082 4.66715 9.23393 4.13818C9.27222 4.11198 9.31051 4.08578 9.34996 4.05878C9.42706 4.00603 9.50417 3.95329 9.5813 3.90057C9.77782 3.76619 9.97417 3.63157 10.1702 3.49654C10.3987 3.33929 10.6279 3.18301 10.8575 3.02734C10.9057 2.99443 10.9057 2.99443 10.955 2.96086C12.5066 1.90825 14.1704 1.98863 15.6884 3.05452ZM10.2227 18.457C10.1445 18.6134 10.1495 18.7757 10.1739 18.9453C10.2615 19.0825 10.3213 19.1655 10.4668 19.2383C10.5405 19.2432 10.6144 19.2451 10.6883 19.2455C10.7349 19.2458 10.7815 19.2462 10.8295 19.2465C10.8808 19.2466 10.9322 19.2468 10.985 19.2469C11.0389 19.2472 11.0929 19.2476 11.1484 19.2479C11.3274 19.2489 11.5064 19.2494 11.6854 19.2499C11.7465 19.2501 11.8075 19.2503 11.8703 19.2505C12.1599 19.2514 12.4495 19.2521 12.7391 19.2525C13.0733 19.253 13.4075 19.2543 13.7417 19.2563C14.0312 19.2579 14.3206 19.2585 14.6101 19.2587C14.7333 19.2589 14.8564 19.2595 14.9795 19.2604C15.1517 19.2616 15.3239 19.2616 15.4961 19.2612C15.5471 19.2618 15.5981 19.2625 15.6507 19.2631C15.9327 19.2611 15.9327 19.2611 16.1858 19.1453C16.3293 18.9849 16.3425 18.8699 16.3405 18.6542C16.3183 18.4994 16.2406 18.417 16.1309 18.3105C16.0143 18.2522 15.942 18.2552 15.8118 18.2545C15.7652 18.2542 15.7186 18.2538 15.6706 18.2535C15.6192 18.2533 15.5679 18.2532 15.5151 18.2531C15.4611 18.2527 15.4072 18.2524 15.3517 18.2521C15.1727 18.2511 14.9937 18.2506 14.8146 18.2501C14.7536 18.2499 14.6926 18.2497 14.6297 18.2495C14.3402 18.2486 14.0506 18.2478 13.761 18.2474C13.4268 18.247 13.0926 18.2457 12.7584 18.2437C12.4689 18.2421 12.1794 18.2415 11.8899 18.2413C11.7668 18.241 11.6437 18.2405 11.5205 18.2396C11.3483 18.2384 11.1762 18.2384 11.004 18.2388C10.953 18.2381 10.9019 18.2375 10.8494 18.2369C10.5802 18.2388 10.413 18.2443 10.2227 18.457Z" fill="#003880"/>
</svg>
