<svg width="24" height="24" viewBox="0 0 24 24" fill="none" xmlns="http://www.w3.org/2000/svg">
<path d="M2.94 3.00004C2.81298 3.12703 2.73575 3.29538 2.72236 3.47449C2.70896 3.6536 2.76029 3.83157 2.867 3.97604L2.94 4.06004L6.25402 7.315C4.28796 8.69452 2.88407 10.7356 2.29902 13.065C2.254 13.2568 2.28626 13.4586 2.38883 13.6268C2.49139 13.795 2.65603 13.9161 2.84716 13.964C3.03828 14.0118 3.24055 13.9825 3.41024 13.8824C3.57993 13.7823 3.70342 13.6194 3.75402 13.429C4.27383 11.3614 5.55162 9.56466 7.33402 8.395L9.14402 10.205C8.42102 10.9605 8.02261 11.9691 8.03414 13.0147C8.04568 14.0604 8.46623 15.0599 9.20573 15.7993C9.94522 16.5386 10.9448 16.959 11.9905 16.9704C13.0361 16.9817 14.0447 16.5831 14.8 15.86L19.94 21.0611C20.0738 21.1953 20.2535 21.2738 20.4429 21.2809C20.6323 21.2881 20.8173 21.2232 20.9608 21.0994C21.1044 20.9757 21.1957 20.8022 21.2165 20.6138C21.2373 20.4254 21.1861 20.2362 21.073 20.0841L21 20.0001L15.666 14.605L15.667 14.603L14.467 13.405L11.597 10.535H11.599L8.71902 7.658L8.72002 7.656L7.58702 6.526L4 3.00004C3.85937 2.85959 3.66875 2.7807 3.47 2.7807C3.27125 2.7807 3.08063 2.85959 2.94 3.00004ZM10.204 11.265L13.739 14.801C13.2675 15.2564 12.636 15.5084 11.9805 15.5027C11.325 15.497 10.698 15.2341 10.2345 14.7705C9.77095 14.307 9.50803 13.68 9.50234 13.0245C9.49664 12.369 9.74863 11.7365 10.204 11.265ZM12 5.5C11 5.5 10.03 5.648 9.11102 5.925L10.348 7.161C12.4876 6.73735 14.7081 7.15208 16.5505 8.31943C18.3929 9.48677 19.7163 11.3175 20.247 13.433C20.2988 13.6219 20.4225 13.7831 20.5916 13.882C20.7607 13.9809 20.9618 14.0098 21.1519 13.9623C21.3419 13.9149 21.5059 13.795 21.6087 13.6283C21.7115 13.4615 21.745 13.2611 21.702 13.07C21.1602 10.9072 19.9112 8.9875 18.1533 7.61594C16.3955 6.24437 14.2296 5.49961 12 5.5ZM12.195 9.01L15.996 12.81C15.9469 11.8179 15.5306 10.8795 14.8281 10.1772C14.1256 9.47493 13.1871 9.0589 12.195 9.01Z" fill="#7D7C7C"/>
</svg>
