<svg width="13" height="14" viewBox="0 0 13 14" fill="none" xmlns="http://www.w3.org/2000/svg">
<g clip-path="url(#clip0_3325_6365)">
<path d="M1.5 7H2.05556M6.5 2V2.55556M10.9444 7H11.5M2.94444 3.44444L3.33333 3.83333M10.0556 3.44444L9.66667 3.83333M5.22222 9.77778H7.77778M4.83333 9.22222C4.36693 8.87242 4.02241 8.38473 3.84857 7.82824C3.67474 7.27176 3.68041 6.67468 3.86477 6.12159C4.04913 5.5685 4.40284 5.08744 4.8758 4.74655C5.34876 4.40566 5.91699 4.22222 6.5 4.22222C7.08301 4.22222 7.65124 4.40566 8.1242 4.74655C8.59715 5.08744 8.95087 5.5685 9.13523 6.12159C9.31959 6.67468 9.32526 7.27176 9.15143 7.82824C8.97759 8.38473 8.63307 8.87242 8.16667 9.22222C7.94976 9.43693 7.78644 9.69969 7.68993 9.98923C7.59341 10.2788 7.56641 10.587 7.61111 10.8889C7.61111 11.1836 7.49405 11.4662 7.28567 11.6746C7.0773 11.8829 6.79468 12 6.5 12C6.20531 12 5.9227 11.8829 5.71433 11.6746C5.50595 11.4662 5.38889 11.1836 5.38889 10.8889C5.43359 10.587 5.40659 10.2788 5.31007 9.98923C5.21356 9.69969 5.05024 9.43693 4.83333 9.22222Z" stroke="black" stroke-linecap="round" stroke-linejoin="round"/>
</g>
<defs>
<clipPath id="clip0_3325_6365">
<rect width="13" height="13" fill="white" transform="translate(0 0.5)"/>
</clipPath>
</defs>
</svg>
