<svg width="322" height="155" viewBox="0 0 322 155" fill="none" xmlns="http://www.w3.org/2000/svg">
<path d="M9.35669 88.7901C14.1042 67.8595 39.0788 61.9671 45.2893 55.866C54.9675 46.3579 43.563 30.0422 50.2157 18.2179C56.877 6.37819 75.5173 -2.29692 88.8025 0.541658C109.847 5.03804 117.295 18.5767 140.915 21.1356C152.385 22.3784 158.227 17.1075 173.034 14.5125C184.568 12.4911 194.07 20.0887 201.703 18.9747C216.483 15.2262 217.778 1.65535 236.787 0.714534C252.945 -0.710828 258.788 6.78443 266.592 19.323C279.861 40.6451 303.407 18.218 315.628 46.2107C323.365 63.9311 303.298 83.6861 307.634 92.2568C310.078 97.087 316.991 105.341 319.343 110.216C325.533 123.053 318.019 134.844 310.069 147.651L30.1237 146.482C29.8343 146.481 29.3959 146.355 29.1495 146.203C29.1495 146.203 0.362576 128.442 9.35669 88.7901Z" fill="#E3EAFF"/>
<path d="M220.811 137.683C225.004 139.191 229.519 138.205 234.354 134.723C228.503 133.585 223.988 134.571 220.811 137.683Z" fill="#A9B9EB"/>
<path d="M227.233 132.152C231.082 133.451 235.177 132.738 239.519 129.478C234.165 128.543 230.07 129.256 227.233 132.152Z" fill="#A9B9EB"/>
<path d="M233.315 126.877C237.165 127.135 240.688 125.24 243.884 121.191C238.737 121.625 235.214 123.52 233.315 126.877Z" fill="#A9B9EB"/>
<path d="M246.516 113.668C242.366 115.025 239.831 117.27 238.911 120.404C242.14 119.863 244.675 117.617 246.516 113.668Z" fill="#A9B9EB"/>
<path d="M246.323 107.743C243.105 109.477 241.35 111.7 241.057 114.412C243.631 113.494 245.386 111.271 246.323 107.743Z" fill="#A9B9EB"/>
<path d="M239.986 111.76C242.061 109.983 242.905 107.278 242.518 103.646C240.134 106.419 239.29 109.124 239.986 111.76Z" fill="#A9B9EB"/>
<path d="M222.996 123.991C219.748 129.051 219 133.653 220.751 137.795C223.715 134.427 224.463 129.826 222.996 123.991Z" fill="#A9B9EB"/>
<path d="M230.696 128.077C232.04 124.656 231.331 120.907 228.568 116.83C227.491 121.628 228.2 125.377 230.696 128.077Z" fill="#A9B9EB"/>
<path d="M232.755 112.668C231.813 116.843 232.43 120.105 234.605 122.454C235.777 119.478 235.16 116.216 232.755 112.668Z" fill="#A9B9EB"/>
<path d="M237.372 116.826C238.537 113.85 237.921 110.588 235.522 107.04C234.581 111.217 235.198 114.479 237.372 116.826Z" fill="#A9B9EB"/>
<path d="M213.264 143.026C222.33 137.418 221.447 137.424 226.364 133.138C227.693 131.982 228.928 130.81 230.069 129.623C232.376 127.162 234.409 124.458 236.133 121.558C238.223 118.2 239.428 115.492 239.749 113.433L239.887 113.201C239.95 113.151 239.969 113.063 239.93 112.992C239.939 112.913 239.914 112.834 239.862 112.774C239.791 112.731 239.711 112.705 239.628 112.699C239.549 112.691 239.47 112.715 239.41 112.767L239.282 112.88C239.241 112.952 239.214 113.032 239.204 113.115L239.167 113.126L239.155 113.308C238.798 115.312 237.613 117.944 235.601 121.202C233.876 124.06 231.843 126.721 229.539 129.137C228.394 130.362 227.186 131.527 225.921 132.628L225.589 132.913C227.785 129.515 227.84 125.313 225.755 120.305C223.534 125.249 223.479 129.451 225.589 132.913C220.734 137.095 221.761 136.966 212.921 142.43L213.264 143.026Z" fill="#A9B9EB"/>
<path d="M118.014 141.528C121.849 142.907 125.978 142.005 130.401 138.821C125.049 137.779 120.92 138.682 118.014 141.528Z" fill="#A9B9EB"/>
<path d="M123.87 136.258C127.517 136.972 131.112 135.589 134.655 132.11C129.687 131.908 126.093 133.29 123.87 136.258Z" fill="#A9B9EB"/>
<path d="M129.558 130.694C133.084 130.855 136.269 129.054 139.112 125.29C134.415 125.786 131.23 127.587 129.558 130.694Z" fill="#A9B9EB"/>
<path d="M141.188 118.511C137.392 119.752 135.073 121.806 134.232 124.672C137.185 124.177 139.504 122.123 141.188 118.511Z" fill="#A9B9EB"/>
<path d="M141.011 113.091C138.068 114.677 136.463 116.71 136.195 119.191C138.549 118.351 140.154 116.318 141.011 113.091Z" fill="#A9B9EB"/>
<path d="M135.215 116.766C137.113 115.14 137.885 112.666 137.531 109.344C135.35 111.88 134.578 114.354 135.215 116.766Z" fill="#A9B9EB"/>
<path d="M118.94 128.08C115.969 132.708 115.285 136.917 116.886 140.706C119.597 137.625 120.281 133.417 118.94 128.08Z" fill="#A9B9EB"/>
<path d="M126.898 131.024C128.128 127.895 127.479 124.465 124.952 120.736C123.967 125.124 124.616 128.554 126.898 131.024Z" fill="#A9B9EB"/>
<path d="M128.601 117.597C127.74 121.415 128.304 124.399 130.293 126.548C131.366 123.826 130.801 120.842 128.601 117.597Z" fill="#A9B9EB"/>
<path d="M132.825 121.399C133.89 118.677 133.326 115.693 131.132 112.448C130.272 116.269 130.836 119.252 132.825 121.399Z" fill="#A9B9EB"/>
<path d="M110.774 145.364C119.066 140.234 118.258 140.239 122.755 136.319C123.971 135.262 125.101 134.19 126.145 133.104C128.255 130.853 130.114 128.38 131.691 125.727C133.602 122.656 134.705 120.179 134.999 118.296L135.125 118.084C135.183 118.038 135.199 117.958 135.164 117.893C135.172 117.82 135.149 117.748 135.102 117.693C135.037 117.654 134.963 117.63 134.888 117.624C134.815 117.617 134.743 117.64 134.688 117.687L134.571 117.79C134.533 117.856 134.509 117.929 134.499 118.005L134.466 118.015L134.455 118.181C134.128 120.015 133.045 122.422 131.204 125.402C129.627 128.016 127.767 130.45 125.66 132.659C124.613 133.78 123.508 134.846 122.35 135.853L122.047 136.114C124.055 133.006 124.106 129.162 122.198 124.582C120.167 129.103 120.117 132.947 122.047 136.114C117.607 139.938 118.545 139.82 110.46 144.819L110.774 145.364Z" fill="#A9B9EB"/>
<path d="M18.6058 99.5547C18.6058 99.5547 16.6354 103.017 19.6171 109.259C22.6567 115.62 22.0257 120.025 22.0257 120.025L24.8449 122.481C24.8449 122.481 25.4697 115.778 22.7841 110.783C19.4147 104.534 18.6058 99.5547 18.6058 99.5547Z" fill="#A9B9EB"/>
<path d="M10.1525 101.401C10.1525 101.401 9.59992 104.285 13.0066 108.35C16.4874 112.488 17.036 115.835 17.036 115.835L19.3857 117.758C19.3857 117.758 18.4205 112.119 15.4845 108.919C11.817 104.914 10.1525 101.401 10.1525 101.401Z" fill="#A9B9EB"/>
<path d="M24.7119 106.247C24.7119 106.247 27.2808 108.073 28.8507 115.373C30.131 121.321 28.7427 124.413 29.5496 128.058L25.928 124.067C25.7323 121.485 27.4082 119.801 26.5086 114.351C25.6679 109.248 24.7119 106.247 24.7119 106.247Z" fill="#A9B9EB"/>
<path d="M47.6962 128.487C47.6962 128.487 48.8116 131.445 46.0448 138.372C43.7906 144.025 40.8217 144.75 40.2375 146.053L38.9922 143.175C40.5941 140.962 42.3776 141.248 44.67 136.222C46.8161 131.506 47.6962 128.487 47.6962 128.487Z" fill="#A9B9EB"/>
<path d="M30.7004 110.854C30.7004 110.854 32.428 116.014 32.8021 119.297C33.3427 123.963 31.4773 126.439 31.687 131.245L35.3743 136.434C35.3743 136.434 36.5473 129.376 35.6501 123.645C34.1451 114.029 30.7004 110.854 30.7004 110.854Z" fill="#A9B9EB"/>
<path d="M39.587 113.348C39.0459 116.352 38.9474 119.42 39.2943 122.453C40.4114 131.636 35.5051 138.542 35.5051 138.542L37.4057 140.392C37.4057 140.392 43.3777 135.603 42.2229 127.917C40.9935 119.796 39.587 113.348 39.587 113.348Z" fill="#A9B9EB"/>
<path d="M26.1192 124.719C26.1192 124.719 23.9594 123.936 14.9536 125.019C9.18257 125.715 10.8843 123.542 5.43018 125.152C9.56891 125.546 10.959 128.58 16.3643 128.244C20.6872 127.973 25.0247 128.041 29.3371 128.447L26.1192 124.719Z" fill="#A9B9EB"/>
<path d="M8.6272 130.448C8.6272 130.448 12.1302 134.921 20.1164 134.405C25.0319 134.101 29.9642 134.606 34.7157 135.902L32.3354 131.864C32.3354 131.864 29.0451 129.44 20.7926 130.773C15.1227 131.688 8.6272 130.448 8.6272 130.448Z" fill="#A9B9EB"/>
<path d="M13.3337 138.067C13.3337 138.067 16.8367 142.54 24.823 142.024C29.7385 141.72 34.6707 142.225 39.4222 143.521L37.0419 139.483C37.0419 139.483 33.7517 137.059 25.4992 138.393C19.8291 139.307 13.3337 138.067 13.3337 138.067Z" fill="#A9B9EB"/>
<path d="M3.08911 115.796C3.08911 115.796 5.62032 118.121 10.655 117.606C15.7604 117.081 19.5037 118.205 19.5037 118.205L18.0785 116.693C18.0785 116.693 15.999 115.161 10.7825 116.002C7.19519 116.579 3.08911 115.796 3.08911 115.796Z" fill="#A9B9EB"/>
<path d="M21.6515 120.681C21.6515 120.681 17.7247 120.255 11.946 120.724C8.29933 121.008 3.46851 118.78 3.46851 118.78C3.46851 118.78 7.16927 124.027 12.6237 123.26C18.8782 122.38 25.0449 123.265 25.0449 123.265L21.6515 120.681Z" fill="#A9B9EB"/>
<path d="M18.4559 117.298C18.4559 117.298 15.2287 112.156 9.75567 111.102C6.51743 110.451 3.41081 109.262 0.563965 107.587C0.563965 107.587 3.55821 112.892 8.68568 113.318C13.418 113.723 16.6821 116.871 16.6821 116.871L18.4559 117.298Z" fill="#A9B9EB"/>
<path d="M39.7945 146.143L40.6198 145.806C38.5357 140.716 29.0988 124.161 17.1381 115.856L16.6294 116.589C28.4238 124.78 37.7351 141.119 39.7945 146.143Z" fill="#A9B9EB"/>
<path d="M185.365 105.284C185.365 105.284 183.85 107.947 186.142 112.747C188.48 117.638 187.995 121.026 187.995 121.026L190.163 122.914C190.163 122.914 190.643 117.76 188.578 113.918C185.987 109.114 185.365 105.284 185.365 105.284Z" fill="#A9B9EB"/>
<path d="M178.864 106.705C178.864 106.705 178.439 108.923 181.059 112.048C183.736 115.231 184.158 117.805 184.158 117.805L185.965 119.283C185.965 119.283 185.222 114.947 182.965 112.486C180.144 109.406 178.864 106.705 178.864 106.705Z" fill="#A9B9EB"/>
<path d="M190.06 110.431C190.06 110.431 192.036 111.835 193.243 117.448C194.228 122.023 193.16 124.4 193.78 127.203L190.995 124.134C190.845 122.148 192.134 120.854 191.442 116.663C190.796 112.738 190.06 110.431 190.06 110.431Z" fill="#A9B9EB"/>
<path d="M207.735 127.533C207.735 127.533 208.593 129.807 206.465 135.135C204.732 139.482 202.449 140.039 201.999 141.041L201.042 138.828C202.274 137.127 203.645 137.346 205.408 133.481C207.058 129.854 207.735 127.533 207.735 127.533Z" fill="#A9B9EB"/>
<path d="M194.666 113.974C194.666 113.974 195.994 117.941 196.282 120.466C196.697 124.054 195.263 125.958 195.424 129.654L197.38 132.074C197.38 132.074 199.162 128.216 198.472 123.81C197.314 116.415 194.666 113.974 194.666 113.974Z" fill="#A9B9EB"/>
<path d="M201.871 116.024C201.455 118.335 201.379 120.694 201.646 123.026C202.505 130.088 198.732 135.399 198.732 135.399L200.194 136.821C200.194 136.821 204.786 133.139 203.898 127.228C202.953 120.983 201.871 116.024 201.871 116.024Z" fill="#A9B9EB"/>
<path d="M191.143 124.635C191.143 124.635 189.482 124.033 182.556 124.866C178.118 125.402 179.427 123.73 175.233 124.968C178.416 125.271 179.485 127.604 183.641 127.346C186.965 127.138 190.301 127.19 193.617 127.502L191.143 124.635Z" fill="#A9B9EB"/>
<path d="M177.691 129.041C177.691 129.041 180.385 132.481 186.526 132.084C190.307 131.85 194.099 132.239 197.753 133.235L195.923 130.13C195.923 130.13 193.393 128.266 187.047 129.291C182.686 129.995 177.691 129.041 177.691 129.041Z" fill="#A9B9EB"/>
<path d="M181.311 134.901C181.311 134.901 184.004 138.34 190.146 137.944C193.926 137.709 197.719 138.098 201.373 139.095L199.542 135.989C199.542 135.989 197.012 134.125 190.666 135.151C186.305 135.854 181.311 134.901 181.311 134.901Z" fill="#A9B9EB"/>
<path d="M173.432 117.774C173.432 117.774 175.379 119.562 179.251 119.166C183.177 118.762 186.055 119.626 186.055 119.626L184.959 118.464C184.959 118.464 183.36 117.285 179.349 117.932C176.59 118.376 173.432 117.774 173.432 117.774Z" fill="#A9B9EB"/>
<path d="M187.707 121.53C187.707 121.53 184.687 121.203 180.243 121.563C177.439 121.781 173.724 120.068 173.724 120.068C173.724 120.068 176.57 124.103 180.764 123.514C185.574 122.836 190.316 123.517 190.316 123.517L187.707 121.53Z" fill="#A9B9EB"/>
<path d="M185.249 118.929C185.249 118.929 182.768 114.975 178.559 114.164C176.069 113.663 173.68 112.749 171.491 111.461C171.491 111.461 173.793 115.541 177.736 115.868C181.375 116.18 183.885 118.6 183.885 118.6L185.249 118.929Z" fill="#A9B9EB"/>
<path d="M201.659 141.11L202.293 140.85C200.691 136.936 193.434 124.206 184.236 117.819L183.845 118.383C192.915 124.682 200.075 137.246 201.659 141.11Z" fill="#A9B9EB"/>
<path d="M266.105 115.104C266.105 115.104 266.877 118.038 263.461 122.049C259.979 126.135 259.581 129.5 259.581 129.5L257.026 130.756C257.026 130.756 257.878 125.7 260.832 122.55C264.535 118.611 266.105 115.104 266.105 115.104Z" fill="#A9B9EB"/>
<path d="M271.964 118.118C271.964 118.118 271.807 120.349 268.504 122.673C265.132 125.037 264.073 127.394 264.073 127.394L261.968 128.349C261.968 128.349 263.782 124.388 266.569 122.607C270.052 120.377 271.964 118.118 271.964 118.118Z" fill="#A9B9EB"/>
<path d="M260.301 118.835C260.301 118.835 258.053 119.676 255.469 124.741C253.363 128.868 253.779 131.415 252.472 133.94L255.918 131.711C256.568 129.849 255.664 128.282 257.393 124.447C259.01 120.856 260.301 118.835 260.301 118.835Z" fill="#A9B9EB"/>
<path d="M239.033 130.704C239.033 130.704 237.633 132.662 238.313 138.302C238.866 142.903 240.909 144.018 241.084 145.091L242.564 143.217C241.818 141.275 240.449 141.137 239.746 136.989C239.09 133.098 239.033 130.704 239.033 130.704Z" fill="#A9B9EB"/>
<path d="M254.992 121.054C254.992 121.054 252.711 124.513 251.793 126.856C250.482 130.183 251.37 132.371 250.275 135.867L247.787 137.686C247.787 137.686 247.064 133.54 248.846 129.498C251.836 122.716 254.992 121.054 254.992 121.054Z" fill="#A9B9EB"/>
<path d="M247.964 121.148C247.774 123.466 247.246 125.742 246.397 127.907C243.778 134.446 246.037 140.489 246.037 140.489L244.276 141.479C244.276 141.479 240.818 136.785 243.173 131.355C245.667 125.619 247.964 121.148 247.964 121.148Z" fill="#A9B9EB"/>
<path d="M255.65 132.154C255.65 132.154 257.393 132 263.809 134.56C267.92 136.202 267.093 134.27 270.791 136.522C267.668 136.002 266.052 137.963 262.139 136.658C259.011 135.612 255.805 134.813 252.552 134.268L255.65 132.154Z" fill="#A9B9EB"/>
<path d="M267.402 139.794C267.402 139.794 263.948 142.4 258.172 140.457C254.614 139.271 250.885 138.678 247.135 138.701L249.677 136.195C249.677 136.195 252.573 135.056 258.385 137.652C262.379 139.435 267.402 139.794 267.402 139.794Z" fill="#A9B9EB"/>
<path d="M262.447 144.48C262.447 144.48 258.994 147.086 253.217 145.144C249.659 143.958 245.93 143.364 242.18 143.388L244.722 140.882C244.722 140.882 247.618 139.742 253.43 142.339C257.424 144.122 262.447 144.48 262.447 144.48Z" fill="#A9B9EB"/>
<path d="M274.345 130.095C274.345 130.095 272.028 131.31 268.423 129.946C264.769 128.56 261.794 128.655 261.794 128.655L263.138 127.821C263.138 127.821 264.969 127.1 268.643 128.74C271.171 129.867 274.345 130.095 274.345 130.095Z" fill="#A9B9EB"/>
<path d="M259.728 130.056C259.728 130.056 262.702 130.511 266.863 131.987C269.491 132.91 273.482 132.216 273.482 132.216C273.482 132.216 269.732 135.353 265.868 133.721C261.437 131.849 256.725 131.294 256.725 131.294L259.728 130.056Z" fill="#A9B9EB"/>
<path d="M262.742 128.193C262.742 128.193 266.124 125.04 270.358 125.336C272.869 125.49 275.388 125.224 277.811 124.548C277.811 124.548 274.569 127.867 270.712 127.176C267.15 126.548 264.131 128.226 264.131 128.226L262.742 128.193Z" fill="#A9B9EB"/>
<path d="M241.392 145.244L240.851 144.834C243.381 141.496 253.566 131.16 263.995 127.389L264.225 128.028C253.942 131.747 243.891 141.949 241.392 145.244Z" fill="#A9B9EB"/>
<path d="M133.302 40.1598C132.836 39.3348 132.264 38.4925 131.604 37.6562C131.353 37.3388 131.407 36.8783 131.725 36.6275C132.042 36.3768 132.503 36.4308 132.753 36.7483C133.46 37.6434 134.074 38.5485 134.577 39.4388C134.777 39.7909 134.653 40.2377 134.301 40.4368C134.218 40.4834 134.131 40.5123 134.042 40.5248C133.753 40.5655 133.455 40.4297 133.302 40.1598ZM129.567 35.3904C128.837 34.6728 128.063 34.0011 127.267 33.394C126.945 33.1487 126.883 32.6891 127.128 32.3675C127.373 32.0458 127.833 31.984 128.155 32.2292C128.999 32.8732 129.82 33.5853 130.594 34.3457C130.882 34.6292 130.886 35.0929 130.603 35.3813C130.485 35.5008 130.337 35.5715 130.183 35.5932C129.965 35.6239 129.736 35.5565 129.567 35.3904ZM92.5061 37.7065C92.1024 37.7322 91.7543 37.4256 91.7287 37.022C91.7031 36.6183 92.0096 36.2703 92.4132 36.2446C93.3672 36.184 94.3882 36.0553 95.4409 35.8631C95.839 35.7905 96.2204 36.0541 96.293 36.452C96.3656 36.8499 96.102 37.2314 95.7041 37.3041C95.294 37.379 94.8844 37.4455 94.4869 37.5016C93.8095 37.5971 93.1431 37.6661 92.5061 37.7065ZM97.9248 36.074C97.818 35.6839 98.0476 35.281 98.4377 35.1741C99.3928 34.9125 100.385 34.6026 101.387 34.2528C101.769 34.1193 102.187 34.3211 102.32 34.7029C102.453 35.0848 102.252 35.5025 101.87 35.6358C100.836 35.9965 99.8119 36.3165 98.8248 36.5869C98.7942 36.5954 98.7635 36.6016 98.7328 36.606C98.3732 36.6567 98.0233 36.4334 97.9248 36.074ZM89.2479 37.6558C88.0784 37.5325 86.9912 37.286 86.0165 36.9233C85.6375 36.7823 85.4445 36.3605 85.5856 35.9815C85.7266 35.6023 86.1483 35.4094 86.5274 35.5504C87.3871 35.8704 88.3541 36.0885 89.4017 36.1991C89.8039 36.2415 90.0956 36.602 90.0532 37.0042C90.0172 37.3452 89.7526 37.6069 89.4277 37.6527C89.3694 37.661 89.3092 37.6623 89.2479 37.6558ZM124.733 31.7227C123.827 31.2147 122.906 30.7923 121.995 30.4677C121.614 30.3318 121.415 29.9129 121.551 29.5319C121.686 29.1509 122.105 28.9521 122.486 29.0879C123.475 29.4402 124.472 29.8969 125.45 30.4451C125.803 30.643 125.928 31.0893 125.73 31.4421C125.614 31.6495 125.412 31.7784 125.193 31.8092C125.04 31.8309 124.879 31.8043 124.733 31.7227ZM103.884 34.1037C103.729 33.7301 103.907 33.3015 104.28 33.1465C105.22 32.7567 106.172 32.3319 107.112 31.8837C107.477 31.7097 107.914 31.8646 108.089 32.2297C108.263 32.5948 108.108 33.0319 107.743 33.206C106.78 33.6649 105.804 34.1001 104.842 34.4994C104.783 34.5238 104.723 34.5399 104.663 34.5484C104.34 34.5941 104.015 34.4186 103.884 34.1037ZM109.582 31.4713C109.39 31.1155 109.523 30.6711 109.879 30.4789C110.22 30.2944 110.555 30.1092 110.882 29.9241C111.496 29.5774 112.13 29.2779 112.768 29.0339C113.146 28.8894 113.57 29.0787 113.714 29.4566C113.858 29.8344 113.669 30.2577 113.291 30.4023C112.721 30.6202 112.153 30.8883 111.604 31.1992C111.268 31.3889 110.925 31.5787 110.575 31.7677C110.496 31.8102 110.413 31.8369 110.329 31.8486C110.034 31.8903 109.732 31.7484 109.582 31.4713ZM83.0949 35.2395C82.3341 34.5975 81.676 33.826 81.1389 32.9462C80.9281 32.601 81.0371 32.1503 81.3823 31.9394C81.7275 31.7287 82.1783 31.8376 82.3891 32.1829C82.844 32.928 83.3993 33.5797 84.0396 34.1201C84.3488 34.381 84.3878 34.8431 84.127 35.1521C84.0061 35.2954 83.842 35.3808 83.6699 35.405C83.4707 35.4331 83.2608 35.3796 83.0949 35.2395ZM119.101 29.7528C118.104 29.6175 117.111 29.6024 116.151 29.708C115.749 29.7523 115.388 29.4621 115.343 29.06C115.299 28.6579 115.59 28.2961 115.991 28.2519C117.07 28.1333 118.182 28.1499 119.298 28.3012C119.699 28.3555 119.98 28.7246 119.925 29.1254C119.88 29.4577 119.619 29.7077 119.302 29.7524C119.237 29.7616 119.17 29.7621 119.101 29.7528Z" fill="white"/>
<path d="M134.876 37.6553L133.478 40.8587L150.468 49.3223L134.876 37.6553Z" fill="#BDCDFF"/>
<path d="M132.364 44.626L133.769 47.8862L149.71 48.9288L132.364 44.626Z" fill="#BDCDFF"/>
<path d="M150.468 49.3221L123.045 43.9927L131.667 39.5615L150.468 49.3221Z" fill="white"/>
<path d="M134.876 37.6549L150.468 49.3219L140.24 34.4688L134.876 37.6549Z" fill="white"/>
<path d="M170.255 154.401C252.594 154.401 319.343 151.289 319.343 147.45C319.343 143.612 252.594 140.5 170.255 140.5C87.9167 140.5 21.168 143.612 21.168 147.45C21.168 151.289 87.9167 154.401 170.255 154.401Z" fill="#95A6DB"/>
<path d="M96.7634 146.968L45.1995 147C40.4002 147.004 36.0293 143.115 35.4369 138.315L21.2348 23.2415C20.6424 18.4418 24.0529 14.5483 28.8523 14.5453L80.4162 14.5127C85.2156 14.5096 89.5865 18.3981 90.1789 23.1979L104.381 138.272C104.973 143.071 101.563 146.965 96.7634 146.968Z" fill="#264591"/>
<path d="M101.553 146.968L49.9887 147C45.1893 147.004 40.8184 143.115 40.226 138.315L26.0239 23.2415C25.4315 18.4418 28.842 14.5483 33.6414 14.5453L85.2053 14.5127C90.0047 14.5096 94.3756 18.3981 94.9679 23.1979L109.17 138.272C109.762 143.071 106.352 146.965 101.553 146.968Z" fill="#5E7CDB"/>
<path d="M99.0011 143.302L51.635 143.332C47.8916 143.335 44.4823 140.302 44.0203 136.558L30.3493 25.7876C29.8872 22.0438 32.5474 19.0069 36.2908 19.0046L83.6569 18.9746C87.4005 18.9722 90.8097 22.0053 91.2717 25.7491L104.943 136.519C105.405 140.263 102.745 143.3 99.0011 143.302Z" fill="white"/>
<path d="M96.9908 138.332L52.3974 138.361C49.506 138.362 46.8728 136.02 46.5159 133.128L45.3549 123.716L44.8538 119.649L43.8877 111.818L36.4437 51.446L33.6089 28.4558C33.252 25.5644 35.3064 23.218 38.1978 23.2164L44.9804 23.213L45.1112 24.271C45.3533 26.2174 47.1251 27.7935 49.0724 27.7918L74.3153 27.7648C76.2618 27.7631 77.6438 26.1828 77.4025 24.2364L77.2734 23.1919L82.7921 23.1885C85.6826 23.1859 88.3158 25.5298 88.6736 28.4212L89.4515 34.7297L101.58 133.093C101.937 135.986 99.8822 138.33 96.9908 138.332Z" fill="#95A6DB"/>
<path d="M71.4824 25.7236H50.188C49.5017 25.7236 48.877 25.1673 48.7927 24.481C48.7084 23.7946 49.1965 23.2383 49.8828 23.2383H71.1771C71.8635 23.2383 72.4882 23.7946 72.5724 24.481C72.6567 25.1673 72.1686 25.7236 71.4824 25.7236Z" fill="#8197DB"/>
<path d="M96.9908 138.332L52.3974 138.361C49.506 138.363 46.8728 136.021 46.5159 133.128L45.355 123.716L101.58 133.093C101.938 135.986 99.8822 138.331 96.9908 138.332Z" fill="#8197DB"/>
<path d="M89.4515 34.7297L36.4437 51.446L33.6089 28.4558C33.252 25.5644 35.3064 23.218 38.1978 23.2164L44.9804 23.213L45.1112 24.271C45.3533 26.2174 47.1251 27.7935 49.0724 27.7918L74.3153 27.7648C76.2618 27.7631 77.6438 26.1828 77.4025 24.2364L77.2734 23.1919L82.7921 23.1885C85.6826 23.1859 88.3158 25.5298 88.6736 28.4212L89.4515 34.7297Z" fill="#8197DB"/>
<path d="M191.105 97.8109L189.476 97.326L190.769 94.1289L192.901 94.5307L191.105 97.8109Z" fill="#DE623C"/>
<path d="M193.083 97.5492C193.192 95.8055 195.265 94.7938 195.36 95.4258C195.472 96.165 195.177 97.2693 195.177 97.2693C195.66 97.5083 197.882 96.6688 196.894 93.855L197.658 92.6451L196.015 91.3262L194.929 91.9784C191.515 92.8293 191.02 93.9161 190.898 96.6205C190.777 99.2808 192.981 99.1885 193.083 97.5492Z" fill="#F37A50"/>
<path d="M195.119 95.602C195.064 95.6237 195.008 95.6328 194.951 95.6366C194.955 95.6458 194.959 95.6545 194.963 95.6638C195.181 96.2128 195.039 96.7845 194.645 96.9407C194.58 96.9664 194.513 96.9779 194.444 96.9791C194.459 97.3548 194.307 97.6784 194.026 97.79C193.914 97.8343 193.794 97.8393 193.675 97.8128C193.714 98.1871 193.547 98.5362 193.232 98.6611C192.838 98.8174 192.368 98.5641 192.182 98.0956C191.996 97.6269 192.164 97.1203 192.558 96.9642C192.658 96.9246 192.762 96.9114 192.866 96.9213C192.73 96.4244 192.88 95.9433 193.236 95.802C193.301 95.7763 193.368 95.7647 193.437 95.7635C193.422 95.3879 193.574 95.0642 193.855 94.9527C193.959 94.9116 194.07 94.9042 194.181 94.9243C194.131 94.5937 194.273 94.2786 194.55 94.1689C194.882 94.0369 195.279 94.2508 195.437 94.6465C195.594 95.0422 195.452 95.4701 195.119 95.602Z" fill="#DE623C"/>
<path d="M192.106 93.1244C192.189 92.6486 192.666 91.6804 193.525 91.5888C194.384 91.4971 195.55 93.0938 194.859 93.1244C194.169 93.1551 193.61 92.5618 193.61 92.5618L192.106 93.1244Z" fill="#DE623C"/>
<path d="M221.628 58.1524C216.618 58.1668 211.513 60.1785 211.638 69.7392C211.764 79.2998 210.927 88.4433 208.284 89.8517C210.794 92.275 228.514 97.3626 235.592 90.8939C232.444 87.064 230.66 74.0757 230.66 70.552C230.66 65.751 229.319 58.1301 221.628 58.1524Z" fill="#201D40"/>
<path d="M225.605 142.995C225.377 140.719 228.115 123.467 228.115 123.467C231.436 108.237 228.568 97.2637 228.568 97.2637L219.475 105.434L221.677 120.644C221.677 120.644 221.276 121.75 221.065 122.635C219.919 127.432 221.06 133.166 221.766 136.987C222.093 138.758 222.602 142.48 222.615 143.326L221.181 145.18C221.181 145.18 226.372 150.925 227.17 150.961C228.722 151.031 228.265 149.494 228.265 149.494C226.131 147.303 225.671 143.647 225.605 142.995Z" fill="#F37A50"/>
<path d="M221.092 147.215L221.378 150.906L222.041 150.936L222.377 147.508C224.143 147.959 225.408 151.163 225.408 151.163C226.624 151.599 229.715 151.898 230.816 151.332C231.081 150.253 228.26 149.497 228.26 149.497C228.005 149.799 226.499 150.03 225.965 149.707C223.995 148.03 223.035 145.592 222.615 143.325C222.615 143.325 219.504 143.542 221.092 147.215Z" fill="#201D40"/>
<path d="M213.793 100.79C211.251 107.081 210.935 116.296 210.772 119.548C205.022 120.543 193.763 129.047 193.763 129.047L191.675 129.153C191.675 129.153 190.802 136.001 191.242 136.563C192.095 137.653 192.87 136.451 192.87 136.451C193.114 133.736 194.842 131.764 195.195 131.299C195.726 130.599 213.04 126.326 216.463 124.865C219.885 123.404 223.098 101.408 223.098 101.408L213.793 100.79Z" fill="#F37A50"/>
<path d="M190.247 130.276L187.915 132.612L188.28 133.078L190.794 131.315C191.514 132.771 190.081 135.488 190.081 135.488C190.492 136.565 192.085 138.83 193.107 139.246C193.991 138.799 192.864 136.451 192.864 136.451C192.512 136.454 191.481 135.569 191.39 135.02C191.381 132.713 192.473 130.648 193.763 129.047C193.763 129.047 191.809 127.068 190.247 130.276Z" fill="#201D40"/>
<path d="M226.571 76.084C226.571 76.084 231.56 80.0935 235.592 85.2851C236.703 87.1237 237.795 90.5078 237.795 90.5078C236.405 90.9826 224.255 81.2909 224.255 81.2909C224.255 81.2909 222.64 80.4981 223.227 78.4335C223.86 76.2062 226.571 76.084 226.571 76.084Z" fill="#F37A50"/>
<path d="M222.797 72.9904L219.321 72.4697L219.598 75.6964C219.598 75.6964 221.358 78.8688 223.029 78.3225C224.699 77.7761 223.884 76.3747 223.884 76.3747L222.797 72.9904Z" fill="#DE623C"/>
<path d="M217.849 69.7214C219.228 73.5298 221.335 75.302 224.383 74.649C226.902 74.1093 228.948 70.0251 227.875 66.2037C226.802 62.3824 223.499 59.9676 220.497 60.8103C217.496 61.6531 216.497 65.9895 217.849 69.7214Z" fill="#F37A50"/>
<path d="M221.002 68.1996C221.043 68.1816 221.078 68.15 221.1 68.1074C221.424 67.4876 222.224 67.4021 222.232 67.4012C222.344 67.3903 222.426 67.2907 222.416 67.1788C222.405 67.0667 222.228 66.8812 222.019 66.923C221.978 66.9313 221.125 67.0221 220.697 67.8411C220.645 67.941 220.725 68.1413 220.825 68.1936C220.882 68.2236 220.947 68.2237 221.002 68.1996Z" fill="#201D40"/>
<path d="M227.219 66.7729C227.238 66.7624 227.256 66.7486 227.272 66.7316C227.347 66.6484 227.342 66.5193 227.259 66.4432C226.613 65.8527 225.856 66.1373 225.824 66.1497C225.719 66.1905 225.667 66.3089 225.708 66.4139C225.748 66.5186 225.866 66.5707 225.971 66.5305C225.996 66.5212 226.529 66.3291 226.983 66.7445C227.049 66.8049 227.144 66.8137 227.219 66.7729Z" fill="#201D40"/>
<path d="M224.657 68.7877C224.951 69.0681 225.211 69.3587 225.488 69.5186C225.582 69.5725 225.616 69.6926 225.566 69.7885C225.363 70.1842 224.738 70.5277 224.353 70.7091C224.297 70.7355 224.247 70.6626 224.292 70.6199C224.674 70.2585 224.833 69.9972 224.899 69.8545C224.932 69.7835 224.928 69.7017 224.89 69.6335C224.803 69.4768 224.629 69.157 224.509 68.8914C224.468 68.7996 224.584 68.7184 224.657 68.7877Z" fill="#DE623C"/>
<path d="M222.928 72.2282C222.809 72.128 222.867 71.9354 223.021 71.918C223.413 71.8737 224.059 71.7873 224.661 71.6455C225.263 71.5037 225.879 71.2931 226.25 71.1577C226.396 71.1044 226.533 71.2511 226.472 71.3938C226.283 71.8325 225.844 72.5339 224.921 72.7512C223.998 72.9685 223.293 72.5365 222.928 72.2282Z" fill="white"/>
<path d="M215.708 69.8058C219.305 69.1815 224.218 64.8547 224.559 62.9481C223.772 60.7041 221.215 59.2655 219.152 60.3991C217.088 61.5326 214.066 67.0072 215.708 69.8058Z" fill="#201D40"/>
<path d="M223.371 64.4346C223.371 64.4346 225.711 65.5279 227.955 65.7504C226.867 63.295 226.075 61.4293 224.687 60.969C223.299 60.5088 221.841 60.5836 221.841 60.5836L223.371 64.4346Z" fill="#201D40"/>
<path d="M218.788 68.3259C219.546 68.8701 219.8 69.8144 219.355 70.4349C218.909 71.0555 217.933 71.1175 217.175 70.5733C216.417 70.029 216.163 69.0848 216.608 68.4643C217.054 67.8437 218.03 67.7817 218.788 68.3259Z" fill="#F37A50"/>
<path d="M218.445 70.2948C218.472 70.2801 218.496 70.259 218.514 70.2321C218.782 69.8451 218.792 69.4215 218.541 69.0991C218.284 68.7689 217.826 68.631 217.451 68.7713C217.345 68.8109 217.291 68.9284 217.331 69.034C217.37 69.1394 217.488 69.193 217.593 69.1536C217.799 69.0768 218.074 69.163 218.219 69.3498C218.359 69.5292 218.344 69.7601 218.179 69.9997C218.114 70.0923 218.138 70.2194 218.23 70.2837C218.296 70.3292 218.379 70.3307 218.445 70.2948Z" fill="#DE623C"/>
<path d="M225.689 67.6497C225.728 67.9548 226.007 68.1707 226.312 68.1318C226.617 68.093 226.833 67.8142 226.794 67.5091C226.755 67.204 226.477 66.9881 226.171 67.027C225.866 67.0658 225.651 67.3446 225.689 67.6497Z" fill="black"/>
<path d="M221.633 68.7993C221.675 69.1248 221.972 69.355 222.298 69.3136C222.623 69.2722 222.854 68.9747 222.812 68.6492C222.771 68.3237 222.473 68.0933 222.148 68.1347C221.822 68.1762 221.592 68.4737 221.633 68.7993Z" fill="black"/>
<path d="M234.175 75.0088C233.898 79.6258 234.834 85.1991 234.657 88.1072L237.795 90.5081C239.457 88.1937 238.546 81.2236 236.542 76.5839C235.75 75.548 234.175 75.0088 234.175 75.0088Z" fill="#F37A50"/>
<path d="M236.329 71.9004C236.329 71.9004 237.14 73.5833 237.497 75.1295C237.486 75.164 236.804 76.1423 236.542 76.5833C235.577 76.0465 234.801 75.7748 234.086 75.0807C234.404 72.5226 236.091 71.9035 236.329 71.9004Z" fill="#DE623C"/>
<path d="M236.741 77.868C236.003 78.0099 235.29 77.5268 235.148 76.7889L233.91 70.3559L236.582 69.8418L237.82 76.2747C237.962 77.0127 237.479 77.7259 236.741 77.868Z" fill="#494C7F"/>
<path d="M237.825 75.2249C237.786 75.1771 237.74 75.1398 237.69 75.1072C237.698 75.1008 237.707 75.0952 237.715 75.0885C238.195 74.7018 238.36 74.1089 238.082 73.7643C238.036 73.7078 237.981 73.6625 237.92 73.6262C238.126 73.2925 238.154 72.92 237.956 72.674C237.877 72.5764 237.771 72.5102 237.649 72.4728C237.877 72.1529 237.904 71.7496 237.682 71.4742C237.405 71.1297 236.847 71.1181 236.437 71.4482C236.027 71.7783 235.92 72.3254 236.197 72.67C236.268 72.7573 236.356 72.8229 236.455 72.8673C236.076 73.2491 235.965 73.7633 236.216 74.0749C236.262 74.1314 236.317 74.1768 236.378 74.213C236.172 74.5469 236.144 74.9193 236.342 75.1653C236.415 75.256 236.512 75.3197 236.623 75.3585C236.408 75.6333 236.375 75.9928 236.57 76.2349C236.805 76.5259 237.276 76.5358 237.622 76.2569C237.968 75.9777 238.059 75.5159 237.825 75.2249Z" fill="#F37A50"/>
<path d="M234.007 75.0981C233.583 74.4362 233.306 72.4774 234.758 71.6217C236.424 70.6399 235.776 72.0439 235.391 72.3577C234.355 73.2037 235.219 73.8818 234.828 74.6322C234.622 75.0269 234.279 75.5228 234.007 75.0981Z" fill="#F37A50"/>
<path d="M240.717 55.5332C240.717 55.5332 238.648 61.6159 234.154 64.3517C234.3 64.6938 237.183 69.5902 237.183 69.5902C237.183 69.5902 242.85 68.4555 248.321 70.0188C246.123 66.599 240.717 55.5332 240.717 55.5332Z" fill="#95A6DB"/>
<path d="M247.044 61.3578C249.113 65.4852 249.832 69.311 248.651 69.9029C247.469 70.4949 244.835 67.6287 242.767 63.5014C240.698 59.374 239.979 55.5481 241.16 54.9564C242.342 54.3643 244.976 57.2304 247.044 61.3578Z" fill="#494C7F"/>
<path d="M234.4 64.1963C233.325 64.6849 229.926 66.2833 231.277 69.2986C232.36 71.7167 235.67 70.5022 237.183 69.5901C236.562 68.5326 234.4 64.1963 234.4 64.1963Z" fill="#494C7F"/>
<path d="M241.677 61.0455C241.677 61.0455 243.973 59.71 245.292 61.713C246.367 63.6184 244.285 64.9848 243.65 65.1313C242.976 64.3138 241.677 61.0455 241.677 61.0455Z" fill="#768FDB"/>
<path d="M209.377 118.905C210.196 116.165 209.296 100.108 216.528 94.7734L228.972 96.0846C231.847 100.739 231.191 113.758 231.56 124.878C217.531 128.52 219.321 118.231 209.377 118.905Z" fill="#E62552"/>
<path d="M229.123 93.0136C229.123 90.2885 231.485 86.2059 230.353 83.4548C229.528 81.2418 227.908 76.2494 226.143 75.9123C225.427 75.7755 224.531 75.6991 223.648 75.6389C223.648 75.6389 224.166 77.95 223.001 78.0435C220.756 78.2235 219.577 75.3463 219.577 75.3463C218.367 75.2307 214.147 76.4901 214.15 76.9458C214.163 80.5156 215.733 86.2881 216.681 90.1476C216.857 92.1128 216.718 93.6371 216.521 94.7492C216.162 95.9084 215.723 96.5721 215.72 96.8228C215.72 96.8228 224.039 99.6489 229.331 96.7351C229.331 96.7351 229.123 94.8541 229.123 93.0136Z" fill="#E62552"/>
<path d="M197.452 92.8138C201.206 89.9753 203.39 86.4378 205.12 84.0931L201.702 80.9561C199.692 83.0008 197.658 87.0623 195.833 91.4354C195.935 92.7355 197.452 92.8138 197.452 92.8138Z" fill="#F37A50"/>
<path d="M217.304 81.521C217.304 81.521 209.377 84.289 205.12 84.093C203.019 83.6447 201.702 80.9559 201.702 80.9559L215.063 76.1898C215.063 76.1898 216.746 75.5548 217.85 77.3955C219.041 79.3811 217.304 81.521 217.304 81.521Z" fill="#F37A50"/>
<path d="M273.566 59.3273C273.312 55.867 274.312 52.81 277.071 51.2532C279.868 49.6752 283.371 51.2229 283.371 51.2229C283.371 51.2229 286.336 50.168 289.024 53.1281C291.711 56.0884 289.678 58.6934 290.777 60.8524C291.429 62.1308 294.739 62.3944 293.884 66.5589C293.637 67.7599 292.193 68.5683 290.969 68.6487C288.82 68.79 286.818 67.9589 285.947 68.79C283.075 71.5282 276.712 70.5379 275.822 68.0331C275.545 67.2564 269.822 68.7594 270.393 63.4695C270.682 60.7888 273.793 62.4193 273.566 59.3273Z" fill="#2C2858"/>
<path d="M291.011 76.3615C293.919 74.8669 300.594 72.3517 303.407 69.6051L299.087 66.5332C299.087 66.5332 289.213 69.7531 287.015 70.924C285.335 72.2942 287.734 75.7022 291.011 76.3615Z" fill="#F5A3B7"/>
<path d="M307.437 49.9537C306.378 48.5762 305.784 49.5309 305.234 49.8146C303.701 50.6062 304.764 46.9931 303.077 47.4894C303.527 50.0446 302.496 49.9833 303.273 52.448L303.091 53.4725L305.559 55.2872L305.835 54.1564C307.426 53.4415 309.146 52.1109 307.437 49.9537Z" fill="#DE623C"/>
<path d="M307.819 50.5142C307.48 49.6826 306.89 49.2866 306.613 49.1538C306.283 49.0042 305.282 49.364 305.116 49.7477C304.949 50.1313 305.068 50.5447 305.373 50.6982C305.456 50.7356 305.534 50.7483 305.634 50.7321C305.496 51.1364 305.615 51.5497 305.891 51.6826C305.945 51.6993 305.998 51.716 306.052 51.7326C306.027 52.0423 306.15 52.3276 306.368 52.419C306.451 52.4563 306.554 52.465 306.628 52.4527C306.57 52.7169 306.654 53.1073 306.873 53.1987C307.084 53.492 307.497 53.3501 307.735 53.1047C308.221 52.603 308.391 51.9223 307.819 50.5142Z" fill="#F37A50"/>
<path d="M302.986 53.1895C302.986 53.1895 299.963 62.7341 299.087 66.5332C298.739 68.0419 302.215 69.3707 303.407 69.6052C304.695 68.3399 305.559 65.2022 305.962 54.6897C305.059 53.6543 302.986 53.1895 302.986 53.1895Z" fill="#F5A3B7"/>
<path d="M274.91 76.3621C271.642 75.4381 264.095 71.7646 261.282 69.0181L264.639 65.8691C264.639 65.8691 274.311 68.5494 276.51 69.7203C276.726 71.7363 276.553 75.1516 274.91 76.3621Z" fill="#F5A3B7"/>
<path d="M256.739 48.7224C257.798 47.3448 258.393 48.2993 258.942 48.5832C260.475 49.3747 259.412 45.7617 261.099 46.258C260.65 48.8131 261.68 48.7517 260.903 51.2165L261.085 52.2412L258.617 54.0559L258.342 52.925C256.75 52.21 255.03 50.8794 256.739 48.7224Z" fill="#DE623C"/>
<path d="M256.357 49.2827C256.696 48.4511 257.286 48.0552 257.562 47.9224C257.892 47.7728 258.894 48.1325 259.06 48.5163C259.226 48.8998 259.108 49.3131 258.802 49.4668C258.72 49.5042 258.641 49.5167 258.542 49.5004C258.68 49.9048 258.561 50.3182 258.285 50.4511C258.231 50.4678 258.177 50.4844 258.124 50.5011C258.149 50.8107 258.026 51.0961 257.807 51.1874C257.725 51.2248 257.622 51.2334 257.547 51.2212C257.606 51.4854 257.522 51.8757 257.303 51.9672C257.091 52.2604 256.679 52.1186 256.441 51.8732C255.955 51.3716 255.784 50.6908 256.357 49.2827Z" fill="#F37A50"/>
<path d="M261.19 51.958C261.19 51.958 264.185 61.9528 265.061 65.7518C265.408 67.2604 262.475 68.7834 261.283 69.018C260.915 67.6052 258.113 63.6993 258.214 53.4582C259.118 52.4226 261.19 51.958 261.19 51.958Z" fill="#F5A3B7"/>
<path d="M279.444 63.6992V71.6184C279.444 71.6184 282.385 73.0263 284.933 71.6184C284.541 69.8586 284.308 64.2524 284.308 64.2524L279.444 63.6992Z" fill="#DE623C"/>
<path d="M276.205 69.7197H279.444C279.444 69.7197 280.826 72.0137 282.808 71.8363C284.791 71.6591 284.67 69.7197 284.67 69.7197L288.663 70.2496C288.663 70.2496 291.737 75.6149 291.264 79.8934C290.761 84.4396 287.539 86.291 287.713 93.2033C282.642 94.7984 277.601 94.7984 274.081 90.5947C275.355 85.7622 275.423 81.8264 274.423 76.0072C274.944 73.2207 276.205 69.7197 276.205 69.7197Z" fill="#F5A3B7"/>
<path d="M288.401 60.7468C288.401 64.8991 285.897 68.2652 282.808 68.2652C279.719 68.2652 277.215 64.8991 277.215 60.7468C277.215 56.5946 279.719 53.2285 282.808 53.2285C285.897 53.2285 288.401 56.5946 288.401 60.7468Z" fill="#F37A50"/>
<path d="M276.844 60.7469C279.931 60.3522 282.802 58.6318 284.423 56.4086C285.47 59.0071 288.401 60.7469 288.401 60.7469C288.401 60.7469 290.598 55.7764 286.603 53.0951C282.792 50.5371 273.7 52.2849 276.844 60.7469Z" fill="#2C2858"/>
<path d="M280.455 62.3509C280.127 62.3509 279.861 62.0848 279.861 61.7565C279.861 61.4282 280.127 61.1621 280.455 61.1621C280.784 61.1621 281.05 61.4282 281.05 61.7565C281.05 62.0847 280.784 62.3509 280.455 62.3509Z" fill="black"/>
<path d="M285.193 62.3509C284.864 62.3509 284.598 62.0848 284.598 61.7565C284.598 61.4282 284.864 61.1621 285.193 61.1621C285.521 61.1621 285.787 61.4282 285.787 61.7565C285.787 62.0847 285.521 62.3509 285.193 62.3509Z" fill="black"/>
<path d="M286.24 61.2211C286.143 61.2212 286.048 61.1711 285.994 61.0812C285.847 60.8337 285.67 60.6853 285.466 60.6402C285.113 60.5622 284.764 60.7974 284.761 60.7998C284.631 60.8885 284.454 60.8562 284.364 60.7271C284.275 60.598 284.306 60.4213 284.435 60.3313C284.457 60.3158 284.985 59.9524 285.583 60.0813C285.95 60.1606 286.253 60.399 286.485 60.7901C286.566 60.9256 286.521 61.1008 286.385 61.1812C286.34 61.2083 286.29 61.2211 286.24 61.2211Z" fill="#2C2858"/>
<path d="M279.328 61.2499C279.265 61.2499 279.202 61.2294 279.149 61.1872C279.026 61.0886 279.007 60.9089 279.105 60.7859C279.48 60.3175 279.896 60.0626 280.34 60.0283C280.912 59.9839 281.306 60.3371 281.322 60.3522C281.439 60.4586 281.447 60.6391 281.34 60.7555C281.234 60.8712 281.055 60.8798 280.939 60.7752C280.93 60.768 280.696 60.5702 280.376 60.5981C280.099 60.6224 279.821 60.8057 279.551 61.143C279.494 61.2133 279.411 61.2499 279.328 61.2499Z" fill="#2C2858"/>
<path d="M283.398 62.5371C284.167 63.0914 284.407 63.319 284.703 63.5037C284.498 64.1901 283.422 64.531 283.116 64.4518C283.866 64.0822 283.971 63.5815 283.971 63.5815L283.398 62.5371Z" fill="#DE623C"/>
<path d="M276.837 60.5865C276.837 60.5865 276.325 53.7035 283.116 53.3636C286.063 53.216 288.039 55.2884 288.039 55.2884C288.039 55.2884 286.667 51.8848 282.368 52.2707C278.125 52.6215 275.05 55.59 276.837 60.5865Z" fill="#C4204A"/>
<path d="M278.051 61.3265C278.692 62.1382 278.724 63.1812 278.122 63.6562C277.521 64.1313 276.513 63.8583 275.873 63.0466C275.232 62.2348 275.2 61.1918 275.801 60.7168C276.403 60.2418 277.41 60.5148 278.051 61.3265Z" fill="#F37A50"/>
<path d="M277.488 63.0802C277.464 63.0802 277.438 63.0754 277.414 63.0653C277.317 63.0243 277.272 62.9127 277.313 62.8159C277.449 62.4941 277.452 62.2352 277.322 62.0465C277.122 61.7551 276.649 61.6651 276.305 61.6765C276.2 61.6802 276.112 61.5977 276.109 61.4927C276.105 61.3876 276.187 61.2996 276.292 61.2961C276.753 61.2808 277.349 61.4131 277.636 61.8308C277.779 62.039 277.9 62.4045 277.664 62.9638C277.633 63.0365 277.562 63.0802 277.488 63.0802Z" fill="#DE623C"/>
<path d="M281.324 65.4667C281.245 65.3366 281.358 65.1746 281.507 65.2061C281.887 65.2863 282.516 65.4053 283.121 65.4593C283.727 65.5134 284.367 65.5075 284.755 65.496C284.907 65.4915 284.99 65.6708 284.888 65.7848C284.576 66.1355 283.95 66.6541 283.022 66.5712C282.094 66.4886 281.569 65.8672 281.324 65.4667Z" fill="white"/>
<path d="M279.444 69.6055C279.444 69.6055 280.594 71.6524 282.642 71.8456C282.189 72.6281 281.718 73.2214 280.744 72.9897C278.919 72.5552 279.444 69.6055 279.444 69.6055Z" fill="white"/>
<path d="M284.67 69.7197C284.541 70.2303 284.784 71.6979 282.642 71.8453C282.853 72.236 283.288 73.3718 284.545 72.9662C285.983 72.5026 285.229 70.011 284.67 69.7197Z" fill="white"/>
<path d="M259.471 105.971L257.034 108.64C257.034 108.64 255.666 108.917 254.682 109.33C254.494 109.409 254.32 109.493 254.172 109.581C254.167 109.584 254.162 109.588 254.157 109.591C253.976 109.7 253.741 109.837 253.47 109.981C253.312 110.064 253.141 110.151 252.963 110.236C251.89 110.746 250.518 111.2 249.668 110.74C247.739 108.287 250.715 105.284 253.174 104.158C255.633 103.032 256.399 101.371 257.573 101.742C258.747 102.113 259.471 105.971 259.471 105.971Z" fill="#494C7F"/>
<path d="M258.106 104.895C258.585 105.244 260.335 106.67 260.335 106.67L257.958 110.149C257.958 110.149 257.502 109.448 256.438 108.449C254.229 106.376 256.969 104.064 258.106 104.895Z" fill="#F37A50"/>
<path d="M273.296 117.036C269.671 111.161 259.823 105.564 259.823 105.564C259.823 105.564 258.151 107.796 257.442 110.28C257.442 110.28 266.345 119.897 268.937 122.523C271.555 124.499 275.106 120.581 273.296 117.036Z" fill="#4364CC"/>
<path d="M278.726 127.354L276.771 130.186L279.896 131.36L281.892 129.111L278.726 127.354Z" fill="#F37A50"/>
<path d="M287.531 97.3203L278.598 102.232C278.598 102.232 287.526 114.55 292.895 117.508C293.83 118.023 298.939 115.033 298.875 113.96C298.641 110.048 287.531 97.3203 287.531 97.3203Z" fill="#4364CC"/>
<path d="M292.133 111.868C291.155 111.749 278.726 127.354 278.726 127.354C278.726 127.354 280.782 129.123 282.936 129.92C291.669 121.51 296.037 118.107 298.915 114.742C299.975 112.027 295.821 109.977 292.133 111.868Z" fill="#4364CC"/>
<path d="M282.554 99.8627C282.554 99.8627 274.573 91.188 272.286 93.389C269.999 95.5901 269.504 113.388 268.214 120.066C267.569 123.402 272.483 124.572 273.641 122.954C275.732 120.035 282.554 99.8627 282.554 99.8627Z" fill="#768FDB"/>
<path d="M283.434 137.241C279.602 136.066 276.949 133.803 275.711 132.563C275.244 132.096 275.235 131.342 275.691 130.864C276.321 130.204 277.118 129.403 277.632 128.939C277.733 128.847 277.823 128.769 277.899 128.708L280.865 130.268L280.985 130.331C280.906 130.938 281.038 131.461 281.287 131.929C281.365 132.077 281.455 132.219 281.554 132.357C281.684 132.538 281.829 132.712 281.982 132.88C282.095 133.005 282.213 133.126 282.333 133.245C283.593 134.499 285.042 135.496 283.434 137.241Z" fill="#494C7F"/>
<path d="M270.959 98.4827C270.959 98.4827 270.42 94.8673 274.08 90.5947C277.169 93.0313 280.259 94.5343 287.713 93.2033C288.316 97.0479 287.989 98.1522 287.989 98.1522L281.747 101.689L270.959 98.4827Z" fill="#768FDB"/>
<path d="M133.785 104.372C133.785 104.372 132.451 104.028 132.872 103.604C133.548 102.922 133.585 103.867 134.301 104.012C134.936 104.14 133.971 100.994 130.901 101.515C130.455 101.59 129.597 100.824 129.597 100.824L128.633 103.133L128.696 103.61C128.673 105.374 129.525 105.907 130.212 106.329L133.785 104.372Z" fill="#DE623C"/>
<path d="M111.779 79.4843C109.397 83.0702 111.211 88.6263 115.386 97.6109C119.143 97.4028 120.004 94.9069 120.004 94.9069C120.004 94.9069 119.114 86.5583 118.353 84.0473C116.527 78.0203 112.927 77.7556 111.779 79.4843Z" fill="#0E6A41"/>
<path d="M129.8 100.824L120.004 94.9072L115.386 97.6112C118.081 100.026 121.479 102.178 128.618 103.809C129.546 102.555 129.8 100.824 129.8 100.824Z" fill="#0E6A41"/>
<path d="M80.3826 108.246L77.9162 110.947C77.9162 110.947 76.5327 111.227 75.5365 111.645C75.3465 111.725 75.1705 111.81 75.021 111.899C75.0156 111.902 75.0102 111.906 75.0049 111.909C74.8225 112.019 74.5843 112.158 74.31 112.303C74.1503 112.388 73.9775 112.476 73.7968 112.562C72.7116 113.077 71.3225 113.538 70.4624 113.072C68.5104 110.589 71.5223 107.551 74.0106 106.411C76.4995 105.272 77.2743 103.591 78.4624 103.967C79.6505 104.342 80.3826 108.246 80.3826 108.246Z" fill="#181630"/>
<path d="M75.5363 111.645C75.3463 111.725 75.1704 111.81 75.0208 111.899L74.2987 110.089C74.2398 109.942 74.3115 109.775 74.4583 109.717C74.498 109.701 74.5385 109.695 74.5785 109.697C74.6872 109.702 74.7876 109.769 74.8303 109.876L75.5363 111.645Z" fill="white"/>
<path d="M74.3101 112.303C74.1504 112.388 73.9775 112.476 73.7969 112.562L73.2 111.067C73.1417 110.92 73.2134 110.753 73.3602 110.694C73.3992 110.679 73.4404 110.672 73.4798 110.674C73.5885 110.679 73.6896 110.747 73.7323 110.854L74.3101 112.303Z" fill="white"/>
<path d="M79.0016 107.157C79.4854 107.51 81.2568 108.953 81.2568 108.953L78.8518 112.473C78.8518 112.473 78.3902 111.764 77.313 110.753C75.078 108.656 77.8507 106.316 79.0016 107.157Z" fill="#F37A50"/>
<path d="M94.3725 119.442C90.705 113.497 80.7391 107.834 80.7391 107.834C80.7391 107.834 79.0467 110.092 78.3293 112.605C78.3293 112.605 87.3384 122.338 89.9622 124.995C92.6115 126.995 96.2049 123.03 94.3725 119.442Z" fill="#C4204A"/>
<path d="M115.924 141.858L117.107 145.133L119.911 143.248L119.231 140.282L115.924 141.858Z" fill="#F37A50"/>
<path d="M107.807 100.824L98.2925 104.81C98.2925 104.81 105.958 118.162 111.044 121.713C111.93 122.331 117.39 119.869 117.441 118.783C117.625 114.821 107.807 100.824 107.807 100.824Z" fill="#C4204A"/>
<path d="M111.044 121.712C110.371 122.448 115.924 141.857 115.924 141.857C115.924 141.857 118.589 141.204 120.511 139.898C118.715 127.761 118.479 122.162 117.398 117.814C115.784 115.345 111.654 117.563 111.044 121.712Z" fill="#C4204A"/>
<path d="M103.741 102.097C103.741 102.097 96.5393 95.33 94.2251 97.5573C91.911 99.7847 90.5357 115.783 89.2298 122.542C88.5777 125.917 93.55 127.101 94.7219 125.464C96.8374 122.51 103.741 102.097 103.741 102.097Z" fill="#E62552"/>
<path d="M115.963 62.0715C117.057 58.9215 115.27 54.5208 111.778 55.2874C108.285 56.0539 106.224 57.1807 105.006 52.9465C104.035 49.5745 99.7537 47.511 95.2361 49.4441C89.4564 51.9172 93.4192 54.9602 90.1671 55.2531C86.9149 55.5461 83.7632 56.1869 85.4366 60.3589C87.1099 64.5308 91.9424 66.2599 96.4342 63.7665C100.926 61.2731 100.488 65.0189 103.186 64.9004C107.023 64.732 115.963 62.0715 115.963 62.0715Z" fill="#201D40"/>
<path d="M109.224 66.1718C107.733 70.1056 109.028 74.2445 112.118 75.416C115.207 76.5877 118.921 74.3485 120.413 70.4147C121.905 66.4809 120.609 62.3421 117.52 61.1705C114.43 59.9989 110.716 62.2381 109.224 66.1718Z" fill="#F37A50"/>
<path d="M109.671 70.8018L113.226 75.0326C113.226 75.0326 112.941 77.3452 112.928 77.6708C112.873 79.0445 111.111 78.9928 110.06 77.7375C109.009 76.4822 108.465 75.0659 108.465 75.0659L109.671 70.8018Z" fill="#F37A50"/>
<path d="M120.856 69.7C119.819 69.2034 114.414 65.4406 114.124 64.1041C113.228 66.6899 108.277 68.182 108.038 67.2368C107.989 61.8227 110.816 58.252 116.515 59.1634C124.331 60.4131 120.856 69.7 120.856 69.7Z" fill="#2C2858"/>
<path d="M113.313 69.1837C113.388 69.5419 113.739 69.7719 114.097 69.6973C114.456 69.6226 114.686 69.2717 114.611 68.9134C114.536 68.5551 114.185 68.3251 113.827 68.3998C113.469 68.4744 113.239 68.8254 113.313 69.1837Z" fill="black"/>
<path d="M117.677 70.7373C117.748 71.0736 118.077 71.2895 118.413 71.2194C118.75 71.1494 118.966 70.82 118.895 70.4836C118.825 70.1472 118.496 69.9315 118.16 70.0014C117.823 70.0716 117.607 70.4009 117.677 70.7373Z" fill="black"/>
<path d="M119.74 70.1024C119.766 70.1007 119.792 70.0943 119.816 70.0829C119.938 70.0268 119.995 69.8705 119.943 69.7337C119.539 68.6715 118.592 68.5849 118.552 68.5817C118.42 68.5713 118.306 68.6823 118.299 68.8297C118.291 68.9768 118.392 69.1044 118.524 69.1155C118.555 69.1184 119.218 69.1895 119.502 69.9366C119.543 70.0453 119.641 70.109 119.74 70.1024Z" fill="#2C2858"/>
<path d="M113.146 67.7844C113.127 67.7663 113.112 67.7446 113.101 67.7197C113.045 67.5978 113.104 67.4423 113.233 67.3727C114.231 66.8312 115.006 67.384 115.039 67.4078C115.145 67.486 115.159 67.6442 115.068 67.7608C114.978 67.8769 114.819 67.9081 114.712 67.8305C114.686 67.8125 114.137 67.4333 113.434 67.8142C113.332 67.8696 113.217 67.8542 113.146 67.7844Z" fill="#2C2858"/>
<path d="M117.08 70.9939C117.12 71.4446 117.124 71.8783 117.238 72.2155C117.276 72.329 117.216 72.4542 117.105 72.4983C116.644 72.6795 115.869 72.5071 115.415 72.3762C115.348 72.3569 115.36 72.2595 115.429 72.2569C116.013 72.235 116.339 72.1339 116.498 72.063C116.578 72.0277 116.635 71.9564 116.653 71.8715C116.695 71.6766 116.785 71.2818 116.88 70.972C116.913 70.865 117.07 70.8825 117.08 70.9939Z" fill="#DE623C"/>
<path d="M110.104 68.2828C110.504 69.1876 110.228 70.1865 109.487 70.5139C108.747 70.8413 107.822 70.3731 107.422 69.4683C107.022 68.5635 107.298 67.5646 108.039 67.2372C108.779 66.9099 109.704 67.3779 110.104 68.2828Z" fill="#F37A50"/>
<path d="M109.07 69.7353C109.102 69.7288 109.133 69.7147 109.16 69.6931C109.551 69.3835 109.692 68.9571 109.537 68.5526C109.378 68.1384 108.956 67.8571 108.532 67.8836C108.413 67.8911 108.322 67.9937 108.33 68.113C108.337 68.2323 108.44 68.3228 108.559 68.3154C108.791 68.3009 109.043 68.4731 109.133 68.7074C109.219 68.9326 109.134 69.1621 108.891 69.3539C108.798 69.428 108.782 69.5641 108.856 69.6578C108.908 69.7243 108.992 69.7515 109.07 69.7353Z" fill="#DE623C"/>
<path d="M109.85 103.25C100.855 103.354 93.3828 98.3854 93.3828 98.3854C93.7951 97.3478 94.8937 95.2446 97.8259 92.227C98.5744 89.0272 100.15 81.6262 100.684 79.8195C103.376 75.441 104.273 76.8681 104.254 74.3271L108.517 74.9131C108.517 74.9131 109.284 77.8287 111.636 78.3624C113.107 78.6957 112.96 77.093 112.96 77.093C112.96 77.093 115.033 78.7121 115.589 79.358C115.589 79.358 116.853 84.8762 116.502 86.4037C115.861 89.1886 111.486 96.6753 111.486 96.6753C111.486 96.6753 109.783 102.449 109.85 103.25Z" fill="#3F964F"/>
<path d="M84.7469 95.5587C84.6872 94.507 84.7236 92.9868 85.3141 93.0795C86.2622 93.2283 86.5733 93.5872 87.2778 93.7792C87.9025 93.9498 87.6033 92.7857 85.3999 90.9592L85.487 90.1134L83.2128 89.3682L83.1501 89.7661C81.6477 90.6043 80.857 92.7239 81.6768 94.9285C82.0273 95.8708 84.8263 96.961 84.7469 95.5587Z" fill="#F37A50"/>
<path d="M107.105 75.8458C104.06 72.8037 98.5801 73.8882 88.9485 76.2087C88.8076 78.9954 89.5826 81.1952 89.5826 81.1952C89.5826 81.1952 98.7234 81.6413 101.335 81.3906C107.604 80.7891 108.573 77.3125 107.105 75.8458Z" fill="#0E6A41"/>
<path d="M85.8026 90.5165L92.255 81.062C92.255 81.062 90.2256 77.3302 88.9485 76.208C86.5931 79.448 84.3711 83.3973 82.8362 89.2877C84.0757 90.2359 85.8026 90.5165 85.8026 90.5165Z" fill="#0E6A41"/>
<path d="M128.158 143.621C124.938 146.087 120.192 147.113 118.443 147.404C117.783 147.513 117.157 147.078 117.031 146.421C116.857 145.515 116.666 144.387 116.586 143.691C116.57 143.554 116.559 143.434 116.552 143.336L119.581 141.809L119.703 141.747C120.156 142.168 120.665 142.367 121.197 142.437C121.365 142.46 121.535 142.469 121.707 142.469C121.932 142.469 122.161 142.451 122.389 142.424C122.558 142.404 122.727 142.377 122.896 142.349C124.669 142.047 127.665 141.27 128.158 143.621Z" fill="#181630"/>
<path d="M121.706 142.469L121.729 143.361C121.732 143.501 121.621 143.618 121.481 143.621C121.34 143.624 121.224 143.514 121.22 143.374L121.197 142.438C121.364 142.461 121.535 142.47 121.706 142.469Z" fill="white"/>
<path d="M122.896 142.349L122.913 143.023C122.916 143.164 122.805 143.28 122.665 143.284C122.525 143.287 122.408 143.177 122.405 143.036L122.389 142.423C122.558 142.403 122.727 142.377 122.896 142.349Z" fill="white"/>
<path d="M103.971 102.668L103.59 102.575C105.303 98.5974 108.882 92.0945 111.022 88.108C111.217 87.7446 111.4 87.4037 111.569 87.0895C113.518 83.4523 111.834 78.4409 111.818 78.3924L112.23 78.3828C112.247 78.4339 112.705 79.7137 112.867 81.4165C113.017 82.9945 112.973 85.2915 111.911 87.2731C111.743 87.5874 111.56 87.9284 111.365 88.2918C109.227 92.2728 105.677 98.7057 103.971 102.668Z" fill="#0E6A41"/>
<path d="M113.308 72.8214C113.287 72.6806 113.435 72.5683 113.547 72.6409C113.831 72.8255 114.307 73.1188 114.785 73.3469C115.264 73.575 115.792 73.7593 116.114 73.8637C116.241 73.9048 116.247 74.0908 116.125 74.1634C115.748 74.3869 115.056 74.6684 114.322 74.3189C113.589 73.9695 113.371 73.2546 113.308 72.8214Z" fill="white"/>
<path d="M167.349 74.7414C162.675 77.4627 167.469 89.6599 172.339 93.4881C172.339 93.4881 178.246 92.5204 176.98 90.0806C173.38 83.1435 171.009 72.6106 167.349 74.7414Z" fill="#4364CC"/>
<path d="M190.846 94.1117L176.264 88.9092C176.264 88.9092 174.105 90.8236 172.34 93.4877C174.666 95.0899 178.933 96.8395 189.553 97.3087C190.3 96.5003 190.846 94.1117 190.846 94.1117Z" fill="#4364CC"/>
<path d="M163.427 67.6034L163.43 67.6039L165.819 68.0119L165.62 74.076L162.381 74.7542L159.649 72.801L161.076 67.2197L163.427 67.6034Z" fill="#F37A50"/>
<path d="M159.35 62.7843C159.21 66.9686 161.761 70.4496 165.047 70.5595C168.333 70.6693 171.111 67.3664 171.251 63.1822C171.391 58.998 168.84 55.5168 165.554 55.407C162.267 55.2972 159.49 58.6001 159.35 62.7843Z" fill="#F37A50"/>
<path d="M167.18 64.1836C167.643 65.0527 168.232 66.1148 168.232 66.1148C168.232 66.1148 167.866 66.9721 166.707 66.9038C167.211 66.7351 167.719 66.4388 167.565 65.771C167.41 65.1032 167.18 64.1836 167.18 64.1836Z" fill="#DE623C"/>
<path d="M158.573 59.2718C158.876 55.3133 162.676 54.6314 162.676 54.6314C162.676 54.6314 161.92 54.2149 162.312 53.0684C162.82 53.5111 163.487 53.788 164.159 53.833C168.692 54.136 171.377 55.338 170.641 57.0116C170.379 57.6071 173.219 58.4089 171.241 62.3203C171.047 61.7869 171.105 59.9167 170.305 59.369C169.502 58.8195 169.78 60.333 167.848 59.7822C165.898 59.2266 164.742 58.186 163.163 58.7291C161.886 59.2472 159.646 63.7541 159.658 64.0897C159.63 63.3199 158.44 61.0114 158.573 59.2718Z" fill="#201D40"/>
<path d="M170.909 65.422C170.909 65.422 170.158 67.5831 169.573 68.0964C169.627 67.1212 167.426 67.3729 166.5 67.3006C164.823 67.1695 163.39 65.4224 162.47 67.5004C160.345 67.2709 160.353 62.5088 160.353 62.5088C158.284 66.9236 160.038 70.6885 165.064 72.0112C168.374 72.8828 170.953 68.9025 170.909 65.422Z" fill="#201D40"/>
<path d="M164.837 63.5432C164.52 63.5119 164.289 63.2299 164.32 62.9132C164.351 62.5966 164.634 62.3651 164.95 62.3964C165.267 62.4276 165.498 62.7097 165.467 63.0264C165.436 63.343 165.154 63.5745 164.837 63.5432Z" fill="black"/>
<path d="M169.558 64.1535C169.241 64.1223 169.01 63.8402 169.041 63.5235C169.073 63.2069 169.355 62.9754 169.671 63.0067C169.988 63.038 170.219 63.3201 170.188 63.6367C170.157 63.9535 169.875 64.1848 169.558 64.1535Z" fill="black"/>
<path d="M170.7 63.1246C170.603 63.115 170.513 63.0559 170.469 62.9611C170.347 62.6999 170.185 62.5346 169.986 62.4696C169.643 62.3572 169.272 62.5573 169.268 62.5594C169.13 62.635 168.956 62.5853 168.88 62.4479C168.804 62.3104 168.852 62.1375 168.989 62.0604C169.013 62.0471 169.574 61.737 170.157 61.9241C170.515 62.0391 170.795 62.3066 170.987 62.7192C171.054 62.8622 170.992 63.0323 170.849 63.0991C170.801 63.1216 170.75 63.1295 170.7 63.1246Z" fill="#201D40"/>
<path d="M163.706 62.4227C163.644 62.4165 163.583 62.3899 163.535 62.3427C163.422 62.2323 163.42 62.0513 163.53 61.9385C163.95 61.5087 164.389 61.2955 164.835 61.305C165.409 61.317 165.767 61.7077 165.782 61.7242C165.887 61.8417 165.878 62.0224 165.76 62.1279C165.643 62.2329 165.464 62.2237 165.358 62.108C165.351 62.1 165.137 61.8799 164.815 61.8763C164.536 61.8732 164.241 62.0286 163.939 62.3379C163.876 62.4026 163.79 62.4308 163.706 62.4227Z" fill="#201D40"/>
<path d="M160.296 62.5188C160.887 63.3056 160.845 64.336 160.201 64.8202C159.558 65.3044 158.556 65.0594 157.964 64.2726C157.372 63.4859 157.414 62.4555 158.058 61.9711C158.702 61.4869 159.704 61.732 160.296 62.5188Z" fill="#F37A50"/>
<path d="M159.329 64.3921C159.361 64.3857 159.392 64.3721 159.419 64.3509C159.811 64.0457 159.955 63.6226 159.804 63.219C159.649 62.8055 159.23 62.5222 158.809 62.5453C158.69 62.5519 158.599 62.6532 158.606 62.7719C158.612 62.8907 158.713 62.9815 158.832 62.9751C159.063 62.9626 159.313 63.1359 159.4 63.3699C159.484 63.5946 159.397 63.8223 159.155 64.0113C159.061 64.0843 159.044 64.2195 159.117 64.3133C159.169 64.3797 159.252 64.4076 159.329 64.3921Z" fill="#DE623C"/>
<path d="M166.536 69.1432C165.076 69.1432 164.14 67.9088 164.128 67.8924C164.051 67.7875 164.073 67.6396 164.178 67.562C164.282 67.4845 164.43 67.5064 164.508 67.611C164.562 67.6844 165.871 69.3954 167.782 68.3135C167.895 68.2492 168.039 68.2891 168.104 68.4028C168.168 68.5162 168.128 68.6603 168.014 68.7246C167.48 69.0273 166.983 69.1432 166.536 69.1432Z" fill="#DE623C"/>
<path d="M167.339 141.041L168.008 143.615L171.767 142.367L171.688 140.5L167.339 141.041Z" fill="#F37A50"/>
<path d="M141.774 142.538L142.315 140.13L146.504 140.397L145.564 142.336L141.774 142.538Z" fill="#F37A50"/>
<path d="M171.763 142.271C173.802 145.384 179.162 143.272 178.791 147.335C170.647 146.896 167.258 146.788 167.258 146.788C167.313 145.853 167.58 143.642 167.809 142.782L171.763 142.271Z" fill="#181630"/>
<path d="M145.546 142.146C147.421 145.36 153.083 143.614 152.504 147.652L141.015 146.873C141.015 145.382 141.498 143.386 141.771 142.539L145.546 142.146Z" fill="#181630"/>
<path d="M163.38 95.6582L152.76 101.628C152.76 101.628 162.025 117.969 167.224 122.962C168.129 123.831 173.13 122.297 173.463 121.216C174.674 117.274 163.38 95.6582 163.38 95.6582Z" fill="#181630"/>
<path d="M166.359 120.87C164.542 128.357 166.746 141.592 166.746 141.592C166.746 141.592 170.098 141.71 172.643 140.691C172.365 127.931 174.035 123.653 173.403 119.007C171.826 116.203 167.754 116.713 166.359 120.87Z" fill="#181630"/>
<path d="M161.074 98.286L148.904 97.7402C148.904 97.7402 148.131 116.509 149.905 123.496C150.214 124.712 154.128 126.269 154.981 125.527C158.093 122.821 161.074 98.286 161.074 98.286Z" fill="#201D40"/>
<path d="M149.859 120.446C144.927 126.365 141.684 139.872 141.684 139.872C141.684 139.872 144.111 141.712 146.843 141.92C153.224 130.803 154.132 127.396 156.054 123.575C157.309 119.892 152.944 117.329 149.859 120.446Z" fill="#201D40"/>
<path d="M152.028 72.8407C152.028 72.8407 155.68 70.9799 159.87 72.2249C163.993 75.6187 165.627 73.8503 165.627 73.8503C167.356 73.8875 169.221 74.7538 169.221 74.7538C169.658 83.4261 167.555 101.404 167.555 101.404C167.555 101.404 161.219 102.521 156.506 101.404C151.808 100.223 147.685 98.2468 147.685 98.2468C147.685 98.2468 150.799 77.8625 152.028 72.8407Z" fill="#768FDB"/>
<path d="M157.754 73.6872C153.637 68.01 145.198 77.8598 140.915 82.4271C140.915 82.4271 141.293 88.1794 145.49 87.9837C148.784 86.8462 160.241 77.1172 157.754 73.6872Z" fill="#4364CC"/>
<path d="M131.286 105.426C131.394 103.683 133.467 102.671 133.563 103.303C133.674 104.042 133.38 105.146 133.38 105.146C133.863 105.385 136.085 104.546 135.097 101.732L136.433 100.458L133.823 98.2148L133.131 99.8554C129.718 100.706 128.964 101.881 128.842 104.586C128.721 107.246 131.183 107.066 131.286 105.426Z" fill="#DE623C"/>
<path d="M136.723 102.081L146.14 87.4717C146.14 87.4717 142.85 84.9694 140.914 82.4268C138.742 84.8477 136.991 88.9027 133.057 98.7781C133.575 99.7491 136.723 102.081 136.723 102.081Z" fill="#4364CC"/>
<path d="M130.823 104.833C130.877 104.835 130.928 104.848 130.977 104.866C130.977 104.857 130.976 104.848 130.977 104.839C130.999 104.299 131.331 103.873 131.718 103.889C131.782 103.892 131.843 103.907 131.901 103.932C132.028 103.612 132.276 103.398 132.553 103.409C132.662 103.414 132.765 103.454 132.855 103.521C132.961 103.193 133.231 102.963 133.541 102.976C133.929 102.992 134.228 103.379 134.209 103.84C134.19 104.302 133.861 104.663 133.473 104.647C133.375 104.643 133.282 104.615 133.199 104.568C133.128 105.034 132.823 105.381 132.473 105.366C132.409 105.364 132.349 105.348 132.291 105.324C132.163 105.644 131.916 105.858 131.639 105.846C131.537 105.842 131.441 105.807 131.356 105.749C131.274 106.044 131.038 106.255 130.766 106.244C130.438 106.23 130.186 105.903 130.202 105.514C130.218 105.124 130.496 104.819 130.823 104.833Z" fill="#F37A50"/>
<path d="M60.3745 132.691L60.7234 134.867L64.3713 133.917L64.338 132.078L60.3745 132.691Z" fill="#F37A50"/>
<path d="M64.3847 133.68C66.3416 136.668 71.5031 134.462 71.1477 138.361L60.0139 138.356C60.0667 137.459 60.3692 134.995 60.5891 134.17L64.3847 133.68Z" fill="#181630"/>
<path d="M57.2403 90.5781L48.2642 95.6238C48.2642 95.6238 56.0945 109.435 60.4893 113.656C61.2542 114.391 65.4816 113.094 65.7624 112.18C66.7864 108.849 57.2403 90.5781 57.2403 90.5781Z" fill="#181630"/>
<path d="M59.758 111.888C57.6192 118.915 59.8733 133.156 59.8733 133.156C59.8733 133.156 62.7068 133.255 64.8576 132.395C64.6228 121.609 66.2463 114.239 65.7115 110.313C64.3791 107.942 60.9371 108.373 59.758 111.888Z" fill="#181630"/>
<path d="M55.2911 92.7992L45.0044 92.3379C45.0044 92.3379 44.3511 108.201 45.851 114.107C46.112 115.135 49.4199 116.451 50.1413 115.824C52.7714 113.537 55.2911 92.7992 55.2911 92.7992Z" fill="#201D40"/>
<path d="M49.624 116.411C48.4017 117.111 46.8574 118.242 44.8542 119.649L43.8882 111.819C44.8478 111.509 45.7973 111.327 46.7196 111.314C50.3491 110.558 52.2272 114.402 49.624 116.411Z" fill="#201D40"/>
<path d="M75.5464 70.8614C75.0826 71.403 74.2626 72.6646 73.7057 73.2672L71.9664 72.3721C71.416 70.1596 72.421 67.8504 72.5079 67.5711C72.7337 66.8457 72.7949 66.4909 72.9109 66.4746C73.0269 66.4584 73.7208 66.5425 73.426 67.6087C73.0559 68.9466 74.5296 69.0261 75.7205 66.2875C76.0186 65.6019 76.941 65.6108 76.9772 66.3091C77.0172 67.0784 77.6568 68.3967 75.5464 70.8614Z" fill="#F37A50"/>
<path d="M63.3 79.0868C62.8917 80.1704 64.307 84.6553 64.7062 84.5872C69.134 82.1601 73.947 73.1972 73.947 73.1972L71.5262 71.6855C71.5262 71.6855 68.5614 75.4316 63.3 79.0868Z" fill="#C4204A"/>
<path d="M54.0895 73.3023C55.766 76.2367 63.4943 84.4287 64.7061 84.5869L65.1294 78.8215C65.1294 78.8215 59.3224 69.879 58.1397 68.4061C56.0976 65.8509 51.3433 68.5169 54.0895 73.3023Z" fill="#C4204A"/>
<path d="M77.1991 66.0965L73.5709 71.7324C73.4256 71.9582 73.1246 72.0234 72.8988 71.8781L72.137 71.3876C71.9111 71.2423 71.8459 70.9413 71.9913 70.7156L75.6194 65.0795C75.7648 64.8538 76.0657 64.7886 76.2915 64.9338L77.0534 65.4243C77.2791 65.5697 77.3444 65.8706 77.1991 66.0965Z" fill="#201D40"/>
<path d="M76.8626 65.8767L73.2345 71.5127C73.0891 71.7385 72.7882 71.8037 72.5624 71.6584L71.8005 71.168C71.5747 71.0225 71.5095 70.7217 71.6548 70.4958L75.2829 64.8598C75.4283 64.634 75.7292 64.5688 75.9549 64.7141L76.7169 65.2046C76.9427 65.35 77.008 65.651 76.8626 65.8767Z" fill="white"/>
<path d="M75.3784 68.9897C75.4657 68.5754 75.3404 66.8523 75.8641 66.8581C75.992 66.9032 76.04 67.1561 76.04 67.1561C76.1144 66.9008 76.2657 65.7782 76.6821 65.9765C77.0372 66.287 76.9815 66.5308 76.9815 66.5308L75.3784 68.9897Z" fill="#F37A50"/>
<path d="M56.8754 68.583C57.3902 69.4742 52.3906 69.6977 51.9615 67.9311C51.5324 66.1645 53.1992 61.5088 53.1992 61.5088L57.6 63.2398C57.6 63.2398 56.2054 67.4228 56.8754 68.583Z" fill="#DE623C"/>
<path d="M51.8066 57.7094C51.7486 61.7839 54.2957 65.1237 57.4957 65.1693C60.6957 65.215 63.3369 61.949 63.395 57.8745C63.453 53.8001 60.906 50.4602 57.7059 50.4145C54.5059 50.3691 51.8647 53.6351 51.8066 57.7094Z" fill="#F37A50"/>
<path d="M61.6298 59.2325C61.7702 59.5346 62.1289 59.6658 62.4311 59.5254C62.7332 59.3851 62.8643 59.0263 62.724 58.7242C62.5836 58.422 62.2249 58.2909 61.9227 58.4313C61.6205 58.5716 61.4894 58.9303 61.6298 59.2325Z" fill="black"/>
<path d="M57.612 58.7292C57.764 59.0562 58.1522 59.1982 58.4793 59.0462C58.8064 58.8941 58.9484 58.506 58.7964 58.1788C58.6445 57.8517 58.2561 57.7098 57.929 57.8618C57.6021 58.0137 57.46 58.4021 57.612 58.7292Z" fill="black"/>
<path d="M60.4712 59.2109C60.6841 60.1452 60.9666 61.293 60.9666 61.293C60.9666 61.293 60.4044 62.005 59.3325 61.6451C59.8495 61.6153 60.4023 61.4666 60.4274 60.7999C60.4527 60.1334 60.4712 59.2109 60.4712 59.2109Z" fill="#DE623C"/>
<path d="M61.6819 57.845C61.753 57.8794 61.8398 57.8764 61.9104 57.8298C61.9174 57.8252 62.1561 57.6749 62.3987 57.7431C62.5697 57.7911 62.7169 57.9417 62.8357 58.19C62.8908 58.3054 63.029 58.3541 63.1443 58.299C63.2596 58.2439 63.3083 58.1057 63.2532 57.9904C63.0731 57.6137 62.8256 57.38 62.5176 57.2957C62.0668 57.1724 61.6705 57.4332 61.6539 57.4445C61.5477 57.5156 61.5193 57.6594 61.5905 57.7656C61.6142 57.8009 61.646 57.8277 61.6819 57.845Z" fill="#201D40"/>
<path d="M58.6253 57.4595C58.5497 57.4824 58.4643 57.4662 58.4019 57.4092C58.3956 57.4037 58.1829 57.2183 57.9327 57.2483C57.7563 57.2695 57.5878 57.3955 57.4321 57.6226C57.3599 57.7281 57.2158 57.7549 57.1104 57.6827C57.0049 57.6105 56.9781 57.4664 57.0503 57.361C57.2864 57.0165 57.5669 56.8238 57.8842 56.788C58.3487 56.7357 58.7 57.0545 58.7147 57.068C58.8087 57.1548 58.8145 57.3012 58.7278 57.3952C58.6989 57.4265 58.6633 57.4481 58.6253 57.4595Z" fill="#201D40"/>
<path d="M60.565 63.0899C60.6881 62.9935 60.6375 62.7976 60.483 62.7743C60.0899 62.7151 59.4436 62.6041 58.843 62.4389C58.2423 62.2737 57.6301 62.0388 57.262 61.8887C57.1172 61.8296 56.9737 61.9722 57.0302 62.118C57.2039 62.5664 57.6191 63.2886 58.5397 63.5418C59.4602 63.7949 60.1864 63.3865 60.565 63.0899Z" fill="white"/>
<path d="M52.8526 59.5827C53.1822 58.1282 53.8144 58.1583 54.8959 56.7823C55.4657 54.8945 56.5402 53.7561 58.0556 54.8926C59.6111 56.0594 60.9696 56.1518 61.7453 55.7502C63.5478 54.8171 63.3958 57.7233 63.3958 57.7233C63.3958 57.7233 65.2194 54.6751 64.1702 53.0038C62.6732 50.6197 61.838 51.8043 60.1556 50.162C58.473 48.5196 55.478 48.6924 54.6365 49.7562C53.7495 50.8778 53.8067 51.3447 51.9035 51.8406C50.0004 52.3365 48.5793 54.2981 49.7553 56.4792C50.9312 58.6602 47.8835 59.1111 50.17 61.395C51.0569 62.281 52.6029 62.5804 52.9722 62.2725C52.5845 61.5088 52.6401 60.5204 52.8526 59.5827Z" fill="#2C2858"/>
<path d="M54.0546 57.8189C54.4829 58.6761 54.2614 59.6551 53.5599 60.0056C52.8585 60.3561 51.9426 59.9453 51.5144 59.0881C51.0861 58.2309 51.3076 57.252 52.009 56.9016C52.7105 56.551 53.6263 56.9618 54.0546 57.8189Z" fill="#F37A50"/>
<path d="M52.9176 59.3511C52.8995 59.3431 52.8825 59.3317 52.8676 59.3169C52.8012 59.2514 52.8005 59.1445 52.8661 59.0781C53.1071 58.834 53.206 58.6137 53.1599 58.4232C53.0831 58.106 52.6202 57.8906 52.4484 57.8344C52.3599 57.8052 52.3114 57.7099 52.3405 57.6213C52.3695 57.5327 52.4649 57.4842 52.5535 57.5133C52.586 57.524 53.3518 57.7806 53.4882 58.3437C53.5637 58.6556 53.4353 58.9826 53.1065 59.3155C53.0557 59.367 52.98 59.3789 52.9176 59.3511Z" fill="#DE623C"/>
<path d="M60.0621 94.379C56.485 94.6222 46.1442 95.9807 43.0066 94.2457C41.9952 92.2786 43.9391 83.1591 44.4753 79.4911C46.0046 69.0324 46.9189 66.1053 51.8936 65.7119C53.0085 66.4174 55.7162 67.2819 57.0223 67.4674C57.0223 67.4674 59.4331 71.9786 59.6103 75.043C59.79 78.1504 59.1338 83.5445 58.7743 86.6362C58.3751 90.0699 59.9082 92.1616 60.0621 94.379Z" fill="#E62552"/>
<path d="M39.4717 76.0019C39.4717 76.0019 47.5269 64.401 50.8921 66.3197C53.4603 68.4061 47.4639 76.4949 40.208 81.9732L39.4717 76.0019Z" fill="#C4204A"/>
<path d="M230.657 45.7394H253.356C255.146 45.7394 256.598 44.2878 256.598 42.4973V32.8113C256.598 31.0208 255.146 29.5693 253.356 29.5693H230.657C228.867 29.5693 227.416 31.0208 227.416 32.8113V42.4973C227.416 44.2878 228.867 45.7394 230.657 45.7394Z" fill="white"/>
<path d="M231.548 45.0146V51.0343C231.548 51.5175 232.198 51.6732 232.417 51.2425L235.581 45.0146H231.548Z" fill="white"/>
<path d="M231.221 34.6235H252.519C253.338 34.6235 254.002 33.9594 254.002 33.1403C254.002 32.3212 253.338 31.6572 252.519 31.6572H231.221C230.402 31.6572 229.738 32.3212 229.738 33.1403C229.738 33.9594 230.402 34.6235 231.221 34.6235Z" fill="#E3EAFF"/>
<path d="M231.221 39.3276H252.519C253.338 39.3276 254.002 38.6635 254.002 37.8444C254.002 37.0253 253.338 36.3613 252.519 36.3613H231.221C230.402 36.3613 229.738 37.0253 229.738 37.8444C229.738 38.6635 230.402 39.3276 231.221 39.3276Z" fill="#E3EAFF"/>
<path d="M231.003 44.0327H244.671C245.37 44.0327 245.936 43.4663 245.936 42.7673V42.3318C245.936 41.6329 245.37 41.0664 244.671 41.0664H231.003C230.304 41.0664 229.738 41.6329 229.738 42.3318V42.7673C229.738 43.4662 230.304 44.0327 231.003 44.0327Z" fill="#E3EAFF"/>
<path d="M179.255 31.2767C180.308 34.4252 178.61 37.8316 175.461 38.8851C172.313 39.9385 168.906 38.2401 167.853 35.0916C166.799 31.943 168.498 28.5366 171.646 27.4832C174.795 26.4297 178.201 28.1281 179.255 31.2767Z" fill="#7F99EB"/>
<path d="M170.46 32.2254C170.99 32.0481 171.564 32.334 171.741 32.864C171.918 33.394 171.632 33.9675 171.102 34.1448C170.572 34.3221 169.999 34.0362 169.822 33.5062C169.644 32.9762 169.93 32.4027 170.46 32.2254Z" fill="white"/>
<path d="M175.345 30.5917C175.875 30.4142 176.448 30.7003 176.626 31.2303C176.803 31.7602 176.517 32.3337 175.987 32.511C175.457 32.6884 174.884 32.4024 174.706 31.8724C174.529 31.3425 174.815 30.769 175.345 30.5917Z" fill="white"/>
<path d="M171.616 35.5074C171.565 35.5244 171.515 35.5485 171.47 35.5799C171.265 35.7198 171.214 35.9493 171.357 36.0926C172.058 36.7992 173.329 37.0059 174.521 36.6072C175.678 36.2201 176.543 35.3499 176.723 34.3902C176.76 34.19 176.591 34.0301 176.345 34.0332C176.099 34.0362 175.869 34.2011 175.831 34.4013C175.706 35.069 175.104 35.6743 174.299 35.9438C173.47 36.2212 172.585 36.0774 172.097 35.5858C171.987 35.4746 171.793 35.4482 171.616 35.5074Z" fill="white"/>
<path d="M257.955 86.6483C256.816 89.7672 253.365 91.3722 250.246 90.2334C247.127 89.0947 245.522 85.6434 246.661 82.5246C247.799 79.4058 251.251 77.8008 254.37 78.9395C257.488 80.0782 259.093 83.5295 257.955 86.6483Z" fill="#7F99EB"/>
<path d="M250.486 81.9093C251.011 82.1009 251.281 82.6819 251.089 83.207C250.898 83.732 250.317 84.0022 249.792 83.8104C249.267 83.6188 248.996 83.0377 249.188 82.5129C249.38 81.9878 249.961 81.7177 250.486 81.9093Z" fill="white"/>
<path d="M255.324 83.6759C255.849 83.8675 256.119 84.4484 255.928 84.9736C255.736 85.4985 255.155 85.7687 254.63 85.577C254.105 85.3854 253.835 84.8044 254.027 84.2793C254.218 83.7544 254.799 83.4842 255.324 83.6759Z" fill="white"/>
<path d="M249.344 85.1951C249.294 85.1766 249.24 85.1647 249.185 85.1607C248.937 85.1425 248.755 85.2905 248.777 85.4911C248.885 86.4806 249.75 87.435 250.931 87.866C252.077 88.2845 253.295 88.1426 254.034 87.5047C254.188 87.3715 254.155 87.141 253.961 86.9899C253.767 86.8386 253.484 86.8243 253.33 86.9573C252.816 87.4012 251.968 87.4999 251.17 87.2087C250.349 86.9088 249.747 86.2448 249.672 85.5564C249.655 85.401 249.52 85.2592 249.344 85.1951Z" fill="white"/>
<path d="M198.765 47.5425C197.416 50.4552 193.961 51.7225 191.048 50.3731C188.135 49.0236 186.868 45.5684 188.217 42.6557C189.567 39.7429 193.022 38.4756 195.935 39.8251C198.848 41.1745 200.115 44.6298 198.765 47.5425Z" fill="white"/>
<path d="M191.953 42.3722C192.443 42.5993 192.656 43.1809 192.429 43.6713C192.202 44.1615 191.62 44.3748 191.13 44.1477C190.64 43.9205 190.426 43.3389 190.654 42.8485C190.881 42.3583 191.462 42.145 191.953 42.3722Z" fill="#CDD8FA"/>
<path d="M196.471 44.4659C196.962 44.6931 197.175 45.2747 196.948 45.7649C196.721 46.2552 196.139 46.4686 195.649 46.2415C195.158 46.0143 194.945 45.4327 195.172 44.9424C195.399 44.452 195.981 44.2387 196.471 44.4659Z" fill="#CDD8FA"/>
<path d="M190.587 45.4462C190.54 45.4244 190.489 45.4085 190.436 45.4C190.199 45.3627 190.011 45.4904 190.016 45.6854C190.04 46.6476 190.797 47.6371 191.899 48.1479C192.97 48.6439 194.155 48.6058 194.919 48.0509C195.078 47.9351 195.065 47.7105 194.89 47.5491C194.715 47.3876 194.444 47.3509 194.284 47.4666C193.753 47.8528 192.928 47.8793 192.183 47.5341C191.416 47.1788 190.89 46.4903 190.873 45.8211C190.87 45.6695 190.75 45.522 190.587 45.4462Z" fill="#CDD8FA"/>
<path d="M24.0463 83.0535C25.2091 85.6916 24.0132 88.7727 21.3751 89.9356C18.737 91.0985 15.6557 89.9025 14.4929 87.2644C13.33 84.6262 14.526 81.545 17.1641 80.3823C19.8023 79.2194 22.8835 80.4154 24.0463 83.0535Z" fill="white"/>
<path d="M16.5182 84.5778C16.9622 84.382 17.4809 84.5834 17.6767 85.0275C17.8724 85.4716 17.6711 85.9901 17.227 86.186C16.7829 86.3817 16.2642 86.1805 16.0685 85.7364C15.8728 85.2921 16.0741 84.7735 16.5182 84.5778Z" fill="#CDD8FA"/>
<path d="M20.6107 82.7741C21.0548 82.5784 21.5735 82.7796 21.7692 83.2238C21.9649 83.6678 21.7636 84.1865 21.3195 84.3822C20.8754 84.578 20.3567 84.3766 20.161 83.9325C19.9653 83.4885 20.1667 82.9698 20.6107 82.7741Z" fill="#CDD8FA"/>
<path d="M17.7798 87.3227C17.7371 87.3416 17.6962 87.3664 17.6591 87.3972C17.4934 87.5345 17.468 87.737 17.6023 87.8495C18.2652 88.4042 19.3813 88.4812 20.3797 88.0412C21.3494 87.6137 22.027 86.7921 22.1061 85.948C22.1226 85.7718 21.9635 85.6473 21.7508 85.6696C21.538 85.6918 21.3523 85.8527 21.3357 86.0289C21.2808 86.6162 20.8093 87.1878 20.1346 87.4852C19.44 87.7915 18.6635 87.7379 18.2024 87.352C18.0981 87.2647 17.9281 87.2574 17.7798 87.3227Z" fill="#CDD8FA"/>
<path d="M309.376 123.243L311.78 130.889C311.872 131.18 311.71 131.49 311.419 131.582L298.13 135.76C297.839 135.851 297.53 135.69 297.438 135.398L295.034 127.752C294.942 127.46 295.104 127.151 295.395 127.059L308.684 122.881C308.975 122.79 309.284 122.951 309.376 123.243Z" fill="#CDD8FA"/>
<path d="M309.376 123.243L309.509 123.665L304.822 129.917C304.372 130.542 303.569 130.802 302.838 130.56L295.11 127.993L295.034 127.752C294.942 127.461 295.104 127.15 295.395 127.059L308.683 122.881C308.974 122.79 309.285 122.951 309.376 123.243Z" fill="white"/>
<path d="M220.333 16.489L217.209 24.5559C217.09 24.8635 216.745 25.0158 216.438 24.897L202.418 19.4679C202.111 19.3491 201.959 19.004 202.078 18.6964L205.201 10.6295C205.32 10.322 205.666 10.1695 205.973 10.2885L219.993 15.7175C220.299 15.8364 220.452 16.1815 220.333 16.489Z" fill="#CDD8FA"/>
<path d="M220.333 16.4898L220.16 16.9358L211.996 19.0501C211.196 19.2739 210.343 18.9521 209.891 18.2556L205.103 10.885L205.201 10.6303C205.32 10.323 205.666 10.1705 205.973 10.2894L219.992 15.7181C220.299 15.8371 220.452 16.1827 220.333 16.4898Z" fill="white"/>
<path d="M127.974 66.27C127.941 66.0803 127.956 65.8946 128.004 65.7199C128.231 64.0019 130.629 63.712 133.996 63.0505C134.559 62.9401 134.121 62.3312 133.672 60.9067C133.379 59.9802 133.743 58.4177 134.776 58.24C136.479 57.9469 135.071 59.5661 137.146 62.614C138.254 64.2426 139.882 62.9432 140.188 64.7182L140.883 68.7585C141.002 69.4493 141.048 70.1251 140.091 70.4025C139.163 70.6713 139.491 71.3059 138.126 71.5408L131.295 72.7166C130.599 72.8362 129.936 72.3698 129.817 71.6771C129.767 71.3898 129.824 71.1108 129.95 70.8709C129.527 70.7221 129.192 70.3615 129.111 69.8902C129.062 69.6037 129.117 69.3249 129.244 69.0854C128.819 68.9373 128.484 68.5763 128.403 68.1044C128.344 67.7617 128.429 67.4272 128.615 67.1614C128.289 66.9802 128.042 66.6642 127.974 66.27Z" fill="white"/>
<path d="M132.709 66.7479L129.451 67.3085C129.008 67.3847 128.552 67.2204 128.26 66.8798C128.14 66.7394 128.157 66.528 128.299 66.4078C128.44 66.2876 128.652 66.305 128.773 66.4454C128.911 66.6075 129.128 66.685 129.338 66.6489L132.674 66.0748C133.004 66.018 133.227 65.704 133.17 65.3751C133.114 65.046 132.799 64.8246 132.468 64.8815L130.239 65.2651C130.057 65.2965 129.883 65.1744 129.851 64.9923C129.82 64.8103 129.943 64.637 130.126 64.6055L132.355 64.2219C133.051 64.1021 133.714 64.5682 133.833 65.2609C133.9 65.6473 133.779 66.0201 133.542 66.2983C133.814 66.4862 134.013 66.7779 134.074 67.1277C134.14 67.5152 134.018 67.8893 133.78 68.1675C134.051 68.3553 134.248 68.6461 134.308 68.9952C134.381 69.4173 134.234 69.8262 133.951 70.1096C134.188 70.2974 134.362 70.5652 134.417 70.8848C134.536 71.5774 134.067 72.2384 133.371 72.3581L131.295 72.7154C130.852 72.7917 130.395 72.6278 130.103 72.2872C129.983 72.1469 130 71.9355 130.141 71.8154C130.283 71.6959 130.495 71.7118 130.615 71.8522C130.754 72.0141 130.971 72.0921 131.181 72.0559L133.257 71.6987C133.588 71.6417 133.811 71.3279 133.754 70.9989C133.697 70.6699 133.383 70.4485 133.052 70.5053L130.589 70.9292C130.146 71.0054 129.689 70.8412 129.398 70.5005C129.277 70.3598 129.294 70.1485 129.435 70.0287C129.578 69.9068 129.789 69.9251 129.909 70.0656C130.05 70.2304 130.262 70.3064 130.475 70.2697L133.149 69.8095C133.48 69.7527 133.703 69.4384 133.646 69.1093C133.589 68.7804 133.275 68.559 132.944 68.6158L129.881 69.1429C129.438 69.2192 128.981 69.0553 128.689 68.7146C128.569 68.5743 128.586 68.3629 128.727 68.2428C128.869 68.1228 129.081 68.1392 129.201 68.2796C129.342 68.4439 129.554 68.5201 129.767 68.4833L132.914 67.9418C133.245 67.8849 133.467 67.571 133.411 67.242C133.354 66.9127 133.04 66.6909 132.709 66.7479Z" fill="#BDCDFF"/>
<path d="M141.085 70.5448L143.212 70.1788C143.507 70.1281 143.705 69.8482 143.654 69.5536L142.566 63.2328C142.516 62.9381 142.236 62.7404 141.941 62.7912L139.814 63.1572C139.519 63.2079 139.322 63.4879 139.372 63.7824L140.46 70.1033C140.511 70.3978 140.791 70.5955 141.085 70.5448Z" fill="#BDCDFF"/>
<path d="M277.169 16.8699C277.215 16.6831 277.213 16.4968 277.177 16.3191C277.07 14.5896 274.699 14.1337 271.385 13.2399C270.832 13.0906 271.31 12.5136 271.858 11.1237C272.214 10.2198 271.96 8.63576 270.942 8.38662C269.263 7.9759 270.555 9.68914 268.274 12.5856C267.055 14.1332 265.521 12.724 265.093 14.4733L264.118 18.4554C263.952 19.1364 263.859 19.8075 264.794 20.1505C265.701 20.483 265.33 21.0935 266.675 21.4226L273.408 23.0701C274.094 23.2379 274.788 22.8187 274.955 22.1358C275.024 21.8527 274.988 21.5705 274.878 21.3224C275.311 21.2033 275.67 20.8668 275.783 20.4025C275.852 20.1202 275.816 19.838 275.707 19.5903C276.14 19.472 276.5 19.1352 276.614 18.6702C276.697 18.3324 276.634 17.9928 276.468 17.7146C276.806 17.5567 277.074 17.2585 277.169 16.8699Z" fill="#E3EAFF"/>
<path d="M272.412 17.0187L275.623 17.8043C276.059 17.9111 276.526 17.7788 276.841 17.4593C276.97 17.3276 276.968 17.1156 276.835 16.9859C276.703 16.8562 276.49 16.8588 276.36 16.9905C276.211 17.1426 275.989 17.2048 275.782 17.1541L272.494 16.3497C272.168 16.27 271.968 15.9415 272.047 15.617C272.127 15.2927 272.456 15.0938 272.782 15.1735L274.979 15.7111C275.159 15.7552 275.341 15.6453 275.385 15.4659C275.429 15.2865 275.318 15.1051 275.138 15.0611L272.941 14.5234C272.255 14.3555 271.561 14.7744 271.394 15.4572C271.301 15.838 271.396 16.2183 271.612 16.5123C271.328 16.681 271.109 16.958 271.024 17.3027C270.931 17.6847 271.026 18.0663 271.245 18.3604C270.962 18.529 270.744 18.8054 270.66 19.1494C270.558 19.5655 270.677 19.9836 270.939 20.2859C270.69 20.4568 270.498 20.7119 270.421 21.0269C270.254 21.7097 270.676 22.4016 271.362 22.5694L273.408 23.0701C273.845 23.177 274.312 23.0452 274.626 22.7256C274.756 22.594 274.754 22.382 274.621 22.2523C274.488 22.1233 274.276 22.1245 274.146 22.2561C273.996 22.4081 273.774 22.4706 273.567 22.42L271.521 21.9192C271.195 21.8395 270.995 21.511 271.074 21.1866C271.153 20.8623 271.483 20.6634 271.809 20.7431L274.236 21.3371C274.673 21.444 275.14 21.3118 275.454 20.9922C275.584 20.8602 275.582 20.6483 275.45 20.519C275.316 20.3875 275.104 20.391 274.974 20.5228C274.822 20.6774 274.606 20.7385 274.395 20.687L271.76 20.0421C271.434 19.9624 271.234 19.6335 271.313 19.3091C271.392 18.9847 271.722 18.7859 272.048 18.8655L275.067 19.6043C275.503 19.7112 275.97 19.5793 276.285 19.2599C276.415 19.1282 276.413 18.9161 276.28 18.7865C276.147 18.6571 275.934 18.6587 275.805 18.7903C275.653 18.9445 275.436 19.0057 275.226 18.9542L272.124 18.1953C271.798 18.1155 271.598 17.787 271.677 17.4627C271.757 17.1384 272.086 16.9389 272.412 17.0187Z" fill="#BDCDFF"/>
<path d="M263.792 20.2242L261.695 19.7112C261.405 19.6401 261.227 19.3472 261.298 19.0567L262.823 12.8268C262.894 12.5365 263.187 12.3586 263.477 12.4297L265.574 12.9428C265.864 13.0137 266.042 13.3068 265.971 13.5971L264.446 19.827C264.375 20.1174 264.082 20.2952 263.792 20.2242Z" fill="#BDCDFF"/>
<path d="M195.731 109.459C196.204 107.458 194.965 105.454 192.965 104.982C190.965 104.509 188.96 105.748 188.488 107.748C188.015 109.749 189.254 111.753 191.254 112.225C193.255 112.698 195.259 111.459 195.731 109.459Z" fill="white"/>
<path d="M105.607 15.8359C104.577 16.8664 102.906 16.8664 101.875 15.8359C100.845 14.8053 100.845 13.1345 101.875 12.1039C102.906 11.0734 104.577 11.0734 105.607 12.1039C106.638 13.1345 106.638 14.8053 105.607 15.8359Z" fill="white"/>
<path d="M318.868 80.5557C317.838 81.5863 316.167 81.5863 315.136 80.5557C314.106 79.5251 314.106 77.8541 315.136 76.8237C316.167 75.7931 317.838 75.7931 318.868 76.8237C319.899 77.8541 319.899 79.5251 318.868 80.5557Z" fill="#E3EAFF"/>
<path d="M197.926 12.1142C196.896 13.1447 195.225 13.1447 194.194 12.1142C193.164 11.0837 193.164 9.41276 194.194 8.38225C195.225 7.35175 196.896 7.35175 197.926 8.38225C198.957 9.41285 198.957 11.0837 197.926 12.1142Z" fill="#E3EAFF"/>
<path d="M200.001 105.411C198.488 105.411 197.258 104.18 197.258 102.667C197.258 101.155 198.488 99.9238 200.001 99.9238C201.514 99.9238 202.745 101.155 202.745 102.667C202.745 104.18 201.514 105.411 200.001 105.411ZM200.001 100.974C199.068 100.974 198.308 101.734 198.308 102.667C198.308 103.601 199.068 104.36 200.001 104.36C200.935 104.36 201.694 103.601 201.694 102.667C201.694 101.734 200.935 100.974 200.001 100.974Z" fill="white"/>
<path d="M313.536 91.4545C311.624 91.4545 310.069 89.8994 310.069 87.988C310.069 86.0766 311.624 84.5215 313.536 84.5215C315.447 84.5215 317.002 86.0766 317.002 87.988C317.002 89.8994 315.447 91.4545 313.536 91.4545ZM313.536 85.8488C312.356 85.8488 311.396 86.8085 311.396 87.9879C311.396 89.1674 312.356 90.1271 313.536 90.1271C314.715 90.1271 315.675 89.1674 315.675 87.9879C315.675 86.8085 314.715 85.8488 313.536 85.8488Z" fill="#E3EAFF"/>
</svg>
