<svg width="26" height="25" viewBox="0 0 26 25" fill="none" xmlns="http://www.w3.org/2000/svg">
<path d="M6.5135 1.42718C6.55815 1.42496 6.6028 1.42273 6.6488 1.42044C6.79799 1.41324 6.9472 1.40706 7.09643 1.40095C7.20374 1.39611 7.31104 1.39125 7.41835 1.38638C8.40658 1.34311 9.39543 1.31833 10.3844 1.29849C10.5174 1.29577 10.6504 1.293 10.7835 1.29018C10.8165 1.28948 10.8496 1.28878 10.8836 1.28806C11.3472 1.27798 11.81 1.26056 12.2731 1.23706C17.2412 0.984963 17.2412 0.984963 18.79 2.33621C19.6779 3.14915 20.5879 4.24795 20.6968 5.49154C20.7108 5.8487 20.6718 6.19383 20.6175 6.54622C20.5796 6.816 20.5636 7.08798 20.5451 7.35965C20.5305 7.5702 20.513 7.77847 20.484 7.98757C20.4264 8.37588 20.4264 8.37588 20.5535 8.73577C20.6646 8.84655 20.78 8.93788 20.9043 9.0332C22.3118 10.7113 22.4328 13.2801 22.6738 15.3597C22.701 15.5942 22.7286 15.8286 22.7567 16.0629C22.7606 16.0956 22.7645 16.1282 22.7685 16.1618C22.8345 16.7088 22.9208 17.2506 23.0212 17.7923C23.1095 18.2748 23.1453 18.7484 23.1504 19.2383C23.1517 19.2986 23.153 19.359 23.1544 19.4212C23.1611 19.9791 23.1288 20.5367 23.1015 21.0937C23.1448 21.1038 23.1882 21.1139 23.2328 21.1243C23.4249 21.204 23.5343 21.3076 23.6387 21.4844C23.6632 21.6212 23.6742 21.7279 23.6728 21.8641C23.6731 21.8997 23.6735 21.9354 23.6739 21.9721C23.6742 22.047 23.674 22.122 23.6732 22.197C23.6722 22.311 23.6741 22.4247 23.6763 22.5387C23.6797 23.1456 23.6797 23.1456 23.4962 23.3644C23.3185 23.5083 23.2515 23.5412 23.0306 23.5427C22.9849 23.5431 22.9392 23.5435 22.8921 23.5439C22.8418 23.5441 22.7914 23.5444 22.7396 23.5446C22.6867 23.545 22.6338 23.5454 22.5793 23.5458C22.4037 23.547 22.2281 23.5478 22.0525 23.5485C21.9926 23.5488 21.9327 23.549 21.871 23.5493C21.5868 23.5505 21.3026 23.5514 21.0184 23.552C20.7231 23.5527 20.4278 23.554 20.1325 23.5563C19.8158 23.5587 19.4991 23.5599 19.1824 23.5602C19.0616 23.5605 18.9408 23.5613 18.8201 23.5625C18.651 23.564 18.482 23.564 18.313 23.5636C18.2631 23.5644 18.2131 23.5652 18.1617 23.5661C17.9388 23.5641 17.7809 23.5612 17.6036 23.417C17.3286 23.1216 17.3705 22.8143 17.3706 22.4295C17.3703 22.3212 17.3686 22.2131 17.3667 22.1048C17.3664 22.0355 17.3662 21.9661 17.3661 21.8967C17.3657 21.8341 17.3653 21.7714 17.3649 21.7068C17.3984 21.4619 17.5038 21.3101 17.6883 21.1493C17.8948 21.0673 18.0875 21.0782 18.3072 21.0846C18.3504 21.0853 18.3935 21.0859 18.438 21.0866C18.5439 21.0883 18.6499 21.0909 18.7558 21.0937C18.7494 21.0619 18.7429 21.0301 18.7362 20.9972C18.7276 20.9546 18.7189 20.9119 18.7101 20.8679C18.7016 20.826 18.6931 20.7841 18.6843 20.7409C18.6568 20.5985 18.6332 20.4555 18.6094 20.3125C14.7422 20.3125 10.875 20.3125 6.89061 20.3125C6.83162 20.5779 6.77822 20.8266 6.74412 21.0937C6.80769 21.0915 6.87127 21.0892 6.93676 21.0869C7.02107 21.085 7.10537 21.0833 7.18968 21.0815C7.23147 21.0799 7.27327 21.0783 7.31633 21.0766C7.59002 21.0724 7.75226 21.0991 7.96483 21.2891C8.17211 21.5668 8.13504 21.8725 8.13309 22.2031C8.13267 22.3109 8.13408 22.4186 8.13563 22.5265C8.13571 22.5956 8.13568 22.6647 8.13553 22.7339C8.13562 22.7962 8.13571 22.8586 8.13581 22.9229C8.10191 23.162 8.00513 23.3092 7.82587 23.469C7.70319 23.5462 7.63571 23.5539 7.49188 23.5547C7.44609 23.5554 7.4003 23.556 7.35313 23.5566C7.30323 23.5566 7.25333 23.5565 7.20192 23.5564C7.1491 23.5569 7.09628 23.5574 7.04186 23.5579C6.86702 23.5593 6.69219 23.5596 6.51734 23.5598C6.39583 23.5602 6.27431 23.5607 6.1528 23.5612C5.89794 23.5621 5.64309 23.5624 5.38822 23.5623C5.12663 23.5622 4.86508 23.5633 4.60349 23.5653C4.28762 23.5677 3.97177 23.5688 3.65588 23.5687C3.53555 23.5688 3.41522 23.5695 3.29489 23.5706C3.12645 23.572 2.9581 23.5716 2.78965 23.5707C2.74005 23.5716 2.69045 23.5724 2.63935 23.5732C2.34428 23.5693 2.18383 23.523 1.97077 23.3146C1.7825 23.0898 1.84634 22.7242 1.84422 22.444C1.84341 22.3661 1.84208 22.2882 1.84021 22.2104C1.83752 22.0978 1.83647 21.9853 1.83575 21.8727C1.83464 21.8382 1.83354 21.8037 1.8324 21.7682C1.83319 21.5816 1.86064 21.4619 1.97487 21.3178C2.11398 21.1832 2.21168 21.1372 2.39842 21.0937C2.39694 21.0656 2.39546 21.0374 2.39394 21.0083C2.36269 20.4016 2.33751 19.797 2.34959 19.1895C2.34995 19.1555 2.3503 19.1216 2.35066 19.0866C2.35735 18.5883 2.42042 18.1115 2.51076 17.6216C2.6031 17.1035 2.68077 16.5855 2.74327 16.0629C2.74721 16.03 2.75116 15.9972 2.75522 15.9633C2.78327 15.7285 2.81065 15.4937 2.83787 15.2588C3.40884 10.3323 3.40884 10.3323 4.74217 8.88672C4.7921 8.84807 4.84203 8.80942 4.89348 8.7696C5.07273 8.58901 5.06977 8.41816 5.07198 8.17228C5.071 8.11658 5.07002 8.06087 5.06901 8.00347C5.06913 7.94421 5.06926 7.88494 5.06939 7.82388C5.06947 7.6953 5.06903 7.56686 5.06769 7.43831C5.06561 7.23467 5.06571 7.03108 5.06612 6.82743C5.06663 6.4316 5.06504 6.03578 5.06313 5.63995C5.06074 5.13684 5.05898 4.63373 5.05977 4.13061C5.06002 3.9286 5.05905 3.72664 5.05712 3.52463C5.05593 3.36874 5.05631 3.21285 5.05642 3.05695C5.05509 2.97398 5.05509 2.97398 5.05375 2.88934C5.05627 2.48235 5.14335 2.15255 5.42527 1.84824C5.75311 1.53702 6.07335 1.44431 6.5135 1.42718ZM5.89879 2.41699C5.74343 2.64715 5.76082 2.86563 5.76169 3.13322C5.76165 3.1796 5.7616 3.22599 5.76156 3.27378C5.76148 3.42987 5.76175 3.58597 5.76202 3.74206C5.76203 3.85369 5.76202 3.96532 5.762 4.07694C5.76198 4.38059 5.76227 4.68423 5.76261 4.98788C5.76291 5.30498 5.76294 5.62208 5.763 5.93919C5.76314 6.47162 5.76344 7.00406 5.76388 7.53649C5.76432 8.08493 5.76467 8.63338 5.76488 9.18182C5.76489 9.21562 5.7649 9.24942 5.76492 9.28424C5.76498 9.45379 5.76504 9.62335 5.7651 9.7929C5.76561 11.1998 5.76647 12.6067 5.76756 14.0137C5.85939 13.9606 5.95115 13.9074 6.04289 13.8542C6.09399 13.8246 6.1451 13.795 6.19776 13.7645C6.49044 13.5904 6.77189 13.3988 7.05445 13.2089C8.06389 12.5403 8.06389 12.5403 8.69725 12.6465C9.0702 12.77 9.27 12.9448 9.46629 13.2812C9.58207 13.5736 9.57586 13.926 9.497 14.2271C9.3134 14.6457 8.88026 14.8958 8.50499 15.1245C8.42378 15.175 8.34259 15.2256 8.26142 15.2761C8.22053 15.3015 8.17964 15.3268 8.13751 15.3529C7.93886 15.4761 7.74094 15.6003 7.54368 15.7257C7.50812 15.7478 7.47257 15.7699 7.43593 15.7927C7.23767 15.9127 7.23767 15.9127 7.13475 16.1133C7.14371 16.197 7.15314 16.2808 7.16523 16.3641C7.22953 16.8107 7.24492 17.2555 7.24766 17.7063C7.24851 17.7628 7.24935 17.8194 7.25023 17.8776C7.24994 18.4775 7.16214 19.0191 7.08592 19.6289C10.8242 19.6289 14.5625 19.6289 18.414 19.6289C18.3657 19.2583 18.3174 18.8877 18.2676 18.5059C18.2563 18.2477 18.2486 17.9973 18.2523 17.7399C18.2527 17.6764 18.2531 17.6128 18.2535 17.5474C18.2599 17.0329 18.2973 16.5255 18.3652 16.0156C18.0581 15.7914 17.7411 15.586 17.4192 15.3839C17.2991 15.3083 17.179 15.2326 17.0588 15.1569C16.9908 15.1141 16.9228 15.0714 16.8546 15.0288C16.4674 14.7861 16.1203 14.5616 15.9726 14.1113C15.9197 13.6862 15.9689 13.3419 16.2168 12.9883C16.4714 12.727 16.7488 12.6373 17.1048 12.619C17.7734 12.6402 18.3431 13.1391 18.8814 13.4958C19.0535 13.6096 19.2264 13.7218 19.3998 13.8336C19.4538 13.8687 19.5079 13.9037 19.5636 13.9399C19.667 14.0179 19.667 14.0179 19.7324 14.0137C19.7324 11.0488 19.7324 8.08398 19.7324 5.02929C19.2007 5.01318 18.6689 4.99707 18.1211 4.98047C17.6765 4.88168 17.3577 4.78636 17.0987 4.40063C16.9165 4.09886 16.8858 3.75141 16.8802 3.40729C16.8787 3.35284 16.8787 3.35284 16.8773 3.2973C16.8744 3.1829 16.8721 3.06851 16.8699 2.9541C16.868 2.8759 16.8661 2.7977 16.8641 2.7195C16.8595 2.52915 16.8554 2.3388 16.8515 2.14844C15.4815 2.14501 14.1114 2.14243 12.7413 2.14085C12.1052 2.14009 11.469 2.13906 10.8329 2.13738C10.2785 2.13593 9.72409 2.13498 9.16969 2.13465C8.87609 2.13446 8.58249 2.13401 8.28888 2.13295C8.01259 2.13195 7.7363 2.13165 7.46001 2.13187C7.35856 2.13183 7.25711 2.13153 7.15566 2.13097C7.0172 2.13025 6.87876 2.13042 6.7403 2.13082C6.68002 2.13018 6.68002 2.13018 6.61853 2.12953C6.31895 2.13187 6.10945 2.18925 5.89879 2.41699ZM17.584 2.68554C17.5783 2.8666 17.5748 3.04764 17.5718 3.22876C17.5701 3.27987 17.5685 3.33098 17.5668 3.38363C17.5631 3.67964 17.5666 3.8755 17.7793 4.10156C18.0053 4.31424 18.2012 4.31779 18.4972 4.31404C18.5483 4.3124 18.5994 4.31077 18.6521 4.30908C18.7043 4.3082 18.7566 4.30732 18.8104 4.30641C18.9387 4.30412 19.067 4.30091 19.1953 4.29687C19.0051 4.06941 18.8077 3.85322 18.5977 3.64399C18.5701 3.61629 18.5424 3.5886 18.5139 3.56006C18.4562 3.50228 18.3984 3.44455 18.3405 3.38689C18.2515 3.29815 18.1628 3.20916 18.0741 3.12013C18.0177 3.06382 17.9613 3.00752 17.905 2.95124C17.8784 2.92454 17.8518 2.89784 17.8244 2.87034C17.7214 2.74303 17.7214 2.74303 17.584 2.68554ZM5.03514 9.66797C3.77363 11.479 3.70097 14.0149 3.4507 16.1348C3.37823 16.7444 3.29516 17.347 3.18272 17.9504C3.05098 18.6778 3.05655 19.4042 3.06866 20.1408C3.06919 20.1749 3.06971 20.209 3.07025 20.2441C3.0769 20.5303 3.10474 20.8066 3.13084 21.0937C4.08152 21.0937 5.03221 21.0937 6.0117 21.0937C6.04393 20.8843 6.07615 20.6748 6.10936 20.459C6.14504 20.3377 6.18408 20.2173 6.22838 20.0989C6.48479 19.3805 6.55794 18.6486 6.55786 17.8895C6.55796 17.7783 6.55885 17.6671 6.55978 17.5559C6.56128 17.1489 6.54198 16.7524 6.48543 16.3491C6.40215 15.7456 6.40215 15.7456 6.52325 15.5682C6.69595 15.4425 6.87357 15.328 7.0554 15.2161C7.13825 15.1643 7.22109 15.1124 7.30393 15.0606C7.44238 14.9744 7.58093 14.8884 7.71956 14.8025C7.86565 14.7119 8.01138 14.6207 8.15709 14.5294C8.20303 14.5012 8.24897 14.4729 8.2963 14.4438C8.55466 14.2816 8.7757 14.1417 8.88951 13.8458C8.89386 13.6675 8.8453 13.575 8.74608 13.4277C8.59063 13.3206 8.50254 13.2772 8.31333 13.2927C8.14703 13.3333 8.03977 13.3913 7.89711 13.4851C7.84771 13.5173 7.7983 13.5494 7.7474 13.5824C7.69528 13.617 7.64316 13.6515 7.58946 13.6871C7.50742 13.7406 7.42538 13.7941 7.34331 13.8475C7.26089 13.9012 7.17859 13.9551 7.09631 14.009C6.76847 14.2229 6.43677 14.4306 6.10492 14.6383C6.02141 14.6911 5.93885 14.7455 5.85644 14.8001C5.56315 14.9902 5.56315 14.9902 5.35252 14.9902C5.23045 14.9414 5.23045 14.9414 5.13279 14.8437C5.12002 14.7509 5.12002 14.7509 5.1192 14.6355C5.11865 14.5918 5.11811 14.5481 5.11755 14.5031C5.11744 14.4551 5.11733 14.407 5.11723 14.3575C5.11673 14.307 5.11624 14.2565 5.11574 14.2045C5.11423 14.037 5.1134 13.8695 5.11258 13.702C5.11166 13.5861 5.11071 13.4702 5.10971 13.3543C5.1072 13.0488 5.10527 12.7433 5.10345 12.4377C5.1015 12.1262 5.09901 11.8146 5.09655 11.503C5.09182 10.8913 5.08769 10.2797 5.08397 9.66797C5.06785 9.66797 5.05174 9.66797 5.03514 9.66797ZM20.416 9.66797C20.4159 9.69451 20.4159 9.72105 20.4158 9.74839C20.414 10.3939 20.4111 11.0394 20.407 11.6849C20.4051 11.997 20.4035 12.3092 20.4028 12.6214C20.402 12.9225 20.4003 13.2235 20.398 13.5246C20.3973 13.6396 20.3969 13.7547 20.3969 13.8697C20.3967 14.0305 20.3954 14.1912 20.3938 14.352C20.3942 14.4238 20.3942 14.4238 20.3946 14.4971C20.3935 14.5627 20.3935 14.5627 20.3925 14.6296C20.3922 14.6867 20.3922 14.6867 20.392 14.7449C20.3672 14.8437 20.3672 14.8437 20.2769 14.9308C20.1719 14.9902 20.1719 14.9902 20.0283 14.9836C19.8766 14.9408 19.7692 14.8886 19.6368 14.8039C19.5911 14.775 19.5454 14.7461 19.4983 14.7163C19.4497 14.6848 19.4011 14.6534 19.3509 14.621C19.3001 14.5887 19.2494 14.5564 19.197 14.5232C19.0614 14.4368 18.926 14.35 18.7908 14.2629C18.7065 14.2086 18.6221 14.1544 18.5377 14.1002C18.5098 14.0822 18.4818 14.0643 18.4531 14.0458C18.3972 14.0099 18.3413 13.9741 18.2854 13.9382C18.1523 13.8528 18.0194 13.7673 17.8867 13.6813C17.8385 13.6502 17.7904 13.6192 17.7407 13.5872C17.6986 13.5599 17.6565 13.5326 17.613 13.5045C17.3461 13.3357 17.3461 13.3357 17.0438 13.2812C16.8602 13.3437 16.7765 13.4231 16.6562 13.5742C16.6015 13.7201 16.5984 13.7891 16.6442 13.9378C16.8303 14.3189 17.3664 14.5507 17.7152 14.7644C17.8187 14.8285 17.9222 14.8927 18.0257 14.9569C18.0754 14.9876 18.1251 15.0183 18.1763 15.05C18.361 15.1643 18.5451 15.2795 18.7284 15.3961C18.8068 15.4457 18.8068 15.4457 18.8869 15.4963C19 15.5762 19 15.5762 19.0488 15.6738C19.0575 15.9308 19.0389 16.1694 19.0011 16.4242C18.9419 16.8598 18.9318 17.2915 18.9328 17.7307C18.9329 17.77 18.9329 17.8094 18.9329 17.8499C18.9351 18.6928 19.0278 19.4843 19.3345 20.2745C19.4153 20.5404 19.446 20.8191 19.4883 21.0937C20.4389 21.0937 21.3896 21.0937 22.3691 21.0937C22.4116 20.5906 22.4116 20.5906 22.4279 20.088C22.4281 20.0509 22.4284 20.0139 22.4287 19.9757C22.4292 19.898 22.4295 19.8203 22.4297 19.7427C22.4302 19.6272 22.4317 19.5118 22.4332 19.3963C22.4368 18.8825 22.3807 18.3977 22.2916 17.8924C22.2572 17.6894 22.2295 17.4855 22.2017 17.2815C22.1959 17.2399 22.1902 17.1982 22.1843 17.1553C22.1665 17.0246 22.1488 16.894 22.1311 16.7633C22.1248 16.7174 22.1186 16.6716 22.1121 16.6243C22.0313 16.0323 21.955 15.4398 21.8833 14.8466C21.6628 12.0654 21.6628 12.0654 20.416 9.66797ZM2.5449 21.7773C2.5449 22.1318 2.5449 22.4863 2.5449 22.8516C4.15623 22.8516 5.76756 22.8516 7.42772 22.8516C7.42772 22.4971 7.42772 22.1426 7.42772 21.7773C5.81639 21.7773 4.20506 21.7773 2.5449 21.7773ZM18.0722 21.7773C18.0722 22.1318 18.0722 22.4863 18.0722 22.8516C19.6836 22.8516 21.2949 22.8516 22.9551 22.8516C22.9551 22.4971 22.9551 22.1426 22.9551 21.7773C21.3437 21.7773 19.7324 21.7773 18.0722 21.7773Z" fill="#545454"/>
<path d="M11.2247 3.78636C11.7047 4.09887 12.0293 4.471 12.164 5.02938C12.2298 5.69648 12.0977 6.20795 11.6758 6.73836C11.7048 6.75328 11.7338 6.7682 11.7637 6.78357C12.469 7.17299 12.9089 7.74322 13.1522 8.50304C13.2182 8.75077 13.2446 8.98763 13.2469 9.24369C13.2478 9.33362 13.2478 9.33362 13.2488 9.42538C13.2492 9.48947 13.2495 9.55357 13.2499 9.6196C13.2501 9.65249 13.2503 9.68538 13.2505 9.71926C13.2515 9.89298 13.2522 10.0667 13.2527 10.2404C13.2532 10.4196 13.2549 10.5988 13.2568 10.778C13.2581 10.9161 13.2585 11.0543 13.2587 11.1924C13.259 11.2905 13.2603 11.3887 13.2616 11.4868C13.2615 11.5464 13.2614 11.6061 13.2612 11.6675C13.2615 11.72 13.2618 11.7725 13.2621 11.8265C13.2383 11.963 13.2383 11.963 13.1706 12.0775C12.9694 12.2049 12.7733 12.1859 12.5398 12.1843C12.4886 12.1848 12.4375 12.1852 12.3848 12.1856C12.2156 12.1867 12.0464 12.1864 11.8772 12.1859C11.7597 12.1862 11.6422 12.1865 11.5247 12.1869C11.2784 12.1874 11.0322 12.1871 10.7859 12.1864C10.47 12.1856 10.1541 12.1867 9.83814 12.1885C9.59552 12.1895 9.35292 12.1895 9.1103 12.1891C8.9938 12.189 8.8773 12.1894 8.76081 12.1901C8.59806 12.1909 8.4354 12.1902 8.27266 12.1891C8.22436 12.1897 8.17606 12.1902 8.1263 12.1908C7.80329 12.1863 7.80329 12.1863 7.64189 12.0523C7.56564 11.8967 7.54999 11.7981 7.55047 11.6252C7.55017 11.5682 7.54987 11.5111 7.54956 11.4523C7.55026 11.391 7.55096 11.3297 7.55169 11.2666C7.55173 11.2031 7.55178 11.1396 7.55182 11.0741C7.55198 10.9397 7.55278 10.8053 7.55409 10.6709C7.55575 10.4998 7.55613 10.3289 7.55605 10.1579C7.55609 9.99338 7.55695 9.82891 7.55779 9.66443C7.5579 9.60363 7.55801 9.54283 7.55812 9.48019C7.56743 8.61613 7.81547 7.87677 8.41648 7.2419C8.63346 7.0312 8.87059 6.88002 9.13669 6.73836C9.11372 6.70469 9.09075 6.67101 9.06708 6.63632C8.70936 6.09642 8.58598 5.68598 8.64841 5.02938C8.77263 4.50726 9.12638 4.07512 9.57786 3.79609C10.0449 3.56696 10.755 3.55682 11.2247 3.78636ZM9.53495 4.79115C9.35402 5.08517 9.33831 5.37543 9.38083 5.71297C9.502 6.03018 9.73914 6.24343 10.0278 6.41182C10.3495 6.49226 10.6583 6.48658 10.9489 6.31741C11.2156 6.12249 11.3872 5.92033 11.4621 5.59395C11.5056 5.24458 11.4177 4.97699 11.2088 4.69674C10.9943 4.46663 10.7107 4.37212 10.4062 4.32137C10.045 4.38157 9.76555 4.50223 9.53495 4.79115ZM8.68542 8.0304C8.44908 8.37177 8.30006 8.77549 8.30107 9.19088C8.30108 9.24241 8.30108 9.29393 8.30109 9.34702C8.30134 9.40084 8.30159 9.45467 8.30185 9.51012C8.3019 9.55984 8.30195 9.60955 8.302 9.66078C8.30225 9.84631 8.30293 10.0318 8.30356 10.2174C8.30457 10.6323 8.30558 11.0472 8.30662 11.4747C9.69236 11.4747 11.0781 11.4747 12.5058 11.4747C12.5099 11.0588 12.5139 10.6428 12.518 10.2143C12.5198 10.0841 12.5216 9.95388 12.5234 9.81972C12.524 9.71493 12.5245 9.61014 12.5249 9.50535C12.5264 9.42566 12.5264 9.42566 12.5279 9.34436C12.5282 8.74784 12.3284 8.24013 11.9182 7.80476C11.4468 7.36003 10.9151 7.14892 10.2702 7.16275C9.61861 7.2253 9.1042 7.53701 8.68542 8.0304Z" fill="#545454"/>
<path d="M9.55687 17.4739C9.61506 17.4737 9.67326 17.4735 9.73321 17.4733C9.82948 17.4733 9.82948 17.4733 9.92769 17.4734C9.99569 17.4732 10.0637 17.4731 10.1317 17.4729C10.3167 17.4724 10.5018 17.4723 10.6868 17.4723C10.8411 17.4723 10.9955 17.4721 11.1498 17.4719C11.514 17.4715 11.8781 17.4714 12.2422 17.4714C12.618 17.4714 12.9939 17.4709 13.3697 17.4702C13.6921 17.4695 14.0146 17.4693 14.337 17.4693C14.5297 17.4693 14.7224 17.4692 14.9151 17.4686C15.0963 17.4682 15.2775 17.4682 15.4588 17.4685C15.557 17.4686 15.6553 17.4682 15.7536 17.4678C15.812 17.468 15.8705 17.4682 15.9308 17.4684C15.9816 17.4684 16.0324 17.4683 16.0848 17.4683C16.2197 17.4807 16.2993 17.5043 16.4121 17.5781C16.4876 17.7291 16.4753 17.8513 16.461 18.0176C16.359 18.1532 16.3007 18.2064 16.1323 18.2375C16.0809 18.2375 16.0295 18.2376 15.9765 18.2377C15.9174 18.2382 15.8582 18.2388 15.7973 18.2394C15.7319 18.239 15.6665 18.2386 15.6011 18.2382C15.5321 18.2384 15.4631 18.2388 15.3942 18.2392C15.2069 18.2401 15.0197 18.2397 14.8325 18.2391C14.6365 18.2386 14.4406 18.2391 14.2447 18.2394C13.9156 18.2397 13.5866 18.2393 13.2576 18.2384C12.8771 18.2373 12.4967 18.2376 12.1163 18.2387C11.7897 18.2396 11.4631 18.2397 11.1365 18.2392C10.9414 18.2389 10.7463 18.2389 10.5512 18.2395C10.3678 18.2401 10.1844 18.2397 10.001 18.2386C9.93372 18.2383 9.8664 18.2384 9.79909 18.2388C9.70722 18.2393 9.61536 18.2385 9.5235 18.2377C9.44637 18.2376 9.44637 18.2376 9.36769 18.2375C9.19934 18.2064 9.14137 18.1528 9.03908 18.0176C9.00312 17.7248 9.00312 17.7248 9.10621 17.5842C9.26325 17.4755 9.36698 17.4742 9.55687 17.4739Z" fill="#545454"/>
<path d="M9.55563 15.46C9.61108 15.4596 9.66653 15.4592 9.72366 15.4588C9.78429 15.4591 9.84492 15.4594 9.90738 15.4597C9.97139 15.4594 10.0354 15.4592 10.1013 15.4589C10.2768 15.4582 10.4522 15.4585 10.6277 15.459C10.8113 15.4593 10.9949 15.459 11.1785 15.4588C11.4868 15.4585 11.7952 15.4588 12.1035 15.4595C12.46 15.4603 12.8165 15.4601 13.1729 15.4593C13.479 15.4586 13.7851 15.4585 14.0912 15.4589C14.274 15.4591 14.4567 15.4592 14.6395 15.4587C14.8433 15.4582 15.0471 15.4589 15.2508 15.4597C15.3114 15.4594 15.3721 15.4591 15.4345 15.4588C15.49 15.4592 15.5454 15.4596 15.6026 15.46C15.6748 15.4601 15.6748 15.4601 15.7486 15.4602C15.8969 15.4818 15.9633 15.5214 16.0703 15.6251C16.1286 15.8038 16.1351 15.8839 16.0551 16.0554C15.9727 16.1622 15.9727 16.1622 15.875 16.2111C15.7883 16.2161 15.7015 16.2181 15.6146 16.2186C15.5594 16.219 15.5042 16.2194 15.4472 16.2198C15.3559 16.2202 15.3559 16.2202 15.2627 16.2205C15.1988 16.2209 15.1349 16.2213 15.069 16.2217C14.8567 16.223 14.6444 16.2237 14.4321 16.2244C14.359 16.2247 14.286 16.2249 14.2129 16.2252C13.909 16.2263 13.6051 16.2272 13.3012 16.2277C12.8656 16.2285 12.43 16.2301 11.9943 16.2329C11.6881 16.2348 11.3819 16.2358 11.0756 16.236C10.8927 16.2362 10.7097 16.2368 10.5268 16.2384C10.3227 16.2401 10.1186 16.2399 9.91448 16.2395C9.85387 16.2403 9.79326 16.2411 9.73082 16.242C9.27491 16.2386 9.27491 16.2386 9.12187 16.0983C9.03906 15.9669 9.03906 15.9669 9.03601 15.7899C9.12447 15.5089 9.27399 15.4604 9.55563 15.46Z" fill="#545454"/>
<path d="M16.3633 10.2541C16.4854 10.4372 16.4871 10.5255 16.4609 10.7423C16.3602 10.8644 16.3602 10.8644 16.2168 10.9865C16.1625 11.041 16.1086 11.096 16.0551 11.1513C15.9061 11.3002 15.751 11.4396 15.5914 11.577C15.4246 11.7221 15.2619 11.8716 15.0987 12.0206C14.9742 12.1285 14.9116 12.1557 14.7489 12.1889C14.4485 12.1412 14.3095 11.9429 14.1172 11.7189C14.0865 11.684 14.0558 11.649 14.0241 11.613C13.9011 11.4631 13.8307 11.3621 13.7937 11.1696C13.8328 10.9977 13.8725 10.938 14.0195 10.84C14.1782 10.8034 14.1782 10.8034 14.3613 10.84C14.5069 10.9573 14.6302 11.089 14.752 11.2306C15.0547 11.0187 15.3198 10.778 15.5857 10.5224C15.6139 10.4955 15.6422 10.4687 15.6713 10.441C15.6964 10.4168 15.7216 10.3925 15.7474 10.3676C15.9563 10.1959 16.0996 10.1906 16.3633 10.2541Z" fill="#545454"/>
<path d="M16.3145 7.17778C16.4121 7.22661 16.4121 7.22661 16.4609 7.32426C16.5081 7.64821 16.5081 7.64821 16.3938 7.8099C16.2981 7.907 16.1987 7.99595 16.0947 8.08415C16.0607 8.11446 16.0267 8.14477 15.9917 8.17599C15.8886 8.26754 15.7843 8.35751 15.6797 8.44731C15.6096 8.50833 15.5395 8.56942 15.4695 8.63061C15.439 8.65714 15.4086 8.68368 15.3772 8.71101C15.2874 8.79055 15.1998 8.87209 15.1121 8.9539C14.9639 9.07948 14.8544 9.13526 14.6543 9.13091C14.4334 9.04595 14.3002 8.87131 14.1521 8.69374C14.1008 8.63251 14.0478 8.57259 13.9923 8.51521C13.8682 8.38444 13.8246 8.3032 13.7937 8.12383C13.8242 7.95903 13.8242 7.95903 13.9249 7.83696C14.0684 7.76372 14.0684 7.76372 14.2362 7.75456C14.4668 7.83144 14.565 7.9606 14.7031 8.15434C14.8733 8.12569 14.9567 8.06653 15.0798 7.9474C15.1133 7.91539 15.1469 7.88338 15.1814 7.85041C15.2159 7.81676 15.2504 7.78312 15.286 7.74846C15.9242 7.13371 15.9242 7.13371 16.3145 7.17778Z" fill="#545454"/>
<path d="M16.2656 4.10156C16.3816 4.15039 16.3816 4.15039 16.4609 4.24805C16.503 4.41919 16.5149 4.47722 16.4609 4.63867C16.3167 4.82255 16.1483 4.97351 15.9726 5.12695C15.9389 5.15716 15.9052 5.18738 15.8704 5.2185C15.8086 5.27326 15.7463 5.3275 15.6835 5.3812C15.5215 5.52096 15.364 5.66573 15.2059 5.80978C14.9367 6.04598 14.9367 6.04598 14.7641 6.0852C14.3856 6.01241 14.1327 5.62891 13.8959 5.34801C13.8082 5.19712 13.8072 5.10358 13.8242 4.93164C13.873 4.81567 13.873 4.81567 13.9707 4.73633C14.1364 4.70261 14.2053 4.68884 14.3613 4.73633C14.5094 4.85199 14.6313 4.98327 14.7519 5.12695C14.9503 4.98629 15.1383 4.84466 15.3074 4.66919C15.443 4.53049 15.5835 4.40096 15.7316 4.27551C15.7704 4.24234 15.8092 4.20917 15.8492 4.17499C16.0003 4.08512 16.0926 4.08418 16.2656 4.10156Z" fill="#545454"/>
</svg>
