<svg width="26" height="25" viewBox="0 0 26 25" fill="none" xmlns="http://www.w3.org/2000/svg">
<path d="M6.42993 1.21345C6.47722 1.21331 6.52451 1.21316 6.57324 1.21301C6.73183 1.21259 6.89043 1.21251 7.04902 1.21244C7.16267 1.21221 7.27632 1.21197 7.38997 1.21171C7.69877 1.21106 8.00757 1.21075 8.31637 1.21053C8.5092 1.21039 8.70203 1.21019 8.89486 1.20997C9.42883 1.20938 9.96281 1.20887 10.4968 1.20871C10.5309 1.2087 10.5651 1.20869 10.6003 1.20868C10.6516 1.20866 10.6516 1.20866 10.704 1.20864C10.7734 1.20862 10.8427 1.2086 10.9121 1.20858C10.9637 1.20856 10.9637 1.20856 11.0164 1.20854C11.5743 1.20835 12.1322 1.2075 12.6901 1.20636C13.263 1.20521 13.8359 1.2046 14.4088 1.20454C14.7304 1.20449 15.052 1.2042 15.3737 1.20333C15.676 1.20253 15.9783 1.20242 16.2807 1.20285C16.3918 1.20288 16.5028 1.20267 16.6139 1.20219C16.7653 1.20157 16.9167 1.20185 17.0681 1.20236C17.1123 1.20197 17.1564 1.20158 17.2019 1.20117C17.6094 1.2044 17.7983 1.3711 18.0796 1.65529C18.1087 1.68421 18.1377 1.71312 18.1676 1.74291C18.2629 1.83811 18.358 1.93365 18.453 2.02921C18.5193 2.09557 18.5856 2.1619 18.6519 2.22822C18.7906 2.36701 18.9292 2.50596 19.0676 2.64504C19.2453 2.82355 19.4233 3.00174 19.6014 3.17983C19.7382 3.31666 19.8749 3.45362 20.0115 3.59062C20.0772 3.65639 20.1428 3.72214 20.2085 3.78785C20.3 3.87949 20.3914 3.97128 20.4827 4.06313C20.51 4.0904 20.5373 4.11767 20.5654 4.14576C20.7692 4.35126 20.8121 4.43685 20.812 4.72764C20.8118 4.76747 20.8115 4.80729 20.8112 4.84832C20.8111 4.93524 20.811 5.02216 20.8108 5.10908C20.8106 5.17841 20.8106 5.17841 20.8104 5.24914C20.8098 5.49343 20.8108 5.73772 20.8116 5.982C20.8125 6.29309 20.8129 6.60416 20.8115 6.91525C20.8104 7.16644 20.811 7.41758 20.8126 7.66877C20.813 7.76447 20.8127 7.86017 20.8118 7.95587C20.8106 8.08998 20.8115 8.22393 20.813 8.35804C20.8121 8.39746 20.8113 8.43689 20.8104 8.47752C20.814 8.64329 20.8199 8.74728 20.9304 8.87588C21.0199 8.95447 21.0199 8.95447 21.1128 9.02023C21.932 9.61615 22.3047 10.9969 22.5431 11.9198C22.5628 11.9946 22.5628 11.9946 22.5829 12.0709C22.867 13.2184 22.9988 14.4024 23.1354 15.5747C23.1722 15.8897 23.2097 16.2047 23.2478 16.5195C23.252 16.5536 23.2561 16.5876 23.2603 16.6227C23.3086 17.0181 23.362 17.4113 23.4359 17.8028C23.4429 17.8397 23.4498 17.8766 23.457 17.9146C23.4704 17.9851 23.4839 18.0557 23.4973 18.1262C23.6849 19.1149 23.6685 20.1066 23.6537 21.1099C23.6527 21.1824 23.6527 21.1824 23.6517 21.2563C23.6507 21.3013 23.6498 21.3464 23.6489 21.3928C23.6481 21.4318 23.6473 21.4708 23.6465 21.511C23.6373 21.6507 23.6147 21.7858 23.5898 21.9234C23.005 21.9246 22.4201 21.9254 21.8352 21.926C21.5637 21.9262 21.2921 21.9266 21.0206 21.9271C20.7588 21.9276 20.497 21.9279 20.2351 21.9281C20.135 21.9282 20.0349 21.9283 19.9347 21.9286C19.795 21.9289 19.6553 21.929 19.5156 21.929C19.4737 21.9292 19.4319 21.9293 19.3888 21.9295C19.1032 21.929 19.1032 21.929 19.0488 21.8746C19.0306 21.7896 19.0147 21.704 19 21.6183C18.9696 21.4426 18.9373 21.2682 18.9023 21.0934C14.8418 21.0934 10.7812 21.0934 6.59765 21.0934C6.54931 21.3512 6.50097 21.609 6.45116 21.8746C6.36055 21.9652 6.23173 21.9293 6.11118 21.9295C6.06935 21.9293 6.02752 21.9292 5.98442 21.929C5.9406 21.929 5.89678 21.929 5.85163 21.929C5.70605 21.929 5.56048 21.9286 5.4149 21.9282C5.31425 21.9281 5.21361 21.928 5.11296 21.928C4.8475 21.9278 4.58204 21.9273 4.31657 21.9268C4.04592 21.9263 3.77526 21.9261 3.5046 21.9258C2.97311 21.9253 2.44163 21.9245 1.91015 21.9234C1.87796 21.7453 1.85472 21.5738 1.85113 21.3928C1.84973 21.3252 1.84973 21.3252 1.84831 21.2563C1.84763 21.208 1.84695 21.1597 1.84625 21.1099C1.8455 21.059 1.84475 21.008 1.84398 20.9555C1.83214 19.9628 1.83611 18.9984 2.0226 18.0218C2.03653 17.9485 2.05042 17.8752 2.06426 17.8018C2.07144 17.7638 2.07862 17.7258 2.08602 17.6866C2.19331 17.0966 2.25449 16.4989 2.32459 15.9035C2.93186 10.7508 2.93186 10.7508 4.20507 9.22812C4.23201 9.1952 4.25895 9.16228 4.2867 9.12837C4.40199 8.98996 4.49288 8.88976 4.64452 8.78867C4.6666 8.67283 4.6666 8.67283 4.66268 8.53552C4.66301 8.48186 4.66334 8.4282 4.66368 8.37291C4.6633 8.31376 4.66292 8.25461 4.66253 8.19367C4.66282 8.09835 4.6631 8.00302 4.66339 7.9077C4.66356 7.805 4.66337 7.70232 4.66308 7.59962C4.66252 7.38534 4.66311 7.17107 4.66389 6.9568C4.66566 6.4242 4.66597 5.8916 4.66584 5.35899C4.66576 4.94577 4.66611 4.53255 4.66779 4.11933C4.66861 3.90671 4.66853 3.69411 4.66775 3.48149C4.6674 3.31729 4.66832 3.1531 4.66902 2.9889C4.66854 2.93054 4.66807 2.87218 4.66758 2.81205C4.67106 2.40398 4.73958 2.0664 4.97774 1.72881C5.41423 1.3097 5.8406 1.21289 6.42993 1.21345ZM5.53258 2.29758C5.44087 2.44721 5.41968 2.57047 5.41976 2.742C5.41967 2.78362 5.41957 2.82524 5.41947 2.86813C5.41961 2.91387 5.41975 2.95961 5.4199 3.00673C5.41986 3.05531 5.41982 3.10389 5.41977 3.15394C5.41969 3.31746 5.41996 3.48097 5.42023 3.64449C5.42024 3.76141 5.42023 3.87833 5.42021 3.99525C5.4202 4.24735 5.42034 4.49945 5.42061 4.75155C5.42101 5.11605 5.42113 5.48054 5.4212 5.84504C5.4213 6.43639 5.42163 7.02774 5.42209 7.61909C5.42254 8.19359 5.42288 8.76808 5.42309 9.34257C5.4231 9.37798 5.42312 9.41338 5.42313 9.44985C5.42319 9.62746 5.42325 9.80506 5.42332 9.98267C5.42382 11.4564 5.42469 12.9302 5.42577 14.4039C5.59612 14.3376 5.7443 14.2655 5.89784 14.1661C5.94105 14.1383 5.98426 14.1104 6.02878 14.0818C6.07451 14.0521 6.12024 14.0225 6.16735 13.9919C6.26364 13.9301 6.35996 13.8684 6.45631 13.8067C6.50449 13.7758 6.55266 13.745 6.6023 13.7132C6.81139 13.5797 7.02141 13.4479 7.23241 13.3175C7.26767 13.2954 7.30293 13.2732 7.33926 13.2504C7.72273 13.0146 8.07702 12.9169 8.52483 13.014C8.90905 13.1312 9.09318 13.311 9.28243 13.6608C9.4573 14.0428 9.40773 14.4339 9.26641 14.818C9.05004 15.1471 8.69805 15.3562 8.36767 15.5575C8.28673 15.6083 8.20579 15.6591 8.12486 15.7099C7.94789 15.8199 7.76928 15.9266 7.58966 16.0322C7.50006 16.0865 7.41048 16.1409 7.32091 16.1953C7.2565 16.2317 7.2565 16.2317 7.19078 16.2689C6.9757 16.3949 6.9757 16.3949 6.86246 16.6051C6.86055 16.7224 6.8726 16.8269 6.89062 16.943C6.92885 17.2349 6.94721 17.5218 6.94765 17.8161C6.94781 17.8561 6.94797 17.896 6.94814 17.9371C6.94838 18.021 6.9485 18.105 6.94849 18.1889C6.9486 18.3149 6.94949 18.4409 6.95041 18.5669C6.95185 19.0066 6.93273 19.43 6.86283 19.8644C6.83521 20.0415 6.83521 20.0415 6.84179 20.3121C10.7412 20.3121 14.6406 20.3121 18.6582 20.3121C18.625 19.9044 18.625 19.9044 18.5823 19.4976C18.5572 19.2789 18.5535 19.0626 18.5541 18.8427C18.554 18.7818 18.554 18.7818 18.5539 18.7196C18.5539 18.6345 18.554 18.5493 18.5542 18.4641C18.5544 18.3349 18.5542 18.2057 18.5539 18.0765C18.5539 17.9932 18.554 17.9098 18.5541 17.8264C18.554 17.7884 18.5539 17.7504 18.5538 17.7113C18.555 17.4089 18.5834 17.1134 18.6289 16.8145C18.6401 16.7004 18.6396 16.6146 18.6094 16.5035C18.4891 16.3693 18.3441 16.2894 18.1882 16.2014C18.1449 16.1751 18.1016 16.1488 18.057 16.1216C17.9644 16.0654 17.8715 16.0098 17.7782 15.9548C17.5339 15.8102 17.2935 15.6595 17.053 15.5086C17.0081 15.4814 16.9631 15.4541 16.9169 15.426C16.5634 15.2061 16.2742 14.9654 16.142 14.5586C16.0482 14.1248 16.1402 13.7602 16.3724 13.3907C16.5497 13.1554 16.8125 13.0458 17.0957 12.9879C17.7175 12.9213 18.1684 13.2278 18.6704 13.5586C18.7238 13.5932 18.7773 13.6279 18.8323 13.6637C18.9861 13.7635 19.1396 13.8639 19.293 13.9644C19.401 14.0351 19.5091 14.1058 19.6174 14.1761C19.6986 14.2289 19.7795 14.282 19.8604 14.3352C19.9681 14.4122 19.9681 14.4122 20.0742 14.4039C20.0742 11.294 20.0742 8.18418 20.0742 4.98007C19.1558 4.9559 19.1558 4.9559 18.2187 4.93125C17.7258 4.73405 17.4426 4.61308 17.2288 4.14179C17.14 3.91774 17.1338 3.71293 17.1291 3.47498C17.1281 3.43292 17.127 3.39086 17.126 3.34753C17.1228 3.21321 17.1199 3.07888 17.1171 2.94455C17.1149 2.85347 17.1128 2.7624 17.1107 2.67132C17.1054 2.44807 17.1005 2.22482 17.0957 2.00156C15.6762 1.9971 14.2567 1.99365 12.8372 1.99158C12.6696 1.99134 12.5021 1.99109 12.3345 1.99083C12.3011 1.99078 12.2677 1.99073 12.2334 1.99067C11.6932 1.98982 11.153 1.98828 10.6128 1.98649C10.0585 1.98466 9.50415 1.98359 8.94985 1.98318C8.6385 1.98293 8.32717 1.98233 8.01582 1.98091C7.72286 1.97958 7.4299 1.97917 7.13693 1.97947C7.02934 1.97941 6.92175 1.97902 6.81416 1.97828C6.66735 1.9773 6.52059 1.97754 6.37378 1.97807C6.33113 1.9775 6.28848 1.97693 6.24453 1.97635C5.93442 1.9794 5.74333 2.05776 5.53258 2.29758Z" fill="#003880"/>
<path d="M11.5476 6.99484C12.211 7.43711 12.706 8.10693 12.8758 8.89108C12.9211 9.20302 12.9083 9.52014 12.906 9.8347C12.9059 9.90309 12.9058 9.97148 12.9057 10.0399C12.9052 10.2913 12.9039 10.5428 12.9026 10.7943C12.9006 11.3572 12.8986 11.9202 12.8965 12.5002C10.9629 12.5002 9.02932 12.5002 7.03713 12.5002C7.0331 11.9685 7.02908 11.4367 7.02493 10.8889C7.02315 10.7227 7.02137 10.5564 7.01954 10.3852C7.01866 10.1779 7.01866 10.1779 7.01849 10.0801C7.0182 10.0136 7.01752 9.94701 7.01651 9.88048C7.00351 8.97557 7.20596 8.1035 7.85024 7.42819C8.88775 6.48908 10.3232 6.28295 11.5476 6.99484Z" fill="#003880"/>
<path d="M18.3164 22.5586C20.0244 22.5586 21.7324 22.5586 23.4922 22.5586C23.4922 22.9614 23.4922 23.3643 23.4922 23.7793C21.7842 23.7793 20.0762 23.7793 18.3164 23.7793C18.3164 23.3765 18.3164 22.9736 18.3164 22.5586Z" fill="#003880"/>
<path d="M2.00781 22.5586C3.71582 22.5586 5.42383 22.5586 7.18359 22.5586C7.18359 22.9614 7.18359 23.3643 7.18359 23.7793C5.47559 23.7793 3.76758 23.7793 2.00781 23.7793C2.00781 23.3765 2.00781 22.9736 2.00781 22.5586Z" fill="#003880"/>
<path d="M9.46287 15.9538C9.51942 15.9535 9.57596 15.9532 9.63421 15.9528C9.69606 15.9529 9.7579 15.953 9.82162 15.9532C9.88756 15.953 9.9535 15.9527 10.0194 15.9524C10.1984 15.9518 10.3774 15.9517 10.5564 15.9519C10.7058 15.9519 10.8553 15.9517 11.0048 15.9514C11.3576 15.9509 11.7103 15.9509 12.0631 15.9512C12.4268 15.9515 12.7904 15.9509 13.1541 15.9498C13.4665 15.949 13.779 15.9487 14.0914 15.9488C14.2779 15.9489 14.4644 15.9488 14.6509 15.9481C14.8264 15.9475 15.0018 15.9476 15.1773 15.9482C15.2722 15.9484 15.3671 15.9478 15.4619 15.9473C15.9902 15.9504 15.9902 15.9504 16.2168 16.1131C16.2873 16.2541 16.284 16.3473 16.2656 16.5037C16.1852 16.6308 16.1501 16.6782 16.0215 16.7478C15.8029 16.7846 15.586 16.7796 15.3649 16.7771C15.2973 16.7772 15.2298 16.7774 15.1622 16.7777C14.9791 16.7782 14.796 16.7771 14.6129 16.7758C14.4212 16.7746 14.2295 16.7748 14.0378 16.7748C13.716 16.7745 13.3942 16.7734 13.0723 16.7716C12.7002 16.7696 12.3281 16.7687 11.9561 16.7686C11.5598 16.7684 11.1636 16.7675 10.7674 16.7662C10.6532 16.7659 10.5391 16.7658 10.4249 16.7656C10.2456 16.7653 10.0662 16.7645 9.88689 16.7633C9.78967 16.7628 9.69245 16.7627 9.59522 16.7627C9.53738 16.7622 9.47953 16.7617 9.41994 16.7612C9.36966 16.761 9.31939 16.7608 9.26759 16.7605C9.13213 16.7474 9.05316 16.7272 8.94141 16.6502C8.87122 16.4884 8.87122 16.4884 8.84375 16.3084C8.90068 16.166 8.94674 16.0919 9.07628 16.0095C9.21128 15.9565 9.3178 15.9541 9.46287 15.9538Z" fill="#003880"/>
<path d="M9.34297 18.09C9.4054 18.0894 9.46784 18.0889 9.53217 18.0883C9.60125 18.0887 9.67033 18.0891 9.73941 18.0895C9.81224 18.0892 9.88508 18.0889 9.95791 18.0885C10.1556 18.0876 10.3534 18.0879 10.5511 18.0885C10.758 18.089 10.9649 18.0886 11.1717 18.0883C11.5192 18.0879 11.8666 18.0884 12.214 18.0893C12.6157 18.0904 13.0175 18.09 13.4192 18.0889C13.764 18.0881 14.1089 18.0879 14.4537 18.0884C14.6597 18.0888 14.8657 18.0888 15.0717 18.0881C15.2654 18.0876 15.459 18.088 15.6527 18.0891C15.7238 18.0894 15.7949 18.0893 15.866 18.0889C15.963 18.0883 16.06 18.0891 16.157 18.09C16.2384 18.0901 16.2384 18.0901 16.3215 18.0902C16.4942 18.1206 16.5518 18.1713 16.6562 18.3101C16.6837 18.481 16.6837 18.481 16.6562 18.6519C16.5297 18.7809 16.4477 18.8411 16.2683 18.8718C16.2149 18.8718 16.1614 18.8719 16.1063 18.872C16.0447 18.8725 15.9831 18.8731 15.9196 18.8737C15.8517 18.8733 15.7838 18.8729 15.7159 18.8725C15.6441 18.8727 15.5723 18.8731 15.5005 18.8735C15.3058 18.8744 15.1111 18.874 14.9164 18.8734C14.7125 18.8729 14.5087 18.8734 14.3048 18.8737C13.9625 18.874 13.6202 18.8736 13.2778 18.8727C12.8822 18.8716 12.4865 18.8719 12.0909 18.873C11.751 18.8739 11.4112 18.874 11.0714 18.8735C10.8684 18.8732 10.6655 18.8732 10.4626 18.8738C10.2718 18.8744 10.0811 18.874 9.89032 18.8729C9.82034 18.8726 9.75037 18.8727 9.68039 18.8731C9.58481 18.8736 9.48922 18.8728 9.39363 18.872C9.34016 18.8719 9.28669 18.8718 9.2316 18.8718C9.05224 18.8411 8.97023 18.7809 8.84372 18.6519C8.81625 18.481 8.81625 18.481 8.84372 18.3101C8.99247 18.1124 9.10088 18.0903 9.34297 18.09Z" fill="#003880"/>
<path d="M10.5588 3.657C10.8777 3.84434 11.1258 4.08509 11.2363 4.44321C11.3311 4.88147 11.2742 5.27443 11.0319 5.65476C10.8292 5.91198 10.5402 6.07623 10.2207 6.14151C9.8511 6.17827 9.48936 6.13094 9.18555 5.90805C8.89614 5.64544 8.72466 5.37711 8.68201 4.98738C8.66546 4.57937 8.76503 4.30926 8.97498 3.96714C9.38956 3.56376 10.0202 3.41687 10.5588 3.657Z" fill="#003880"/>
<path d="M16.5098 10.4985C16.6044 10.5535 16.6044 10.5535 16.6563 10.645C16.6882 10.8566 16.6782 10.9539 16.5586 11.1333C16.4251 11.275 16.2783 11.4021 16.1302 11.5283C16.0135 11.6284 15.9001 11.7316 15.7865 11.8352C15.7022 11.9106 15.6178 11.9859 15.5332 12.061C15.487 12.1025 15.4407 12.144 15.393 12.1867C15.3466 12.2268 15.3003 12.2669 15.2525 12.3082C15.2104 12.345 15.1684 12.3819 15.1251 12.4198C14.9683 12.5179 14.885 12.5268 14.7031 12.5005C14.3767 12.3155 14.0665 11.9363 13.8731 11.6216C13.8528 11.4396 13.8467 11.3647 13.9555 11.2157C14.0836 11.1222 14.1539 11.0883 14.3125 11.0845C14.5371 11.1849 14.716 11.3615 14.8985 11.5239C14.928 11.4973 14.9576 11.4707 14.9881 11.4432C15.0743 11.3657 15.1605 11.2882 15.2467 11.2107C15.3374 11.129 15.4277 11.0469 15.5176 10.9643C16.1408 10.3941 16.1408 10.3941 16.5098 10.4985Z" fill="#003880"/>
<path d="M16.5098 7.27547C16.6013 7.32735 16.6013 7.32735 16.6562 7.42196C16.7089 7.73777 16.7089 7.73777 16.5933 7.90204C16.5043 7.99201 16.4117 8.07344 16.3145 8.15438C16.2524 8.20928 16.1903 8.26422 16.1283 8.31917C16.0957 8.34725 16.0631 8.37532 16.0295 8.40424C15.9122 8.50631 15.7976 8.61104 15.6827 8.7159C15.6006 8.78939 15.5182 8.86263 15.4355 8.93563C15.397 8.96993 15.3585 9.00424 15.3188 9.03958C15.2818 9.07074 15.2448 9.10189 15.2067 9.13399C15.1742 9.16175 15.1418 9.18951 15.1084 9.21811C14.9462 9.30379 14.8351 9.30112 14.6543 9.27742C14.4645 9.14145 14.3192 8.96464 14.166 8.78914C14.1175 8.73599 14.1175 8.73599 14.068 8.68176C13.926 8.51367 13.8737 8.43808 13.87 8.21236C13.9489 7.97577 13.9489 7.97577 14.0684 7.91024C14.31 7.86593 14.31 7.86593 14.459 7.91024C14.5934 8.02619 14.6978 8.15674 14.8008 8.30086C14.9668 8.27271 15.0413 8.22225 15.1548 8.09945C15.3362 7.90986 15.5295 7.73927 15.7285 7.56844C15.7758 7.52643 15.7758 7.52643 15.8241 7.48356C15.854 7.45719 15.8839 7.43082 15.9147 7.40365C15.9544 7.36833 15.9544 7.36833 15.995 7.33231C16.1687 7.20121 16.3091 7.22531 16.5098 7.27547Z" fill="#003880"/>
<path d="M16.5098 4.05227C16.6074 4.1011 16.6074 4.1011 16.6562 4.19875C16.6904 4.36388 16.703 4.43314 16.6562 4.58938C16.5284 4.75729 16.3762 4.89134 16.2168 5.02883C16.1678 5.07254 16.1678 5.07254 16.1178 5.11714C16.0553 5.1725 15.9923 5.22736 15.929 5.28174C15.8097 5.3849 15.6928 5.49057 15.5759 5.59646C15.5346 5.63328 15.4933 5.6701 15.4508 5.70804C15.3844 5.76805 15.3189 5.82907 15.2555 5.89229C15.1257 6.01677 15.0232 6.07191 14.8466 6.08474C14.6107 6.04731 14.5607 5.99145 14.4102 5.81008C14.3525 5.75376 14.2945 5.69783 14.2362 5.64223C14.092 5.49611 13.9658 5.36075 13.873 5.17531C13.876 5.00353 13.8903 4.88785 13.9768 4.73891C14.1267 4.65398 14.2417 4.6667 14.4102 4.68703C14.5968 4.80703 14.744 4.96768 14.8984 5.12649C14.9186 5.10578 14.9387 5.08507 14.9595 5.06373C15.1744 4.8454 15.3975 4.64133 15.6309 4.44289C15.6703 4.40714 15.7098 4.37139 15.7505 4.33456C16.0089 4.10972 16.1628 3.98532 16.5098 4.05227Z" fill="#003880"/>
</svg>
