<svg width="19" height="19" viewBox="0 0 19 19" fill="none" xmlns="http://www.w3.org/2000/svg">
<path d="M14.4787 7.54993C14.4787 8.35898 14.1732 9.35045 13.6551 10.4275C13.1428 11.4922 12.4527 12.5799 11.7514 13.5645C11.0517 14.5469 10.3504 15.4133 9.82342 16.0347C9.69174 16.19 9.57115 16.3297 9.46441 16.4519C9.35768 16.3297 9.23709 16.19 9.10542 16.0347C8.57842 15.4133 7.87716 14.5469 7.17744 13.5645C6.47613 12.5799 5.78605 11.4922 5.27378 10.4275C4.75563 9.35045 4.4501 8.35897 4.45009 7.54991C4.45005 5.78293 5.03265 4.45743 5.91788 3.57518C6.80629 2.68977 8.05018 2.2 9.46441 2.2C10.8786 2.2 12.1225 2.68977 13.0109 3.57518C13.8961 4.45743 14.4787 5.78294 14.4787 7.54993Z" stroke="#484C52" stroke-width="1.4"/>
<path d="M11.1787 6.63773C11.1787 7.58159 10.4135 8.34674 9.46967 8.34674C8.5258 8.34674 7.76065 7.58159 7.76065 6.63773C7.76065 5.69386 8.5258 4.92871 9.46967 4.92871C10.4135 4.92871 11.1787 5.69386 11.1787 6.63773Z" fill="#484C52"/>
</svg>
