<svg width="8" height="12" viewBox="0 0 8 12" fill="none" xmlns="http://www.w3.org/2000/svg">
<path d="M7.21418 4.68368C7.21418 5.2237 7.00999 5.88851 6.66094 6.61403C6.3161 7.33081 5.85126 8.06356 5.37839 8.72744C4.90666 9.38974 4.43383 9.97394 4.07846 10.393C3.99809 10.4877 3.92385 10.5739 3.85712 10.6505C3.7904 10.5739 3.71615 10.4877 3.63579 10.393C3.28042 9.97394 2.80759 9.38974 2.33586 8.72744C1.863 8.06356 1.39816 7.33081 1.05331 6.61403C0.704265 5.88851 0.500069 5.22369 0.500057 4.68367C0.500031 3.4973 0.89104 2.60996 1.4827 2.02029C2.07663 1.42836 2.90897 1.1001 3.85712 1.1001C4.80526 1.1001 5.63759 1.42836 6.23151 2.02029C6.82316 2.60996 7.21418 3.49731 7.21418 4.68368Z" stroke="black"/>
<circle cx="3.77993" cy="4.37978" r="1.07998" fill="black"/>
</svg>
