<svg width="20" height="20" viewBox="0 0 20 20" fill="none" xmlns="http://www.w3.org/2000/svg">
<path d="M10 12.4C10.7 12.4 11.3313 12.2167 11.8938 11.85C12.4563 11.4833 12.9 11 13.225 10.4C12.7875 10.0133 12.2937 9.71667 11.7437 9.51C11.1937 9.30333 10.6125 9.2 10 9.2C9.3875 9.2 8.80625 9.30333 8.25625 9.51C7.70625 9.71667 7.2125 10.0133 6.775 10.4C7.1 11 7.54375 11.4833 8.10625 11.85C8.66875 12.2167 9.3 12.4 10 12.4ZM10 8.4C10.4125 8.4 10.7656 8.24333 11.0594 7.93C11.3531 7.61667 11.5 7.24 11.5 6.8C11.5 6.36 11.3531 5.98333 11.0594 5.67C10.7656 5.35667 10.4125 5.2 10 5.2C9.5875 5.2 9.23438 5.35667 8.94063 5.67C8.64687 5.98333 8.5 6.36 8.5 6.8C8.5 7.24 8.64687 7.61667 8.94063 7.93C9.23438 8.24333 9.5875 8.4 10 8.4ZM10 15.88C11.525 14.3867 12.6562 13.03 13.3938 11.81C14.1313 10.59 14.5 9.50667 14.5 8.56C14.5 7.10667 14.0656 5.91667 13.1969 4.99C12.3281 4.06333 11.2625 3.6 10 3.6C8.7375 3.6 7.67188 4.06333 6.80312 4.99C5.93438 5.91667 5.5 7.10667 5.5 8.56C5.5 9.50667 5.86875 10.59 6.60625 11.81C7.34375 13.03 8.475 14.3867 10 15.88ZM10 18C7.9875 16.1733 6.48438 14.4767 5.49063 12.91C4.49688 11.3433 4 9.89333 4 8.56C4 6.56 4.60312 4.96667 5.80938 3.78C7.01563 2.59333 8.4125 2 10 2C11.5875 2 12.9844 2.59333 14.1906 3.78C15.3969 4.96667 16 6.56 16 8.56C16 9.89333 15.5031 11.3433 14.5094 12.91C13.5156 14.4767 12.0125 16.1733 10 18Z" fill="#484C52"/>
</svg>
