<svg width="25" height="25" viewBox="0 0 25 25" fill="none" xmlns="http://www.w3.org/2000/svg">
<g clip-path="url(#clip0_3123_2857)">
<path d="M9.04679 12.4062C9.10028 12.4405 9.10028 12.4405 9.15485 12.4755C9.31538 12.5791 9.47536 12.6834 9.63491 12.7885C10.8885 13.6124 12.3068 14.0732 13.8118 13.788C14.702 13.5996 15.4842 13.2249 16.2302 12.7126C16.412 12.5883 16.5984 12.4728 16.787 12.3593C16.8159 12.3418 16.8447 12.3243 16.8745 12.3063C17.1704 12.1296 17.3881 12.0609 17.7333 12.0634C17.7705 12.0637 17.8077 12.064 17.846 12.0642C18.9737 12.0869 20.0543 12.534 20.8564 13.3302C22.6155 15.1682 22.9535 18.0477 22.9288 20.4788C22.8836 21.6311 22.5316 22.6443 21.703 23.4687C21.1284 23.9866 20.4383 24.296 19.6874 24.4531C19.6486 24.4614 19.6099 24.4696 19.5699 24.4781C19.3401 24.5088 19.1131 24.5069 18.8815 24.5069C18.8285 24.507 18.7754 24.5072 18.7208 24.5074C18.5429 24.5079 18.365 24.5081 18.1871 24.5083C18.0596 24.5085 17.9321 24.5089 17.8045 24.5092C17.4217 24.5101 17.0389 24.5106 16.6561 24.511C16.4755 24.5112 16.2949 24.5115 16.1143 24.5117C15.5133 24.5125 14.9123 24.5132 14.3113 24.5135C14.1554 24.5136 13.9996 24.5137 13.8437 24.5138C13.805 24.5138 13.7663 24.5138 13.7264 24.5139C13.0999 24.5143 12.4735 24.5154 11.8471 24.517C11.2029 24.5185 10.5587 24.5194 9.91444 24.5195C9.55318 24.5196 9.19193 24.52 8.83067 24.5212C8.52278 24.5222 8.2149 24.5226 7.90701 24.5222C7.75025 24.522 7.59352 24.5221 7.43676 24.5229C6.08651 24.5296 4.92507 24.319 3.92277 23.3369C3.01312 22.407 2.83137 21.3026 2.84172 20.0556C2.84193 20.009 2.84215 19.9623 2.84238 19.9142C2.84637 19.1844 2.87342 18.4703 2.99992 17.75C3.00923 17.6959 3.01855 17.6419 3.02814 17.5862C3.27959 16.1702 3.69012 14.741 4.64054 13.625C4.68405 13.5702 4.68405 13.5702 4.72844 13.5144C5.6759 12.3695 7.70498 11.5408 9.04679 12.4062Z" fill="#003880"/>
<path d="M16.2976 1.6647C17.5005 2.64628 18.3209 3.96726 18.5043 5.52699C18.6402 7.06745 18.3442 8.63701 17.3316 9.85222C17.1848 10.0214 17.0307 10.1827 16.8751 10.3437C16.8374 10.3843 16.7998 10.4249 16.761 10.4668C15.9434 11.326 14.8458 11.8254 13.6876 12.0312C13.6395 12.0399 13.5914 12.0486 13.5418 12.0576C12.0083 12.23 10.44 11.9205 9.21604 10.9469C9.14336 10.8872 9.07157 10.8267 9.00009 10.7656C8.96395 10.735 8.96395 10.735 8.92708 10.7037C7.97654 9.88946 7.28953 8.80767 7.03134 7.57809C7.02313 7.54203 7.01492 7.50597 7.00646 7.46881C6.92638 7.08581 6.91892 6.70506 6.92001 6.3154C6.92004 6.28132 6.92007 6.24725 6.92009 6.21214C6.92202 5.65095 6.96276 5.11785 7.12509 4.57809C7.13489 4.54538 7.14469 4.51267 7.15478 4.47897C7.5921 3.08051 8.64388 1.82023 9.9417 1.13966C10.0948 1.06289 10.2499 0.991529 10.4063 0.921844C10.4558 0.899245 10.5052 0.876646 10.5561 0.853362C12.4123 0.070065 14.7314 0.430929 16.2976 1.6647Z" fill="#003880"/>
</g>
<defs>
<clipPath id="clip0_3123_2857">
<rect width="24" height="24" fill="white" transform="translate(0.75 0.5)"/>
</clipPath>
</defs>
</svg>
