<svg width="25" height="25" viewBox="0 0 25 25" fill="none" xmlns="http://www.w3.org/2000/svg">
<g clip-path="url(#clip0_2763_1548)">
<path d="M9.28585 12.6803C10.7586 13.5562 12.6262 13.8403 14.2969 13.4373C14.3309 13.4295 14.3649 13.4217 14.3999 13.4137C15.1361 13.2416 15.8032 12.9514 16.4432 12.551C17.0777 12.1591 17.876 12.0463 18.6072 12.2054C20.0808 12.6384 21.1151 14.1865 21.8438 15.4529C21.8609 15.482 21.8779 15.5111 21.8955 15.541C22.7344 16.9767 23.1588 18.6995 23.1658 20.3556C23.1661 20.4055 23.1663 20.4555 23.1666 20.5069C23.167 20.6118 23.1674 20.7167 23.1675 20.8216C23.168 20.9807 23.1695 21.1396 23.1709 21.2986C23.1712 21.4013 23.1715 21.5039 23.1717 21.6065C23.1722 21.6533 23.1728 21.7 23.1734 21.7482C23.1709 22.5426 22.8678 23.2551 22.3074 23.8141C21.8395 24.2396 21.2612 24.505 20.6244 24.5061C20.5675 24.5063 20.5106 24.5065 20.4519 24.5067C20.3889 24.5067 20.3259 24.5067 20.2629 24.5067C20.1959 24.5068 20.1288 24.507 20.0617 24.5072C19.8775 24.5077 19.6932 24.5079 19.5089 24.508C19.3101 24.5082 19.1114 24.5086 18.9126 24.509C18.4326 24.5099 17.9526 24.5104 17.4725 24.5108C17.2464 24.511 17.0202 24.5113 16.794 24.5115C16.042 24.5123 15.29 24.513 14.5379 24.5134C14.3428 24.5134 14.1477 24.5135 13.9526 24.5136C13.8799 24.5137 13.8799 24.5137 13.8057 24.5137C13.0204 24.5141 12.2352 24.5153 11.4499 24.5168C10.6433 24.5183 9.83676 24.5192 9.03018 24.5193C8.57747 24.5194 8.12476 24.5198 7.67205 24.521C7.28644 24.5221 6.90084 24.5224 6.51522 24.522C6.31863 24.5218 6.12204 24.5219 5.92545 24.5228C5.74512 24.5236 5.56481 24.5235 5.38448 24.5228C5.28908 24.5227 5.19369 24.5234 5.09829 24.5242C4.30574 24.5187 3.64243 24.2343 3.0707 23.6886C2.53614 23.1141 2.33755 22.422 2.33425 21.6554C2.33399 21.6065 2.33372 21.5575 2.33345 21.5071C2.333 21.4031 2.3327 21.2992 2.33252 21.1953C2.33207 21.0403 2.33062 20.8855 2.32913 20.7306C2.32466 19.8428 2.39089 18.9587 2.61038 18.0955C2.62226 18.0476 2.63414 17.9997 2.64638 17.9504C3.15301 15.9822 4.36773 13.6525 6.13772 12.532C7.17154 11.9441 8.29207 12.0863 9.28585 12.6803ZM6.04654 13.9071C4.42099 15.481 3.37298 17.8526 3.31985 20.1107C3.31861 20.2002 3.31767 20.2896 3.31698 20.379C3.3166 20.4271 3.31623 20.4751 3.31584 20.5246C3.31519 20.6256 3.31469 20.7265 3.31432 20.8275C3.31377 20.9299 3.31281 21.0323 3.31143 21.1347C3.30942 21.2842 3.30867 21.4336 3.30819 21.5831C3.30737 21.6282 3.30655 21.6733 3.30571 21.7197C3.30735 22.241 3.4837 22.6697 3.84378 23.0467C4.37749 23.5438 4.99425 23.5694 5.68785 23.5686C5.75122 23.5686 5.8146 23.5688 5.87797 23.5689C6.05143 23.5692 6.22488 23.5692 6.39834 23.5691C6.58569 23.5691 6.77303 23.5694 6.96038 23.5696C7.32715 23.57 7.69393 23.5701 8.06071 23.5701C8.35891 23.5701 8.65712 23.5702 8.95533 23.5704C9.80131 23.5708 10.6473 23.571 11.4933 23.571C11.5617 23.571 11.5617 23.571 11.6314 23.571C11.677 23.571 11.7227 23.571 11.7697 23.571C12.5092 23.5709 13.2488 23.5714 13.9883 23.5721C14.7482 23.5727 15.508 23.5731 16.2679 23.573C16.6943 23.573 17.1207 23.5731 17.5471 23.5736C17.9101 23.5741 18.2731 23.5742 18.6362 23.5738C18.8213 23.5737 19.0064 23.5737 19.1915 23.5741C19.3612 23.5745 19.5309 23.5744 19.7006 23.574C19.7905 23.5739 19.8804 23.5742 19.9703 23.5746C20.6062 23.5721 21.1917 23.4826 21.6753 23.0366C22.1636 22.4897 22.194 21.8841 22.1877 21.1878C22.1866 21.0592 22.1867 20.9305 22.187 20.8019C22.1859 20.0686 22.1388 19.3396 21.9756 18.6228C21.9656 18.5781 21.9556 18.5334 21.9453 18.4874C21.5131 16.6312 20.4503 14.4936 18.8315 13.3789C18.3898 13.133 17.904 13.0794 17.4075 13.1815C17.1035 13.2947 16.8229 13.476 16.5409 13.6349C14.7144 14.6579 12.4939 14.8263 10.4902 14.2828C9.75804 14.0732 9.09913 13.7289 8.43716 13.3584C7.50065 12.851 6.75618 13.2552 6.04654 13.9071Z" fill="#45494F"/>
<path d="M16.3682 1.6398C17.6959 2.67968 18.5867 4.10453 18.7969 5.79702C18.888 7.55435 18.5388 9.11029 17.3906 10.4845C17.3706 10.5086 17.3507 10.5326 17.3301 10.5574C16.3729 11.6929 14.9701 12.412 13.5 12.5939C11.7427 12.685 10.1867 12.3358 8.81251 11.1876C8.77644 11.1577 8.77644 11.1577 8.73964 11.1271C7.60339 10.1693 6.88576 8.7679 6.70314 7.29702C6.60545 5.41231 7.03009 3.79577 8.31154 2.36929C10.3853 0.134898 13.9236 -0.129654 16.3682 1.6398ZM9.46876 2.6564C9.43209 2.68522 9.39541 2.71404 9.35762 2.74374C8.45014 3.49916 7.81727 4.72154 7.68751 5.89077C7.59919 7.2664 7.84472 8.64242 8.76362 9.71951C8.79523 9.7554 8.82683 9.79129 8.85939 9.82827C8.90607 9.88501 8.90607 9.88501 8.95369 9.9429C9.81127 10.9542 11.0889 11.5373 12.3995 11.6489C13.3246 11.7087 14.2222 11.5152 15.0469 11.0939C15.0918 11.0717 15.1367 11.0494 15.1829 11.0265C15.4974 10.8642 15.7633 10.6677 16.0313 10.4376C16.0884 10.3908 16.0884 10.3908 16.1466 10.343C17.0749 9.55377 17.6533 8.40526 17.8125 7.20327C17.9159 5.7042 17.5837 4.44995 16.6406 3.26577C16.6136 3.23145 16.5866 3.19713 16.5588 3.16177C15.7904 2.23301 14.5828 1.65859 13.4063 1.48452C11.9022 1.39476 10.6586 1.70547 9.46876 2.6564Z" fill="#45494F"/>
</g>
<defs>
<clipPath id="clip0_2763_1548">
<rect width="24" height="24" fill="white" transform="translate(0.75 0.5)"/>
</clipPath>
</defs>
</svg>
