<svg width="26" height="25" viewBox="0 0 26 25" fill="none" xmlns="http://www.w3.org/2000/svg">
<g clip-path="url(#clip0_3123_14817)">
<path d="M23.3888 18.7647C23.5653 18.9147 23.7299 19.0755 23.8945 19.2382C23.9301 19.2703 23.9657 19.3023 24.0023 19.3353C24.7383 20.0132 25.1617 21.089 25.2617 22.0702C25.2617 22.2797 25.2617 22.4892 25.2617 22.705C22.1841 22.705 19.1064 22.705 15.9355 22.705C15.9355 21.2847 16.2771 20.2577 17.2539 19.2382C17.2825 19.2071 17.3111 19.176 17.3405 19.144C17.9043 18.5484 18.7107 18.1607 19.5 17.9687C19.5446 17.9577 19.5893 17.9468 19.6352 17.9355C20.8912 17.679 22.3725 17.958 23.3888 18.7647Z" fill="#003880"/>
<path d="M9.25677 8.79784C9.7832 9.3324 9.7832 9.3324 9.7832 9.52168C9.73134 9.52293 9.67947 9.52419 9.62604 9.52549C9.15278 9.54216 8.79442 9.5672 8.44653 9.9184C8.26129 10.1626 8.20954 10.4355 8.23067 10.7392C8.25248 10.8879 8.27941 11.0345 8.3092 11.1818C8.31855 11.2324 8.3279 11.2829 8.33753 11.335C8.37885 11.5829 8.37885 11.5829 8.46484 11.8166C8.46484 11.9616 8.46484 12.1066 8.46484 12.2561C6.08008 12.2561 3.69531 12.2561 1.23828 12.2561C1.23828 11.0089 1.60339 9.86238 2.45898 8.93574C2.48882 8.902 2.51865 8.86826 2.54939 8.8335C3.33747 7.98842 4.51958 7.4699 5.67077 7.42188C7.04964 7.42355 8.24909 7.83101 9.25677 8.79784Z" fill="#003880"/>
<path d="M9.09954 12.5488C9.16423 12.5606 9.16423 12.5606 9.23022 12.5726C9.37128 12.5944 9.50302 12.6051 9.6454 12.6077C9.69328 12.6087 9.74116 12.6096 9.79049 12.6106C9.84131 12.6114 9.89214 12.6123 9.9445 12.6131C9.99719 12.6141 10.0499 12.6151 10.1042 12.6162C10.2718 12.6194 10.4395 12.6222 10.6071 12.6251C10.721 12.6272 10.835 12.6294 10.9489 12.6315C11.2276 12.6367 11.5064 12.6417 11.7851 12.6465C11.8062 12.6928 11.8274 12.7391 11.8492 12.7869C11.9215 12.9492 11.9215 12.9492 12.0781 13.0371C12.2063 13.0484 12.3293 13.0543 12.4576 13.0552C12.5133 13.0559 12.5133 13.0559 12.5702 13.0566C12.6487 13.0573 12.7273 13.0577 12.8059 13.0579C12.9257 13.0585 13.0454 13.0609 13.1652 13.0633C13.2417 13.0638 13.3181 13.0642 13.3945 13.0644C13.4302 13.0653 13.4658 13.0663 13.5026 13.0673C13.6948 13.0656 13.7786 13.0439 13.9306 12.9225C14.0383 12.7986 14.0383 12.7986 14.08 12.6465C14.1093 12.646 14.1387 12.6455 14.1689 12.645C14.4746 12.6397 14.7804 12.6341 15.0861 12.6283C15.2002 12.6262 15.3142 12.6242 15.4283 12.6222C15.5924 12.6194 15.7565 12.6163 15.9206 12.6131C15.9968 12.6119 15.9968 12.6119 16.0746 12.6106C16.3096 12.6059 16.5345 12.5972 16.7656 12.5488C16.7693 12.932 16.7718 13.3151 16.7736 13.6983C16.7743 13.8286 16.7753 13.9589 16.7766 14.0892C16.7784 14.2767 16.7792 14.4642 16.7799 14.6517C16.7806 14.7097 16.7814 14.7678 16.7822 14.8276C16.7822 15.1313 16.7719 15.3593 16.6191 15.625C16.3942 15.8441 16.2171 15.8751 15.9119 15.876C15.8575 15.8763 15.8031 15.8766 15.747 15.8768C15.6578 15.8769 15.6578 15.8769 15.5667 15.877C15.4725 15.8774 15.4725 15.8774 15.3764 15.8777C15.2042 15.8784 15.0319 15.8787 14.8597 15.8789C14.752 15.8791 14.6444 15.8793 14.5367 15.8795C14.1996 15.8801 13.8624 15.8806 13.5253 15.8808C13.1366 15.881 12.7479 15.8819 12.3591 15.8833C12.0584 15.8844 11.7576 15.8848 11.4568 15.8849C11.2773 15.885 11.0978 15.8852 10.9183 15.8861C10.718 15.8871 10.5177 15.8869 10.3173 15.8865C10.2285 15.8872 10.2285 15.8872 10.138 15.8879C9.83585 15.8864 9.60799 15.8747 9.34368 15.7227C9.1405 15.5088 9.09336 15.3495 9.094 15.0599C9.094 15.0042 9.09401 14.9485 9.09401 14.8911C9.09426 14.831 9.09452 14.7708 9.09478 14.7089C9.09484 14.6473 9.09491 14.5858 9.09498 14.5223C9.09521 14.3588 9.09565 14.1953 9.09619 14.0318C9.09669 13.8649 9.09691 13.6979 9.09716 13.531C9.0977 13.2036 9.09852 12.8762 9.09954 12.5488Z" fill="#003880"/>
<path d="M18.9263 5.0447C19.5888 5.56602 20.1219 6.19016 20.4277 6.98257C20.5101 6.96022 20.5925 6.93783 20.6749 6.91543C20.724 6.90221 20.773 6.88899 20.8235 6.87538C20.9348 6.84442 21.0442 6.81062 21.1541 6.77505C21.3098 6.73766 21.399 6.74127 21.5508 6.78726C21.6129 7.00141 21.5819 7.13872 21.5163 7.34969C21.5068 7.3806 21.4974 7.41151 21.4877 7.44336C21.4565 7.54502 21.4245 7.6464 21.3925 7.7478C21.3706 7.81848 21.3487 7.88917 21.3269 7.95987C21.2812 8.10774 21.2351 8.25548 21.1887 8.40314C21.1292 8.59275 21.0703 8.78254 21.0116 8.97242C20.9556 9.15326 20.8994 9.33402 20.8432 9.51476C20.8324 9.54941 20.8216 9.58405 20.8106 9.61974C20.7802 9.71729 20.7496 9.81476 20.719 9.91221C20.7016 9.96775 20.6842 10.0233 20.6663 10.0805C20.623 10.2052 20.623 10.2052 20.5742 10.2541C20.297 10.2402 20.1619 10.1728 19.9578 9.98855C19.9067 9.94368 19.8556 9.89892 19.8044 9.85427C19.7784 9.83136 19.7524 9.80845 19.7255 9.78485C19.5995 9.67655 19.4676 9.57622 19.3352 9.47585C19.2819 9.43525 19.2286 9.39462 19.1754 9.35398C19.1486 9.33353 19.1218 9.31308 19.0942 9.29201C18.9231 9.16058 18.7538 9.02688 18.585 8.89256C18.4404 8.77782 18.2944 8.66641 18.1439 8.55937C18.1144 8.53797 18.0848 8.51657 18.0544 8.49452C17.9983 8.45399 17.9416 8.41421 17.8843 8.37531C17.8082 8.31981 17.8082 8.31981 17.6934 8.20327C17.6934 8.10659 17.6934 8.00991 17.6934 7.9103C18.1526 7.74111 18.1526 7.74111 18.6211 7.56851C18.2185 6.62456 17.3506 6.04043 16.4238 5.66421C15.6734 5.39201 14.9469 5.2548 14.1472 5.25833C14.1151 5.25841 14.0831 5.2585 14.05 5.2586C13.5256 5.26104 13.0268 5.29379 12.5176 5.42007C12.4843 5.42819 12.451 5.43631 12.4167 5.44467C11.8281 5.59295 11.2699 5.82105 10.7109 6.05483C11.1533 5.14092 12.4945 4.55048 13.3974 4.22988C15.2369 3.60983 17.3533 3.90959 18.9263 5.0447Z" fill="#003880"/>
<path d="M5.33977 14.7461C5.59876 14.7466 5.76401 14.9259 5.95012 15.0848C6.02013 15.1432 6.09019 15.2015 6.16031 15.2597C6.19497 15.2887 6.22964 15.3176 6.26536 15.3474C6.40399 15.4617 6.54579 15.5709 6.68864 15.6799C6.9682 15.8933 7.24562 16.1092 7.5212 16.3277C7.62467 16.4095 7.729 16.4887 7.83515 16.5672C7.87978 16.6007 7.9244 16.6342 7.97038 16.6687C8.00953 16.6973 8.04868 16.7259 8.08902 16.7553C8.1718 16.8457 8.1718 16.8457 8.18439 16.9788C8.18023 17.0155 8.17608 17.0521 8.1718 17.0898C7.86999 17.227 7.5593 17.3297 7.24406 17.4316C7.69137 18.4147 8.49368 19.0003 9.48615 19.3821C11.2461 20.023 13.1075 19.8553 14.805 19.0965C14.8878 19.0599 14.9721 19.0267 15.0566 18.9941C15.0888 19.0103 15.121 19.0264 15.1542 19.043C14.0408 20.253 12.4988 21.0178 10.8457 21.0991C9.20613 21.1416 7.69029 20.7013 6.46281 19.5801C5.99982 19.123 5.69033 18.589 5.3886 18.0176C5.33969 18.0352 5.29078 18.0528 5.24039 18.071C5.17485 18.0939 5.1093 18.1168 5.04375 18.1396C5.01168 18.1513 4.97961 18.1629 4.94657 18.1749C4.72937 18.2498 4.54706 18.2738 4.31438 18.2617C4.26047 18.0642 4.27384 17.9404 4.33388 17.7458C4.3581 17.6659 4.3581 17.6659 4.38282 17.5843C4.40077 17.5271 4.41872 17.4699 4.43721 17.411C4.46443 17.3221 4.46443 17.3221 4.4922 17.2313C4.54054 17.0737 4.58938 16.9163 4.63845 16.7589C4.68784 16.6 4.73653 16.4409 4.7853 16.2819C4.88775 15.9487 4.99066 15.6156 5.09563 15.2832C5.10929 15.2391 5.12296 15.1951 5.13703 15.1497C5.1496 15.1102 5.16217 15.0707 5.17512 15.0301C5.18579 14.9961 5.19647 14.9622 5.20748 14.9272C5.24211 14.8438 5.24211 14.8438 5.33977 14.7461Z" fill="#003880"/>
<path d="M7.34172 2.73436C7.84702 3.15837 8.21591 3.67269 8.27825 4.34256C8.32212 5.01344 8.21415 5.61674 7.78117 6.15233C7.66215 6.28355 7.66215 6.28355 7.53703 6.39647C7.51318 6.41994 7.48932 6.44342 7.46474 6.46761C7.0045 6.89943 6.40229 7.05658 5.78456 7.04325C5.18131 6.9955 4.58402 6.74803 4.16789 6.29881C3.64215 5.65587 3.51972 5.00805 3.58195 4.1992C3.65685 3.80461 3.83067 3.4917 4.07023 3.17381C4.11253 3.11036 4.11253 3.11036 4.15568 3.04564C4.98633 2.16884 6.35738 2.04064 7.34172 2.73436Z" fill="#003880"/>
<path d="M22.1366 13.2811C22.5565 13.6644 22.871 14.1724 22.9279 14.7501C22.9327 14.8598 22.9339 14.9688 22.9331 15.0786C22.9328 15.1368 22.9328 15.1368 22.9324 15.1962C22.9266 15.4894 22.8924 15.7457 22.7714 16.0155C22.7554 16.0517 22.7393 16.0879 22.7228 16.1252C22.4744 16.621 22.0959 16.9945 21.5995 17.2362C21.5607 17.2564 21.5219 17.2765 21.4818 17.2973C20.978 17.5215 20.2666 17.5262 19.7498 17.3322C19.7157 17.3166 19.6816 17.3011 19.6464 17.2851C19.6103 17.269 19.5741 17.253 19.5369 17.2364C18.9361 16.936 18.554 16.4596 18.3097 15.8446C18.1106 15.1952 18.1884 14.518 18.4993 13.9211C18.8496 13.3256 19.3359 13.0092 19.976 12.7746C20.7504 12.62 21.5168 12.7894 22.1366 13.2811Z" fill="#003880"/>
<path d="M12.2326 8.86258C12.3169 8.86247 12.3169 8.86247 12.4029 8.86236C12.5211 8.86245 12.6394 8.86301 12.7577 8.86402C12.9385 8.86544 13.1192 8.86503 13.2999 8.86439C13.4151 8.8647 13.5304 8.86511 13.6456 8.86563C13.6994 8.86549 13.7533 8.86534 13.8088 8.8652C14.1199 8.86901 14.3615 8.88577 14.5998 9.10825C14.7892 9.35596 14.8192 9.48987 14.8155 9.79623C14.8153 9.83072 14.8151 9.86521 14.8149 9.90075C14.8143 9.98595 14.8134 10.0711 14.8125 10.1563C14.8704 10.1553 14.9282 10.1543 14.9879 10.1532C15.2031 10.1497 15.4183 10.1475 15.6335 10.1456C15.7266 10.1446 15.8197 10.1433 15.9127 10.1416C16.0467 10.1392 16.1806 10.1381 16.3145 10.1373C16.356 10.1363 16.3974 10.1352 16.4402 10.1342C16.6403 10.1341 16.7403 10.1406 16.914 10.249C17.0097 10.3516 17.0097 10.3516 17.0387 10.4501C17.0275 10.717 16.9948 10.9792 16.9518 11.2428C16.9468 11.2756 16.9419 11.3085 16.9369 11.3424C16.8892 11.6017 16.8008 11.7322 16.6191 11.9141C16.4706 12.006 16.3599 12.0238 16.1865 12.0229C16.1396 12.0229 16.0927 12.0229 16.0443 12.0229C15.9941 12.0224 15.9438 12.0219 15.892 12.0213C15.8403 12.0212 15.7885 12.0211 15.7352 12.0209C15.57 12.0204 15.4049 12.0191 15.2397 12.0179C15.1277 12.0174 15.0157 12.017 14.9036 12.0166C14.6291 12.0155 14.3546 12.0139 14.08 12.0118C14.0599 11.9655 14.0398 11.9192 14.019 11.8714C13.9193 11.6909 13.9193 11.6909 13.7383 11.6212C13.6154 11.6113 13.4981 11.6063 13.3753 11.6065C13.3404 11.6063 13.3055 11.6061 13.2695 11.6059C13.1958 11.6056 13.1222 11.6056 13.0485 11.6058C12.9362 11.6059 12.8239 11.6048 12.7116 11.6035C12.6399 11.6034 12.5681 11.6034 12.4964 11.6034C12.463 11.603 12.4296 11.6025 12.3952 11.6021C12.184 11.6041 12.0465 11.6315 11.8828 11.7677C11.817 11.8932 11.817 11.8932 11.7851 12.0118C11.4567 12.0168 11.1283 12.0202 10.7999 12.0225C10.6882 12.0235 10.5765 12.0248 10.4648 12.0265C10.3041 12.0289 10.1434 12.03 9.98268 12.0309C9.90805 12.0324 9.90805 12.0324 9.83191 12.0339C9.54629 12.034 9.37075 12.0148 9.14841 11.8165C8.96041 11.6124 8.93821 11.3796 8.88901 11.1146C8.87954 11.069 8.87006 11.0234 8.8603 10.9765C8.81273 10.7268 8.77892 10.5362 8.90427 10.3028C8.9925 10.2072 9.06266 10.1613 9.1926 10.1437C9.31064 10.1393 9.42779 10.1399 9.5459 10.142C9.58897 10.1422 9.63205 10.1424 9.67643 10.1427C9.81375 10.1435 9.95104 10.1453 10.0883 10.1472C10.1816 10.1479 10.2748 10.1486 10.368 10.1492C10.5962 10.1508 10.8245 10.1533 11.0527 10.1563C11.0514 10.0806 11.0514 10.0806 11.0501 10.0033C11.0494 9.9365 11.0488 9.8697 11.0481 9.8029C11.0475 9.76968 11.0469 9.73646 11.0463 9.70224C11.0443 9.42675 11.065 9.28803 11.248 9.08212C11.555 8.86025 11.8657 8.85883 12.2326 8.86258ZM11.7851 9.61922C11.7851 9.79647 11.7851 9.97372 11.7851 10.1563C12.5425 10.1563 13.2998 10.1563 14.08 10.1563C14.08 9.97909 14.08 9.80184 14.08 9.61922C13.3227 9.61922 12.5654 9.61922 11.7851 9.61922Z" fill="#003880"/>
<path d="M12.3711 12.207C12.7256 12.207 13.0801 12.207 13.4453 12.207C13.4453 12.2876 13.4453 12.3682 13.4453 12.4512C13.0908 12.4512 12.7363 12.4512 12.3711 12.4512C12.3711 12.3706 12.3711 12.29 12.3711 12.207Z" fill="#003880"/>
</g>
<defs>
<clipPath id="clip0_3123_14817">
<rect width="25" height="25" fill="white" transform="translate(0.75)"/>
</clipPath>
</defs>
</svg>
