<svg width="24" height="24" viewBox="0 0 24 24" fill="none" xmlns="http://www.w3.org/2000/svg">
<path d="M12 22C10.303 22 8.74242 21.6136 7.31818 20.8409C5.89394 20.0682 4.72727 19.0379 3.81818 17.75V20.1818H2V14.7273H7.45455V16.5455H5.20455C5.93182 17.6364 6.89015 18.5152 8.07955 19.1818C9.26894 19.8485 10.5758 20.1818 12 20.1818C13.1364 20.1818 14.2008 19.9659 15.1932 19.5341C16.1856 19.1023 17.0492 18.5189 17.7841 17.7841C18.5189 17.0492 19.1023 16.1856 19.5341 15.1932C19.9659 14.2008 20.1818 13.1364 20.1818 12H22C22 13.3788 21.7386 14.6742 21.2159 15.8864C20.6932 17.0985 19.9773 18.1591 19.0682 19.0682C18.1591 19.9773 17.0985 20.6932 15.8864 21.2159C14.6742 21.7386 13.3788 22 12 22ZM2 12C2 10.6212 2.26136 9.32576 2.78409 8.11364C3.30682 6.90152 4.02273 5.84091 4.93182 4.93182C5.84091 4.02273 6.90152 3.30682 8.11364 2.78409C9.32576 2.26136 10.6212 2 12 2C13.697 2 15.2576 2.38636 16.6818 3.15909C18.1061 3.93182 19.2727 4.96212 20.1818 6.25V3.81818H22V9.27273H16.5455V7.45455H18.7955C18.0682 6.36364 17.1098 5.48485 15.9205 4.81818C14.7311 4.15152 13.4242 3.81818 12 3.81818C10.8636 3.81818 9.79924 4.03409 8.80682 4.46591C7.81439 4.89773 6.95076 5.48106 6.21591 6.21591C5.48106 6.95076 4.89773 7.81439 4.46591 8.80682C4.03409 9.79924 3.81818 10.8636 3.81818 12H2Z" fill="#1C1B1F"/>
</svg>
