<svg width="26" height="25" viewBox="0 0 26 25" fill="none" xmlns="http://www.w3.org/2000/svg">
<g clip-path="url(#clip0_2763_1541)">
<path d="M7.57241 2.49405C8.10104 2.95092 8.53757 3.53375 8.61134 4.24824C8.66531 5.00943 8.56737 5.72367 8.06546 6.32992C7.89537 6.5212 7.71892 6.70481 7.53712 6.88496C7.58559 6.90453 7.63405 6.92411 7.68399 6.94428C8.97442 7.47849 9.989 8.37337 10.5645 9.66816C10.5645 9.7165 10.5645 9.76484 10.5645 9.81465C10.7256 9.81465 10.8867 9.81465 11.0527 9.81465C11.0497 9.74818 11.0467 9.68171 11.0436 9.61323C11.0443 9.39978 11.0775 9.26269 11.1992 9.08222C11.4103 8.88695 11.5641 8.83238 11.8476 8.82944C11.9266 8.8285 11.9266 8.8285 12.0071 8.82754C12.0925 8.827 12.0925 8.827 12.1796 8.82645C12.2382 8.82606 12.2968 8.82566 12.3572 8.82525C12.4813 8.82458 12.6054 8.82406 12.7295 8.82367C12.919 8.82283 13.1084 8.82069 13.2979 8.81853C13.4185 8.81804 13.5391 8.81762 13.6597 8.81729C13.7162 8.81644 13.7727 8.81558 13.831 8.8147C14.1531 8.81557 14.3576 8.8365 14.6172 9.0334C14.7743 9.2136 14.8227 9.36878 14.8173 9.60655C14.8166 9.64566 14.8159 9.68477 14.8152 9.72506C14.8143 9.75462 14.8134 9.78419 14.8125 9.81465C14.8701 9.81388 14.9278 9.81311 14.9872 9.81232C15.2017 9.80966 15.4163 9.80799 15.6309 9.8066C15.7236 9.80587 15.8163 9.80487 15.9091 9.8036C16.0426 9.80181 16.1762 9.80099 16.3098 9.80034C16.351 9.79959 16.3922 9.79883 16.4347 9.79805C16.7135 9.79797 16.9266 9.83793 17.1389 10.0361C17.3779 10.3486 17.3796 10.5477 17.3516 10.9377C17.3311 11.041 17.3066 11.1429 17.2822 11.2453C17.164 11.7579 17.1362 12.2628 17.1317 12.7865C17.1312 12.841 17.1312 12.841 17.1307 12.8967C17.129 13.122 17.1287 13.3472 17.1288 13.5725C17.1289 13.8768 17.1282 14.1811 17.126 14.4855C17.1256 14.5905 17.126 14.6955 17.1265 14.8006C17.1241 15.2516 17.1013 15.6314 16.7656 15.967C16.4894 16.1621 16.2397 16.217 15.9068 16.218C15.8252 16.2184 15.8252 16.2184 15.7421 16.2188C15.6533 16.2189 15.6533 16.2189 15.5628 16.219C15.5001 16.2192 15.4375 16.2195 15.3729 16.2197C15.2013 16.2204 15.0297 16.2207 14.8581 16.2209C14.7507 16.221 14.6433 16.2213 14.5359 16.2215C14.1995 16.2221 13.8632 16.2226 13.5268 16.2228C13.1393 16.223 12.7518 16.2239 12.3643 16.2253C12.0643 16.2263 11.7642 16.2268 11.4641 16.2269C11.2852 16.227 11.1062 16.2272 10.9272 16.2281C10.7274 16.2291 10.5276 16.2289 10.3277 16.2285C10.2396 16.2292 10.2396 16.2292 10.1496 16.2299C9.74695 16.2279 9.42637 16.1803 9.08436 15.9609C8.74392 15.5967 8.73049 15.2094 8.73875 14.7293C8.73903 14.6682 8.7393 14.607 8.73959 14.544C8.74049 14.3829 8.74224 14.2218 8.74441 14.0607C8.74643 13.8957 8.74731 13.7307 8.74829 13.5657C8.75043 13.2431 8.7537 12.9205 8.75782 12.5978C8.71875 12.598 8.67967 12.5981 8.63941 12.5983C7.6891 12.6015 6.73879 12.6039 5.78847 12.6054C5.32891 12.6062 4.86935 12.6072 4.40978 12.6089C4.00928 12.6104 3.60879 12.6113 3.20829 12.6116C2.99617 12.6118 2.78407 12.6123 2.57196 12.6133C2.37237 12.6143 2.1728 12.6146 1.97321 12.6144C1.8999 12.6145 1.8266 12.6148 1.7533 12.6153C1.6533 12.616 1.5533 12.6158 1.4533 12.6155C1.36931 12.6157 1.36931 12.6157 1.28363 12.6159C1.12459 12.5958 1.05677 12.5653 0.945324 12.4514C0.919276 12.3015 0.919276 12.3015 0.917667 12.1172C0.917054 12.0676 0.917054 12.0676 0.916428 12.017C0.915641 11.9095 0.916566 11.8021 0.917858 11.6945C0.918082 11.658 0.918306 11.6214 0.918537 11.5837C0.923501 10.9981 0.971148 10.4614 1.18946 9.9123C1.20334 9.87689 1.21721 9.84148 1.2315 9.80499C1.76196 8.49305 2.73472 7.56349 4.01921 6.99616C4.16798 6.93379 4.16798 6.93379 4.31446 6.88496C4.27557 6.84889 4.23667 6.81283 4.19659 6.77567C3.87187 6.46779 3.61102 6.18082 3.43556 5.76191C3.41554 5.71502 3.39553 5.66813 3.3749 5.61981C3.11011 4.89757 3.18492 4.14055 3.48744 3.44544C3.79857 2.82424 4.35425 2.34729 4.99577 2.0998C5.87002 1.81287 6.83136 1.92949 7.57241 2.49405ZM4.41822 3.35713C4.01182 3.85731 3.92825 4.40583 3.97267 5.02949C4.08407 5.53686 4.37027 6.00559 4.80275 6.29902C5.28984 6.58602 5.76042 6.72129 6.32328 6.61068C6.87513 6.46291 7.34358 6.16492 7.63478 5.66426C7.8841 5.17768 7.9582 4.69044 7.84897 4.14849C7.66866 3.59803 7.31384 3.1569 6.8047 2.88105C6.66041 2.81921 6.51742 2.77261 6.36525 2.73457C6.32396 2.72349 6.28266 2.71241 6.24012 2.701C5.54416 2.61177 4.90242 2.84783 4.41822 3.35713ZM2.69093 8.80757C1.9402 9.69312 1.62892 10.7202 1.62892 11.8654C3.96534 11.8654 6.30177 11.8654 8.709 11.8654C8.61232 11.2853 8.61232 11.2853 8.51368 10.6936C8.62601 10.1319 8.62601 10.1319 8.85548 9.96113C9.05544 9.86292 9.23543 9.84536 9.45668 9.83296C9.51792 9.82931 9.57916 9.82566 9.64226 9.82189C9.68878 9.8195 9.73529 9.81711 9.78321 9.81465C9.32333 8.77549 8.44604 8.04728 7.40971 7.62787C5.72082 7.02275 3.90477 7.49783 2.69093 8.80757ZM11.7852 9.57051C11.7852 9.65107 11.7852 9.73164 11.7852 9.81465C12.5425 9.81465 13.2998 9.81465 14.0801 9.81465C14.0801 9.73408 14.0801 9.65351 14.0801 9.57051C13.3228 9.57051 12.5654 9.57051 11.7852 9.57051ZM9.24611 10.5471C9.24321 11.2382 9.24321 11.2382 9.51226 11.847C9.71447 12.009 9.91313 11.9942 10.1628 11.9869C10.2079 11.9866 10.253 11.9862 10.2995 11.9859C10.4428 11.9845 10.586 11.9815 10.7293 11.9783C10.8267 11.9771 10.9242 11.976 11.0217 11.975C11.2599 11.9723 11.4981 11.9681 11.7363 11.9631C11.7666 11.8936 11.7666 11.8936 11.7974 11.8227C11.8828 11.6701 11.8828 11.6701 11.9656 11.604C12.1304 11.5578 12.2926 11.5566 12.4625 11.5561C12.4995 11.5557 12.5366 11.5554 12.5748 11.5551C12.6531 11.5546 12.7314 11.5543 12.8096 11.5544C12.929 11.5541 13.0483 11.5524 13.1677 11.5505C13.2439 11.5502 13.3201 11.55 13.3963 11.55C13.4318 11.5493 13.4673 11.5485 13.5039 11.5478C13.6772 11.5494 13.779 11.5674 13.9275 11.6593C14.0238 11.76 14.071 11.8388 14.1289 11.9631C14.4165 11.9679 14.7041 11.9715 14.9917 11.9738C15.0895 11.9748 15.1873 11.9761 15.2851 11.9778C15.4258 11.9802 15.5665 11.9813 15.7072 11.9822C15.7508 11.9832 15.7944 11.9842 15.8394 11.9852C16.0423 11.9853 16.1512 11.9805 16.3279 11.8728C16.4471 11.7423 16.4746 11.6474 16.5093 11.4748C16.5201 11.4244 16.5309 11.3741 16.5421 11.3222C16.5804 11.0654 16.5976 10.8058 16.6192 10.5471C14.186 10.5471 11.7529 10.5471 9.24611 10.5471ZM12.4199 12.2561C12.4199 12.3044 12.4199 12.3527 12.4199 12.4025C12.7422 12.4025 13.0645 12.4025 13.3965 12.4025C13.3965 12.3542 13.3965 12.3059 13.3965 12.2561C13.0742 12.2561 12.752 12.2561 12.4199 12.2561ZM9.49025 12.6467C9.48464 13.0108 9.47978 13.3748 9.47683 13.7389C9.47561 13.8628 9.47394 13.9866 9.47183 14.1105C9.46887 14.2885 9.46748 14.4665 9.4664 14.6446C9.46514 14.7 9.46388 14.7553 9.46259 14.8123C9.46257 14.8641 9.46255 14.9159 9.46253 14.9693C9.46199 15.0147 9.46144 15.0602 9.46089 15.107C9.50624 15.3041 9.56602 15.3646 9.73439 15.4787C9.93791 15.5151 10.1391 15.512 10.3454 15.5103C10.4074 15.5107 10.4695 15.5112 10.5334 15.5116C10.7032 15.5127 10.8729 15.5123 11.0427 15.5115C11.2206 15.5109 11.3984 15.5115 11.5763 15.5118C11.875 15.5123 12.1736 15.5117 12.4723 15.5105C12.8173 15.5092 13.1624 15.5096 13.5075 15.511C13.804 15.5121 14.1005 15.5122 14.397 15.5116C14.574 15.5112 14.7509 15.5112 14.9279 15.512C15.1252 15.5128 15.3225 15.5117 15.5199 15.5103C15.5784 15.5108 15.637 15.5113 15.6973 15.5118C16.0127 15.5094 16.0127 15.5094 16.2894 15.3712C16.3838 15.2206 16.4048 15.1454 16.4027 14.9693C16.4027 14.9175 16.4027 14.8657 16.4027 14.8123C16.4014 14.757 16.4002 14.7016 16.3989 14.6446C16.3985 14.5875 16.3982 14.5304 16.3978 14.4716C16.3964 14.2895 16.3934 14.1075 16.3903 13.9254C16.389 13.8018 16.3879 13.6782 16.3869 13.5547C16.3844 13.252 16.3797 12.9494 16.375 12.6467C15.6338 12.6628 14.8926 12.6789 14.1289 12.6955C14.0806 12.7922 14.0322 12.8889 13.9824 12.9885C13.8132 13.1245 13.6001 13.1028 13.3921 13.1043C13.3539 13.1047 13.3158 13.1051 13.2765 13.1056C13.1959 13.1063 13.1153 13.1067 13.0348 13.1069C12.9118 13.1075 12.789 13.1099 12.6661 13.1124C12.5877 13.1128 12.5092 13.1132 12.4308 13.1134C12.3942 13.1144 12.3577 13.1153 12.32 13.1163C12.1257 13.1146 12.0391 13.0939 11.8852 12.9715C11.7852 12.842 11.7852 12.842 11.7363 12.6955C10.9951 12.6794 10.2539 12.6633 9.49025 12.6467Z" fill="#484B51"/>
<path d="M22.1659 12.8803C22.7458 13.3202 23.1444 13.924 23.2598 14.6486C23.3358 15.444 23.1938 16.1381 22.7227 16.7971C22.379 17.1886 22.379 17.1886 22.1856 17.2853C22.2564 17.3172 22.2564 17.3172 22.3286 17.3498C22.9053 17.6124 23.4057 17.9034 23.8946 18.3107C23.9235 18.3325 23.9525 18.3543 23.9823 18.3767C24.8331 19.0371 25.4212 20.2329 25.5547 21.2892C25.5673 21.5216 25.5708 21.753 25.5701 21.9856C25.57 22.0929 25.5711 22.2 25.5723 22.3073C25.5725 22.3758 25.5725 22.4443 25.5724 22.5128C25.5726 22.5744 25.5727 22.636 25.5729 22.6994C25.5547 22.8517 25.5547 22.8517 25.4865 22.9431C25.3098 23.0675 25.1496 23.0543 24.9408 23.0542C24.9023 23.0544 24.8637 23.0546 24.8239 23.0548C24.6939 23.0553 24.5638 23.0555 24.4338 23.0557C24.3408 23.056 24.2479 23.0563 24.155 23.0567C23.9019 23.0575 23.6489 23.058 23.3959 23.0584C23.2379 23.0587 23.0799 23.059 22.922 23.0593C22.428 23.0602 21.934 23.0609 21.4401 23.0613C20.8693 23.0618 20.2985 23.0631 19.7278 23.0651C19.287 23.0665 18.8462 23.0673 18.4054 23.0674C18.1419 23.0675 17.8785 23.068 17.615 23.0692C17.3672 23.0703 17.1194 23.0705 16.8716 23.07C16.7806 23.07 16.6896 23.0703 16.5986 23.071C16.4745 23.0719 16.3504 23.0715 16.2262 23.0709C16.1902 23.0714 16.1541 23.0719 16.1169 23.0725C15.942 23.0703 15.8434 23.0505 15.6935 22.9573C15.5564 22.8122 15.5623 22.7212 15.5613 22.5235C15.561 22.4916 15.5607 22.4597 15.5603 22.4268C15.5598 22.3232 15.5614 22.2198 15.5633 22.1163C15.5635 22.0811 15.5638 22.0459 15.5642 22.0096C15.5699 21.4319 15.6364 20.9052 15.8379 20.3615C15.8652 20.2814 15.8652 20.2814 15.893 20.1996C16.1743 19.4478 16.7186 18.7031 17.3516 18.2131C17.4262 18.155 17.4262 18.155 17.5023 18.0958C17.9005 17.7947 18.3106 17.5806 18.7676 17.383C18.833 17.351 18.8983 17.3188 18.9629 17.2853C18.9316 17.2598 18.9003 17.2344 18.8681 17.2081C18.3456 16.7635 17.9946 16.2143 17.8887 15.5275C17.8564 14.989 17.8775 14.5205 18.084 14.0139C18.0975 13.9786 18.1111 13.9434 18.125 13.907C18.3743 13.3373 18.8669 12.863 19.4335 12.619C20.3696 12.2756 21.3266 12.3035 22.1659 12.8803ZM19.0728 13.8033C18.6881 14.2675 18.5765 14.7937 18.6107 15.382C18.6704 15.9357 18.9964 16.3508 19.4153 16.6918C19.9 17.0375 20.3831 17.0925 20.9649 17.0412C21.5278 16.9194 21.9453 16.569 22.2832 16.1135C22.5532 15.628 22.6063 15.0845 22.4957 14.5422C22.3214 14.0164 21.943 13.5757 21.4531 13.3181C20.6074 12.9321 19.7078 13.134 19.0728 13.8033ZM17.6446 18.9455C17.5934 18.9897 17.5934 18.9897 17.5412 19.0348C17.0229 19.5135 16.694 20.1399 16.4727 20.801C16.4561 20.8484 16.4396 20.8958 16.4225 20.9446C16.2796 21.4181 16.3262 21.7851 16.3262 22.3146C19.146 22.3146 21.9658 22.3146 24.8711 22.3146C24.8711 21.1164 24.5477 20.1004 23.7481 19.1896C23.6993 19.1339 23.6993 19.1339 23.6496 19.0771C22.9319 18.3088 21.884 17.8559 20.8403 17.8055C19.626 17.7739 18.5594 18.1342 17.6446 18.9455Z" fill="#484B51"/>
<path d="M5.58396 14.4042C5.79962 14.5357 5.99698 14.6896 6.19431 14.8467C6.25483 14.8946 6.31536 14.9425 6.37589 14.9903C6.40654 15.0146 6.43719 15.0389 6.46878 15.064C6.61295 15.1781 6.75765 15.2916 6.90232 15.4052C6.95903 15.4497 7.01574 15.4943 7.07245 15.5389C7.18888 15.6304 7.30536 15.7218 7.42188 15.8132C7.56437 15.9249 7.70669 16.0369 7.84893 16.1489C7.92438 16.2082 8.00004 16.2672 8.07572 16.3262C8.11953 16.3607 8.16333 16.3951 8.20847 16.4306C8.2655 16.4751 8.2655 16.4751 8.32367 16.5206C8.43504 16.6182 8.50607 16.7009 8.53005 16.8498C8.53311 17.0292 8.52616 17.1593 8.45261 17.3247C8.24017 17.4937 7.99114 17.554 7.7324 17.6269C8.27298 18.5396 9.32295 19.0301 10.3203 19.287C11.7833 19.6284 13.3565 19.4238 14.7008 18.7589C14.9091 18.6593 15.0709 18.6309 15.3008 18.6522C15.4474 18.75 15.487 18.8114 15.5296 18.9818C15.4776 19.2278 15.3302 19.358 15.1543 19.5312C15.1158 19.5695 15.0774 19.6079 15.0377 19.6475C14.6845 19.9844 14.3004 20.2539 13.8847 20.5077C13.8558 20.5255 13.8269 20.5432 13.797 20.5615C12.3007 21.4617 10.4675 21.6381 8.78868 21.2403C7.4206 20.8871 6.18247 20.059 5.43747 18.8476C5.36856 18.7188 5.30506 18.5888 5.24216 18.4569C5.20905 18.4675 5.17595 18.4781 5.14183 18.489C4.83834 18.5798 4.53406 18.6663 4.21677 18.6034C4.07887 18.4965 4.00119 18.4164 3.9238 18.2616C3.89025 17.9266 3.99778 17.6362 4.09851 17.3196C4.11648 17.2618 4.13444 17.2041 4.15294 17.1446C4.20068 16.9915 4.24885 16.8385 4.29721 16.6856C4.34574 16.5318 4.39365 16.3777 4.44165 16.2237C4.62398 15.6401 4.62398 15.6401 4.70496 15.3878C4.73847 15.2826 4.77109 15.1772 4.80294 15.0715C4.82716 14.9935 4.82716 14.9935 4.85187 14.914C4.86592 14.8676 4.87997 14.8212 4.89445 14.7733C4.95702 14.6305 5.02524 14.5526 5.1445 14.453C5.30814 14.3985 5.41223 14.3874 5.58396 14.4042ZM5.53513 15.3319C5.35609 15.7435 5.22417 16.1689 5.09292 16.5973C5.05572 16.7183 5.01777 16.8391 4.9798 16.9599C4.95601 17.0371 4.93226 17.1143 4.90857 17.1916C4.89718 17.2275 4.88579 17.2634 4.87406 17.3004C4.80098 17.5375 4.80098 17.5375 4.85154 17.7733C4.89846 17.7566 4.89846 17.7566 4.94633 17.7396C4.98857 17.7255 5.0308 17.7115 5.07431 17.697C5.11567 17.6829 5.15702 17.6687 5.19963 17.6541C5.38716 17.6176 5.49849 17.6152 5.68161 17.6757C5.7869 17.8078 5.85079 17.9556 5.91965 18.109C6.11101 18.5026 6.30824 18.8197 6.60935 19.1405C6.64139 19.1758 6.67342 19.2111 6.70643 19.2475C7.63134 20.2243 9.04073 20.6787 10.3578 20.7202C11.2113 20.7291 12.0772 20.5617 12.8593 20.2147C12.8916 20.1825 12.9238 20.1503 12.957 20.1171C12.9017 20.1224 12.9017 20.1224 12.8452 20.1278C11.0741 20.2771 9.25414 20.055 7.83005 18.8964C7.40346 18.5302 7.03482 18.122 6.85349 17.578C6.83124 17.2666 6.83124 17.2666 6.91014 17.159C7.02581 17.0698 7.13969 17.03 7.27768 16.9829C7.32621 16.9661 7.37474 16.9493 7.42474 16.932C7.46181 16.9196 7.49889 16.9072 7.53708 16.8944C7.36244 16.713 7.17826 16.5538 6.97861 16.4C6.91808 16.353 6.85755 16.306 6.79703 16.2589C6.76613 16.235 6.73522 16.211 6.70338 16.1863C6.61015 16.1138 6.51736 16.0407 6.42472 15.9675C6.39478 15.9438 6.36485 15.9201 6.33401 15.8958C6.27737 15.851 6.22076 15.8061 6.16418 15.7613C5.86706 15.488 5.86706 15.488 5.53513 15.3319Z" fill="#484B51"/>
<path d="M15.3588 3.59821C15.4088 3.59839 15.4088 3.59839 15.4599 3.59858C15.974 3.60147 16.4638 3.62038 16.9609 3.75995C17.0005 3.77097 17.0401 3.782 17.0809 3.79335C18.4751 4.19486 19.6546 4.94666 20.4277 6.20136C20.5742 6.47438 20.5742 6.47438 20.5742 6.59198C20.6155 6.57788 20.6568 6.56378 20.6994 6.54926C21.3068 6.35044 21.3068 6.35044 21.5996 6.39667C21.7675 6.49433 21.7675 6.49433 21.8926 6.64081C21.9868 7.00564 21.8833 7.29555 21.7715 7.64713C21.7534 7.70588 21.7354 7.76463 21.7168 7.82516C21.6689 7.98084 21.6203 8.13628 21.5714 8.29166C21.5223 8.44806 21.4742 8.60474 21.426 8.7614C21.3224 9.09663 21.2181 9.4316 21.1113 9.76581C21.0941 9.82013 21.0768 9.87445 21.0591 9.93042C21.0421 9.98274 21.0252 10.0351 21.0077 10.089C20.9926 10.1357 20.9776 10.1825 20.9621 10.2306C20.8956 10.4054 20.8312 10.4967 20.6719 10.5959C20.5134 10.6423 20.3919 10.638 20.2324 10.5959C20.0357 10.4874 19.8683 10.348 19.6953 10.2053C19.6395 10.1605 19.5835 10.1158 19.5275 10.0712C19.4363 9.99855 19.3453 9.92581 19.2545 9.85265C19.0208 9.66427 18.7837 9.48068 18.5448 9.29889C18.2776 9.09526 18.0105 8.8916 17.7452 8.68549C17.7167 8.66355 17.6881 8.64161 17.6586 8.61901C17.366 8.39059 17.366 8.39059 17.3335 8.18843C17.3281 7.98034 17.3271 7.85152 17.4401 7.67231C17.6565 7.52802 17.8857 7.4507 18.1328 7.37323C17.5474 6.56007 16.7359 6.09893 15.7891 5.81073C15.7557 5.80046 15.7224 5.7902 15.6881 5.77962C14.7039 5.49155 13.5567 5.50846 12.5664 5.7619C12.5336 5.77002 12.5008 5.77814 12.467 5.78651C11.9986 5.90453 11.5595 6.06942 11.122 6.27444C10.9001 6.37463 10.7589 6.42337 10.5156 6.34784C10.4241 6.29291 10.4241 6.29291 10.3692 6.20136C10.3365 6.03491 10.3331 5.92021 10.4218 5.77106C10.5118 5.66196 10.6082 5.56623 10.7109 5.46894C10.7338 5.4472 10.7566 5.42547 10.7801 5.40308C12.0241 4.23472 13.6557 3.59078 15.3588 3.59821ZM12.957 4.83417C12.957 4.85028 12.957 4.8664 12.957 4.883C13.0393 4.88185 13.0393 4.88185 13.1232 4.88067C13.3307 4.87798 13.5383 4.87633 13.7459 4.87495C13.835 4.87422 13.924 4.87323 14.0131 4.87195C14.7892 4.86105 15.5141 4.92651 16.2529 5.18207C16.2957 5.19672 16.3385 5.21137 16.3826 5.22646C17.4766 5.61565 18.4216 6.25588 18.9507 7.30819C19.0137 7.47612 19.0318 7.58647 19.0117 7.76386C18.8915 7.94425 18.8183 7.95442 18.615 8.01715C18.5615 8.03396 18.508 8.05077 18.4529 8.06808C18.4117 8.08048 18.3705 8.09288 18.3281 8.10565C18.4698 8.29743 18.6195 8.43335 18.8103 8.57563C18.8669 8.61825 18.9235 8.66091 18.9801 8.70361C19.0239 8.73655 19.0239 8.73655 19.0686 8.77015C19.218 8.88341 19.3651 8.99963 19.5122 9.11579C19.569 9.16055 19.6259 9.20531 19.6827 9.25006C19.7096 9.27121 19.7365 9.29236 19.7641 9.31415C19.9359 9.44915 20.1086 9.58312 20.2813 9.71698C20.3883 9.60991 20.4085 9.55117 20.4528 9.40886C20.4664 9.36535 20.4801 9.32184 20.4942 9.27701C20.5087 9.22991 20.5231 9.18281 20.538 9.13429C20.5605 9.06186 20.5605 9.06186 20.5835 8.98797C20.6153 8.88577 20.6469 8.78352 20.6783 8.68123C20.7266 8.52444 20.7754 8.36783 20.8243 8.21123C20.855 8.11202 20.8857 8.01281 20.9164 7.91358C20.9384 7.84308 20.9384 7.84308 20.9608 7.77116C20.9742 7.7275 20.9875 7.68383 21.0013 7.63884C21.0132 7.60043 21.025 7.56201 21.0372 7.52244C21.0685 7.41564 21.0685 7.41564 21.0625 7.27558C21.0217 7.28615 21.0217 7.28615 20.9801 7.29694C20.7241 7.35922 20.496 7.39595 20.2324 7.37323C20.0637 7.2371 19.9928 7.04651 19.9028 6.85443C19.751 6.54007 19.5828 6.27085 19.3535 6.00604C19.3079 5.94647 19.3079 5.94647 19.2614 5.88569C18.5102 4.98449 17.2221 4.48283 16.082 4.34589C14.9599 4.27244 13.9903 4.40662 12.957 4.83417Z" fill="#484B51"/>
</g>
<defs>
<clipPath id="clip0_2763_1541">
<rect width="25" height="25" fill="white" transform="translate(0.75)"/>
</clipPath>
</defs>
</svg>
