<svg width="24" height="24" viewBox="0 0 24 24" fill="none" xmlns="http://www.w3.org/2000/svg">
<mask id="path-1-outside-1_3592_49031" maskUnits="userSpaceOnUse" x="7" y="8.5" width="10" height="10" fill="black">
<rect fill="white" x="7" y="8.5" width="10" height="10"/>
<path d="M16 13.5C16 15.7091 14.2091 17.5 12 17.5C9.79086 17.5 8 15.7091 8 13.5C8 11.2909 9.79086 9.5 12 9.5C14.2091 9.5 16 11.2909 16 13.5ZM9.49214 13.5C9.49214 14.8851 10.6149 16.0079 12 16.0079C13.3851 16.0079 14.5079 14.8851 14.5079 13.5C14.5079 12.1149 13.3851 10.9921 12 10.9921C10.6149 10.9921 9.49214 12.1149 9.49214 13.5Z"/>
</mask>
<path d="M16 13.5C16 15.7091 14.2091 17.5 12 17.5C9.79086 17.5 8 15.7091 8 13.5C8 11.2909 9.79086 9.5 12 9.5C14.2091 9.5 16 11.2909 16 13.5ZM9.49214 13.5C9.49214 14.8851 10.6149 16.0079 12 16.0079C13.3851 16.0079 14.5079 14.8851 14.5079 13.5C14.5079 12.1149 13.3851 10.9921 12 10.9921C10.6149 10.9921 9.49214 12.1149 9.49214 13.5Z" fill="#484C52"/>
<path d="M16 13.5C16 15.7091 14.2091 17.5 12 17.5C9.79086 17.5 8 15.7091 8 13.5C8 11.2909 9.79086 9.5 12 9.5C14.2091 9.5 16 11.2909 16 13.5ZM9.49214 13.5C9.49214 14.8851 10.6149 16.0079 12 16.0079C13.3851 16.0079 14.5079 14.8851 14.5079 13.5C14.5079 12.1149 13.3851 10.9921 12 10.9921C10.6149 10.9921 9.49214 12.1149 9.49214 13.5Z" stroke="#484C52" stroke-width="0.4" mask="url(#path-1-outside-1_3592_49031)"/>
<path d="M11.732 5.9L11.639 5.90002V5.90048C9.4221 5.92203 7.25479 6.67222 5.50551 8.0371C3.73007 9.42238 2.46853 11.3613 1.92131 13.5457L1.92128 13.5457L1.92075 13.548C1.87201 13.7647 1.90995 13.9917 2.02647 14.1807C2.14299 14.3697 2.32883 14.5056 2.54426 14.5594C2.75968 14.6131 2.98758 14.5804 3.17922 14.4683C3.37087 14.3562 3.51103 14.1736 3.56975 13.9594L3.56977 13.9595L3.5703 13.9573C4.09479 11.8667 5.40261 10.0575 7.22334 8.9039C8.57761 8.04584 10.1575 7.59913 11.739 7.59903C13.3203 7.59913 14.8815 8.04572 16.236 8.9039C18.0567 10.0575 19.3645 11.8667 19.889 13.9573L19.889 13.9573L19.8896 13.9594C19.9483 14.1736 20.0885 14.3562 20.2801 14.4683C20.4718 14.5804 20.6997 14.6131 20.9151 14.5594C21.1305 14.5056 21.3164 14.3697 21.4329 14.1807C21.5494 13.9917 21.5873 13.7647 21.5386 13.548L21.5386 13.548L21.538 13.5457C20.9908 11.3613 19.7293 9.42238 17.9538 8.0371C16.2047 6.67233 14.0556 5.92203 11.839 5.90048V5.90002L11.746 5.9C11.7437 5.9 11.7414 5.9 11.739 5.9C11.7367 5.9 11.7344 5.9 11.732 5.9Z" fill="#484C52" stroke="#484C52" stroke-width="0.2"/>
</svg>
