<svg width="13" height="14" viewBox="0 0 13 14" fill="none" xmlns="http://www.w3.org/2000/svg">
<path d="M9.98557 3.85182H9.36099V3.51432C9.36099 3.11539 9.20251 2.7328 8.92043 2.45072C8.63834 2.16863 8.25575 2.01016 7.85682 2.01016H5.14849C4.74956 2.01016 4.36697 2.16863 4.08488 2.45072C3.8028 2.7328 3.64432 3.11539 3.64432 3.51432V3.85182H3.01432C2.61539 3.85182 2.2328 4.0103 1.95072 4.29238C1.66863 4.57447 1.51016 4.95706 1.51016 5.35599V10.4856C1.51016 10.8845 1.66863 11.2671 1.95072 11.5492C2.2328 11.8313 2.61539 11.9897 3.01432 11.9897H9.98557C10.1831 11.9897 10.3787 11.9508 10.5612 11.8752C10.7437 11.7997 10.9095 11.6889 11.0492 11.5492C11.1889 11.4095 11.2997 11.2437 11.3752 11.0612C11.4508 10.8787 11.4897 10.6831 11.4897 10.4856V5.35599C11.4897 5.15846 11.4508 4.96286 11.3752 4.78037C11.2997 4.59788 11.1889 4.43206 11.0492 4.29238C10.9095 4.15271 10.7437 4.04191 10.5612 3.96632C10.3787 3.89073 10.1831 3.85182 9.98557 3.85182ZM4.48599 3.51432C4.48599 3.33862 4.55579 3.17011 4.68003 3.04586C4.80427 2.92162 4.97278 2.85182 5.14849 2.85182H7.85682C8.03253 2.85182 8.20104 2.92162 8.32528 3.04586C8.44952 3.17011 8.51932 3.33862 8.51932 3.51432V3.85182H4.48599V3.51432ZM10.6481 10.4856C10.6481 10.6613 10.5783 10.8298 10.454 10.954C10.3298 11.0783 10.1613 11.1481 9.98557 11.1481H3.01432C2.83862 11.1481 2.67011 11.0783 2.54586 10.954C2.42162 10.8298 2.35182 10.6613 2.35182 10.4856V5.35599C2.35182 5.18028 2.42162 5.01177 2.54586 4.88753C2.67011 4.76329 2.83862 4.69349 3.01432 4.69349H9.98557C10.1613 4.69349 10.3298 4.76329 10.454 4.88753C10.5783 5.01177 10.6481 5.18028 10.6481 5.35599V10.4856Z" fill="black" stroke="black" stroke-width="0.3"/>
</svg>
