<svg width="24" height="24" viewBox="0 0 24 24" fill="none" xmlns="http://www.w3.org/2000/svg">
<path d="M16 13C16 15.2091 14.2091 17 12 17C9.79086 17 8 15.2091 8 13C8 10.7909 9.79086 9 12 9C14.2091 9 16 10.7909 16 13ZM9.49214 13C9.49214 14.3851 10.6149 15.5079 12 15.5079C13.3851 15.5079 14.5079 14.3851 14.5079 13C14.5079 11.6149 13.3851 10.4921 12 10.4921C10.6149 10.4921 9.49214 11.6149 9.49214 13Z" fill="#7D7C7C"/>
<path d="M11.739 5.5V6.99903C13.3391 6.99914 14.9189 7.45103 16.2895 8.31943C18.1319 9.48678 19.4553 11.3175 19.986 13.433C20.0378 13.6219 20.1615 13.7831 20.3306 13.882C20.4997 13.9809 20.7008 14.0098 20.8909 13.9623C21.081 13.9149 21.2449 13.795 21.3477 13.6283C21.4506 13.4615 21.484 13.2611 21.441 13.07C20.8992 10.9072 19.6502 8.98751 17.8923 7.61594C16.1345 6.24437 13.9687 5.49961 11.739 5.5Z" fill="#7D7C7C"/>
<path d="M11.739 5.5V6.99903C10.139 6.99914 8.5404 7.45103 7.16982 8.31943C5.32742 9.48678 4.00404 11.3175 3.47331 13.433C3.4215 13.6219 3.29782 13.7831 3.12873 13.882C2.95963 13.9809 2.75854 14.0098 2.56846 13.9623C2.37839 13.9149 2.21441 13.795 2.1116 13.6283C2.00878 13.4615 1.9753 13.2611 2.01831 13.07C2.56011 10.9072 3.80917 8.98751 5.56702 7.61594C7.32487 6.24437 9.5094 5.49961 11.739 5.5Z" fill="#7D7C7C"/>
</svg>
