<svg width="20" height="20" viewBox="0 0 20 20" fill="none" xmlns="http://www.w3.org/2000/svg">
<path d="M14.9179 5.54167H13.9358V4.97917C13.9358 4.41448 13.7114 3.87291 13.3122 3.47362C12.9129 3.07432 12.3713 2.85 11.8066 2.85H7.84827C7.28358 2.85 6.74202 3.07432 6.34272 3.47362C5.94343 3.87291 5.71911 4.41448 5.71911 4.97917V5.54167H4.72911C4.16442 5.54167 3.62285 5.76599 3.22356 6.16529C2.82426 6.56458 2.59994 7.10614 2.59994 7.67083V15.1679C2.59994 15.7326 2.82426 16.2742 3.22356 16.6735C3.62285 17.0728 4.16442 17.2971 4.72911 17.2971H14.9179C15.1975 17.2971 15.4743 17.242 15.7327 17.135C15.991 17.028 16.2257 16.8712 16.4234 16.6735C16.6211 16.4758 16.7779 16.241 16.8849 15.9827C16.992 15.7244 17.047 15.4475 17.047 15.1679V7.67083C17.047 7.39123 16.992 7.11436 16.8849 6.85604C16.7779 6.59771 16.6211 6.363 16.4234 6.16529C16.2257 5.96757 15.991 5.81074 15.7327 5.70374C15.4743 5.59674 15.1975 5.54167 14.9179 5.54167ZM6.81077 4.97917C6.81077 4.704 6.92008 4.44011 7.11465 4.24554C7.30922 4.05097 7.57311 3.94167 7.84827 3.94167H11.8066C12.0818 3.94167 12.3457 4.05097 12.5402 4.24554C12.7348 4.44011 12.8441 4.704 12.8441 4.97917V5.54167H6.81077V4.97917ZM15.9554 15.1679C15.9554 15.4431 15.846 15.707 15.6515 15.9015C15.4569 16.0961 15.193 16.2054 14.9179 16.2054H4.72911C4.45394 16.2054 4.19005 16.0961 3.99548 15.9015C3.80091 15.707 3.69161 15.4431 3.69161 15.1679V7.67083C3.69161 7.39567 3.80091 7.13178 3.99548 6.93721C4.19005 6.74264 4.45394 6.63333 4.72911 6.63333H14.9179C15.193 6.63333 15.4569 6.74264 15.6515 6.93721C15.846 7.13178 15.9554 7.39567 15.9554 7.67083V15.1679Z" fill="#484C52" stroke="#484C52" stroke-width="0.3"/>
</svg>
