<svg width="24" height="24" viewBox="0 0 24 24" fill="none" xmlns="http://www.w3.org/2000/svg">
<path d="M12 3.21204V15.238" stroke="#484C52" stroke-width="1.5" stroke-miterlimit="10" stroke-linecap="round"/>
<path d="M16.625 7.45602L12.66 3.49002C12.4846 3.31646 12.2478 3.21912 12.001 3.21912C11.7542 3.21912 11.5174 3.31646 11.342 3.49002L7.375 7.45602M2.75 13.85V18.475C2.74961 18.7789 2.80917 19.0798 2.92526 19.3606C3.04136 19.6414 3.21172 19.8966 3.42658 20.1114C3.64144 20.3263 3.89658 20.4967 4.17739 20.6128C4.45819 20.7289 4.75914 20.7884 5.063 20.788H18.938C19.2418 20.7883 19.5426 20.7286 19.8233 20.6125C20.104 20.4963 20.359 20.3259 20.5738 20.1111C20.7885 19.8962 20.9588 19.6411 21.0748 19.3604C21.1909 19.0797 21.2504 18.7788 21.25 18.475V13.85" stroke="#484C52" stroke-width="1.5" stroke-linecap="round" stroke-linejoin="round"/>
</svg>
