<svg width="130" height="72" viewBox="0 0 130 72" fill="none" xmlns="http://www.w3.org/2000/svg">
<ellipse cx="65" cy="57.7482" rx="65" ry="13.2826" fill="#F0F6FF"/>
<g opacity="0.75" clip-path="url(#clip0_3005_46204)">
<path d="M21.5898 6.76702C23.1073 6.33626 24.6539 5.99166 26.1331 5.45434C28.7056 4.52255 30.9727 3.06251 32.8672 1.04929C32.9054 1.00848 32.9593 0.981273 33.0064 0.947266C33.0064 1.71356 33.0109 2.47985 33.0132 3.24388C31.48 4.64044 29.7426 5.71053 27.866 6.56524C25.8727 7.4721 23.7874 8.07289 21.6527 8.51499C21.6347 7.94593 21.6168 7.37688 21.5988 6.80556L21.5898 6.76475V6.76702Z" fill="#FEB140"/>
<path d="M33.0126 3.24388C33.0126 2.47759 33.0081 1.71129 33.0059 0.947266C33.062 0.96767 33.1361 0.969937 33.172 1.01075C35.7624 3.77893 39.006 5.36592 42.5908 6.34533C42.8085 6.40427 43.0083 6.5199 43.217 6.60832C43.1879 7.1547 43.1587 7.70335 43.1317 8.24973C39.7086 7.40862 36.5121 6.07327 33.7174 3.86281C33.4817 3.6565 33.2483 3.45246 33.0126 3.24615V3.24388Z" fill="#FE9700"/>
<path d="M43.1328 8.2473C43.162 7.70092 43.1912 7.15227 43.2181 6.60589L43.2091 6.57642C43.2697 6.57642 43.3326 6.57642 43.3932 6.57642C44.345 6.75779 45.2945 6.93916 46.2776 7.12733C46.2485 7.51501 46.2193 7.88909 46.1901 8.26544C46.1677 8.5511 46.1183 8.75741 46.1115 8.78915C46.0307 9.26071 45.9275 11.2943 45.7928 16.5314C45.1059 16.5564 44.4168 16.5836 43.7299 16.6085C43.9656 13.9106 44.199 11.2127 44.4347 8.51255C44.1384 8.47628 43.8242 8.4196 43.4897 8.34025C43.3663 8.31078 43.2495 8.27904 43.1328 8.24503V8.2473Z" fill="#FE9700"/>
<path d="M110.105 28.6111C110.074 29.1756 110.103 29.7515 109.999 30.3001C109.869 30.9871 109.456 31.5062 108.792 31.7806C108.792 30.6402 108.812 29.4998 108.778 28.3617C108.765 27.9151 108.886 27.77 109.331 27.7995C109.548 27.8131 109.858 27.9831 110.011 27.6362C110.062 27.668 110.114 27.702 110.166 27.7337C110.145 28.0262 110.125 28.3186 110.105 28.6111Z" fill="#004C99"/>
<path d="M21.6732 22.1814C21.0425 17.1665 20.414 12.1516 19.7832 7.13441C20.2928 7.03919 20.8135 6.94397 21.3343 6.84648C21.3231 6.85782 21.3186 6.86689 21.3208 6.87142C21.3343 6.90089 21.5879 6.82154 22.0795 6.6311C22.0144 8.01633 21.9471 9.40155 21.882 10.7868L21.6732 22.1814Z" fill="#FEB140"/>
<path d="M108.793 23.8477C109.632 24.2172 109.998 24.9109 110.09 25.7906C110.106 25.9334 110.104 26.0785 110.108 26.2236C110.077 26.6657 110.046 27.1078 110.014 27.5499C109.608 27.5794 109.199 27.6088 108.793 27.6383C108.793 26.3755 108.793 25.1127 108.793 23.8477Z" fill="#004C99"/>
<path d="M22.792 19.8143L20.6797 10.7978C20.8233 10.6459 20.8436 10.5734 20.8233 10.5371C20.8009 10.4941 20.7336 10.5077 20.7089 10.4646C20.6774 10.4079 20.7515 10.3013 20.8368 10.2039C21.0007 10.2039 21.1645 10.2039 21.3307 10.2039C21.3935 12.1445 21.3666 13.634 21.3307 14.6565C21.3307 14.6565 21.2341 17.3272 21.8761 18.4222C22.0849 18.7805 22.334 19.1545 22.334 19.1545C22.5181 19.4334 22.6797 19.6578 22.792 19.8097V19.8143Z" fill="#FEB140"/>
<path d="M108.535 31.871C108.526 31.8937 108.519 31.9164 108.512 31.9391C107.792 31.9776 107.073 32.0139 106.353 32.0524C105.392 32.0524 104.431 32.0524 103.47 32.0524C100.77 32.0524 98.0675 32.0479 95.3671 32.0479C92.6667 32.0479 89.9663 32.0433 87.2682 32.0479C87.147 32.0479 87.0235 32.1 86.9023 32.1272C86.8731 32.1 86.8417 32.0728 86.8125 32.0456C86.817 32.0161 86.8192 31.9867 86.8237 31.9549C86.8798 31.8098 86.9831 31.667 86.9853 31.5196C86.9988 30.4201 87.0011 29.3182 86.9853 28.2187C86.9809 27.9217 87.0594 27.7993 87.3737 27.8106C88.0404 27.8355 88.7093 27.8242 89.3782 27.8287C89.4613 27.9557 89.5196 28.1257 89.6363 28.2028C89.9528 28.4136 89.9618 28.5928 89.7284 28.7492C89.3962 28.6472 89.1403 28.5678 88.8462 28.4794C88.8013 28.994 89.0527 29.1958 89.349 29.3704C89.5982 29.851 90.5701 29.7059 90.6981 29.1527C90.7632 28.8716 90.9675 28.4567 90.4916 28.2617C90.4534 28.1144 90.4153 27.9648 90.3771 27.8174C90.3883 27.7879 90.3973 27.7584 90.4085 27.729C91.0415 27.7584 91.6723 27.7879 92.3053 27.8174C92.238 28.0985 92.1706 28.3774 92.0898 28.7152H93.0663C93.0887 28.9283 93.1089 29.1097 93.1291 29.3069H93.7038C93.5983 29.3636 93.495 29.418 93.2705 29.5381H93.8384C93.9776 29.282 94.1235 29.0825 94.1976 28.858C94.256 28.6834 94.3255 28.4227 93.9731 28.4341C93.9439 28.3411 93.9125 28.2504 93.8833 28.1575C93.8833 28.0441 93.8833 27.9307 93.8833 27.8151C94.6465 27.8151 95.4097 27.8197 96.1729 27.8219C96.0091 28.3094 95.8452 28.7945 95.6701 29.316C95.926 29.316 96.1258 29.316 96.3256 29.316C96.1931 29.3658 96.0607 29.418 95.8789 29.4883C96.476 29.6538 96.568 29.6084 96.7476 29.1391C96.9182 28.6948 97.1 28.2549 97.2751 27.8129L99.1382 27.8265C98.696 28.5338 98.797 28.9963 99.4749 29.3885C99.6365 29.7218 99.9418 29.69 100.216 29.647C100.568 29.5926 100.822 29.3726 100.909 29.0122C100.986 28.6925 100.972 28.3796 100.658 28.1711L100.436 27.7222C100.458 27.7222 100.483 27.7222 100.505 27.7267C101.055 27.7562 101.603 27.7856 102.153 27.8174C102.184 28.026 102.216 28.2368 102.247 28.4454C102.263 28.8852 102.507 29.1754 102.867 29.3863C103.331 29.8669 104.016 29.7059 104.245 29.0167C104.371 28.6381 104.373 28.2209 104.431 27.8197C105.796 27.8197 107.163 27.8197 108.528 27.8197L108.537 31.8778L108.535 31.871Z" fill="#004C99"/>
<path d="M108.71 23.7797C109.477 24.3306 109.827 24.911 109.998 25.276C110.474 26.2871 110.011 26.6091 110.07 29.4634C110.074 29.6901 110.088 30.2138 109.841 30.8033C109.733 31.0617 109.502 31.6081 108.986 31.8575C108.635 32.0253 108.328 31.9709 107.706 31.8779C107.221 31.8054 106.501 31.6988 105.58 31.5855C105.327 31.4358 105.06 31.2953 104.784 31.1638C101.574 29.647 98.2111 30.1458 95.9866 30.7738C92.505 31.6875 89.6071 32.1749 87.4903 32.4515C86.8259 32.5399 85.0548 32.9548 83.6945 32.0026C83.387 31.7872 82.9538 31.4834 82.7495 30.9325C82.5408 30.3703 82.736 29.9985 82.8775 27.8945C82.8977 27.5885 82.8932 27.6202 82.8999 27.5522C83.0166 26.5615 83.4992 26.0808 84.011 25.1014C84.1278 24.8793 84.2153 24.6865 84.2849 24.521C84.4465 24.1379 84.543 23.859 84.5543 23.8273C85.1873 22.1043 95.6925 23.7547 95.6925 23.7547C99.4636 24.3465 103.43 25.0425 103.603 26.3302C103.61 26.3756 103.733 27.3096 103.311 27.5522C103.192 27.6202 103.024 27.6361 102.882 27.5885C102.501 27.4638 102.436 26.9333 102.29 26.9514C102.229 26.9582 102.148 27.0602 102.09 27.5567C101.677 27.5522 101.266 27.5499 100.853 27.5454C100.844 27.2303 100.943 26.8789 100.584 26.6726C100.177 26.4096 100.121 26.3348 100.133 26.3098C100.184 26.2078 101.787 26.6952 102.638 27.9195C102.896 28.2913 102.925 28.4999 102.882 28.6586C102.754 29.1211 101.962 29.2934 101.506 29.2956C100.148 29.2979 99.2436 27.7631 99.1179 27.5454C98.5343 27.5454 97.9507 27.5454 97.367 27.5477C97.4726 27.2189 97.5781 26.8902 97.6903 26.5411C97.5983 26.5207 97.5174 26.5003 97.4366 26.4821C97.3895 26.4254 97.3446 26.3234 97.2975 26.3234C96.7812 26.3121 96.2671 26.3166 95.7307 26.3166C95.7239 26.6272 95.5825 26.9854 95.9955 27.0058C96.4534 27.0285 96.4557 27.2235 96.3233 27.5545C96.3008 27.5613 96.2784 27.5681 96.2559 27.5726C95.7553 27.5681 95.2548 27.5522 94.7565 27.5613C94.4938 27.5658 94.2334 27.6157 93.9708 27.6474C93.9416 27.7064 93.9124 27.7631 93.8833 27.822C93.8833 27.9354 93.8833 28.0487 93.8833 28.1643C93.7912 28.0215 93.697 27.8764 93.6049 27.7336C93.6521 27.2734 93.6992 26.8109 93.7418 26.3778C93.2031 26.2146 92.9068 26.3484 92.7721 26.8222C92.7003 27.0716 92.5791 27.3028 92.4803 27.5431C92.4309 27.5499 92.3816 27.5545 92.3322 27.5613C91.7194 27.5613 91.1088 27.5613 90.496 27.559C90.5184 27.4184 90.5633 27.2756 90.5611 27.1351C90.5544 26.6544 90.092 26.2101 89.643 26.2373C89.1514 26.2667 88.8663 26.6408 88.9202 27.1985C92.3456 27.2529 95.7733 27.3074 99.1987 27.3618C95.8115 27.3776 92.422 27.3912 89.0347 27.4071C89.2345 27.4457 89.3467 27.4683 89.4589 27.491C89.4253 27.5182 89.3938 27.5431 89.3602 27.5703C88.57 27.5658 87.7799 27.5613 86.992 27.5545C86.992 26.2645 86.992 24.9745 86.992 23.6845C88.8731 23.6845 90.7564 23.6845 92.6374 23.6799C92.7901 23.6799 92.945 23.6346 93.0976 23.6119C93.8518 23.6074 94.6083 23.6029 95.3625 23.5961C96.7857 23.5961 98.2111 23.5915 99.6342 23.5915C100.07 23.5915 100.507 23.5915 100.943 23.5915C101.583 23.5915 102.22 23.5915 102.86 23.5915H104.869C105.798 23.5915 106.73 23.5915 107.659 23.5915C108.009 23.6573 108.359 23.723 108.71 23.7865V23.7797Z" fill="#004C99"/>
<path d="M21.5762 21.5872C21.5807 17.792 21.5852 13.9991 21.5874 10.2039C21.6637 10.2333 21.7423 10.2605 21.8186 10.29C21.8949 10.9135 21.969 11.5392 22.0453 12.1627C22.3012 14.2961 22.5414 16.434 22.8153 18.5651C22.9522 19.6352 23.0577 20.7257 23.3472 21.7595C23.6009 22.6663 23.987 23.4848 24.5033 24.2103C25.2912 25.3189 26.1756 25.9265 26.6425 26.2394C27.9624 27.1258 29.2486 27.4704 30.4966 27.8037C30.9748 27.9329 31.3788 28.0191 31.6572 28.0757C30.8805 28.1959 30.0814 28.3025 29.262 28.3931C29.0757 28.4135 28.8894 28.434 28.7031 28.4521C27.9848 28.341 27.2665 28.2299 26.546 28.1188C26.2901 28.0213 25.9713 27.8694 25.6368 27.6291C25.4034 27.4613 25.2126 27.289 25.0644 27.1349C24.8557 26.9671 24.5729 26.7313 24.2541 26.4275C24.2541 26.4275 24.0386 26.2258 23.8501 26.0262C22.813 24.9312 22.162 23.6004 21.6727 22.1812C21.6413 21.9839 21.6098 21.7844 21.5784 21.5872H21.5762Z" fill="#FEB140"/>
<path d="M65.7847 14.3461H95.2689C95.2689 16.7787 95.2689 19.2114 95.2711 21.644C90.1914 21.644 85.1116 21.6485 80.0318 21.6463C79.8859 21.6463 79.74 21.5964 79.5919 21.5715C79.7041 21.5057 79.8163 21.4377 79.9286 21.372C80.0116 21.406 80.0992 21.474 80.1732 21.4672C80.7546 21.4037 81.3585 21.3788 81.9084 21.2382C82.3686 21.1203 82.8916 20.9299 83.1587 20.651C83.666 20.1205 84.0095 19.5038 84.4202 18.9234C83.7536 18.7783 83.4258 18.6673 83.4393 18.5902C83.4573 18.4904 84.0499 18.4451 85.2194 18.4587C85.0173 18.4632 84.8153 18.4677 84.6133 18.4746C84.9096 18.3816 84.9612 18.3317 84.9522 18.3022C84.941 18.2592 84.8288 18.2184 84.6671 18.2002C84.5661 18.1889 84.4427 18.0121 84.4292 17.9032C84.3933 17.6448 84.418 17.3841 84.418 17.1233C84.6963 17.0463 84.9994 16.9012 84.9724 16.8059C84.923 16.6268 84.6851 16.4795 84.5235 16.3162C84.427 16.3026 84.4427 16.2369 84.4135 16.1893C84.3349 16.0668 84.2339 15.9535 84.1441 15.8379C84.0341 15.9422 83.9152 16.0442 83.8142 16.1553C83.7401 16.2369 83.7042 16.3978 83.6234 16.4092C83.1205 16.4727 83.244 16.7493 83.235 16.985C83.1789 16.8694 83.1205 16.7515 83.0846 16.6767C82.95 16.6903 82.804 16.7062 82.6604 16.7221C82.6177 16.6359 82.5728 16.5497 82.5302 16.4636C82.2518 16.3933 81.96 16.348 81.7019 16.2505C80.7254 15.8832 79.7827 16.2006 78.8332 16.3208C78.7501 16.3321 78.7052 16.5067 78.6424 16.6042C78.5503 16.5815 78.4605 16.5565 78.3663 16.5361C77.107 16.255 76.2046 16.883 76.4044 17.8556C76.4919 18.2818 76.9162 18.4768 77.2304 18.7557C77.5896 19.2885 77.9398 19.8235 78.3146 20.3517C78.3663 20.4243 78.5301 20.456 78.6401 20.5059C78.3393 20.88 78.2473 21.2427 78.7591 21.5647C78.5234 21.5919 78.2877 21.6213 78.052 21.6485C78.052 21.3901 78.0587 21.1294 78.0453 20.8709C78.0183 20.3699 77.7557 20.2475 77.1092 20.4243C77.0262 20.218 76.9454 20.0094 76.8623 19.8031C76.786 19.8099 76.7074 19.8167 76.6311 19.8212V21.6485C75.9308 21.6372 75.2282 21.6236 74.5278 21.6123C73.4391 21.1747 72.0048 20.4492 71.9688 19.5152C71.8633 16.8535 83.1497 13.4982 85.3518 15.3663C86.5011 16.3412 85.1026 18.6831 84.4337 19.5628C83.9646 20.1794 82.9275 21.5443 80.8287 22.0521C80.5346 22.1224 78.0363 22.7254 76.4627 21.9365C76.1844 21.7959 75.6793 21.4853 75.0486 21.5443C74.6198 21.5851 74.2944 21.7823 74.0856 21.9455C74.0699 21.8458 74.0542 21.7483 74.0385 21.6485C72.8039 21.7483 71.7982 21.2971 71.6434 20.787C71.383 19.9346 73.5244 19.0073 73.9419 19.2431C74.1574 19.3655 73.9801 19.8348 73.6816 20.3699V21.6463C73.6254 21.6349 73.5334 21.6191 73.4234 21.6032C72.7949 21.5125 72.5457 21.5783 72.2382 21.4604C72.1327 21.4196 71.989 21.347 71.8499 21.1997C67.65 20.5308 65.5714 20.1001 65.6096 19.9074C65.6477 19.7192 67.7331 19.76 71.8611 20.0321C71.9352 20.1318 72.0182 20.2837 72.0025 20.4651C71.9846 20.6691 71.805 20.7508 71.8117 20.9208C71.8184 21.1407 72.025 21.3561 72.1417 21.5737C71.5042 21.7188 71.4593 21.6871 71.4368 21.2087C71.4234 20.9163 71.365 20.6261 71.3246 20.3336C71.2438 20.4696 71.1473 20.6011 71.0889 20.7417C70.9924 20.9797 70.9206 21.2246 70.8375 21.4649C70.3212 21.4853 70.301 21.211 70.2741 20.9389C70.2561 20.7462 70.2359 20.5558 70.2157 20.3631C70.1214 20.3744 70.0272 20.3835 69.9351 20.3948C70.0406 20.787 70.1461 21.1793 70.2516 21.5737C69.6254 21.7143 69.5737 21.6848 69.5513 21.2473C69.5266 20.7961 69.475 20.3449 69.4368 19.8938C69.3582 20.0026 69.2236 20.1069 69.2101 20.2203C69.1787 20.5172 69.1989 20.8165 69.1989 21.1452C68.6714 20.8006 68.4469 20.5739 68.5232 20.4628C68.7073 20.1976 70.6108 20.5989 74.236 21.6644L67.6725 21.6463L66.265 21.7596C65.0035 21.7891 63.742 21.8186 62.4805 21.8458C62.4984 21.5896 62.6511 19.9391 64.4176 19.0391C64.9856 18.7489 65.5602 18.6196 66.0002 18.5562C66.5771 17.9463 66.4895 17.3319 66.0294 16.713C66.0855 16.6223 66.1595 16.4727 66.1281 16.3004C66.0383 15.822 65.237 15.7132 65.1023 15.3142C65.0394 15.126 65.1068 14.8222 65.7757 14.3416L65.7847 14.3461ZM67.2056 18.6537H67.9037C67.9037 18.2342 67.9216 17.8579 67.8992 17.4815C67.8745 17.1097 68.1461 17.0032 68.5793 16.9782C69.0687 16.951 69.1158 17.1709 69.1091 17.4521C69.1001 17.842 69.1068 18.232 69.1068 18.6038C68.384 18.869 67.8184 18.8826 67.6859 18.6537C67.5692 18.4519 67.7735 18.037 68.0675 17.8057C68.705 17.3024 69.5917 17.7876 69.7982 17.4226C69.9217 17.205 69.7129 16.8399 69.5131 16.6563C69.2079 16.3774 68.6714 16.3661 67.9867 16.6563C67.7331 16.4659 67.4705 16.3253 67.1899 16.6359C67.1674 17.3364 67.1427 18.0347 67.1203 18.7353C67.1495 18.7081 67.1764 18.6809 67.2056 18.6537Z" fill="#004C99"/>
<path d="M45.4946 14.2553C45.5642 14.2553 45.9278 14.2553 45.9974 14.2553C52.3208 14.2508 58.6306 14.2803 64.9248 14.346C64.9248 15.0806 64.9248 15.8129 64.927 16.5474C64.7138 16.5157 64.5005 16.4545 64.2873 16.4545C63.7822 16.4545 63.4455 16.7356 63.2749 17.257C63.1604 17.6084 63.3445 18.3793 63.5847 18.5606C64.0247 18.8916 64.496 18.9234 64.9248 18.6536C64.954 19.209 64.9854 19.7622 65.0146 20.3177C64.8125 20.3245 64.6083 20.3313 64.4063 20.3381C64.3771 20.6623 64.3389 20.9865 64.3232 21.3129C64.3142 21.5034 64.312 21.6712 64.0561 21.6485C64.0538 21.3696 64.1032 21.0772 64.0314 20.8187C63.9798 20.6328 63.7934 20.4106 63.6206 20.3562C63.4657 20.3086 63.2502 20.4718 63.0594 20.5421L63.1043 20.6645C63.4755 20.5346 63.6954 20.5776 63.7643 20.7938C62.9652 20.9955 62.8552 21.1406 63.1784 21.5714C62.9786 21.5714 62.7766 21.5714 62.5768 21.5691C62.7549 21.3364 62.5656 21.0605 62.0089 20.7416C62.1862 20.1998 62.4848 20.7892 62.7272 20.6781C62.7833 20.7824 62.7564 20.8981 62.6913 20.9366C62.597 20.9955 62.4354 20.8845 62.4399 20.8164C62.4444 20.7711 62.5297 20.7394 62.5791 20.7258C62.8125 20.8142 62.8731 20.9049 62.8843 20.9751C62.9001 21.0953 62.7721 21.2132 62.8305 21.356C62.8439 21.3878 62.8619 21.4104 62.8552 21.4422C62.8417 21.5147 62.725 21.5487 62.6801 21.5623C62.377 21.6485 61.5824 21.5782 61.5802 21.4104C61.5802 21.3719 61.6206 21.3129 61.854 21.2381C62.0471 21.2313 62.2424 21.2245 62.4354 21.22C62.276 21.3379 62.1144 21.4558 61.955 21.5759C61.7844 21.6009 61.6161 21.6258 61.4455 21.653C61.4455 21.653 60.6845 21.9001 60.395 21.653C60.2872 21.5623 60.1885 21.3538 60.2984 20.821C60.1974 20.6577 60.0942 20.4922 59.9932 20.329C60.1346 20.159 60.2782 19.9889 60.4197 19.8189C60.4107 20.431 60.4039 21.0409 60.395 21.653C60.2805 21.653 60.1682 21.653 60.0538 21.653C59.515 21.5623 59.1738 20.7847 59.3242 20.3766C59.441 20.0638 59.7754 19.9323 59.8675 19.8983C59.8383 20.1522 59.7889 20.4038 59.7844 20.6577C59.7754 21.653 59.7799 21.653 58.8192 21.653C57.8068 21.653 56.7967 21.653 55.7843 21.653C55.625 21.3742 55.4678 21.093 55.304 20.8187C55.1648 20.5852 54.9964 20.4922 54.6912 20.5535C53.9347 20.7054 53.3039 20.3993 52.8685 19.7917C52.433 19.1841 52.3634 18.5017 52.7383 17.8147C53.2456 16.8852 54.3365 16.4477 55.378 17.1165C56.2176 17.656 56.5677 18.572 55.9527 19.6375C55.6811 20.1091 55.8719 20.3948 56.0717 20.7439C56.1143 20.8164 56.1861 20.8731 56.24 20.9389C56.3635 21.084 56.4847 21.2291 56.6059 21.3742C56.7608 21.1928 56.9426 21.0296 57.0616 20.8278C57.3579 20.3358 57.6632 19.8416 57.8876 19.3156C58.0156 19.0186 58.1278 18.5946 58.0111 18.3362C57.616 17.4588 57.1087 16.6336 56.662 15.7811C56.4824 15.4365 56.2131 15.3141 55.8472 15.3141C54.8752 15.3186 53.901 15.3254 52.9291 15.3118C52.5362 15.305 52.2601 15.4524 52.0761 15.797C51.6271 16.6336 51.158 17.4588 50.736 18.309C50.6395 18.5062 50.6148 18.8236 50.7046 19.0141C51.1153 19.8756 51.5822 20.7122 52.0267 21.5578C51.9077 21.5895 51.7865 21.619 51.6653 21.6485C49.2792 22.2243 46.3431 22.4511 42.8526 21.8004C42.6595 20.5104 42.5271 19.005 42.5518 17.3296C42.5675 16.2618 42.6438 15.2755 42.7516 14.3778C43.0726 14.3392 43.3936 14.3007 43.7168 14.2599L43.7437 14.2644L45.4879 14.2599L45.4946 14.2553ZM59.8719 18.8327C59.8428 18.6491 59.7911 18.4654 59.7889 18.2795C59.7777 17.7331 59.7844 17.1845 59.7844 16.6381C59.6991 17.3069 59.6924 17.9757 59.7058 18.6423C59.7058 18.7352 59.8136 18.8282 59.8719 18.9211C60.279 18.9196 60.4825 18.7095 60.4825 18.2908C60.4825 17.8986 60.4937 17.5087 60.478 17.1165C60.4713 16.9238 60.4152 16.7356 60.3815 16.5451C60.2244 16.5179 60.0672 16.4907 59.8944 16.4613V18.6423C60.0515 18.6536 60.1795 18.6627 60.3074 18.674C60.1615 18.7261 60.0179 18.7806 59.8719 18.8327ZM53.2411 18.7556C53.2501 19.4176 53.7663 19.9459 54.4151 19.9527C55.0189 19.9595 55.6003 19.3292 55.5868 18.6785C55.5756 18.0483 54.9964 17.4996 54.3545 17.511C53.6923 17.5223 53.2299 18.0392 53.2388 18.7533L53.2411 18.7556ZM62.8978 18.0732C62.6913 17.8669 62.5476 17.9916 62.3434 18.1208C62.1773 18.2251 61.8495 18.2931 61.7283 18.1979C61.5443 18.0528 61.3961 17.7603 61.3849 17.5223C61.3781 17.3636 61.6251 17.0666 61.7777 17.053C62.0718 17.028 62.3815 17.1595 62.7721 17.2457C62.9786 17.1323 62.9292 16.9147 62.7003 16.7311C62.5499 16.6086 62.3591 16.5021 62.1728 16.4658C61.7126 16.3796 61.3063 16.5066 61.0414 16.9306C60.7474 17.3999 60.7945 17.8828 61.0392 18.3453C61.23 18.7035 61.7844 18.9302 62.2177 18.8214C62.5836 18.7307 62.8686 18.5176 62.8978 18.0732ZM59.6228 15.7335C59.8495 15.924 59.973 16.0282 60.0964 16.1303C60.1974 15.9988 60.3613 15.8763 60.3793 15.7358C60.3905 15.636 60.2109 15.4229 60.1076 15.4184C59.9842 15.4116 59.854 15.5725 59.6228 15.7335Z" fill="#004C99"/>
<path d="M95.3668 32.0455C95.4139 33.0997 95.4184 34.2152 95.3601 35.3873C95.3443 35.7205 95.3219 36.047 95.2972 36.369C95.3017 36.5775 95.3017 36.7952 95.2972 37.0196C95.2927 37.2441 95.2815 37.4617 95.268 37.6703C95.2905 37.7678 95.3129 37.9197 95.3062 38.101C95.3017 38.2348 95.277 38.3323 95.277 38.3527C95.2725 40.4747 95.2658 42.5991 95.2815 44.7211C95.2837 45.068 95.1872 45.1836 94.8415 45.1677C94.2624 45.1405 93.681 45.1587 93.1019 45.1587C93.1019 41.1231 93.1019 37.0876 93.1019 33.0113H86.9918C86.9334 33.0068 86.8728 33.0022 86.8145 32.9977C86.8436 32.7052 86.8728 32.4151 86.902 32.1226C87.0232 32.0954 87.1467 32.0432 87.2679 32.0432C89.9683 32.041 92.6686 32.0432 95.3668 32.0432V32.0455Z" fill="#95B1C1"/>
<path d="M86.9018 32.1226C87.1533 32.3085 87.4069 32.4966 87.6583 32.6826C87.7436 32.6939 87.8334 32.712 87.9254 32.7415C88.5652 32.9342 88.94 33.4489 89.1106 33.7254C88.7762 33.7028 88.426 33.6892 88.0601 33.6869C87.4047 33.6824 88.2172 33.1444 87.6583 33.201C87.7144 32.7794 86.1903 33.1292 86.0848 33.0045C85.7615 32.6191 85.1173 32.9047 84.6167 32.44C84.4529 32.2881 84.3137 32.0999 84.1992 31.8687C85.041 31.9253 85.8805 31.982 86.7223 32.0387C86.7514 32.0387 86.7829 32.041 86.8121 32.0432C86.8412 32.0704 86.8727 32.0976 86.9018 32.1248V32.1226Z" fill="#95B1C1"/>
<path d="M95.341 21.6416C95.3477 22.29 95.3545 22.9384 95.3634 23.5891C94.6092 23.5936 93.8528 23.5981 93.0985 23.6049L93.0918 23.5777C93.0918 22.9384 93.0918 22.2991 93.0918 21.6597L93.1075 21.6439C93.8528 21.6439 94.598 21.6439 95.341 21.6439V21.6416Z" fill="#95B1C1"/>
<path d="M32.3953 49.8291C32.3953 49.0946 32.3953 48.36 32.3953 47.6255C32.3953 46.8932 32.393 46.1586 32.3908 45.4263L32.4087 45.4241C35.814 45.4241 39.2169 45.4241 42.6221 45.4286C42.8197 45.4286 43.0172 45.483 43.2147 45.5125C43.2147 45.8662 43.2147 46.2176 43.217 46.5712C43.2147 46.5962 43.2125 46.6234 43.2103 46.6506C43.0688 46.7186 42.9162 46.773 42.7838 46.8614C40.9453 48.0857 39.9801 49.811 39.8769 52.0328C39.8567 52.7175 39.8342 53.3999 39.8185 54.0846C39.8095 54.4428 39.8185 54.8032 39.8185 55.2136H38.1552V58.9022C36.438 58.9022 34.7208 58.9022 33.0036 58.9068C32.8554 58.9068 32.705 58.9612 32.5569 58.9929C32.5322 58.9634 32.5075 58.934 32.4828 58.9045C32.4536 58.1949 32.4244 57.4875 32.3953 56.7779C32.3953 56.2247 32.4042 55.6716 32.3953 55.1184C32.3953 54.9959 32.3414 54.8735 32.3145 54.7511C32.3436 54.5969 32.393 54.445 32.3953 54.2909C32.4042 53.6833 32.3975 53.0757 32.3975 52.4681C32.3975 51.5884 32.3953 50.711 32.393 49.8314L32.3953 49.8291Z" fill="#DCE7ED"/>
<path d="M32.5605 58.9883C32.7087 58.9588 32.8591 58.9044 33.0072 58.9021C34.7244 58.8953 36.4416 58.8976 38.1588 58.8976C38.1588 58.9837 38.1611 59.0722 38.1633 59.1583C38.1656 59.8316 38.1678 60.5072 38.1723 61.1806L38.1409 61.1942C37.3216 61.1942 36.5 61.1715 35.6807 61.1965C35.1038 61.2146 34.5696 61.0944 34.06 60.8383C33.3799 60.369 32.7918 59.8248 32.5605 58.986V58.9883Z" fill="#95B1C1"/>
<path d="M32.3935 45.5713C32.3868 41.5086 32.3913 38.5908 32.3958 36.6183C32.4003 34.4192 32.3958 32.2201 32.398 30.0187C32.398 29.7874 32.398 29.139 32.3935 28.273C32.3868 27.314 32.3778 26.5341 32.3711 26.0353C36.0434 24.5708 39.7158 23.1062 43.3881 21.6416C47.0807 33.6756 47.1929 43.023 45.6979 44.6735C44.6609 45.8184 43.3185 46.8726 43.3185 46.8726C42.3398 47.6435 41.8505 48.0289 41.195 48.3168C38.6361 49.4481 35.9043 48.2329 35.3521 47.9722C33.9289 47.2988 32.9772 46.3194 32.3935 45.569V45.5713ZM33.2712 32.0773C33.2712 33.1315 33.2667 34.188 33.278 35.2422C33.278 35.4077 33.3251 35.5913 33.4059 35.7296C33.59 36.0448 33.9199 36.0765 34.214 35.979C34.3801 35.9246 34.4497 35.8271 34.4587 35.8362C34.4856 35.8657 33.6798 36.9221 33.3161 36.7725C33.0916 36.6796 33.1388 36.174 33.1433 35.4984C33.1523 34.2787 32.9278 33.068 32.829 31.8505C32.6831 30.0754 32.6247 29.7466 32.8874 29.2751C33.1725 28.7627 33.7471 28.2413 34.407 28.214C35.9088 28.1483 37.0468 30.6558 36.6405 31.1273C36.3734 31.4379 35.287 31.0548 34.5776 30.4903C33.6573 29.758 33.489 28.808 33.2735 28.8647C33.0265 28.9282 33.2735 30.1048 33.2735 32.0727L33.2712 32.0773ZM39.2781 41.3181C38.892 42.2454 41.112 43.5603 40.7685 44.2699C40.2231 45.3899 33.884 43.7734 33.9334 42.6829C33.9446 42.4245 34.6585 42.5945 34.6652 41.9461C34.6787 40.7151 34.6787 39.4817 34.6652 38.2507C34.6652 38.0716 34.6091 37.9242 34.517 37.8131C34.3015 37.5569 33.9289 37.6272 33.9199 37.5841C33.8795 37.3801 41.653 33.8139 44.3803 36.7158C45.1884 37.5751 45.6418 39.0963 45.0963 39.9578C44.0503 41.6129 39.7943 40.0871 39.2803 41.3181H39.2781Z" fill="#DCE7ED"/>
<path d="M32.3933 28.2753C32.3933 28.8579 32.3955 29.4383 32.3978 30.021C31.6144 29.8441 30.7995 29.6424 29.96 29.4066C29.2305 29.2025 28.5324 28.9917 27.8635 28.7718L25.6367 27.6292C27.2574 27.6881 28.8781 27.747 30.4965 27.806C30.6402 27.8309 30.7838 27.8559 30.9275 27.8831C31.4168 28.0146 31.9039 28.1438 32.3933 28.2753Z" fill="#FEB140"/>
<path d="M95.2824 58.4715C95.2083 59.8159 93.967 61.0288 92.4877 61.2011C90.5056 61.1943 88.5236 61.1898 86.5415 61.183C85.6503 60.598 85.2261 59.537 85.4708 58.578C85.7693 57.4172 86.8939 56.9978 86.9904 56.9616C87.0196 56.9321 87.0488 56.9003 87.078 56.8709C88.7278 55.7849 90.0948 54.4133 91.1364 52.7243C91.1364 52.7243 91.8233 51.6088 92.2947 50.337C93.2374 47.7887 93.1297 44.8369 93.105 44.2814C93.83 44.2565 94.5573 44.2293 95.2824 44.2043C95.2824 47.2831 95.2779 50.3619 95.2756 53.4407C95.0287 53.7399 95.0287 54.3725 95.2756 54.6717C95.2779 55.9391 95.2801 57.2064 95.2824 58.4737V58.4715Z" fill="#95B1C1"/>
<path d="M86.7292 23.5826C86.1949 23.5826 85.6607 23.5803 85.1264 23.5894C84.9895 23.5916 84.8526 23.6392 84.7134 23.6664C83.6382 23.8795 82.8997 24.7547 82.8907 25.8406C82.8862 26.4097 82.8952 26.9765 82.8974 27.5455C82.8974 27.5773 82.8974 27.609 82.8952 27.6407L82.8862 27.6339V28.2733C82.462 30.5948 81.7729 31.3022 81.169 31.4654C79.8806 31.8191 78.8053 29.7401 75.9344 29.0917C74.8816 28.8537 73.9545 28.8831 73.2991 28.9557C72.3024 29.5565 71.5145 29.6358 71.0095 29.6109C69.2182 29.5293 68.3697 28.0511 66.0397 27.8062C65.5324 27.7518 65.1171 27.7745 64.8747 27.7972C63.8219 27.9037 43.8957 29.8852 43.5926 29.0509C43.431 28.6065 43.3906 28.144 43.3906 28.144C43.3906 28.144 43.3614 27.813 43.3884 27.5455C43.5073 26.3779 56.0844 24.2672 57.5772 24.0156C58.8477 23.8002 61.786 23.2946 65.1912 21.6441C65.2541 21.6147 65.3169 21.5829 65.3798 21.5535C65.6963 21.5852 66.0105 21.6147 66.327 21.6464C66.4146 21.6464 66.5021 21.6464 66.5874 21.6464C66.85 21.6169 67.1149 21.5875 67.3775 21.558C67.4584 21.5829 67.5257 21.5965 67.5751 21.6056C67.611 21.6124 67.6581 21.6192 67.6738 21.5965C67.6738 21.5965 67.6783 21.5897 67.6828 21.5376C67.6424 21.5104 67.7614 21.5943 67.8018 21.6192C67.8579 21.6577 67.9746 21.6736 68.235 21.5693C68.4124 21.5671 68.5874 21.5625 68.7648 21.5603C68.8927 21.5988 68.9623 21.6192 68.9623 21.6192C69.0252 21.6011 69.0409 21.6033 69.0409 21.6033C69.0813 21.6033 69.0858 21.6283 69.1262 21.6328C69.1598 21.6373 69.1868 21.626 69.198 21.6215C69.2407 21.6056 69.3484 21.5875 69.629 21.5716C69.8355 21.5693 70.0398 21.5671 70.244 21.5648C70.5381 21.6668 70.8344 21.7711 71.1307 21.8754C71.9972 22.1815 72.8569 22.4898 73.7099 22.8027C73.8468 23.1087 73.8692 23.3196 73.7772 23.4307C73.5527 23.6982 72.6616 23.3966 71.1038 22.5238C70.2373 22.322 70.0308 22.2109 70.0375 22.1452C70.0398 22.1157 70.0959 22.1202 70.152 22.059C70.253 21.9502 70.3271 21.7802 70.4191 21.6509C70.5538 21.6079 70.5763 21.6056 70.5763 21.6056C70.6526 21.5965 70.6818 21.6487 70.7671 21.6487C70.8546 21.6487 70.9421 21.6487 71.0319 21.6487C71.2923 21.6215 71.5549 21.5943 71.8153 21.5671C72.0196 21.5671 72.2239 21.5671 72.4281 21.5671C72.601 21.5943 72.7738 21.6215 72.9467 21.6487C73.0342 21.6487 73.124 21.6487 73.2115 21.6487C73.3866 21.6487 73.5617 21.6487 73.7368 21.6487C73.8243 21.6487 73.9119 21.6487 73.9994 21.6487C74.1745 21.6215 74.3474 21.592 74.5224 21.5648C74.7267 21.5648 74.931 21.5693 75.1375 21.5693C75.2452 21.5965 75.353 21.6441 75.463 21.6441C79.2184 21.6441 82.9738 21.6441 86.7314 21.6419V21.6509C86.7314 22.2948 86.7314 22.9364 86.7314 23.5803L86.7292 23.5826Z" fill="#DCE7ED"/>
<path d="M78.7066 18.9211C78.4036 19.5015 78.1477 20.1182 77.7751 20.6487C77.5776 20.9276 77.1915 21.118 76.8503 21.2359C76.444 21.3765 75.9973 21.4014 75.5685 21.4649C75.5147 21.4739 75.4473 21.4037 75.3867 21.3697C75.3935 21.2858 75.4002 21.2042 75.4069 21.1203C75.6942 21.1203 75.9838 21.1271 76.2711 21.1203C76.9401 21.1021 77.4249 20.7008 77.8177 20.2316C78.0759 19.9232 78.1769 19.4834 78.3789 19.1207C78.4328 19.0232 78.5966 18.9846 78.7089 18.9211H78.7066Z" fill="#004C99"/>
<path d="M65.9657 16.6383C65.9702 17.3093 65.9724 17.9827 65.9769 18.6537C65.9747 18.6673 65.9769 18.6855 65.9679 18.6946C65.9522 18.7104 65.932 18.7218 65.9141 18.7354C65.932 18.0348 65.9477 17.3365 65.9657 16.636V16.6383Z" fill="#004C99"/>
<path d="M64.3517 21.7528C64.3831 21.755 64.3854 21.7687 64.4168 21.7664C64.4572 21.7664 64.4864 21.746 64.5088 21.7301C64.529 21.7165 64.5605 21.6916 64.5874 21.6485C64.7019 21.6485 64.8141 21.6508 64.9286 21.653C64.9286 23.265 64.9286 24.8792 64.9286 26.4911C61.9027 26.4911 58.8769 26.4911 55.851 26.4934C55.126 26.4934 54.6029 26.872 54.3785 27.5499C54.3493 27.5499 54.3201 27.5499 54.2909 27.5499C50.6567 27.5499 47.0248 27.5499 43.3906 27.5499C43.3906 25.5843 43.3906 23.6164 43.3906 21.6508V21.644C46.1494 21.644 48.9104 21.6485 51.6713 21.644C51.7926 21.644 51.9138 21.585 52.0327 21.5533C52.0372 21.5714 52.0462 21.5941 52.0574 21.6168C52.0844 21.6689 52.118 21.7029 52.1427 21.7233C52.1787 21.7823 52.436 21.4036 52.436 21.6508C52.5258 21.7052 52.5807 21.483 52.7356 21.5533C52.9039 21.6304 53.9932 21.712 55.3917 21.7233C55.4882 21.7233 55.5755 21.78 55.6743 21.7233C55.6945 21.6077 55.741 21.7641 55.7612 21.6508H55.7881C57.7882 21.6326 58.5693 21.6372 58.823 21.6508C58.8813 21.653 58.9307 21.6576 59.0026 21.6508C59.364 21.6145 59.6154 21.3651 59.7254 21.4445C59.7388 21.4535 59.7725 21.4853 59.8376 21.5283C59.8645 21.5465 59.887 21.5601 59.9004 21.5691C59.9274 21.5782 59.9611 21.5918 59.997 21.61C60.0194 21.6236 60.0396 21.6372 60.0576 21.6508C60.1721 21.6508 60.2843 21.6508 60.3988 21.6508C60.4863 21.6508 60.5739 21.6508 60.6636 21.6508C60.8881 21.6326 61.0183 21.6122 61.0969 21.5873C61.1216 21.5805 61.1799 21.5601 61.236 21.5873C61.2697 21.6032 61.2899 21.6281 61.3011 21.6462C61.3213 21.6508 61.346 21.653 61.373 21.653C61.4022 21.653 61.4268 21.653 61.4493 21.6508C61.6199 21.6258 61.7882 21.6009 61.9588 21.5737C62.1654 21.5737 62.3719 21.5714 62.5784 21.5691C62.7782 21.5691 62.9802 21.5691 63.18 21.5714C63.18 21.5714 63.7636 21.5555 64.0576 21.6485C64.0958 21.6598 64.1474 21.678 64.1789 21.7233C64.1968 21.7505 64.1968 21.7709 64.217 21.7823C64.2507 21.8027 64.2844 21.7482 64.3517 21.7528Z" fill="#DCE7ED"/>
<path d="M93.0888 23.5755C91.0574 23.5755 89.0259 23.5755 86.9944 23.5755C86.9944 22.9362 86.9944 22.2946 86.9922 21.6553C89.0236 21.6553 91.0574 21.6553 93.0888 21.6553C93.0888 22.2946 93.0888 22.9339 93.0888 23.5733V23.5755Z" fill="#DCE7ED"/>
<path d="M86.9911 21.6553C86.9911 22.2947 86.9912 22.9363 86.9934 23.5756C86.9059 23.5756 86.8161 23.5801 86.7285 23.5824C86.7285 22.9385 86.7285 22.2969 86.7285 21.6531C86.8161 21.6531 86.9036 21.6531 86.9911 21.6553Z" fill="#B9CACA"/>
<path d="M86.3888 33.0162C88.6268 33.0162 90.8648 33.0162 93.105 33.0139C93.105 37.0902 93.105 41.1257 93.105 45.1613H93.0893C93.0713 45.1613 93.1678 46.5714 92.9052 46.941C92.5864 47.3921 91.1206 47.1722 86.9949 45.1613C86.5302 44.5763 83.8321 41.0759 84.7277 36.6958C85.0644 35.0498 85.8007 33.8097 86.3888 33.0139V33.0162Z" fill="#DCE7ED"/>
<path d="M103.308 27.5476C103.396 27.5771 103.485 27.6066 103.573 27.6383C103.537 27.8605 103.51 28.0849 103.465 28.3048C103.42 28.5338 103.405 28.8081 103.043 28.688C103.043 28.3411 103.043 27.992 103.041 27.6451L103.306 27.5476H103.308Z" fill="#004C99"/>
<path d="M84.1996 32.0411C84.5745 32.4945 84.9179 32.6373 85.1715 32.6781C85.5352 32.7371 85.7754 32.601 86.1458 32.7371C86.4263 32.8391 86.6149 33.0363 86.7316 33.1882C86.7316 37.0628 86.7249 40.9351 86.7406 44.8096C86.7406 45.2313 86.6306 45.3492 86.2108 45.3469C82.5497 45.331 78.8864 45.3378 75.2253 45.3378C75.1983 44.9819 75.1691 44.6282 75.1422 44.2723C74.9536 43.3972 74.3117 42.8757 73.4048 42.8735C70.6685 42.8667 67.9322 42.8644 65.1959 42.8599C65.032 42.7624 63.9838 42.1208 63.8109 40.8965C63.7772 40.6585 63.674 39.9307 64.1409 39.2755C64.4686 38.8175 64.9108 38.6248 65.1084 38.5546C65.1667 38.4956 65.2251 38.4389 65.2834 38.38C65.4204 38.3573 65.5573 38.3188 65.6942 38.3029C65.7907 38.2916 65.8087 38.2984 65.8312 38.2938C66.1073 38.2281 65.775 37.0129 66.0893 36.6139C66.8458 35.6594 71.5372 39.1145 73.0277 37.8268C73.1242 37.7429 73.4766 37.6341 73.4766 36.5889C73.4789 34.0575 73.4699 31.1977 73.4856 28.4998C73.4856 28.1098 73.4003 27.9738 72.985 27.9783C70.3879 27.9988 67.7908 27.9874 65.1914 27.9874C65.1914 27.9602 65.1914 27.9307 65.1914 27.9035C67.9255 27.9013 70.6618 27.899 73.3958 27.8967C76.3745 27.899 79.3533 27.9013 82.332 27.9103C82.5161 27.9103 82.6979 27.9647 82.8819 27.9942C82.8842 28.4771 82.9223 28.96 82.8842 29.4384C82.7899 30.5901 83.2187 31.4539 84.2018 32.0411H84.1996Z" fill="#DCE7ED"/>
<path d="M84.1995 31.8665C83.2185 31.2793 82.7875 30.4156 82.8818 29.2639C82.92 28.7855 82.8818 28.3003 82.8818 27.8197C82.8885 27.7879 82.8953 27.7585 82.9043 27.729C84.1793 27.729 85.4565 27.729 86.7315 27.729C86.7315 29.1664 86.727 30.6015 86.727 32.0388C85.8852 31.9822 85.0435 31.9255 84.2039 31.8688L84.1995 31.8665Z" fill="#004C99"/>
<path d="M86.7281 27.5499C85.4508 27.5499 84.1758 27.5476 82.8986 27.5453C82.8964 26.9763 82.8874 26.4072 82.8919 25.8404C82.9008 24.7568 83.6394 23.8794 84.7146 23.6663C85.2645 23.6685 85.8145 23.6844 86.3622 23.6685C86.6473 23.6595 86.737 23.7592 86.7348 24.0449C86.7213 25.2124 86.7281 26.38 86.7281 27.5499Z" fill="#004C99"/>
<path d="M54.1311 65.7715C54.0907 66.0617 54.0503 66.3519 54.0099 66.6399C53.5228 67.821 52.69 68.5737 51.4128 68.771C48.8247 68.771 46.2343 68.771 43.6461 68.7664C43.5025 68.7664 43.3588 68.7551 43.2151 68.7483C43.2151 68.3742 43.2151 68.0001 43.2129 67.6261C44.3981 66.6943 45.6574 66.4449 46.3128 66.9595C46.443 67.0615 46.5979 67.2316 46.7079 67.5286C49.0469 67.5195 51.7136 65.5154 52.4588 63.2119C52.5127 63.0918 52.5666 62.9716 52.6205 62.8492C52.6294 62.822 52.6362 62.7948 52.6429 62.7676C53.1031 62.7676 53.5655 62.7698 54.0256 62.7721C54.0548 62.9399 54.1042 63.1099 54.1065 63.2777C54.1222 64.1097 54.1244 64.9418 54.1334 65.7738L54.1311 65.7715Z" fill="#004C99"/>
<path d="M38.6766 67.3542C38.6048 66.9529 38.5329 66.5516 38.4588 66.1503C38.3848 64.8422 38.3085 63.5363 38.2344 62.2282C38.7529 62.0083 39.4735 61.7725 40.3511 61.6795C41.7922 61.5276 42.9595 61.8337 43.6329 62.0695C43.927 62.9537 44.2098 64.0328 44.3781 65.282C44.4971 66.1662 44.5375 66.9779 44.5353 67.6943C43.5005 67.599 42.6564 67.5945 42.0571 67.6104C41.2939 67.6308 40.5464 67.5786 39.4735 67.5197C39.2063 67.5061 38.9437 67.4131 38.6788 67.3542H38.6766Z" fill="#004C99"/>
<path d="M38.6764 67.3542C38.9412 67.4109 39.2039 67.5039 39.471 67.5198C40.3307 67.5674 41.1927 67.5878 42.0546 67.6104C42.4138 67.6195 42.7752 67.6036 43.1344 67.6014L43.1725 67.6059L43.2107 67.5968V67.6286C43.2107 68.0026 43.2107 68.3767 43.2107 68.7508C42.425 68.7576 41.6394 68.7644 40.8537 68.7712C40.7752 68.7621 40.6944 68.7553 40.6158 68.7463C39.8167 68.4969 39.1163 68.1092 38.6719 67.3542H38.6764Z" fill="#004C99"/>
<path d="M38.1607 59.1607C38.1607 59.0745 38.1585 58.9861 38.1562 58.9C38.1562 57.687 38.1562 56.4741 38.1562 55.2113H39.8196C39.8196 54.801 39.8128 54.4428 39.8196 54.0823C39.8353 53.3976 39.8577 52.7152 39.8779 52.0305C39.8779 53.0711 39.8779 54.114 39.8779 55.1932H41.6333C42.0463 55.1932 42.4616 55.1932 42.8746 55.1932C42.9577 55.1977 43.0407 55.2022 43.1238 55.2068C43.1238 56.5195 43.126 57.8299 43.1283 59.1425L43.1238 59.1697C41.4694 59.1652 39.8128 59.1629 38.1585 59.1584L38.1607 59.1607Z" fill="#16557F"/>
<path d="M41.6355 55.1908C41.0294 55.1976 40.4256 55.2021 39.8195 55.2089C39.604 53.4972 39.7746 52.1324 39.9542 51.2528C40.0934 50.5635 40.2415 49.863 40.6949 49.0468C40.9262 48.6274 41.5996 47.648 42.787 46.8568C42.9172 46.7706 43.0698 46.7162 43.2135 46.6482C43.328 47.3306 43.4425 48.013 43.5592 48.6977C43.3706 48.6932 43.2315 48.7317 43.2135 48.7997C43.2113 48.811 43.2113 48.8246 43.2158 48.8405C43.1529 48.8723 43.0901 48.904 43.0272 48.9357C42.9082 49.0786 42.8027 49.2373 42.668 49.3597C41.9161 50.0444 41.6826 50.9467 41.6512 51.9102C41.6153 53.003 41.64 54.098 41.6377 55.1908H41.6355Z" fill="#004C99"/>
<path d="M38.1602 59.1606C40.2141 59.156 42.268 59.1515 44.3196 59.147C44.2658 59.6253 44.1647 60.1899 43.9762 60.8111C43.7315 61.6159 43.4128 62.2734 43.1232 62.7699C40.7618 62.7563 39.0648 62.7744 38.6899 62.7789C38.3173 62.7835 38.2208 62.661 38.2342 62.3028C38.2477 61.931 38.1938 61.5547 38.1691 61.1806C38.1669 60.5073 38.1646 59.8317 38.1602 59.1583V59.1606Z" fill="#004C99"/>
<path d="M32.4113 21.6395C32.409 20.2044 32.3866 18.7693 32.4068 17.3342C32.4293 15.7994 33.8344 14.3552 35.3384 14.3416C37.9333 14.3212 40.5304 14.3416 43.1253 14.3416C43.1253 16.772 43.1253 19.2023 43.1253 21.6327C39.5539 21.6327 35.9826 21.635 32.4113 21.6372V21.6395ZM35.1543 16.45C34.5034 16.4455 33.9916 16.9307 33.9871 17.5541C33.9826 18.1595 34.537 18.7262 35.1229 18.7126C35.7739 18.699 36.2408 18.2207 36.243 17.5632C36.243 16.9284 35.7806 16.4546 35.1566 16.45H35.1543ZM41.3318 16.45C40.6628 16.45 40.16 16.9511 40.1757 17.6063C40.187 18.1799 40.7549 18.7285 41.3205 18.7126C41.9311 18.6945 42.4294 18.1957 42.4339 17.5972C42.4384 16.9352 41.9737 16.45 41.3318 16.45ZM38.2183 16.45C37.5741 16.45 37.1072 16.9261 37.1095 17.5881C37.1095 18.2025 37.6437 18.7262 38.2565 18.7126C38.8154 18.699 39.3744 18.1731 39.3609 17.6153C39.3429 16.874 38.8648 16.4432 38.2206 16.45H38.2183Z" fill="#004C99"/>
<path d="M32.4122 21.6395C35.9835 21.6395 39.5549 21.6373 43.1262 21.635V21.6531C43.1262 23.4714 43.1172 25.2919 43.1329 27.1102C43.1352 27.4616 43.0319 27.5568 42.6907 27.5545C39.2608 27.5432 35.8331 27.5454 32.4032 27.5454L32.3965 27.5477C32.401 25.5776 32.4055 23.6074 32.41 21.6373L32.4122 21.6395Z" fill="#DCE7ED"/>
<path d="M93.0984 45.4217C93.1298 48.0425 92.5103 50.4888 91.1342 52.7219C90.0927 54.4132 88.7279 55.7848 87.0758 56.8685C87.0466 56.703 86.9928 56.5352 86.9928 56.3697C86.9883 52.7219 86.9883 49.0718 86.9883 45.424C89.022 45.424 91.0534 45.424 93.0871 45.424L93.0961 45.4194L93.0984 45.4217Z" fill="#DCE7ED"/>
<path d="M95.275 53.4385C95.275 53.8488 95.275 54.2592 95.275 54.6695C95.0281 54.3703 95.0281 53.7377 95.275 53.4385Z" fill="#004C99"/>
<path d="M86.7245 61.1831C79.5459 61.1831 72.3673 61.1831 65.1888 61.1853C65.1888 60.58 65.1977 59.9747 65.182 59.3694C65.1775 59.2424 65.0788 59.1177 65.0226 58.9908L65.0137 58.9817C65.0137 58.9545 65.0137 58.9273 65.0204 58.9001C65.0765 58.9001 65.1326 58.9001 65.1888 58.8978C70.3179 58.8978 75.4448 58.8978 80.574 58.9023C81.7592 58.9023 82.9152 58.7096 84.0218 58.3106C84.9444 57.9773 85.8288 57.5307 86.729 57.1362C86.729 58.4852 86.729 59.8341 86.7267 61.1831H86.7245Z" fill="#95B1C1"/>
<path d="M65.1895 26.4933C67.3489 26.4933 69.5083 26.5024 71.6699 26.491C72.4735 26.4865 73.0774 26.7676 73.3916 27.552H73.3871C70.6553 27.552 67.9258 27.552 65.1939 27.552C65.1939 27.2006 65.1939 26.8492 65.1939 26.4956L65.1895 26.4933Z" fill="#D8DBD2"/>
<path d="M66.5879 21.6486V20.3132C66.8887 20.7871 67.1334 21.1747 67.378 21.5602C67.1154 21.5896 66.8528 21.6191 66.5879 21.6486Z" fill="#004C99"/>
<path d="M73.3974 20.5105C73.6578 20.4946 73.7498 20.6329 73.7409 20.8778C73.7319 21.134 73.7364 21.3924 73.7364 21.6486C73.5613 21.6486 73.3862 21.6486 73.2111 21.6486C73.2762 21.27 73.0338 20.8392 73.3974 20.5105Z" fill="#004C99"/>
<path d="M64.6097 19.5627C63.4559 20.5104 61.8936 20.6646 60.7218 19.9686C59.4109 19.1887 59.1887 17.7059 59.155 17.4407C59.1393 17.3251 58.9463 15.6995 59.6129 15.3867C60.5961 14.9242 62.4929 16.4205 62.5355 16.3525C62.576 16.2867 60.43 15.237 60.54 14.7224C60.8183 13.4074 75.8781 15.0942 75.8624 16.425C75.8601 16.688 73.7523 17.2684 69.5368 18.4178C68.2349 18.7738 67.1192 19.0708 66.2595 19.2952C65.7096 19.3859 65.1574 19.4743 64.6074 19.565L64.6097 19.5627Z" fill="#004C99"/>
<path d="M54.377 27.55C54.6037 26.8744 55.1267 26.4957 55.8517 26.4935C58.8776 26.4912 61.9035 26.4912 64.9293 26.4912V26.4957C64.9293 26.6567 64.9293 26.8177 64.9293 26.9809C64.9293 27.3603 64.7408 27.55 64.3637 27.55C61.0348 27.55 57.7081 27.55 54.3792 27.55H54.377Z" fill="#D8DBD2"/>
<path d="M60.8449 20.5149C60.9594 20.5716 61.0717 20.626 61.1861 20.6827C61.1861 20.8255 61.1637 20.9706 61.1861 21.1089C61.2467 21.5283 61.1098 21.7369 60.6631 21.6507C60.7103 21.2699 60.5105 20.8482 60.8472 20.5149H60.8449Z" fill="#004C99"/>
<path d="M86.9922 45.2473C86.9922 45.2178 86.9922 45.1906 86.9922 45.1611C89.0236 45.1611 91.0551 45.1611 93.0866 45.1611C93.0888 45.1906 93.0933 45.2201 93.0955 45.2496C91.0618 45.2496 89.0259 45.2496 86.9922 45.2496V45.2473Z" fill="#D7E5E2"/>
<path d="M65.1896 27.8108C67.8204 27.6136 69.3109 27.8879 70.9855 27.8018C71.6611 27.7678 72.3502 27.9967 73.0124 27.8607C73.0708 27.8494 73.2616 27.804 73.3828 27.9083C73.5152 28.0217 73.4838 28.2529 73.4838 28.3255C73.4793 29.0872 73.4771 29.849 73.4748 30.613C73.4748 31.7171 73.4793 35.7702 73.4748 36.4146C73.4703 37.0591 73.5152 37.36 73.1202 37.7591C72.7116 38.1694 72.0652 38.1309 71.7913 38.115C69.2705 37.9722 66.8485 37.8339 65.2682 38.5276C64.7676 38.7475 64.0269 39.1919 63.3063 40.2053C63.7395 39.1465 64.0291 37.9994 63.5218 37.4553C63.0078 36.9066 62.0313 37.3464 61.845 36.9633C61.5824 36.4214 63.1469 34.7483 65.1537 34.1407C66.3771 33.7712 68.0022 33.7235 68.2065 34.2563C68.3187 34.551 67.9753 34.9659 67.6296 35.2969V34.5012H65.1919C64.5791 35.2811 63.6318 35.6551 62.7451 35.4692C61.9662 35.306 61.2614 34.7166 61.0549 34.0069C60.6014 32.4517 62.4331 29.9896 64.1773 29.9261C66.4399 29.8445 70.9359 33.4867 70.5769 33.5308C70.218 33.5749 70.9473 33.4696 71.0281 33.4492V32.6512C69.055 32.6512 67.1223 32.6512 65.1896 32.6512C65.2053 32.5605 65.2233 32.3995 65.1829 32.2136C64.918 30.9418 62.5431 30.8465 62.5274 30.3183C62.5072 29.5565 67.4164 28.3028 68.229 29.6676C68.5836 30.2616 68.3457 31.6536 68.5724 31.6831C68.5904 31.6831 68.6218 31.6831 68.6846 31.6718C68.7946 31.6536 68.9046 31.6128 69.0169 31.5879V30.7989H65.0976C65.0976 30.4566 65.0953 30.112 65.0931 29.7696C67.0617 29.7696 69.0326 29.7696 71.0057 29.7696V28.9512C68.7856 29.5724 66.5656 30.1913 64.3456 30.8125C61.0841 29.5837 60.9426 28.9693 60.9786 28.7562C61.0841 28.1169 63.2524 27.9559 65.1851 27.8108H65.1896Z" fill="#F5FAEE"/>
<path d="M65.194 42.6852C67.9303 42.6897 70.6666 42.692 73.4029 42.6988C74.312 42.6988 74.9518 43.2202 75.1403 44.0976C75.183 44.3629 75.2167 44.644 75.2413 44.9365C75.3311 46.0474 75.2391 47.0381 75.0842 47.8565C75.0528 47.5505 74.9136 46.4577 74.3233 45.9045C74.2604 45.8456 74.211 45.7776 74.1145 45.73C73.697 45.5237 73.2503 45.959 73.0258 45.7957C72.9495 45.739 72.8844 45.6007 72.9495 45.2312C72.9383 45.2221 72.9136 45.204 72.9024 45.1949C72.8866 45.1836 72.8709 45.17 72.8552 45.1586C72.4355 44.6689 71.8541 44.6667 71.3558 45.1518C70.7901 45.1518 70.2244 45.1473 69.6588 45.1609C69.3916 45.1677 69.1245 45.2131 68.8596 45.2425C68.8237 45.2153 68.7856 45.1859 68.7497 45.1586C68.294 44.6667 67.7912 44.6644 67.2075 45.1518C66.5364 45.1518 65.8652 45.1518 65.194 45.1518C65.194 44.4921 65.203 43.8301 65.1873 43.1704C65.1851 43.0389 65.084 42.9096 65.0279 42.7781C65.0234 42.7555 65.0234 42.7351 65.0234 42.7124C65.0818 42.7011 65.1402 42.692 65.1963 42.6807L65.194 42.6852Z" fill="#004C99"/>
<path d="M65.0225 58.9905C65.2604 59.0268 68.6948 59.5596 68.6791 60.1785C68.6634 60.7906 65.2806 61.1488 65.0225 61.176C63.1976 61.2327 61.7205 61.2123 60.6947 61.1828C59.5611 61.1488 58.4253 61.1806 57.294 61.1057C56.9056 61.0808 55.9472 61.0105 54.7058 61.1964C54.4993 61.2282 54.3287 61.2576 54.2142 61.2803C54.2097 61.7768 54.2053 62.2756 54.2008 62.7721C54.2008 62.8016 54.2008 62.831 54.2008 62.8605C54.2008 62.9195 54.203 62.9807 54.2053 63.0396C54.2008 63.7968 54.2008 64.5541 54.1918 65.309C54.1918 65.4632 54.1514 65.6196 54.1312 65.7738C54.1245 64.9418 54.12 64.1097 54.1042 63.2777C54.102 63.1076 54.0504 62.9399 54.0234 62.7721C54.0526 62.695 54.1042 62.6179 54.1042 62.5408C54.111 61.4141 54.1132 60.2873 54.1132 59.1583C54.1132 57.8433 54.111 56.5261 54.1087 55.2112C54.1379 55.3336 54.1895 55.4538 54.1918 55.5762C54.2142 56.483 54.2097 56.4966 55.0829 56.5171C55.3568 56.5239 55.4331 56.6236 55.4241 56.8821C55.4107 57.3944 55.4443 57.9113 55.4129 58.4215C55.3882 58.8137 55.5139 58.9157 55.9 58.9134C58.9057 58.8976 61.9136 58.9066 64.9192 58.9066C64.9484 58.9316 64.9799 58.9588 65.009 58.9837L65.018 58.9928L65.0225 58.9905Z" fill="#95B1C1"/>
<path d="M52.726 63.1303C52.4208 63.7379 51.5274 65.3861 49.9359 66.4676C49.579 66.7101 48.8921 67.1794 47.8909 67.413C47.4712 67.5105 46.9414 67.549 46.7057 67.5717C46.5957 67.5807 46.3915 67.5989 45.3365 67.6533C44.892 67.676 44.6675 67.6873 44.5329 67.6941C43.4172 67.7417 42.0592 67.7077 42.0547 67.6102C42.0502 67.5286 42.9795 67.7394 43.3813 67.2361C43.9829 66.4834 43.3881 64.1165 43.3813 63.4183C43.3791 63.1394 43.4913 63.0669 43.7427 63.0759C44.149 63.0895 44.5531 63.0782 44.9594 63.0782C45.4981 63.1575 45.6552 63.314 45.6934 63.4432C45.745 63.6087 45.6036 63.7221 45.5475 64.1823C45.5318 64.3047 45.5318 64.3841 45.4891 64.511C45.4442 64.647 45.3836 64.7332 45.4128 64.7627C45.4487 64.7967 45.5654 64.6833 45.6126 64.7151C45.7158 64.7831 45.4307 65.47 45.3971 65.4587C45.3724 65.4496 45.4038 65.0597 45.6126 64.9576C45.7742 64.8783 45.8954 65.0438 46.1468 65.0438C46.5082 65.0438 46.9235 64.706 46.9998 64.341C47.0694 63.9964 46.7843 63.8105 46.9078 63.4749C46.9594 63.3366 47.0582 63.2051 47.222 63.0827C47.1794 62.9376 47.1435 62.7449 47.1771 62.525C47.4577 60.7657 51.9808 59.5346 52.9572 60.743C53.2244 61.074 53.3411 61.7292 52.7171 63.1326L52.726 63.1303Z" fill="#004C99"/>
<path d="M54.1155 59.1582C54.1155 60.285 54.1132 61.4117 54.1065 62.5408C54.1065 62.6179 54.0526 62.6949 54.0257 62.772C53.5655 62.772 53.1031 62.7698 52.643 62.7675L52.625 62.7766C52.6564 62.6949 52.6946 62.6179 52.717 62.534C53.0133 61.4299 52.9886 60.3008 52.9842 59.1718C53.3613 59.1673 53.7406 59.1627 54.1177 59.1582H54.1155Z" fill="#004C99"/>
<path d="M41.6358 55.1909C41.6358 54.0981 41.6134 53.0031 41.6493 51.9103C41.6807 50.9468 41.9142 50.0445 42.6662 49.3598C42.8031 49.2351 42.9063 49.0787 43.0276 48.9358C43.1712 48.7273 43.2902 48.6683 43.3845 48.6728C43.9501 48.7069 44.5764 51.0874 43.8244 51.7834C43.6134 51.9783 42.8884 52.4499 43.1218 52.2844C44.3811 53.1731 44.7515 54.3588 44.3968 54.8712C44.0444 55.3791 42.9939 55.2113 42.8772 55.1931C42.4641 55.1931 42.0489 55.1931 41.6358 55.1931V55.1909Z" fill="#95B1C1"/>
<path d="M42.877 55.1932C42.9331 54.2727 42.9869 53.3545 43.0453 52.4341C43.0476 52.3819 43.0947 52.3343 43.1216 52.2844C43.1216 53.2525 43.1261 54.2206 43.1284 55.1909V55.2068C43.0431 55.2022 42.96 55.1977 42.877 55.1932Z" fill="#C4D9D4"/>
<path d="M43.2113 46.6482C43.2966 46.5711 43.4043 46.4873 43.5525 46.4215C43.6198 46.3898 43.6782 46.3716 43.7141 46.3603C43.6064 46.4011 43.5525 46.4215 43.5525 46.4215C43.5525 46.4215 43.7119 46.3626 43.7141 46.3603C45.3213 45.6983 46.9285 45.6915 48.5425 46.3399C49.6985 46.8047 50.5919 47.5959 51.3371 48.5798C52.0195 49.6431 52.4168 50.8039 52.4505 52.0712C52.4774 53.1096 52.4528 54.1502 52.4505 55.1885C51.8691 55.1885 51.29 55.1885 50.7086 55.1908C50.7086 54.1683 50.7288 53.1436 50.7041 52.1211C50.6817 51.1848 50.4393 50.3074 49.8354 49.5615C49.6536 49.303 48.6794 47.9609 46.8657 47.6684C44.6389 47.3102 43.0833 48.8406 42.9262 48.9993C42.8207 48.9312 42.1989 48.5254 42.2012 47.9564C42.2012 47.5528 42.5401 47.249 43.2135 46.6414L43.2113 46.6482Z" fill="#004C99"/>
<path d="M43.4788 48.5072C45.407 47.0018 48.4665 47.4393 49.838 49.5682C49.719 49.5183 49.5956 49.4752 49.4789 49.4186C47.9098 48.6749 46.3654 48.7384 44.9558 49.7428C44.3475 50.1758 43.9097 50.8514 43.3957 51.4182C43.3935 50.5045 43.389 49.5886 43.3867 48.6727C43.4181 48.6183 43.4496 48.5616 43.481 48.5072H43.4788Z" fill="#95B1C1"/>
<path d="M51.3372 48.5821C50.5942 47.5959 49.6985 46.8046 48.5425 46.3421C46.9286 45.6937 45.3214 45.7006 43.7142 46.3626C43.6087 46.4056 43.4964 46.4396 43.3887 46.4804C43.3887 45.3015 43.3887 44.1203 43.3909 42.9414C43.346 32.2519 44.3135 29.4497 45.3505 29.2638C45.456 29.2456 45.5363 28.994 46.066 29.0031C47.8707 29.028 49.1598 29.0892 49.7659 29.0031C55.0656 28.2572 55.7593 27.9806 56.1857 28.4635C57.0006 29.3885 55.0814 30.8802 55.656 33.0454C56.096 34.7049 58.3676 35.9836 62.8907 38.4729C64.4104 39.3072 65.1691 39.7266 65.5978 39.8627C70.4419 41.3952 75.2837 37.9016 75.3264 37.9968C75.3623 38.0762 72.0289 40.6539 65.737 42.4721C60.2981 44.0433 55.6829 44.6713 52.6122 44.9524C52.6032 45.0726 52.5538 45.8071 52.5403 46.3807C52.5291 46.8908 52.5493 47.147 52.5538 47.3261C52.5807 48.2828 53.2833 49.0355 54.1992 49.0378C57.775 49.0468 61.3486 49.0378 64.9244 49.0332C64.9558 49.0423 64.985 49.0514 65.0164 49.0627C65.0164 49.0877 65.0164 49.1103 65.0164 49.1353C64.9872 49.303 64.9356 49.4685 64.9356 49.6363C64.9289 52.7287 64.9289 55.8211 64.9266 58.9134C61.921 58.9134 58.9131 58.9044 55.9074 58.9203C55.5236 58.9203 55.3956 58.8205 55.4203 58.4283C55.454 57.9182 55.4203 57.4013 55.4315 56.8889C55.4383 56.6304 55.3642 56.5307 55.0903 56.5239C54.2171 56.5035 54.2194 56.4921 54.1992 55.583C54.1969 55.4606 54.1453 55.3404 54.1161 55.218C54.0016 55.2112 53.8872 55.2067 53.7727 55.1999C53.7727 54.717 53.7637 54.2341 53.7682 53.7512C53.7794 52.4816 53.5235 51.2709 52.8075 50.2235C52.3967 49.625 51.8355 49.1307 51.3417 48.5912L51.3372 48.5821Z" fill="#DCE7ED"/>
<path d="M35.1558 16.45C35.7799 16.4545 36.2445 16.9283 36.2423 17.5631C36.2423 18.2183 35.7754 18.699 35.1222 18.7126C34.5386 18.7239 33.9819 18.1594 33.9864 17.5541C33.9908 16.9306 34.5026 16.4477 35.1536 16.45H35.1558Z" fill="#1E1E1E"/>
<path d="M41.3321 16.45C41.9718 16.45 42.4365 16.9351 42.4342 17.5971C42.4297 18.1957 41.9314 18.6944 41.3208 18.7126C40.7552 18.7284 40.1873 18.1798 40.176 17.6062C40.1626 16.951 40.6631 16.45 41.3321 16.45Z" fill="#1E1E1E"/>
<path d="M38.2186 16.45C38.8628 16.4432 39.3409 16.874 39.3589 17.6153C39.3723 18.1731 38.8134 18.699 38.2545 18.7126C37.6417 18.7262 37.1074 18.2025 37.1074 17.5881C37.1074 16.9239 37.5721 16.4478 38.2163 16.45H38.2186Z" fill="#1E1E1E"/>
<path d="M86.7285 45.4263C86.7577 45.4263 86.7869 45.4263 86.8161 45.4263C86.8138 49.2985 86.8116 53.1686 86.8093 57.0408C86.7824 57.0476 86.7555 57.0499 86.7285 57.0499C86.7285 53.1754 86.7285 49.3008 86.7285 45.4285V45.4263Z" fill="#D7E5E2"/>
<path d="M92.9027 45.2494C92.4942 48.6682 91.273 53.4292 87.4952 56.551C87.2438 56.7596 86.9879 56.9546 86.7275 57.136C85.8274 57.5327 84.943 57.9771 84.0204 58.3104C82.5726 58.8318 81.3425 58.8613 80.5725 58.9021C78.2111 59.0336 72.0718 59.1084 63.8809 58.9814C64.3051 54.9799 63.7148 53.2501 63.0593 52.4203C62.8753 52.1868 62.1884 51.3933 62.1816 50.3164C62.1816 50.1509 62.1772 49.5002 62.5251 49.0264C62.9942 48.3871 63.919 48.3304 66.5768 48.5027C67.9685 48.5934 71.9192 48.8813 72.862 48.3667C73.0797 48.2488 73.367 47.9608 73.8182 47.9608C73.9731 47.9608 74.2537 47.9949 74.3906 47.8248C74.4467 47.7568 74.4333 47.7092 74.4871 47.6503C74.5634 47.5664 74.7318 47.5097 75.1426 47.6298C75.1695 47.1424 75.1987 46.6527 75.2189 46.1653C75.2301 45.9182 75.2256 45.671 75.2279 45.4239C75.1807 44.5851 75.3693 43.9911 75.6499 43.5603C78.2829 39.5294 92.1777 44.9569 92.9005 45.2425L92.9027 45.2494Z" fill="#DCE7ED"/>
<path d="M73.3868 27.6384C70.655 27.6384 67.9232 27.6384 65.1914 27.6384C65.1914 27.6089 65.1914 27.5817 65.1914 27.5522C67.9232 27.5522 70.6528 27.5522 73.3846 27.5522C73.3846 27.5817 73.3868 27.6112 73.3846 27.6407L73.3868 27.6384Z" fill="#D9DBD5"/>
<path d="M65.0143 26.4956C65.0143 26.8742 65.0143 27.2551 65.0143 27.6337C61.6046 27.6337 58.1949 27.636 54.7852 27.6337C54.6505 27.6337 54.5136 27.5793 54.3789 27.5498C57.7078 27.5498 61.0345 27.5498 64.3634 27.5498C64.7405 27.5498 64.929 27.3601 64.929 26.9808C64.929 26.8198 64.929 26.6588 64.929 26.4956C64.9582 26.4956 64.9851 26.4956 65.0143 26.4956Z" fill="#D9DBD5"/>
<path d="M64.8443 38.8222C64.6265 39.2008 64.411 39.5839 64.191 39.9603C63.9756 40.3298 63.7488 40.323 63.5289 39.9399C63.2819 39.5091 63.0305 39.0806 62.7993 38.6431C62.604 38.2735 62.3437 38.099 61.8992 38.1035C59.9239 38.1262 57.9485 38.1148 55.9732 38.1126C54.9339 38.1126 54.2919 37.4642 54.2919 36.4213C54.2919 33.7234 54.2986 31.0232 54.2852 28.3253C54.2852 27.9422 54.357 27.7971 54.779 27.7993C58.1932 27.8197 61.6051 27.8107 65.0193 27.8129C65.0193 28.221 65.0171 28.6291 65.0149 29.0372C64.86 29.0123 64.7051 28.9647 64.5502 28.9647C62.0541 28.9601 59.5602 28.9601 57.0641 28.9647C56.9384 28.9647 56.8149 28.9851 56.6892 28.9941V29.7423H65.1091L65.1002 29.7695C65.1002 30.1118 65.1024 30.4564 65.1046 30.7988C65.0732 30.8305 65.044 30.86 65.0126 30.8917C64.8577 30.8645 64.7028 30.8146 64.5502 30.8124C62.7499 30.8078 60.9474 30.8078 59.1472 30.8101C59.0215 30.8101 58.8958 30.8282 58.7701 30.8396V31.6127H65.0193C65.0193 31.9618 65.0193 32.3087 65.0193 32.6578C65.0193 32.6578 65.0261 32.6692 65.0261 32.6669C62.2449 32.6669 59.4615 32.6669 56.6107 32.6669C56.6623 32.9752 56.7005 33.211 56.7386 33.4468C59.4704 33.4468 62.2022 33.4468 64.9318 33.4468C64.961 33.4536 64.9902 33.4581 65.0171 33.4649C65.0171 33.8118 65.0171 34.1609 65.0193 34.5078C65.0193 34.5078 65.0261 34.5192 65.0261 34.5169C63.4862 34.5124 61.9486 34.5078 60.4087 34.5078C60.3167 34.5078 60.2247 34.5622 60.1326 34.5917C60.1326 34.8297 60.1326 35.0678 60.1326 35.3036C60.283 35.3308 60.6119 35.1994 60.7622 35.1994C62.3515 35.0159 63.4817 35.3875 64.9318 35.3875C64.9318 36.2739 64.9273 37.1626 64.934 38.0491C64.934 38.2169 64.9812 38.3824 65.0081 38.5501C65.0081 38.5796 65.0081 38.6091 65.0104 38.6408C64.9542 38.702 64.9004 38.7632 64.8443 38.8222Z" fill="#F5FAEE"/>
<path d="M65.174 32.6533H71.1157C71.1157 32.9889 71.1157 33.2541 71.1157 33.5171C69.2571 33.5171 67.3963 33.5171 65.5377 33.5126C65.3828 33.5126 65.2279 33.4604 65.073 33.4332C65.0483 33.1793 65.0236 32.9254 64.9989 32.6715L64.9922 32.6601C65.0528 32.6601 65.1112 32.6556 65.1718 32.6556L65.174 32.6533Z" fill="#95A9B7"/>
<path d="M65.1021 29.0441C65.1313 29.0146 65.1628 28.9828 65.1919 28.9534C67.1201 28.9534 69.0506 28.9534 71.0102 28.9534V29.7718C69.0371 29.7718 67.0663 29.7718 65.0977 29.7718L65.1066 29.7446C65.1066 29.5111 65.1044 29.2798 65.1021 29.0463V29.0441Z" fill="#95A9B7"/>
<path d="M65.0117 30.894C65.0431 30.8622 65.0723 30.8328 65.1037 30.801C66.3922 30.801 67.6807 30.801 69.023 30.801C69.023 31.1026 69.023 31.3451 69.023 31.59C67.8086 31.5945 66.5965 31.5991 65.3821 31.5991C65.2878 31.5991 65.1935 31.5515 65.1015 31.5265C65.0723 31.3157 65.0431 31.1048 65.014 30.894H65.0117Z" fill="#95A9B7"/>
<path d="M67.6288 35.4985C66.906 35.5008 66.1832 35.5099 65.4581 35.4985C65.3347 35.4985 65.2112 35.4215 65.09 35.3806C65.0675 34.9998 65.0429 34.6212 65.0204 34.2403L65.0137 34.2244C65.072 34.2221 65.1304 34.2199 65.191 34.2153H67.6288V35.4985Z" fill="#95A9B7"/>
<path d="M67.2031 45.1566C67.7867 44.6692 68.2896 44.6714 68.7452 45.1634C68.2514 45.1906 67.7553 45.2156 67.2615 45.2428C67.2413 45.2133 67.2233 45.1861 67.2031 45.1566Z" fill="#FAB142"/>
<path d="M71.3535 45.1566C71.8518 44.6714 72.4332 44.6737 72.853 45.1634C72.3591 45.1906 71.8631 45.2201 71.3692 45.2473C71.3647 45.2178 71.358 45.1884 71.3535 45.1589V45.1566Z" fill="#FBB141"/>
<path d="M60.1289 35.3036C60.1289 35.0111 60.1289 34.7164 60.1289 34.4239C61.57 34.4239 63.0134 34.442 64.4545 34.4126C64.845 34.4058 64.9842 34.5554 64.9258 35.0224C64.9146 35.1109 64.9214 35.2015 64.9214 35.2922C63.3254 35.2968 61.7271 35.299 60.1311 35.3036H60.1289Z" fill="#95A9B7"/>
<path d="M65.0055 38.5523C64.9808 38.3845 64.9337 38.219 64.9314 38.0513C64.9247 37.1648 64.9292 36.2761 64.9292 35.3896C64.9584 35.5415 65.01 35.6912 65.0123 35.8431C65.0212 36.7205 65.019 37.5956 65.019 38.473C65.019 38.5002 65.0123 38.5251 65.0055 38.5523Z" fill="#F7FAF2"/>
<path d="M73.4772 49.0493C71.3829 49.2284 67.5669 49.0698 66.3166 49.0335C65.6409 49.0153 65.082 49.0176 64.7094 49.0244C63.8003 47.8614 63.7217 47.2084 63.908 46.8185C64.1549 46.297 64.9361 46.1066 64.8777 45.8549C64.8239 45.6192 64.128 45.6962 64.0584 45.431C63.9911 45.1725 64.6286 45.0116 64.7184 44.4969C64.7924 44.0662 64.3682 43.8803 64.4737 43.3974C64.4894 43.3248 64.6016 42.8124 64.9294 42.7218C65.4748 42.5676 66.045 43.7442 67.0169 44.5491C67.0394 44.5695 67.2077 44.6534 67.2818 44.8529C67.522 45.5058 67.5018 45.7439 67.403 45.8141C67.3581 45.8459 67.2886 45.8504 67.2751 45.9003C67.2594 45.9524 67.3177 46.0159 67.5198 46.1814C67.7532 46.3741 67.8722 46.4716 67.9934 46.5215C68.1236 46.5759 68.2313 46.619 68.3593 46.6008C68.6668 46.5555 68.8217 46.1837 68.8396 46.1383C68.6668 45.9456 68.4356 45.6305 68.4895 45.2995C68.6511 44.2793 71.3941 43.7442 71.7061 44.2929C71.7825 44.4266 71.7421 44.676 71.3582 45.1567C71.0507 45.7733 71.109 46.4172 71.4502 46.7142C71.668 46.9046 71.971 46.9273 72.0339 46.9318C72.8532 46.9794 73.2999 46.3651 73.1181 45.4333C73.7915 45.4333 74.4626 45.4287 75.136 45.4287C75.1405 46.1655 75.145 46.9024 75.1473 47.6392C74.9587 48.512 74.4155 48.9723 73.4817 49.0516L73.4772 49.0493Z" fill="#004C99"/>
<path d="M65.101 29.044C65.101 29.2775 65.1032 29.5087 65.1054 29.7423C62.3085 29.7423 59.5116 29.7423 56.6855 29.7423V28.9941C56.8113 28.9828 56.937 28.9646 57.0604 28.9646C59.5565 28.9646 62.0504 28.9624 64.5465 28.9646C64.7014 28.9646 64.8563 29.0122 65.0112 29.0372C65.0403 29.0372 65.0718 29.0417 65.101 29.044Z" fill="#95A9B7"/>
<path d="M53.7687 55.1931C53.8831 55.1999 53.9976 55.2045 54.1121 55.2113C54.1121 56.5285 54.1143 57.8434 54.1166 59.1606C53.7395 59.1651 53.3601 59.1697 52.983 59.1742L52.9808 59.1447C52.9808 59.1221 52.9808 59.0971 52.9785 59.0745C52.9785 57.7845 52.983 56.4945 52.983 55.2045C53.2456 55.1999 53.506 55.1976 53.7687 55.1931Z" fill="#07324E"/>
<path d="M47.5017 62.0694C47.5061 62.2462 47.4972 62.5296 47.3939 62.8493C47.2345 63.3435 47.028 63.3798 46.9876 63.7471C46.9629 63.9625 47.0303 63.967 47.1605 64.7605C47.23 65.1867 47.2211 65.2525 47.1762 65.316C47.028 65.5245 46.5993 65.5109 46.175 65.4973C46.0875 65.4951 45.9955 65.4883 45.9797 65.486C45.7889 65.4679 45.5981 65.4338 45.4051 65.4112C45.2659 64.8058 45.34 64.4 45.4388 64.137C45.5106 63.9489 45.6363 63.729 45.5465 63.5068C45.4702 63.3186 45.2884 63.2483 45.2951 63.0896C45.3018 62.9808 45.3916 62.8969 45.4679 62.8425C46.1458 62.584 46.8238 62.3256 47.5017 62.0671V62.0694Z" fill="#95BBB1"/>
<path d="M45.4051 63.1122C45.8024 63.3707 45.7979 63.6971 45.652 64.1211C45.5106 64.5314 45.4837 64.9803 45.4051 65.4134C45.1245 65.3794 45.0482 65.1957 45.1021 64.9509C45.1582 64.6969 45.2367 64.4476 45.3176 64.2004C45.4365 63.8286 45.5016 63.6427 45.4433 63.5316C45.3984 63.4477 45.3445 63.4387 45.0729 63.153C45.0257 63.1031 44.9876 63.0623 44.9629 63.0351C44.9719 63.0261 45.0437 62.9535 45.0504 62.9444C45.0594 62.9354 45.1312 62.8628 45.138 62.8538C45.1627 62.8583 45.1874 62.8651 45.2098 62.8719C45.2727 62.9535 45.3378 63.0329 45.4006 63.1145L45.4051 63.1122Z" fill="#004C99"/>
<path d="M43.3912 62.8583C43.3912 61.2441 43.3912 59.6299 43.3912 58.018C44.1185 57.6598 45.8918 56.9116 48.2173 57.1496C50.6955 57.4036 52.3588 58.6324 52.9784 59.1425L52.9806 59.1719C52.9806 59.7365 52.9896 60.301 52.9581 60.8632C52.929 61.4073 52.8392 61.82 52.7112 62.5364C52.6057 63.1304 52.5047 63.6246 52.4262 63.9828C50.388 65.1323 48.444 65.0302 47.7549 64.0984C47.6247 63.9216 47.3801 63.4999 47.4766 62.686C47.6808 61.9673 47.5147 61.4164 46.9872 61.0015C46.6011 60.6977 46.1724 60.7952 45.7459 60.8383C45.5529 61.0809 44.9266 61.931 45.0119 63.0941C45.0456 63.5657 45.187 63.9443 45.3127 64.205C44.6707 63.7584 44.0287 63.3117 43.3867 62.8651L43.3912 62.8583Z" fill="#004C99"/>
<path d="M45.7509 60.8339C46.1774 60.7908 46.6061 60.6933 46.9922 60.9971C47.2795 61.2238 47.4254 61.4913 47.4748 61.6206C47.6589 62.0967 47.5197 62.5206 47.4815 62.6294C47.4771 62.6521 47.4681 62.6907 47.4411 62.7292C47.4277 62.7496 47.412 62.7632 47.4007 62.7745C47.2503 62.7564 47.0618 62.7473 46.844 62.7745C46.5388 62.8108 46.2963 62.8992 46.128 62.9763C45.9843 62.9922 45.8294 63.0035 45.6633 63.0058C45.5376 63.0058 45.4187 63.0058 45.3042 62.999C45.293 62.974 45.2593 62.8924 45.1785 62.863C45.1673 62.8584 45.156 62.8562 45.1426 62.8539C45.1358 62.8244 45.1313 62.7949 45.1246 62.7655C45.0954 62.5954 45.064 62.4231 45.0393 62.2508C44.9495 61.6115 45.3827 61.2397 45.7531 60.8339H45.7509Z" fill="#95BBB1"/>
<path d="M45.7502 60.8337C45.7008 60.87 44.9735 61.4096 45.0364 62.2507C45.0678 62.652 45.2631 62.9376 45.3663 63.0669C45.391 63.0986 45.2182 62.949 45.1284 62.9875C45.079 63.0102 45.0588 63.0759 45.0498 63.1349C44.6682 62.6089 44.6166 61.9378 44.9151 61.4459C45.1778 61.0106 45.62 60.87 45.7502 60.8337Z" fill="#004C99"/>
<path d="M43.3933 55.1909C43.3304 55.1886 43.2362 55.1909 43.1284 55.2068C43.0072 55.2272 42.9915 55.2453 42.9668 55.2385C42.8119 55.1932 42.9892 54.4019 43.0252 53.4633C43.0499 52.8059 42.9825 52.5451 43.1374 52.0373C43.2182 51.772 43.3192 51.5612 43.3978 51.4184C43.9118 50.8538 44.3495 50.176 44.9579 49.743C46.3675 48.7386 47.9141 48.6774 49.4809 49.4188C49.5977 49.4732 49.7211 49.5185 49.8401 49.5684C50.4439 50.312 50.6841 51.1894 50.7088 52.128C50.7335 53.1505 50.7133 54.1729 50.7133 55.1977C48.2755 55.1977 45.8355 55.1954 43.3978 55.1932L43.3933 55.1909Z" fill="#DCE7ED"/>
<path d="M53.7689 55.1931C53.5063 55.1977 53.2459 55.1999 52.9833 55.2045C52.8059 55.2022 52.6286 55.1977 52.4513 55.1954C52.4513 54.157 52.476 53.1164 52.4513 52.0781C52.4176 50.8107 52.0203 49.65 51.3379 48.5867C51.8317 49.1285 52.3929 49.6205 52.8037 50.219C53.5197 51.2664 53.7779 52.4771 53.7644 53.7467C53.7599 54.2296 53.7667 54.7125 53.7689 55.1954V55.1931Z" fill="#95B1C1"/>
<path d="M52.4525 55.1931C52.6298 55.1954 52.8072 55.1999 52.9845 55.2022C52.9845 56.4922 52.98 57.7822 52.98 59.0722C52.9531 59.0722 52.9239 59.0722 52.897 59.0722C52.897 57.9749 52.8768 56.8776 52.9082 55.7803C52.9194 55.3586 52.7757 55.2747 52.3897 55.277C49.3907 55.2906 46.3918 55.2861 43.3929 55.2861C43.3929 55.2589 43.3929 55.2294 43.3906 55.2022C45.8306 55.1999 48.2706 55.1976 50.7129 55.1954C51.2942 55.1954 51.8734 55.1954 52.4548 55.1931H52.4525Z" fill="#A5D692"/>
<path d="M52.5352 45.4264C52.5374 45.3674 52.5396 45.3062 52.5419 45.2473L52.5531 45.2541C52.5419 45.0636 52.5531 44.8278 52.6362 44.5807C52.6496 44.5399 52.6631 44.5014 52.6788 44.4651C52.9751 44.5036 53.2737 44.5444 53.5745 44.5875C54.5397 44.7258 55.2468 44.8414 55.3141 44.8528C56.0055 44.9639 58.5465 45.0886 66.0056 45.1747C57.1929 46.5237 54.845 46.7322 54.8158 46.569C54.7933 46.4488 56.001 45.9863 57.2513 46.2017C57.6441 46.2697 58.3085 46.4556 58.2973 46.6279C58.2816 46.866 56.3332 46.8841 56.3108 46.7096C56.2973 46.6166 56.8181 46.4375 58.3198 46.1156C58.4657 45.8889 58.6116 45.6599 58.7552 45.4332C58.6206 46.2969 58.9415 46.8411 59.6037 46.9317C60.2951 47.027 61.0606 46.365 60.744 45.4241C61.1346 45.4241 61.5252 45.4128 61.9158 45.4286C62.2256 45.4422 62.5331 45.4876 62.8406 45.5193C62.7912 46.0022 62.8271 46.4556 63.2806 46.7549C63.8709 47.1449 64.4703 46.9385 64.9214 46.1995C64.9214 47.1403 64.9214 48.0834 64.9214 49.0243C61.3456 49.0266 57.7721 49.0379 54.1962 49.0288C53.2804 49.0266 52.58 48.2762 52.5509 47.3172C52.5329 46.6869 52.5396 46.0566 52.5352 45.4241V45.4264Z" fill="#004C99"/>
<path d="M64.9296 45.2494C64.8959 45.254 64.8622 45.2585 64.8285 45.263C64.7657 45.2313 64.7028 45.1973 64.64 45.1655C64.1259 44.6622 63.576 44.6645 63.1136 45.1701L63.0844 45.1565C62.925 45.1565 62.7657 45.1565 62.6063 45.1633C61.9284 45.1814 61.2505 45.2018 60.5726 45.2222C60.5434 45.2018 60.512 45.1837 60.4828 45.1633C60.0541 44.669 59.457 44.6713 59.008 45.1678L58.9766 45.1542C58.5838 45.1565 58.1932 45.1542 57.8004 45.1655C57.3582 45.1814 56.9137 45.2132 56.4715 45.2381L56.3705 45.1633C55.9126 44.669 55.3693 44.669 54.8643 45.1587L52.5567 45.1542L52.541 45.1655C52.5747 44.7439 52.5545 44.3086 52.6555 43.905C52.8328 43.2067 53.4434 42.7148 54.1595 42.7125C57.7487 42.7012 61.3358 42.717 64.9251 42.7216C64.9273 43.5355 64.9296 44.3494 64.9318 45.1633C64.9318 45.1928 64.9273 45.2222 64.9251 45.2517L64.9296 45.2494Z" fill="#004C99"/>
<path d="M64.9263 33.4467C62.1025 33.4467 59.2786 33.4467 56.457 33.4467C56.457 33.1542 56.457 32.8595 56.457 32.5307C56.677 32.5307 56.8094 32.5307 56.9441 32.5307C59.4425 32.5307 61.9431 32.5421 64.4415 32.5194C64.8433 32.5149 64.9936 32.6645 64.9308 33.1633C64.9196 33.2562 64.9286 33.3537 64.9286 33.4489L64.9263 33.4467Z" fill="#95A9B7"/>
<path d="M65.0999 31.5265C65.073 31.556 65.0438 31.5854 65.0168 31.6149C62.9427 31.6149 60.8709 31.6149 58.7676 31.6149V30.8418C58.8955 30.8327 59.0212 30.8123 59.1447 30.8123C60.9449 30.8123 62.7474 30.8101 64.5477 30.8146C64.7026 30.8146 64.8575 30.8667 65.0101 30.894C65.0393 31.1048 65.0685 31.3156 65.0977 31.5265H65.0999Z" fill="#95A9B7"/>
<path d="M69.0268 45.5783C69.0403 45.6463 69.148 46.2244 68.7754 46.6121C68.6048 46.7912 68.3983 46.8592 68.3197 46.8841C67.9179 47.0065 67.5341 46.934 67.24 46.6257C66.91 46.2788 66.8315 45.8662 67.0447 45.4173C67.231 44.9843 67.6665 44.7235 68.1042 44.7734C68.4701 44.8142 68.7888 45.0659 68.9348 45.4241L69.0268 45.5783Z" fill="#FEB140"/>
<path d="M71.1242 45.4264C71.1848 45.3402 71.2612 45.2473 71.3554 45.1566C71.3824 45.1317 71.4093 45.1067 71.434 45.084C71.6293 45.0727 71.8425 45.0682 72.067 45.075C72.3431 45.0818 72.5968 45.1044 72.828 45.1339C72.8773 45.1521 73.021 45.2087 73.0861 45.3538C73.0973 45.381 73.1063 45.4082 73.1108 45.4332C73.2926 46.365 72.8482 46.9794 72.0266 46.9318C71.324 46.891 70.9604 46.2879 71.122 45.4286L71.1242 45.4264Z" fill="#FDB140"/>
<path d="M43.0217 55.1941C48.3483 55.2757 52.1474 55.2179 52.5649 55.1794C52.621 55.1748 52.7128 55.0434 52.8475 55.1794C53.0488 55.3322 53.0533 55.7155 53.0488 55.7835C53.0173 56.1803 53.0532 57.4 53.1273 59.1729C51.0689 59.0392 49.5336 59.0414 48.4763 59.0709C47.3315 59.1026 46.9342 59.1661 45.9824 59.1185C45.3337 59.0868 44.6558 59.0165 43.9128 59.1004C43.8163 59.1117 43.5873 59.1389 43.2731 59.1457C42.878 59.1525 42.465 59.123 42.2652 59.08C41.484 58.9167 40.6378 57.8784 40.6984 57.0146C40.7747 55.9445 41.814 55.0535 43.0194 55.1941H43.0217Z" fill="#16557F"/>
<path d="M60.4812 45.161C60.5014 45.1814 60.9369 45.6349 60.7887 46.188C60.6473 46.7208 60.0614 46.9838 59.6013 46.9317C59.498 46.9203 59.2511 46.8795 59.0401 46.6778C58.7707 46.4238 58.6652 45.9953 58.7528 45.4331C58.7618 45.39 58.7954 45.2721 58.9032 45.1814C58.9683 45.127 59.0356 45.1021 59.0783 45.093C59.5452 45.1157 60.0121 45.1406 60.4812 45.1633V45.161Z" fill="#FEB140"/>
<path d="M56.5063 45.356C56.715 45.882 56.632 46.4284 56.311 46.7118C56.082 46.9113 55.7947 46.9271 55.7094 46.9317C55.66 46.9339 55.1348 46.9543 54.816 46.5689C54.5152 46.2062 54.5085 45.6213 54.8317 45.1565L56.3738 45.161C56.4187 45.2268 56.4636 45.2903 56.5085 45.356H56.5063Z" fill="#FEB140"/>
<path d="M64.6393 45.1634C64.6887 45.2042 64.738 45.2519 64.7807 45.3108C65.0321 45.6486 64.9468 46.0816 64.9199 46.1995C64.7223 46.6371 64.3385 46.9295 63.9299 46.9454C63.5888 46.959 63.3059 46.7731 63.279 46.755C62.8256 46.4557 62.7896 46.0023 62.839 45.5194C62.8547 45.4627 62.8884 45.3607 62.9737 45.2609C63.0478 45.1748 63.1263 45.1294 63.1757 45.1045C63.6628 45.1249 64.1499 45.1453 64.637 45.1657L64.6393 45.1634Z" fill="#FEB140"/>
<path d="M64.6397 45.1635C64.1301 45.1635 63.6228 45.1658 63.1133 45.1681C63.5757 44.6602 64.1234 44.6602 64.6397 45.1635Z" fill="#FAB142"/>
<path d="M56.3711 45.1609C55.8751 45.1881 55.379 45.2176 54.8851 45.2448C54.8784 45.2153 54.8739 45.1859 54.8672 45.1564C55.37 44.6667 55.9155 44.669 56.3711 45.1609Z" fill="#FCB141"/>
<path d="M59.0078 45.1658C59.4568 44.6693 60.0538 44.667 60.4826 45.1613C59.991 45.1613 59.4994 45.1635 59.0078 45.1658Z" fill="#FCB141"/>
<path d="M72.1185 47.0042C72.7471 47.0042 73.2566 46.4896 73.2566 45.8548C73.2566 45.2199 72.7471 44.7053 72.1185 44.7053C71.49 44.7053 70.9805 45.2199 70.9805 45.8548C70.9805 46.4896 71.49 47.0042 72.1185 47.0042Z" fill="#FDB140"/>
<path d="M59.7455 47.0042C60.374 47.0042 60.8836 46.4896 60.8836 45.8548C60.8836 45.2199 60.374 44.7053 59.7455 44.7053C59.1169 44.7053 58.6074 45.2199 58.6074 45.8548C58.6074 46.4896 59.1169 47.0042 59.7455 47.0042Z" fill="#FDB140"/>
<path d="M55.6205 47.0088C56.249 47.0088 56.7586 46.4942 56.7586 45.8594C56.7586 45.2246 56.249 44.71 55.6205 44.71C54.9919 44.71 54.4824 45.2246 54.4824 45.8594C54.4824 46.4942 54.9919 47.0088 55.6205 47.0088Z" fill="#FDB140"/>
<path d="M32.7832 21.4985L94.9571 21.4985" stroke="#1E1E1E" stroke-width="0.565217"/>
</g>
<defs>
<clipPath id="clip0_3005_46204">
<rect width="90.4348" height="67.8261" fill="white" transform="translate(19.7832 0.947266)"/>
</clipPath>
</defs>
</svg>
