<svg width="24" height="24" viewBox="0 0 24 24" fill="none" xmlns="http://www.w3.org/2000/svg">
<path d="M13.5333 7.07524L18.0007 14.5159C18.6427 15.5846 18.3273 16.9906 17.296 17.6559C16.9501 17.8805 16.5464 18 16.134 17.9999H7.19867C5.98467 17.9999 5 16.9799 5 15.7206C5 15.2946 5.11533 14.8779 5.332 14.5159L9.8 7.07524C10.4413 6.00657 11.7973 5.67924 12.8287 6.34457C13.114 6.52857 13.3553 6.77857 13.5333 7.07524ZM11.6667 15.3332C11.8435 15.3332 12.013 15.263 12.1381 15.138C12.2631 15.013 12.3333 14.8434 12.3333 14.6666C12.3333 14.4898 12.2631 14.3202 12.1381 14.1952C12.013 14.0701 11.8435 13.9999 11.6667 13.9999C11.4899 13.9999 11.3203 14.0701 11.1953 14.1952C11.0702 14.3202 11 14.4898 11 14.6666C11 14.8434 11.0702 15.013 11.1953 15.138C11.3203 15.263 11.4899 15.3332 11.6667 15.3332ZM11.6667 9.33324C11.4899 9.33324 11.3203 9.40348 11.1953 9.5285C11.0702 9.65353 11 9.82309 11 9.99991V12.6666C11 12.8434 11.0702 13.013 11.1953 13.138C11.3203 13.263 11.4899 13.3332 11.6667 13.3332C11.8435 13.3332 12.013 13.263 12.1381 13.138C12.2631 13.013 12.3333 12.8434 12.3333 12.6666V9.99991C12.3333 9.82309 12.2631 9.65353 12.1381 9.5285C12.013 9.40348 11.8435 9.33324 11.6667 9.33324Z" fill="#FFC107"/>
</svg>
