<svg width="120" height="156" viewBox="0 0 120 156" fill="none" xmlns="http://www.w3.org/2000/svg">
<path d="M21.3748 72.517L21.7728 65.5025C12.8754 57.4328 5.59591 48.9595 4.78705 44.9241C3.97808 40.8898 6.80953 40.0827 6.80953 40.0827C4.38262 34.0308 9.63963 32.8201 9.63963 32.8201C7.21395 25.154 14.4934 23.9433 14.4934 23.9433C12.8755 19.1019 11.5669 18.1066 16.0149 18.9137C18.9597 19.4484 32.3461 26.0806 37.9497 31.0402C41.3183 34.0218 43.369 38.2103 43.6538 42.6942L46.319 72.517L45.1901 155.789H2.29492L21.3748 72.517Z" fill="#995A47"/>
<path d="M114.012 45.0535C113.203 49.089 105.924 57.5622 97.0266 65.6319L97.3757 71.7764L97.4105 72.3894L97.4453 73.0024L117.585 155.79H73.867L72.4482 73.0024L72.5024 72.3894L72.5578 71.7764L75.1457 42.8236C75.4304 38.3396 77.4812 34.1512 80.8497 31.1696C86.4532 26.21 100.908 18.9731 103.853 18.4384C108.301 17.6313 105.924 19.2315 104.306 24.0728C104.306 24.0728 111.585 25.2834 109.16 32.9496C109.16 32.9496 114.417 34.1603 111.99 40.2123C111.99 40.2123 114.821 41.0193 114.012 45.0535Z" fill="#995A47"/>
<path d="M55.7508 60.3289C55.7508 60.3289 57.2966 73.2841 48.4336 81.8182C39.5705 90.3522 34.6237 89.9409 33.7993 93.2312H59.8373V58.2725L55.7508 60.3289Z" fill="#FF9E29"/>
<path d="M63.9279 60.3289C63.9279 60.3289 62.382 73.2841 71.2451 81.8182C80.108 90.3522 85.0549 89.9409 85.8793 93.2312H59.8413V58.2725L63.9279 60.3289Z" fill="#F7AB48"/>
<path d="M41.7685 52.4031C30.7088 50.1119 21.427 42.271 14.9267 29.7281C10.1184 20.4501 8.5146 11.932 8.4487 11.5739C8.31199 10.831 8.51303 10.0658 8.99756 9.48537C9.4822 8.90497 10.2002 8.56934 10.9574 8.56934H28.9582V13.6589H14.1795C15.0237 16.8152 16.685 22.0676 19.5172 27.5041C25.365 38.7293 33.2004 45.4299 42.8056 47.4199L41.7685 52.4031Z" fill="#F99247"/>
<path d="M77.9094 52.404L76.8723 47.4208C86.4775 45.4309 94.3128 38.7303 100.161 27.5051C102.993 22.0686 104.654 16.8166 105.498 13.6599H90.7198V8.57031H108.721C109.478 8.57031 110.196 8.90595 110.68 9.48635C111.165 10.0668 111.366 10.8319 111.229 11.5749C111.163 11.933 109.559 20.4511 104.751 29.729C98.2509 42.272 88.9691 50.1128 77.9094 52.404Z" fill="#F99247"/>
<path d="M59.8395 0.0761719H26.2781C26.2781 0.0761719 28.68 61.3567 59.8393 63.4131L59.8395 0.0761719Z" fill="#FF9E29"/>
<path d="M93.4026 0.0761719H59.8413V63.4131C91.0006 61.3568 93.4026 0.0761719 93.4026 0.0761719Z" fill="#F7AB48"/>
<path d="M59.8398 62.7979H54.4444C53.7048 62.7979 53.1052 63.396 53.1052 64.1338C53.1052 64.8716 53.7048 65.4697 54.4444 65.4697H59.8398V62.7979Z" fill="#FF9E29"/>
<path d="M59.8394 62.7979H65.2348C65.9744 62.7979 66.5738 63.396 66.5738 64.1338C66.5738 64.8716 65.9743 65.4697 65.2348 65.4697H59.8394V62.7979Z" fill="#F7AB48"/>
<path d="M93.4619 93.2334H26.2161V98.0317H93.4619V93.2334Z" fill="#223749"/>
<path d="M95.7383 0.0761719H23.9382V5.2172H95.7383V0.0761719Z" fill="#FF8D10"/>
<path d="M95.7389 5.29641H23.8611V0H27.5183C27.5613 0 27.5961 0.0348224 27.5961 0.0776829C27.5961 0.120543 27.5612 0.155366 27.5183 0.155366H24.0169V5.14092H95.739C95.7819 5.14092 95.8168 5.17575 95.8168 5.21861C95.8168 5.26158 95.7819 5.29641 95.7389 5.29641Z" fill="black"/>
<path d="M92.1671 98.0293H27.5125V124.488H92.1671V98.0293Z" fill="#F7AB48"/>
<path d="M103.616 130.454H16.0591V135.081H103.616V130.454Z" fill="#223749"/>
<path d="M94.9131 130.454H24.762L27.5102 124.49H92.1648L94.9131 130.454Z" fill="#FF9E29"/>
<g opacity="0.6">
<path d="M59.8409 18.1729L63.8504 26.2784L72.8162 27.5782L66.3285 33.8875L67.8601 42.7964L59.8409 38.5901L51.8217 42.7964L53.3531 33.8875L46.8655 27.5782L55.8313 26.2784L59.8409 18.1729Z" fill="#FDE79D"/>
</g>
<path d="M88.1986 89.2559H31.2778C30.7556 89.2559 30.3323 89.6782 30.3323 90.1993V92.2882C30.3323 92.8093 30.7556 93.2316 31.2778 93.2316H88.1986C88.7208 93.2316 89.1442 92.8093 89.1442 92.2882V90.1993C89.1442 89.6782 88.7208 89.2559 88.1986 89.2559Z" fill="#FF8D10"/>
<g opacity="0.6">
<path d="M84.7692 116.329V107.931C83.1789 107.931 81.8897 106.645 81.8897 105.059H38.2547C38.2547 106.645 36.9655 107.931 35.3752 107.931V116.329C36.9655 116.329 38.2547 117.615 38.2547 119.202H81.8897C81.8897 117.615 83.179 116.329 84.7692 116.329Z" fill="#FDE79D"/>
</g>
<path d="M84.0752 106.466C84.4576 106.466 84.7676 106.156 84.7676 105.775C84.7676 105.393 84.4576 105.084 84.0752 105.084C83.6928 105.084 83.3828 105.393 83.3828 105.775C83.3828 106.156 83.6928 106.466 84.0752 106.466Z" fill="#223749"/>
<path d="M84.7676 118.51C84.7676 118.892 84.4576 119.201 84.0752 119.201C83.6928 119.201 83.3828 118.892 83.3828 118.51C83.3828 118.129 83.6928 117.819 84.0752 117.819C84.4576 117.819 84.7676 118.129 84.7676 118.51Z" fill="#223749"/>
<path d="M36.7599 105.775C36.7599 106.156 36.4499 106.466 36.0675 106.466C35.6851 106.466 35.375 106.156 35.375 105.775C35.375 105.393 35.685 105.084 36.0675 105.084C36.4499 105.084 36.7599 105.393 36.7599 105.775Z" fill="#223749"/>
<path d="M36.7601 118.51C36.7601 118.892 36.4501 119.201 36.0678 119.201C35.6854 119.201 35.3752 118.892 35.3752 118.51C35.3752 118.129 35.6853 117.819 36.0678 117.819C36.4501 117.819 36.7601 118.129 36.7601 118.51Z" fill="#223749"/>
<path d="M72.1509 108.784H46.2075V109.46H72.1509V108.784Z" fill="#FF8D10"/>
<path d="M74.9815 111.259H43.3755V111.934H74.9815V111.259Z" fill="#FF8D10"/>
<path d="M72.1509 113.737H46.2075V114.413H72.1509V113.737Z" fill="#FF8D10"/>
<path d="M32.0918 89.3508C32.0488 89.3508 32.0139 89.316 32.0139 89.2731C32.0139 89.2303 32.0488 89.1954 32.0918 89.1954L87.1222 89.1797C87.1651 89.1797 87.2 89.2145 87.2 89.2574C87.2 89.3002 87.1651 89.3351 87.1222 89.3351L32.0918 89.3508Z" fill="black"/>
<path d="M65.2336 62.8771H54.4429C54.3999 62.8771 54.365 62.8422 54.365 62.7994C54.365 62.7565 54.3999 62.7217 54.4429 62.7217H65.2336C65.2766 62.7217 65.3115 62.7565 65.3115 62.7994C65.3115 62.8422 65.2766 62.8771 65.2336 62.8771Z" fill="black"/>
<path d="M65.2336 65.5479H54.4429C54.3999 65.5479 54.365 65.5131 54.365 65.4703C54.365 65.4274 54.3999 65.3926 54.4429 65.3926H65.2336C65.2766 65.3926 65.3115 65.4274 65.3115 65.4703C65.3115 65.5131 65.2766 65.5479 65.2336 65.5479Z" fill="black"/>
<path d="M46.6391 83.5553C46.6127 83.5553 46.5869 83.5419 46.5723 83.5178C46.55 83.481 46.5619 83.4333 46.5988 83.4111C46.6177 83.3997 48.5147 82.2395 50.5679 79.4611C52.463 76.8965 54.8827 72.3893 55.6471 65.4806C55.6518 65.438 55.691 65.4058 55.733 65.4119C55.7759 65.4165 55.8067 65.455 55.802 65.4976C55.0333 72.4455 52.5965 76.9802 50.6878 79.5608C48.6167 82.3609 46.6984 83.5326 46.6793 83.5441C46.6666 83.5517 46.6527 83.5553 46.6391 83.5553Z" fill="black"/>
<path d="M81.1866 89.3505C81.1758 89.3505 81.1646 89.3481 81.1541 89.3433C81.1206 89.3279 77.7419 87.7434 72.0031 82.6436C71.971 82.615 71.9681 82.566 71.9969 82.5338C72.0254 82.5018 72.0745 82.4989 72.1068 82.5276C77.8253 87.6094 81.1862 89.1868 81.2194 89.2022C81.2584 89.2202 81.2754 89.2664 81.2574 89.3054C81.2442 89.3338 81.2162 89.3505 81.1866 89.3505Z" fill="black"/>
<path d="M70.5041 86.9076C70.4847 86.9076 70.4653 86.9004 70.4502 86.8859L68.8498 85.3506C68.8189 85.3208 68.8178 85.2716 68.8476 85.2407C68.8775 85.2097 68.9267 85.2088 68.9578 85.2385L70.5582 86.7737C70.5892 86.8035 70.5903 86.8528 70.5604 86.8837C70.545 86.8995 70.5246 86.9076 70.5041 86.9076Z" fill="black"/>
<path d="M70.5041 88.0736C70.4847 88.0736 70.4653 88.0665 70.4502 88.052L68.8498 86.5167C68.8189 86.487 68.8178 86.4377 68.8476 86.4068C68.8775 86.3757 68.9267 86.3747 68.9578 86.4045L70.5582 87.9398C70.5892 87.9695 70.5903 88.0188 70.5604 88.0496C70.545 88.0656 70.5246 88.0736 70.5041 88.0736Z" fill="black"/>
<path d="M43.0591 54.6941C43.0367 54.6941 43.0144 54.6844 42.9989 54.6658C39.6091 50.5534 36.641 45.3946 34.1769 39.3325C32.2065 34.4847 30.5522 29.0515 29.2597 23.1836C27.0595 13.1938 26.6681 5.3015 26.6644 5.22292C26.6624 5.18006 26.6955 5.14367 26.7386 5.14166C26.7817 5.13999 26.818 5.1727 26.82 5.21567C26.8238 5.29413 27.2147 13.1756 29.4125 23.1531C31.44 32.3581 35.4639 45.2802 43.1191 54.567C43.1465 54.6002 43.1416 54.6492 43.1084 54.6764C43.0941 54.6883 43.0766 54.6941 43.0591 54.6941Z" fill="black"/>
<path d="M87.7445 32.9323C87.7357 32.9323 87.7266 32.9308 87.7178 32.9276C87.6774 32.9129 87.6565 32.8683 87.6712 32.8279C90.7526 24.3899 92.9224 5.40151 92.944 5.21064C92.9488 5.1679 92.9878 5.13721 93.0302 5.14212C93.073 5.14692 93.1037 5.18542 93.0989 5.22806C93.0773 5.41903 90.9053 24.4259 87.8177 32.8812C87.8062 32.9126 87.7763 32.9323 87.7445 32.9323Z" fill="black"/>
<path d="M107.918 13.7364H97.0161C96.9731 13.7364 96.9382 13.7016 96.9382 13.6587C96.9382 13.6159 96.9731 13.5811 97.0161 13.5811H107.918C107.961 13.5811 107.996 13.6159 107.996 13.6587C107.996 13.7016 107.961 13.7364 107.918 13.7364Z" fill="black"/>
<path d="M96.0886 34.229C96.0727 34.229 96.0566 34.2242 96.0426 34.214C96.0079 34.1886 96.0004 34.14 96.0257 34.1054C96.0913 34.0163 102.602 25.0631 105.423 13.6402C105.433 13.5985 105.475 13.5731 105.517 13.5833C105.559 13.5936 105.584 13.6356 105.574 13.6773C102.745 25.1311 96.2171 34.1078 96.1516 34.1971C96.1362 34.218 96.1125 34.229 96.0886 34.229Z" fill="black"/>
<path d="M20.4181 13.7364H12.0627C12.0198 13.7364 11.9849 13.7016 11.9849 13.6587C11.9849 13.6159 12.0198 13.5811 12.0627 13.5811H20.4181C20.4611 13.5811 20.496 13.6159 20.496 13.6587C20.496 13.7016 20.4612 13.7364 20.4181 13.7364Z" fill="black"/>
<path d="M21.063 30.3669C21.0369 30.3669 21.0114 30.3538 20.9968 30.3302C20.9504 30.2558 16.3347 22.7911 14.1026 13.6773C14.0924 13.6357 14.1179 13.5935 14.1597 13.5833C14.2017 13.573 14.2438 13.5987 14.2539 13.6404C16.4799 22.7291 21.0828 30.1739 21.1291 30.248C21.1518 30.2844 21.1406 30.3324 21.1042 30.3551C21.0912 30.3631 21.077 30.3669 21.063 30.3669Z" fill="black"/>
<path d="M41.2716 52.3725C41.2678 52.3725 41.2639 52.3721 41.2601 52.3717C41.1945 52.3619 34.6271 51.3354 27.807 45.956C27.7732 45.9294 27.7674 45.8806 27.7942 45.8468C27.8209 45.8134 27.8698 45.8074 27.9035 45.8341C34.6916 51.1882 41.2178 52.2084 41.283 52.218C41.3256 52.2244 41.3549 52.2639 41.3487 52.3063C41.3427 52.3447 41.3095 52.3725 41.2716 52.3725Z" fill="black"/>
<path d="M87.9457 48.6049C87.9181 48.6049 87.8914 48.5902 87.8772 48.5645C87.8566 48.5267 87.8704 48.4795 87.9082 48.459C87.9629 48.4292 93.4241 45.422 96.9544 41.0106C96.9813 40.977 97.0306 40.9718 97.0638 40.9983C97.0975 41.0251 97.103 41.074 97.0761 41.1075C93.526 45.5438 88.038 48.5654 87.9829 48.5953C87.9711 48.6018 87.9583 48.6049 87.9457 48.6049Z" fill="black"/>
<path d="M86.8447 15.5817C86.8229 15.5817 86.8011 15.5725 86.7857 15.5547L83.1776 11.3785C83.1495 11.3459 83.1531 11.2969 83.1858 11.2689C83.2182 11.241 83.2675 11.2443 83.2956 11.277L86.9037 15.4532C86.9318 15.4857 86.9281 15.5348 86.8955 15.5628C86.8809 15.5756 86.8629 15.5817 86.8447 15.5817Z" fill="black"/>
<path d="M87.1416 18.6686C87.1198 18.6686 87.098 18.6595 87.0826 18.6416L83.4745 14.4654C83.4464 14.4329 83.45 14.3838 83.4826 14.3558C83.5151 14.3279 83.5643 14.3312 83.5925 14.3639L87.2006 18.5401C87.2287 18.5727 87.2251 18.6217 87.1924 18.6498C87.1776 18.6625 87.1596 18.6686 87.1416 18.6686Z" fill="black"/>
<path d="M51.8207 42.8748C51.8163 42.8748 51.8119 42.8745 51.8074 42.8737C51.765 42.8664 51.7365 42.8263 51.7438 42.784L53.2754 33.8751C53.2827 33.8328 53.3227 33.8043 53.3653 33.8117C53.4077 33.819 53.4363 33.8591 53.4289 33.9014L51.8974 42.8103C51.8909 42.8481 51.858 42.8748 51.8207 42.8748Z" fill="black"/>
<path d="M46.8629 27.6583C46.8249 27.6583 46.7917 27.6305 46.786 27.5918C46.7798 27.5492 46.8092 27.5098 46.8519 27.5037L55.8176 26.2039C55.8594 26.1978 55.8996 26.227 55.9059 26.2697C55.9121 26.3122 55.8826 26.3516 55.84 26.3577L46.8742 27.6576C46.8704 27.658 46.8666 27.6583 46.8629 27.6583Z" fill="black"/>
<path d="M63.8496 26.3568C63.8208 26.3568 63.7932 26.3409 63.7796 26.3135L59.77 18.2079C59.751 18.1694 59.7669 18.1228 59.8054 18.1038C59.8438 18.0847 59.8907 18.1006 59.9097 18.1391L63.9193 26.2446C63.9382 26.2831 63.9225 26.3297 63.884 26.3486C63.8729 26.3542 63.8612 26.3568 63.8496 26.3568Z" fill="black"/>
<path d="M66.3289 33.9666C66.3087 33.9666 66.2884 33.9587 66.2731 33.9431C66.2431 33.9124 66.2437 33.8632 66.2745 33.8332L72.7622 27.524C72.793 27.494 72.8423 27.4947 72.8724 27.5254C72.9023 27.5561 72.9018 27.6053 72.8709 27.6354L66.3833 33.9446C66.3682 33.9592 66.3485 33.9666 66.3289 33.9666Z" fill="black"/>
<path d="M67.859 42.8762C67.8468 42.8762 67.8345 42.8733 67.8229 42.8673L59.8037 38.6611C59.7656 38.6411 59.7509 38.5942 59.7709 38.5561C59.7911 38.5181 59.8379 38.5037 59.8761 38.5235L67.8953 42.7296C67.9334 42.7496 67.948 42.7966 67.9281 42.8347C67.9141 42.8611 67.887 42.8762 67.859 42.8762Z" fill="black"/>
<path d="M93.4636 98.1079C93.4206 98.1079 93.3857 98.0731 93.3857 98.0302V93.3098H26.2956V98.0302C26.2956 98.0731 26.2607 98.1079 26.2178 98.1079C26.1747 98.1079 26.1399 98.0731 26.1399 98.0302V93.1543H93.5414V98.0302C93.5414 98.0731 93.5065 98.1079 93.4636 98.1079Z" fill="black"/>
<path d="M84.7697 108.009C84.7674 108.009 84.7649 108.008 84.7626 108.008C82.0522 107.763 81.8301 105.585 81.8133 105.136H38.2551C38.2122 105.136 38.1772 105.101 38.1772 105.058C38.1772 105.015 38.2122 104.98 38.2551 104.98H81.9707L81.968 105.061C81.9646 105.164 81.9172 107.595 84.7765 107.854C84.8195 107.857 84.8509 107.895 84.8471 107.938C84.8436 107.978 84.8097 108.009 84.7697 108.009Z" fill="black"/>
<path d="M74.5676 119.278H38.2551C38.2122 119.278 38.1772 119.244 38.1772 119.201C38.1772 119.158 38.2122 119.123 38.2551 119.123H74.5676C74.6107 119.123 74.6455 119.158 74.6455 119.201C74.6456 119.244 74.6107 119.278 74.5676 119.278Z" fill="black"/>
<path d="M94.9148 130.532C94.8854 130.532 94.8572 130.515 94.844 130.487L92.1167 124.568H27.512C27.469 124.568 27.4341 124.534 27.4341 124.491C27.4341 124.448 27.469 124.413 27.512 124.413H92.2165L92.2374 124.458L94.9856 130.422C95.0035 130.461 94.9864 130.507 94.9474 130.525C94.9369 130.53 94.9258 130.532 94.9148 130.532Z" fill="black"/>
<path d="M97.903 130.529H46.8198C46.7769 130.529 46.7419 130.495 46.7419 130.452C46.7419 130.409 46.7769 130.374 46.8198 130.374H97.903C97.946 130.374 97.9809 130.409 97.9809 130.452C97.9809 130.495 97.946 130.529 97.903 130.529Z" fill="black"/>
<path d="M28.4647 127.5C28.4393 127.5 28.4144 127.488 28.3995 127.465C28.3759 127.429 28.3859 127.381 28.4219 127.357L30.9455 125.706C30.9816 125.683 31.0297 125.693 31.0533 125.728C31.0769 125.764 31.0668 125.812 31.0309 125.836L28.5074 127.487C28.4942 127.496 28.4794 127.5 28.4647 127.5Z" fill="black"/>
<path d="M28.4647 128.867C28.4393 128.867 28.4144 128.855 28.3995 128.832C28.3759 128.796 28.3859 128.748 28.4219 128.724L30.9455 127.073C30.9816 127.05 31.0297 127.06 31.0533 127.096C31.0769 127.131 31.0668 127.18 31.0309 127.203L28.5074 128.854C28.4942 128.863 28.4794 128.867 28.4647 128.867Z" fill="black"/>
<path d="M103.617 130.529H46.8198C46.7769 130.529 46.7419 130.495 46.7419 130.452C46.7419 130.409 46.7769 130.374 46.8198 130.374H103.617C103.66 130.374 103.695 130.409 103.695 130.452C103.695 130.495 103.66 130.529 103.617 130.529Z" fill="black"/>
<path d="M118.838 28.34C118.497 30.6702 116.806 31.6331 116.417 31.5889L104.355 30.2117C102.893 30.045 101.835 28.3977 102.028 26.4012C102.239 24.2134 103.765 22.5492 105.341 22.7291L117.35 24.1003C117.35 24.1006 119.18 26.0098 118.838 28.34Z" fill="#995A47"/>
<path d="M117.951 35.0464C117.642 37.38 116.246 39.0747 115.855 39.0407L102.806 37.8962C101.34 37.7676 100.256 36.1515 100.42 34.1547C100.6 31.9664 102.106 30.2666 103.687 30.4054L117.068 31.5791C117.068 31.5795 118.259 32.7126 117.951 35.0464Z" fill="#995A47"/>
<path d="M115.726 42.3073C115.457 44.4827 114.169 46.0798 113.804 46.0539L101.625 45.1815C100.256 45.0835 99.2315 43.5961 99.3685 41.7361C99.5184 39.698 100.909 38.0946 102.385 38.2003L114.874 39.095C114.874 39.095 115.995 40.1318 115.726 42.3073Z" fill="#995A47"/>
<path d="M117.366 32.3306C117.608 32.2874 117.822 32.0254 117.87 31.6882C117.925 31.2999 117.739 30.9601 117.453 30.9287L104.452 29.5085C103.231 29.369 102.393 28.0103 102.547 26.4144C102.63 25.5596 102.958 24.7748 103.473 24.2052C103.988 23.6356 104.614 23.3598 105.237 23.4315L117.124 24.7887C117.409 24.8168 117.686 24.5319 117.742 24.1447C117.798 23.7568 117.612 23.416 117.327 23.3835L105.44 22.0261C104.543 21.9237 103.602 22.3366 102.859 23.1583C102.106 23.9915 101.625 25.1384 101.504 26.3879C101.279 28.7242 102.485 30.7126 104.251 30.9141L117.254 32.3348C117.291 32.3391 117.329 32.3372 117.366 32.3306Z" fill="#8C3535"/>
<path d="M119.178 20.1494C118.906 22.488 117.453 24.1647 117.063 24.1271L104.047 22.8617C102.614 22.7224 101.528 21.1706 101.656 19.2106C101.803 16.966 103.342 15.2157 104.949 15.372L117.095 16.5529C118.445 16.6844 119.335 18.7927 119.178 20.1494Z" fill="#995A47"/>
<path d="M117.076 24.7525C117.318 24.7053 117.53 24.4402 117.574 24.1027C117.626 23.714 117.436 23.3777 117.15 23.3511L104.119 22.1481C102.895 22.029 102.043 20.6862 102.183 19.0902C102.258 18.2353 102.58 17.4462 103.09 16.8689C103.601 16.2916 104.225 16.0059 104.849 16.0671L116.765 17.2256C117.05 17.249 117.325 16.9599 117.377 16.5725C117.43 16.1841 117.241 15.8471 116.955 15.8192L105.04 14.6606C104.141 14.5733 103.202 15.001 102.466 15.8339C101.72 16.6784 101.248 17.8315 101.139 19.0812C100.934 21.4178 102.161 23.3834 103.931 23.5553L116.964 24.7586C117.001 24.7623 117.039 24.7597 117.076 24.7525Z" fill="#8C3535"/>
<path d="M115.498 39.3099C115.747 39.2656 115.963 38.9915 116.005 38.6466C116.051 38.2577 115.857 37.9267 115.57 37.9068L102.823 37.0299C101.588 36.9221 100.812 35.7386 100.943 34.1524C101.012 33.2972 101.331 32.5068 101.838 31.9255C102.346 31.3434 102.968 31.0526 103.595 31.1071L116.976 32.281C117.261 32.3082 117.535 32.0115 117.585 31.6227C117.636 31.2344 117.445 30.8987 117.159 30.8737L103.778 29.6999C102.877 29.6194 101.941 30.0567 101.208 30.8966C100.465 31.7478 99.9997 32.9041 99.8972 34.1524C99.7054 36.4799 100.862 38.2816 102.647 38.4378L115.401 39.3154C115.434 39.3171 115.466 39.3156 115.498 39.3099Z" fill="#8C3535"/>
<path d="M113.774 46.2554C114.022 46.2112 114.238 45.9378 114.28 45.5936C114.328 45.2051 114.133 44.8728 113.847 44.8526L101.668 43.98C100.54 43.8997 99.7416 42.692 99.8486 41.2306C99.9065 40.4474 100.192 39.7195 100.653 39.1801C101.113 38.6408 101.683 38.3653 102.256 38.4068L114.746 39.3014C115.029 39.323 115.303 39.0236 115.35 38.6345C115.398 38.2461 115.203 37.9138 114.917 37.8936L102.427 36.999C101.577 36.9376 100.697 37.3622 100.012 38.1626C99.3186 38.9749 98.8887 40.0702 98.8025 41.2472C98.64 43.4496 99.8237 45.2684 101.497 45.3877L113.676 46.2603C113.709 46.2629 113.741 46.2612 113.774 46.2554Z" fill="#8C3535"/>
<path d="M0.849839 28.34C1.19128 30.6702 2.88216 31.6331 3.27115 31.5889L15.3337 30.2117C16.7948 30.045 17.8535 28.3977 17.6607 26.4012C17.4497 24.2134 15.9231 22.5492 14.3477 22.7291L2.33823 24.1003C2.33811 24.1006 0.508396 26.0098 0.849839 28.34Z" fill="#995A47"/>
<path d="M1.72875 35.0395C2.03741 37.3732 3.43384 39.0679 3.82428 39.0338L16.8729 37.8893C18.3393 37.7607 19.4237 36.1447 19.2593 34.1478C19.0793 31.9596 17.5736 30.2598 15.9927 30.3986L2.61144 31.5723C2.61133 31.5726 1.42031 32.7058 1.72875 35.0395Z" fill="#995A47"/>
<path d="M3.952 42.3092C4.22072 44.4846 5.5093 46.0817 5.87367 46.0558L18.0532 45.1835C19.4218 45.0855 20.4465 43.5981 20.3096 41.7381C20.1597 39.7 18.7693 38.0965 17.2935 38.2022L4.8037 39.0969C4.8037 39.0969 3.68338 40.1337 3.952 42.3092Z" fill="#995A47"/>
<path d="M2.31459 32.3316C2.07216 32.2884 1.85836 32.0264 1.81048 31.6892C1.75521 31.3009 1.94182 30.961 2.2271 30.9297L15.2282 29.5095C16.4499 29.37 17.2879 28.0113 17.1338 26.4154C17.051 25.5606 16.7223 24.7757 16.2072 24.2062C15.6922 23.6366 15.0665 23.3608 14.4434 23.4324L2.55613 24.7897C2.27197 24.8178 1.99463 24.5328 1.9388 24.1457C1.88253 23.7578 2.06802 23.417 2.3533 23.3844L14.2406 22.0271C15.1372 21.9247 16.0782 22.3376 16.8212 23.1593C17.5743 23.9925 18.0558 25.1394 18.1763 26.3889C18.4019 28.7251 17.1953 30.7136 15.4294 30.9151L2.42668 32.3358C2.38909 32.3401 2.35151 32.3382 2.31459 32.3316Z" fill="#8C3535"/>
<path d="M0.499515 20.1504C0.771371 22.489 2.2244 24.1657 2.6144 24.128L15.6297 22.8626C17.0627 22.7233 18.1489 21.1715 18.0209 19.2116C17.8744 16.967 16.3353 15.2167 14.7281 15.373L2.58252 16.554C1.23185 16.6854 0.341771 18.7937 0.499515 20.1504Z" fill="#995A47"/>
<path d="M2.59783 24.7573C2.35562 24.7102 2.14384 24.445 2.09909 24.1076C2.04729 23.7189 2.23714 23.3826 2.5231 23.356L15.5543 22.153C16.7789 22.0339 17.6306 20.6911 17.4907 19.0951C17.4157 18.2402 17.0938 17.4511 16.5833 16.8738C16.0728 16.2965 15.4489 16.0108 14.8242 16.0719L2.90884 17.2305C2.62401 17.2538 2.34891 16.9648 2.29666 16.5773C2.24386 16.189 2.4327 15.8519 2.71865 15.824L14.634 14.6655C15.5328 14.5782 16.4712 15.0059 17.2077 15.8388C17.9541 16.6833 18.4259 17.8364 18.535 19.0861C18.7395 21.4227 17.5131 23.3883 15.7429 23.5601L2.71015 24.7635C2.67245 24.7672 2.63486 24.7646 2.59783 24.7573Z" fill="#8C3535"/>
<path d="M4.17915 39.3118C3.93067 39.2675 3.71386 38.9934 3.67235 38.6485C3.62592 38.2596 3.82048 37.9287 4.1071 37.9087L16.8545 37.0319C18.089 36.924 18.8654 35.7406 18.7348 34.1544C18.6648 33.2992 18.3467 32.5087 17.839 31.9274C17.3313 31.3454 16.7096 31.0546 16.0825 31.1091L2.7015 32.2829C2.41622 32.3102 2.14224 32.0135 2.09212 31.6246C2.04155 31.2363 2.23207 30.9007 2.51825 30.8757L15.8993 29.7018C16.7998 29.6213 17.7362 30.0587 18.4696 30.8986C19.2121 31.7497 19.6775 32.9061 19.78 34.1544C19.9718 36.4818 18.8151 38.2835 17.0303 38.4398L4.27569 39.3173C4.24347 39.3191 4.21092 39.3175 4.17915 39.3118Z" fill="#8C3535"/>
<path d="M5.90135 46.2584C5.65344 46.2142 5.43663 45.9407 5.39512 45.5965C5.34757 45.2081 5.54178 44.8758 5.8283 44.8556L18.0076 43.983C19.135 43.9026 19.9335 42.6949 19.8264 41.2335C19.7686 40.4503 19.4833 39.7225 19.0224 39.183C18.5619 38.6437 17.9925 38.3682 17.4187 38.4097L4.92893 39.3044C4.646 39.3259 4.37236 39.0265 4.32504 38.6374C4.27749 38.249 4.47159 37.9167 4.75821 37.8965L17.2478 37.0019C18.098 36.9405 18.978 37.3651 19.6628 38.1655C20.3565 38.9779 20.7864 40.0732 20.8726 41.2502C21.0351 43.4526 19.8513 45.2713 18.1784 45.3907L5.99913 46.2633C5.96613 46.2658 5.93368 46.2642 5.90135 46.2584Z" fill="#8C3535"/>
</svg>
