<svg width="250" height="250" viewBox="0 0 250 250" fill="none" xmlns="http://www.w3.org/2000/svg">
<path d="M62.1855 82.4275C63.232 81.6365 64.7595 81.547 65.891 82.21C67.3935 79.174 71.5805 77.834 74.5665 79.4335C75.3455 76.1615 78.569 73.647 81.932 73.6875C85.295 73.728 88.457 76.3195 89.157 79.609C89.268 80.1315 89.342 80.7045 89.7155 81.086C90.323 81.7065 91.337 81.498 92.203 81.4305C94.9265 81.218 97.667 83.13 98.4075 85.7595L60.902 85.623C60.5735 84.354 61.139 83.218 62.1855 82.4275Z" fill="#F5F5F5"/>
<path d="M200.594 41.6411C201.365 41.0581 202.491 40.9921 203.326 41.4811C204.433 39.2426 207.52 38.2551 209.722 39.4341C210.296 37.0221 212.672 35.1681 215.152 35.1981C217.631 35.2281 219.962 37.1386 220.478 39.5636C220.56 39.9491 220.615 40.3711 220.89 40.6526C221.338 41.1101 222.086 40.9566 222.724 40.9066C224.732 40.7501 226.752 42.1596 227.298 44.0981L199.648 43.9976C199.405 43.0611 199.822 42.2236 200.594 41.6411Z" fill="#F5F5F5"/>
<path d="M250 195.634H0V195.759H250V195.634Z" fill="#E0E0E0"/>
<path d="M33.866 202.766H25.836V202.891H33.866V202.766Z" fill="#E0E0E0"/>
<path d="M111.941 201.411H85.176V201.536H111.941V201.411Z" fill="#E0E0E0"/>
<path d="M52.491 207.411H34.366V207.536H52.491V207.411Z" fill="#E0E0E0"/>
<path d="M210.771 201.345H189.176V201.47H210.771V201.345Z" fill="#E0E0E0"/>
<path d="M218.391 201.345H215.226V201.47H218.391V201.345Z" fill="#E0E0E0"/>
<path d="M185.051 204.46H158.106V204.585H185.051V204.46Z" fill="#E0E0E0"/>
<path d="M144.683 167.752V157.911H150.776V160.155H154.837V135.573H162.646V145.248H164.99V140.417H171.083V163.979H179.674V155.654H185.061V137.605H191.71V149.638H197.958V175.561H202.8V162.938H207.799V154.815H213.109V148.579L219.035 151.704V168.389H225.283V164.947H233.63V195.935L136.471 195.982V167.752H144.683Z" fill="#F0F0F0"/>
<path d="M190.189 139.735H188.244V141.965H190.189V139.735Z" fill="#FAFAFA"/>
<path d="M190.189 143.473H188.244V145.702H190.189V143.473Z" fill="#FAFAFA"/>
<path d="M190.189 147.213H188.244V149.442H190.189V147.213Z" fill="#FAFAFA"/>
<path d="M190.189 150.951H188.244V153.18H190.189V150.951Z" fill="#FAFAFA"/>
<path d="M190.189 154.689H188.244V156.918H190.189V154.689Z" fill="#FAFAFA"/>
<path d="M190.189 158.429H188.244V160.658H190.189V158.429Z" fill="#FAFAFA"/>
<path d="M190.189 162.167H188.244V164.396H190.189V162.167Z" fill="#FAFAFA"/>
<path d="M190.189 165.907H188.244V168.137H190.189V165.907Z" fill="#FAFAFA"/>
<path d="M160.965 136.75H159.02V138.98H160.965V136.75Z" fill="#FAFAFA"/>
<path d="M160.965 140.488H159.02V142.718H160.965V140.488Z" fill="#FAFAFA"/>
<path d="M160.965 144.229H159.02V146.458H160.965V144.229Z" fill="#FAFAFA"/>
<path d="M160.965 147.966H159.02V150.196H160.965V147.966Z" fill="#FAFAFA"/>
<path d="M160.965 151.707H159.02V153.936H160.965V151.707Z" fill="#FAFAFA"/>
<path d="M160.965 155.445H159.02V157.674H160.965V155.445Z" fill="#FAFAFA"/>
<path d="M160.965 159.185H159.02V161.414H160.965V159.185Z" fill="#FAFAFA"/>
<path d="M160.965 162.923H159.02V165.152H160.965V162.923Z" fill="#FAFAFA"/>
<path d="M196.838 195.952V160.098H204.578V195.948L196.838 195.952Z" fill="#E0E0E0"/>
<path d="M203.99 161.236H203.052V163.172H203.99V161.236Z" fill="#FAFAFA"/>
<path d="M202.114 161.236H201.176V163.172H202.114V161.236Z" fill="#FAFAFA"/>
<path d="M200.237 161.236H199.299V163.172H200.237V161.236Z" fill="#FAFAFA"/>
<path d="M198.361 161.236H197.423V163.172H198.361V161.236Z" fill="#FAFAFA"/>
<path d="M203.99 164.483H203.052V166.418H203.99V164.483Z" fill="#FAFAFA"/>
<path d="M202.114 164.483H201.176V166.418H202.114V164.483Z" fill="#FAFAFA"/>
<path d="M200.237 164.483H199.299V166.418H200.237V164.483Z" fill="#FAFAFA"/>
<path d="M198.361 164.483H197.423V166.418H198.361V164.483Z" fill="#FAFAFA"/>
<path d="M203.99 167.727H203.052V169.662H203.99V167.727Z" fill="#FAFAFA"/>
<path d="M202.114 167.727H201.176V169.662H202.114V167.727Z" fill="#FAFAFA"/>
<path d="M200.237 167.727H199.299V169.662H200.237V167.727Z" fill="#FAFAFA"/>
<path d="M198.361 167.727H197.423V169.662H198.361V167.727Z" fill="#FAFAFA"/>
<path d="M203.99 170.971H203.052V172.906H203.99V170.971Z" fill="#FAFAFA"/>
<path d="M202.114 170.971H201.176V172.906H202.114V170.971Z" fill="#FAFAFA"/>
<path d="M200.237 170.971H199.299V172.906H200.237V170.971Z" fill="#FAFAFA"/>
<path d="M198.361 170.971H197.423V172.906H198.361V170.971Z" fill="#FAFAFA"/>
<path d="M203.99 174.215H203.052V176.15H203.99V174.215Z" fill="#FAFAFA"/>
<path d="M202.114 174.215H201.176V176.15H202.114V174.215Z" fill="#FAFAFA"/>
<path d="M200.237 174.215H199.299V176.15H200.237V174.215Z" fill="#FAFAFA"/>
<path d="M198.361 174.215H197.423V176.15H198.361V174.215Z" fill="#FAFAFA"/>
<path d="M203.99 177.459H203.052V179.394H203.99V177.459Z" fill="#FAFAFA"/>
<path d="M202.114 177.459H201.176V179.394H202.114V177.459Z" fill="#FAFAFA"/>
<path d="M200.237 177.459H199.299V179.394H200.237V177.459Z" fill="#FAFAFA"/>
<path d="M198.361 177.459H197.423V179.394H198.361V177.459Z" fill="#FAFAFA"/>
<path d="M203.99 180.703H203.052V182.638H203.99V180.703Z" fill="#FAFAFA"/>
<path d="M202.114 180.703H201.176V182.638H202.114V180.703Z" fill="#FAFAFA"/>
<path d="M200.237 180.703H199.299V182.638H200.237V180.703Z" fill="#FAFAFA"/>
<path d="M198.361 180.703H197.423V182.638H198.361V180.703Z" fill="#FAFAFA"/>
<path d="M203.99 183.949H203.052V185.885H203.99V183.949Z" fill="#FAFAFA"/>
<path d="M202.114 183.949H201.176V185.885H202.114V183.949Z" fill="#FAFAFA"/>
<path d="M200.237 183.949H199.299V185.885H200.237V183.949Z" fill="#FAFAFA"/>
<path d="M198.361 183.949H197.423V185.885H198.361V183.949Z" fill="#FAFAFA"/>
<path d="M169.942 195.965V155.96H185.99V195.976C185.99 195.976 170.065 195.981 169.942 195.965Z" fill="#E6E6E6"/>
<path d="M184.784 157.283H182.839V159.513H184.784V157.283Z" fill="#E0E0E0"/>
<path d="M180.891 157.283H178.945V159.513H180.891V157.283Z" fill="#E0E0E0"/>
<path d="M177.001 157.283H175.055V159.513H177.001V157.283Z" fill="#E0E0E0"/>
<path d="M173.107 157.283H171.161V159.513H173.107V157.283Z" fill="#E0E0E0"/>
<path d="M184.784 161.024H182.839V163.253H184.784V161.024Z" fill="#E0E0E0"/>
<path d="M180.891 161.024H178.945V163.253H180.891V161.024Z" fill="#E0E0E0"/>
<path d="M177.001 161.024H175.055V163.253H177.001V161.024Z" fill="#E0E0E0"/>
<path d="M173.107 161.024H171.161V163.253H173.107V161.024Z" fill="#E0E0E0"/>
<path d="M184.784 164.762H182.839V166.991H184.784V164.762Z" fill="#E0E0E0"/>
<path d="M180.891 164.762H178.945V166.991H180.891V164.762Z" fill="#E0E0E0"/>
<path d="M177.001 164.762H175.055V166.991H177.001V164.762Z" fill="#E0E0E0"/>
<path d="M173.107 164.762H171.161V166.991H173.107V164.762Z" fill="#E0E0E0"/>
<path d="M184.784 168.5H182.839V170.729H184.784V168.5Z" fill="#E0E0E0"/>
<path d="M180.891 168.5H178.945V170.729H180.891V168.5Z" fill="#E0E0E0"/>
<path d="M177.001 168.5H175.055V170.729H177.001V168.5Z" fill="#E0E0E0"/>
<path d="M173.107 168.5H171.161V170.729H173.107V168.5Z" fill="#E0E0E0"/>
<path d="M184.784 172.24H182.839V174.469H184.784V172.24Z" fill="#E0E0E0"/>
<path d="M180.891 172.24H178.945V174.469H180.891V172.24Z" fill="#E0E0E0"/>
<path d="M177.001 172.24H175.055V174.469H177.001V172.24Z" fill="#E0E0E0"/>
<path d="M173.107 172.24H171.161V174.469H173.107V172.24Z" fill="#E0E0E0"/>
<path d="M184.784 175.978H182.839V178.208H184.784V175.978Z" fill="#E0E0E0"/>
<path d="M180.891 175.978H178.945V178.208H180.891V175.978Z" fill="#E0E0E0"/>
<path d="M177.001 175.978H175.055V178.208H177.001V175.978Z" fill="#E0E0E0"/>
<path d="M173.107 175.978H171.161V178.208H173.107V175.978Z" fill="#E0E0E0"/>
<path d="M184.784 179.718H182.839V181.948H184.784V179.718Z" fill="#E0E0E0"/>
<path d="M180.891 179.718H178.945V181.948H180.891V179.718Z" fill="#E0E0E0"/>
<path d="M177.001 179.718H175.055V181.948H177.001V179.718Z" fill="#E0E0E0"/>
<path d="M173.107 179.718H171.161V181.948H173.107V179.718Z" fill="#E0E0E0"/>
<path d="M184.784 183.456H182.839V185.686H184.784V183.456Z" fill="#E0E0E0"/>
<path d="M180.891 183.456H178.945V185.686H180.891V183.456Z" fill="#E0E0E0"/>
<path d="M177.001 183.456H175.055V185.686H177.001V183.456Z" fill="#E0E0E0"/>
<path d="M173.107 183.456H171.161V185.686H173.107V183.456Z" fill="#E0E0E0"/>
<path d="M207.392 195.947V153.163H214.031V195.981C211.93 195.93 207.392 195.947 207.392 195.947Z" fill="#E6E6E6"/>
<path d="M213.048 153.956H211.103V156.185H213.048V153.956Z" fill="#FAFAFA"/>
<path d="M213.048 157.694H211.103V159.923H213.048V157.694Z" fill="#FAFAFA"/>
<path d="M213.048 161.434H211.103V163.664H213.048V161.434Z" fill="#FAFAFA"/>
<path d="M213.048 165.172H211.103V167.401H213.048V165.172Z" fill="#FAFAFA"/>
<path d="M213.048 168.91H211.103V171.139H213.048V168.91Z" fill="#FAFAFA"/>
<path d="M213.048 172.65H211.103V174.88H213.048V172.65Z" fill="#FAFAFA"/>
<path d="M213.048 176.388H211.103V178.617H213.048V176.388Z" fill="#FAFAFA"/>
<path d="M213.048 180.128H211.103V182.358H213.048V180.128Z" fill="#FAFAFA"/>
<path d="M210.446 153.956H208.501V156.185H210.446V153.956Z" fill="#FAFAFA"/>
<path d="M210.446 157.694H208.501V159.923H210.446V157.694Z" fill="#FAFAFA"/>
<path d="M210.446 161.434H208.501V163.664H210.446V161.434Z" fill="#FAFAFA"/>
<path d="M210.446 165.172H208.501V167.401H210.446V165.172Z" fill="#FAFAFA"/>
<path d="M210.446 168.91H208.501V171.139H210.446V168.91Z" fill="#FAFAFA"/>
<path d="M210.446 172.65H208.501V174.88H210.446V172.65Z" fill="#FAFAFA"/>
<path d="M210.446 176.388H208.501V178.617H210.446V176.388Z" fill="#FAFAFA"/>
<path d="M210.446 180.128H208.501V182.358H210.446V180.128Z" fill="#FAFAFA"/>
<path d="M155.521 153.926H143.805V195.982H155.521V153.926Z" fill="#E6E6E6"/>
<path d="M153.788 155.664H150.354V157.894H153.788V155.664Z" fill="#FAFAFA"/>
<path d="M153.788 159.405H150.354V161.634H153.788V159.405Z" fill="#FAFAFA"/>
<path d="M153.788 163.142H150.354V165.372H153.788V163.142Z" fill="#FAFAFA"/>
<path d="M153.788 166.883H150.354V169.112H153.788V166.883Z" fill="#FAFAFA"/>
<path d="M153.788 170.621H150.354V172.85H153.788V170.621Z" fill="#FAFAFA"/>
<path d="M153.788 174.358H150.354V176.588H153.788V174.358Z" fill="#FAFAFA"/>
<path d="M153.788 178.099H150.354V180.328H153.788V178.099Z" fill="#FAFAFA"/>
<path d="M153.788 181.836H150.354V184.066H153.788V181.836Z" fill="#FAFAFA"/>
<path d="M149.194 155.664H145.76V157.894H149.194V155.664Z" fill="#FAFAFA"/>
<path d="M149.194 159.405H145.76V161.634H149.194V159.405Z" fill="#FAFAFA"/>
<path d="M149.194 163.142H145.76V165.372H149.194V163.142Z" fill="#FAFAFA"/>
<path d="M149.194 166.883H145.76V169.112H149.194V166.883Z" fill="#FAFAFA"/>
<path d="M149.194 170.621H145.76V172.85H149.194V170.621Z" fill="#FAFAFA"/>
<path d="M149.194 174.358H145.76V176.588H149.194V174.358Z" fill="#FAFAFA"/>
<path d="M149.194 178.099H145.76V180.328H149.194V178.099Z" fill="#FAFAFA"/>
<path d="M149.194 181.836H145.76V184.066H149.194V181.836Z" fill="#FAFAFA"/>
<path d="M163.187 195.968V164.762H168.298V195.966L163.187 195.968Z" fill="#E0E0E0"/>
<path d="M167.91 165.75H167.291V167.411H167.91V165.75Z" fill="#FAFAFA"/>
<path d="M166.671 165.75H166.051V167.411H166.671V165.75Z" fill="#FAFAFA"/>
<path d="M165.434 165.75H164.814V167.411H165.434V165.75Z" fill="#FAFAFA"/>
<path d="M164.194 165.75H163.575V167.411H164.194V165.75Z" fill="#FAFAFA"/>
<path d="M167.91 168.536H167.291V170.198H167.91V168.536Z" fill="#FAFAFA"/>
<path d="M166.671 168.536H166.051V170.198H166.671V168.536Z" fill="#FAFAFA"/>
<path d="M165.434 168.536H164.814V170.198H165.434V168.536Z" fill="#FAFAFA"/>
<path d="M164.194 168.536H163.575V170.198H164.194V168.536Z" fill="#FAFAFA"/>
<path d="M167.91 171.324H167.291V172.985H167.91V171.324Z" fill="#FAFAFA"/>
<path d="M166.671 171.324H166.051V172.985H166.671V171.324Z" fill="#FAFAFA"/>
<path d="M165.434 171.324H164.814V172.985H165.434V171.324Z" fill="#FAFAFA"/>
<path d="M164.194 171.324H163.575V172.985H164.194V171.324Z" fill="#FAFAFA"/>
<path d="M167.91 174.112H167.291V175.773H167.91V174.112Z" fill="#FAFAFA"/>
<path d="M166.671 174.112H166.051V175.773H166.671V174.112Z" fill="#FAFAFA"/>
<path d="M165.434 174.112H164.814V175.773H165.434V174.112Z" fill="#FAFAFA"/>
<path d="M164.194 174.112H163.575V175.773H164.194V174.112Z" fill="#FAFAFA"/>
<path d="M167.91 176.901H167.291V178.562H167.91V176.901Z" fill="#FAFAFA"/>
<path d="M166.671 176.901H166.051V178.562H166.671V176.901Z" fill="#FAFAFA"/>
<path d="M165.434 176.901H164.814V178.562H165.434V176.901Z" fill="#FAFAFA"/>
<path d="M164.194 176.901H163.575V178.562H164.194V176.901Z" fill="#FAFAFA"/>
<path d="M167.91 179.688H167.291V181.35H167.91V179.688Z" fill="#FAFAFA"/>
<path d="M166.671 179.688H166.051V181.35H166.671V179.688Z" fill="#FAFAFA"/>
<path d="M165.434 179.688H164.814V181.35H165.434V179.688Z" fill="#FAFAFA"/>
<path d="M164.194 179.688H163.575V181.35H164.194V179.688Z" fill="#FAFAFA"/>
<path d="M167.91 182.476H167.291V184.138H167.91V182.476Z" fill="#FAFAFA"/>
<path d="M166.671 182.476H166.051V184.138H166.671V182.476Z" fill="#FAFAFA"/>
<path d="M165.434 182.476H164.814V184.138H165.434V182.476Z" fill="#FAFAFA"/>
<path d="M164.194 182.476H163.575V184.138H164.194V182.476Z" fill="#FAFAFA"/>
<path d="M167.91 185.263H167.291V186.924H167.91V185.263Z" fill="#FAFAFA"/>
<path d="M166.671 185.263H166.051V186.924H166.671V185.263Z" fill="#FAFAFA"/>
<path d="M165.434 185.263H164.814V186.924H165.434V185.263Z" fill="#FAFAFA"/>
<path d="M164.194 185.263H163.575V186.924H164.194V185.263Z" fill="#FAFAFA"/>
<path d="M213.438 195.981V169.388H227.1V195.937L213.438 195.981Z" fill="#FAFAFA"/>
<path d="M226.066 170.215H224.409V171.61H226.066V170.215Z" fill="#E0E0E0"/>
<path d="M222.753 170.215H221.096V171.61H222.753V170.215Z" fill="#E0E0E0"/>
<path d="M219.442 170.215H217.786V171.61H219.442V170.215Z" fill="#E0E0E0"/>
<path d="M216.129 170.215H214.472V171.61H216.129V170.215Z" fill="#E0E0E0"/>
<path d="M226.066 172.553H224.409V173.948H226.066V172.553Z" fill="#E0E0E0"/>
<path d="M222.753 172.553H221.096V173.948H222.753V172.553Z" fill="#E0E0E0"/>
<path d="M219.442 172.553H217.786V173.948H219.442V172.553Z" fill="#E0E0E0"/>
<path d="M216.129 172.553H214.472V173.948H216.129V172.553Z" fill="#E0E0E0"/>
<path d="M226.066 174.891H224.409V176.286H226.066V174.891Z" fill="#E0E0E0"/>
<path d="M222.753 174.891H221.096V176.286H222.753V174.891Z" fill="#E0E0E0"/>
<path d="M219.442 174.891H217.786V176.286H219.442V174.891Z" fill="#E0E0E0"/>
<path d="M216.129 174.891H214.472V176.286H216.129V174.891Z" fill="#E0E0E0"/>
<path d="M226.066 177.229H224.409V178.624H226.066V177.229Z" fill="#E0E0E0"/>
<path d="M222.753 177.229H221.096V178.624H222.753V177.229Z" fill="#E0E0E0"/>
<path d="M219.442 177.229H217.786V178.624H219.442V177.229Z" fill="#E0E0E0"/>
<path d="M216.129 177.229H214.472V178.624H216.129V177.229Z" fill="#E0E0E0"/>
<path d="M226.066 179.565H224.409V180.96H226.066V179.565Z" fill="#E0E0E0"/>
<path d="M222.753 179.565H221.096V180.96H222.753V179.565Z" fill="#E0E0E0"/>
<path d="M219.442 179.565H217.786V180.96H219.442V179.565Z" fill="#E0E0E0"/>
<path d="M216.129 179.565H214.472V180.96H216.129V179.565Z" fill="#E0E0E0"/>
<path d="M226.066 181.903H224.409V183.298H226.066V181.903Z" fill="#E0E0E0"/>
<path d="M222.753 181.903H221.096V183.298H222.753V181.903Z" fill="#E0E0E0"/>
<path d="M219.442 181.903H217.786V183.298H219.442V181.903Z" fill="#E0E0E0"/>
<path d="M216.129 181.903H214.472V183.298H216.129V181.903Z" fill="#E0E0E0"/>
<path d="M226.066 184.241H224.409V185.636H226.066V184.241Z" fill="#E0E0E0"/>
<path d="M222.753 184.241H221.096V185.636H222.753V184.241Z" fill="#E0E0E0"/>
<path d="M219.442 184.241H217.786V185.636H219.442V184.241Z" fill="#E0E0E0"/>
<path d="M216.129 184.241H214.472V185.636H216.129V184.241Z" fill="#E0E0E0"/>
<path d="M36.048 167.752V157.911H42.141V160.155H46.202V135.573H54.011V145.248H56.354V140.417H62.447V163.979H71.039V155.654H76.426V137.605H83.0745V149.638H89.323V175.561H94.1645V162.938H99.164V154.815H104.474V148.579L110.399 151.704V168.389H116.648V164.947H124.995V195.935L27.8365 195.982V167.752H36.048Z" fill="#F0F0F0"/>
<path d="M81.5535 139.735H79.608V141.965H81.5535V139.735Z" fill="#FAFAFA"/>
<path d="M81.5535 143.473H79.608V145.702H81.5535V143.473Z" fill="#FAFAFA"/>
<path d="M81.5535 147.213H79.608V149.442H81.5535V147.213Z" fill="#FAFAFA"/>
<path d="M81.5535 150.951H79.608V153.18H81.5535V150.951Z" fill="#FAFAFA"/>
<path d="M81.5535 154.689H79.608V156.918H81.5535V154.689Z" fill="#FAFAFA"/>
<path d="M81.5535 158.429H79.608V160.658H81.5535V158.429Z" fill="#FAFAFA"/>
<path d="M81.5535 162.167H79.608V164.396H81.5535V162.167Z" fill="#FAFAFA"/>
<path d="M81.5535 165.907H79.608V168.137H81.5535V165.907Z" fill="#FAFAFA"/>
<path d="M52.33 136.75H50.3845V138.98H52.33V136.75Z" fill="#FAFAFA"/>
<path d="M52.33 140.488H50.3845V142.718H52.33V140.488Z" fill="#FAFAFA"/>
<path d="M52.33 144.229H50.3845V146.458H52.33V144.229Z" fill="#FAFAFA"/>
<path d="M52.33 147.966H50.3845V150.196H52.33V147.966Z" fill="#FAFAFA"/>
<path d="M52.33 151.707H50.3845V153.936H52.33V151.707Z" fill="#FAFAFA"/>
<path d="M52.33 155.445H50.3845V157.674H52.33V155.445Z" fill="#FAFAFA"/>
<path d="M52.33 159.185H50.3845V161.414H52.33V159.185Z" fill="#FAFAFA"/>
<path d="M52.33 162.923H50.3845V165.152H52.33V162.923Z" fill="#FAFAFA"/>
<path d="M88.2025 195.952V160.098H95.9425V195.948L88.2025 195.952Z" fill="#E0E0E0"/>
<path d="M95.3545 161.236H94.4165V163.172H95.3545V161.236Z" fill="#FAFAFA"/>
<path d="M93.478 161.236H92.54V163.172H93.478V161.236Z" fill="#FAFAFA"/>
<path d="M91.6015 161.236H90.6635V163.172H91.6015V161.236Z" fill="#FAFAFA"/>
<path d="M89.7255 161.236H88.7875V163.172H89.7255V161.236Z" fill="#FAFAFA"/>
<path d="M95.3545 164.483H94.4165V166.418H95.3545V164.483Z" fill="#FAFAFA"/>
<path d="M93.478 164.483H92.54V166.418H93.478V164.483Z" fill="#FAFAFA"/>
<path d="M91.6015 164.483H90.6635V166.418H91.6015V164.483Z" fill="#FAFAFA"/>
<path d="M89.7255 164.483H88.7875V166.418H89.7255V164.483Z" fill="#FAFAFA"/>
<path d="M95.3545 167.727H94.4165V169.662H95.3545V167.727Z" fill="#FAFAFA"/>
<path d="M93.478 167.727H92.54V169.662H93.478V167.727Z" fill="#FAFAFA"/>
<path d="M91.6015 167.727H90.6635V169.662H91.6015V167.727Z" fill="#FAFAFA"/>
<path d="M89.7255 167.727H88.7875V169.662H89.7255V167.727Z" fill="#FAFAFA"/>
<path d="M95.3545 170.971H94.4165V172.906H95.3545V170.971Z" fill="#FAFAFA"/>
<path d="M93.478 170.971H92.54V172.906H93.478V170.971Z" fill="#FAFAFA"/>
<path d="M91.6015 170.971H90.6635V172.906H91.6015V170.971Z" fill="#FAFAFA"/>
<path d="M89.7255 170.971H88.7875V172.906H89.7255V170.971Z" fill="#FAFAFA"/>
<path d="M95.3545 174.215H94.4165V176.15H95.3545V174.215Z" fill="#FAFAFA"/>
<path d="M93.478 174.215H92.54V176.15H93.478V174.215Z" fill="#FAFAFA"/>
<path d="M91.6015 174.215H90.6635V176.15H91.6015V174.215Z" fill="#FAFAFA"/>
<path d="M89.7255 174.215H88.7875V176.15H89.7255V174.215Z" fill="#FAFAFA"/>
<path d="M95.3545 177.459H94.4165V179.394H95.3545V177.459Z" fill="#FAFAFA"/>
<path d="M93.478 177.459H92.54V179.394H93.478V177.459Z" fill="#FAFAFA"/>
<path d="M91.6015 177.459H90.6635V179.394H91.6015V177.459Z" fill="#FAFAFA"/>
<path d="M89.7255 177.459H88.7875V179.394H89.7255V177.459Z" fill="#FAFAFA"/>
<path d="M95.3545 180.703H94.4165V182.638H95.3545V180.703Z" fill="#FAFAFA"/>
<path d="M93.478 180.703H92.54V182.638H93.478V180.703Z" fill="#FAFAFA"/>
<path d="M91.6015 180.703H90.6635V182.638H91.6015V180.703Z" fill="#FAFAFA"/>
<path d="M89.7255 180.703H88.7875V182.638H89.7255V180.703Z" fill="#FAFAFA"/>
<path d="M95.3545 183.949H94.4165V185.885H95.3545V183.949Z" fill="#FAFAFA"/>
<path d="M93.478 183.949H92.54V185.885H93.478V183.949Z" fill="#FAFAFA"/>
<path d="M91.6015 183.949H90.6635V185.885H91.6015V183.949Z" fill="#FAFAFA"/>
<path d="M89.7255 183.949H88.7875V185.885H89.7255V183.949Z" fill="#FAFAFA"/>
<path d="M61.3065 195.965V155.96H77.354V195.976C77.354 195.976 61.4295 195.981 61.3065 195.965Z" fill="#E6E6E6"/>
<path d="M76.1499 157.283H74.2044V159.513H76.1499V157.283Z" fill="#E0E0E0"/>
<path d="M72.256 157.283H70.3105V159.513H72.256V157.283Z" fill="#E0E0E0"/>
<path d="M68.365 157.283H66.4195V159.513H68.365V157.283Z" fill="#E0E0E0"/>
<path d="M64.4715 157.283H62.526V159.513H64.4715V157.283Z" fill="#E0E0E0"/>
<path d="M76.1499 161.024H74.2044V163.253H76.1499V161.024Z" fill="#E0E0E0"/>
<path d="M72.256 161.024H70.3105V163.253H72.256V161.024Z" fill="#E0E0E0"/>
<path d="M68.365 161.024H66.4195V163.253H68.365V161.024Z" fill="#E0E0E0"/>
<path d="M64.4715 161.024H62.526V163.253H64.4715V161.024Z" fill="#E0E0E0"/>
<path d="M76.1499 164.762H74.2044V166.991H76.1499V164.762Z" fill="#E0E0E0"/>
<path d="M72.256 164.762H70.3105V166.991H72.256V164.762Z" fill="#E0E0E0"/>
<path d="M68.365 164.762H66.4195V166.991H68.365V164.762Z" fill="#E0E0E0"/>
<path d="M64.4715 164.762H62.526V166.991H64.4715V164.762Z" fill="#E0E0E0"/>
<path d="M76.1499 168.5H74.2044V170.729H76.1499V168.5Z" fill="#E0E0E0"/>
<path d="M72.256 168.5H70.3105V170.729H72.256V168.5Z" fill="#E0E0E0"/>
<path d="M68.365 168.5H66.4195V170.729H68.365V168.5Z" fill="#E0E0E0"/>
<path d="M64.4715 168.5H62.526V170.729H64.4715V168.5Z" fill="#E0E0E0"/>
<path d="M76.1499 172.24H74.2044V174.469H76.1499V172.24Z" fill="#E0E0E0"/>
<path d="M72.256 172.24H70.3105V174.469H72.256V172.24Z" fill="#E0E0E0"/>
<path d="M68.365 172.24H66.4195V174.469H68.365V172.24Z" fill="#E0E0E0"/>
<path d="M64.4715 172.24H62.526V174.469H64.4715V172.24Z" fill="#E0E0E0"/>
<path d="M76.1499 175.978H74.2044V178.208H76.1499V175.978Z" fill="#E0E0E0"/>
<path d="M72.256 175.978H70.3105V178.208H72.256V175.978Z" fill="#E0E0E0"/>
<path d="M68.365 175.978H66.4195V178.208H68.365V175.978Z" fill="#E0E0E0"/>
<path d="M64.4715 175.978H62.526V178.208H64.4715V175.978Z" fill="#E0E0E0"/>
<path d="M76.1499 179.718H74.2044V181.948H76.1499V179.718Z" fill="#E0E0E0"/>
<path d="M72.256 179.718H70.3105V181.948H72.256V179.718Z" fill="#E0E0E0"/>
<path d="M68.365 179.718H66.4195V181.948H68.365V179.718Z" fill="#E0E0E0"/>
<path d="M64.4715 179.718H62.526V181.948H64.4715V179.718Z" fill="#E0E0E0"/>
<path d="M76.1499 183.456H74.2044V185.686H76.1499V183.456Z" fill="#E0E0E0"/>
<path d="M72.256 183.456H70.3105V185.686H72.256V183.456Z" fill="#E0E0E0"/>
<path d="M68.365 183.456H66.4195V185.686H68.365V183.456Z" fill="#E0E0E0"/>
<path d="M64.4715 183.456H62.526V185.686H64.4715V183.456Z" fill="#E0E0E0"/>
<path d="M98.7565 195.947V153.163H105.395V195.981C103.294 195.93 98.7565 195.947 98.7565 195.947Z" fill="#E6E6E6"/>
<path d="M104.413 153.956H102.467V156.185H104.413V153.956Z" fill="#FAFAFA"/>
<path d="M104.413 157.694H102.467V159.923H104.413V157.694Z" fill="#FAFAFA"/>
<path d="M104.413 161.434H102.467V163.664H104.413V161.434Z" fill="#FAFAFA"/>
<path d="M104.413 165.172H102.467V167.401H104.413V165.172Z" fill="#FAFAFA"/>
<path d="M104.413 168.91H102.467V171.139H104.413V168.91Z" fill="#FAFAFA"/>
<path d="M104.413 172.65H102.467V174.88H104.413V172.65Z" fill="#FAFAFA"/>
<path d="M104.413 176.388H102.467V178.617H104.413V176.388Z" fill="#FAFAFA"/>
<path d="M104.413 180.128H102.467V182.358H104.413V180.128Z" fill="#FAFAFA"/>
<path d="M101.81 153.956H99.8649V156.185H101.81V153.956Z" fill="#FAFAFA"/>
<path d="M101.81 157.694H99.8649V159.923H101.81V157.694Z" fill="#FAFAFA"/>
<path d="M101.81 161.434H99.8649V163.664H101.81V161.434Z" fill="#FAFAFA"/>
<path d="M101.81 165.172H99.8649V167.401H101.81V165.172Z" fill="#FAFAFA"/>
<path d="M101.81 168.91H99.8649V171.139H101.81V168.91Z" fill="#FAFAFA"/>
<path d="M101.81 172.65H99.8649V174.88H101.81V172.65Z" fill="#FAFAFA"/>
<path d="M101.81 176.388H99.8649V178.617H101.81V176.388Z" fill="#FAFAFA"/>
<path d="M101.81 180.128H99.8649V182.358H101.81V180.128Z" fill="#FAFAFA"/>
<path d="M46.886 153.926H35.169V195.982H46.886V153.926Z" fill="#E6E6E6"/>
<path d="M45.153 155.664H41.719V157.894H45.153V155.664Z" fill="#FAFAFA"/>
<path d="M45.153 159.405H41.719V161.634H45.153V159.405Z" fill="#FAFAFA"/>
<path d="M45.153 163.142H41.719V165.372H45.153V163.142Z" fill="#FAFAFA"/>
<path d="M45.153 166.883H41.719V169.112H45.153V166.883Z" fill="#FAFAFA"/>
<path d="M45.153 170.621H41.719V172.85H45.153V170.621Z" fill="#FAFAFA"/>
<path d="M45.153 174.358H41.719V176.588H45.153V174.358Z" fill="#FAFAFA"/>
<path d="M45.153 178.099H41.719V180.328H45.153V178.099Z" fill="#FAFAFA"/>
<path d="M45.153 181.836H41.719V184.066H45.153V181.836Z" fill="#FAFAFA"/>
<path d="M40.5585 155.664H37.1245V157.894H40.5585V155.664Z" fill="#FAFAFA"/>
<path d="M40.5585 159.405H37.1245V161.634H40.5585V159.405Z" fill="#FAFAFA"/>
<path d="M40.5585 163.142H37.1245V165.372H40.5585V163.142Z" fill="#FAFAFA"/>
<path d="M40.5585 166.883H37.1245V169.112H40.5585V166.883Z" fill="#FAFAFA"/>
<path d="M40.5585 170.621H37.1245V172.85H40.5585V170.621Z" fill="#FAFAFA"/>
<path d="M40.5585 174.358H37.1245V176.588H40.5585V174.358Z" fill="#FAFAFA"/>
<path d="M40.5585 178.099H37.1245V180.328H40.5585V178.099Z" fill="#FAFAFA"/>
<path d="M40.5585 181.836H37.1245V184.066H40.5585V181.836Z" fill="#FAFAFA"/>
<path d="M54.552 195.968V164.762H59.6625V195.966L54.552 195.968Z" fill="#E0E0E0"/>
<path d="M59.2745 165.75H58.655V167.411H59.2745V165.75Z" fill="#FAFAFA"/>
<path d="M58.035 165.75H57.4155V167.411H58.035V165.75Z" fill="#FAFAFA"/>
<path d="M56.7985 165.75H56.179V167.411H56.7985V165.75Z" fill="#FAFAFA"/>
<path d="M55.559 165.75H54.9395V167.411H55.559V165.75Z" fill="#FAFAFA"/>
<path d="M59.2745 168.536H58.655V170.198H59.2745V168.536Z" fill="#FAFAFA"/>
<path d="M58.035 168.536H57.4155V170.198H58.035V168.536Z" fill="#FAFAFA"/>
<path d="M56.7985 168.536H56.179V170.198H56.7985V168.536Z" fill="#FAFAFA"/>
<path d="M55.559 168.536H54.9395V170.198H55.559V168.536Z" fill="#FAFAFA"/>
<path d="M59.2745 171.324H58.655V172.985H59.2745V171.324Z" fill="#FAFAFA"/>
<path d="M58.035 171.324H57.4155V172.985H58.035V171.324Z" fill="#FAFAFA"/>
<path d="M56.7985 171.324H56.179V172.985H56.7985V171.324Z" fill="#FAFAFA"/>
<path d="M55.559 171.324H54.9395V172.985H55.559V171.324Z" fill="#FAFAFA"/>
<path d="M59.2745 174.112H58.655V175.773H59.2745V174.112Z" fill="#FAFAFA"/>
<path d="M58.035 174.112H57.4155V175.773H58.035V174.112Z" fill="#FAFAFA"/>
<path d="M56.7985 174.112H56.179V175.773H56.7985V174.112Z" fill="#FAFAFA"/>
<path d="M55.559 174.112H54.9395V175.773H55.559V174.112Z" fill="#FAFAFA"/>
<path d="M59.2745 176.901H58.655V178.562H59.2745V176.901Z" fill="#FAFAFA"/>
<path d="M58.035 176.901H57.4155V178.562H58.035V176.901Z" fill="#FAFAFA"/>
<path d="M56.7985 176.901H56.179V178.562H56.7985V176.901Z" fill="#FAFAFA"/>
<path d="M55.559 176.901H54.9395V178.562H55.559V176.901Z" fill="#FAFAFA"/>
<path d="M59.2745 179.688H58.655V181.35H59.2745V179.688Z" fill="#FAFAFA"/>
<path d="M58.035 179.688H57.4155V181.35H58.035V179.688Z" fill="#FAFAFA"/>
<path d="M56.7985 179.688H56.179V181.35H56.7985V179.688Z" fill="#FAFAFA"/>
<path d="M55.559 179.688H54.9395V181.35H55.559V179.688Z" fill="#FAFAFA"/>
<path d="M59.2745 182.476H58.655V184.138H59.2745V182.476Z" fill="#FAFAFA"/>
<path d="M58.035 182.476H57.4155V184.138H58.035V182.476Z" fill="#FAFAFA"/>
<path d="M56.7985 182.476H56.179V184.138H56.7985V182.476Z" fill="#FAFAFA"/>
<path d="M55.559 182.476H54.9395V184.138H55.559V182.476Z" fill="#FAFAFA"/>
<path d="M59.2745 185.263H58.655V186.924H59.2745V185.263Z" fill="#FAFAFA"/>
<path d="M58.035 185.263H57.4155V186.924H58.035V185.263Z" fill="#FAFAFA"/>
<path d="M56.7985 185.263H56.179V186.924H56.7985V185.263Z" fill="#FAFAFA"/>
<path d="M55.559 185.263H54.9395V186.924H55.559V185.263Z" fill="#FAFAFA"/>
<path d="M104.803 195.981V169.388H118.465V195.937L104.803 195.981Z" fill="#FAFAFA"/>
<path d="M117.431 170.215H115.774V171.61H117.431V170.215Z" fill="#E0E0E0"/>
<path d="M114.118 170.215H112.461V171.61H114.118V170.215Z" fill="#E0E0E0"/>
<path d="M110.807 170.215H109.15V171.61H110.807V170.215Z" fill="#E0E0E0"/>
<path d="M107.494 170.215H105.837V171.61H107.494V170.215Z" fill="#E0E0E0"/>
<path d="M117.431 172.553H115.774V173.948H117.431V172.553Z" fill="#E0E0E0"/>
<path d="M114.118 172.553H112.461V173.948H114.118V172.553Z" fill="#E0E0E0"/>
<path d="M110.807 172.553H109.15V173.948H110.807V172.553Z" fill="#E0E0E0"/>
<path d="M107.494 172.553H105.837V173.948H107.494V172.553Z" fill="#E0E0E0"/>
<path d="M117.431 174.891H115.774V176.286H117.431V174.891Z" fill="#E0E0E0"/>
<path d="M114.118 174.891H112.461V176.286H114.118V174.891Z" fill="#E0E0E0"/>
<path d="M110.807 174.891H109.15V176.286H110.807V174.891Z" fill="#E0E0E0"/>
<path d="M107.494 174.891H105.837V176.286H107.494V174.891Z" fill="#E0E0E0"/>
<path d="M117.431 177.229H115.774V178.624H117.431V177.229Z" fill="#E0E0E0"/>
<path d="M114.118 177.229H112.461V178.624H114.118V177.229Z" fill="#E0E0E0"/>
<path d="M110.807 177.229H109.15V178.624H110.807V177.229Z" fill="#E0E0E0"/>
<path d="M107.494 177.229H105.837V178.624H107.494V177.229Z" fill="#E0E0E0"/>
<path d="M117.431 179.565H115.774V180.96H117.431V179.565Z" fill="#E0E0E0"/>
<path d="M114.118 179.565H112.461V180.96H114.118V179.565Z" fill="#E0E0E0"/>
<path d="M110.807 179.565H109.15V180.96H110.807V179.565Z" fill="#E0E0E0"/>
<path d="M107.494 179.565H105.837V180.96H107.494V179.565Z" fill="#E0E0E0"/>
<path d="M117.431 181.903H115.774V183.298H117.431V181.903Z" fill="#E0E0E0"/>
<path d="M114.118 181.903H112.461V183.298H114.118V181.903Z" fill="#E0E0E0"/>
<path d="M110.807 181.903H109.15V183.298H110.807V181.903Z" fill="#E0E0E0"/>
<path d="M107.494 181.903H105.837V183.298H107.494V181.903Z" fill="#E0E0E0"/>
<path d="M117.431 184.241H115.774V185.636H117.431V184.241Z" fill="#E0E0E0"/>
<path d="M114.118 184.241H112.461V185.636H114.118V184.241Z" fill="#E0E0E0"/>
<path d="M110.807 184.241H109.15V185.636H110.807V184.241Z" fill="#E0E0E0"/>
<path d="M107.494 184.241H105.837V185.636H107.494V184.241Z" fill="#E0E0E0"/>
<path d="M159.289 107.305C158.368 108.708 157.749 110.249 157.418 111.839L154.887 112.077V116.98L157.419 117.218C157.748 118.807 158.368 120.348 159.29 121.752L157.673 123.705L161.14 127.171L163.093 125.554C164.496 126.475 166.037 127.095 167.626 127.425L167.865 129.957L172.767 129.957L173.006 127.425C174.595 127.095 176.136 126.475 177.539 125.554L179.492 127.171L182.959 123.704L181.342 121.751C182.263 120.348 182.883 118.807 183.213 117.218L185.744 116.979L185.745 112.077L183.213 111.838C182.883 110.249 182.263 108.708 181.342 107.305L182.959 105.352L179.492 101.885L177.539 103.502C176.136 102.581 174.595 101.961 173.006 101.631L172.767 99.0996L167.864 99.1001L167.626 101.632C166.036 101.962 164.495 102.581 163.092 103.502L161.139 101.885L157.672 105.352L159.289 107.305ZM174.964 109.784C177.417 112.238 177.417 116.215 174.964 118.669C172.51 121.122 168.532 121.122 166.079 118.669C163.626 116.215 163.626 112.238 166.079 109.784C168.533 107.331 172.51 107.331 174.964 109.784Z" fill="#F0F0F0"/>
<path d="M117.152 80.0425C115.537 82.501 114.452 85.201 113.873 87.9865L109.437 88.404L109.437 96.9945L113.873 97.4125C114.451 100.197 115.537 102.897 117.151 105.356L114.318 108.778L120.392 114.853L123.814 112.02C126.273 113.634 128.973 114.72 131.758 115.298L132.175 119.734L140.766 119.734L141.184 115.298C143.969 114.72 146.669 113.634 149.128 112.02L152.55 114.853L158.625 108.778L155.792 105.356C157.406 102.898 158.492 100.198 159.07 97.4125L163.505 96.9945L163.506 88.404L159.07 87.986C158.492 85.2015 157.405 82.501 155.791 80.043L158.625 76.621L152.55 70.5465L149.128 73.3795C146.669 71.765 143.969 70.679 141.185 70.101L140.767 65.665L132.176 65.6655L131.759 70.1015C128.974 70.68 126.274 71.765 123.815 73.3795L120.393 70.546L114.318 76.621L117.152 80.0425ZM144.616 84.386C148.915 88.6845 148.915 95.6545 144.616 99.9535C140.317 104.253 133.347 104.252 129.048 99.9535C124.749 95.6545 124.749 88.685 129.048 84.386C133.347 80.087 140.317 80.087 144.616 84.386Z" fill="#F0F0F0"/>
<path d="M181.454 89.0857C181.033 89.7267 180.75 90.4312 180.599 91.1577L179.442 91.2667V93.5072L180.599 93.6162C180.749 94.3422 181.033 95.0467 181.454 95.6882L180.715 96.5807L182.299 98.1652L183.192 97.4262C183.833 97.8472 184.537 98.1302 185.264 98.2812L185.373 99.4382H187.613L187.722 98.2812C188.449 98.1302 189.153 97.8472 189.794 97.4262L190.687 98.1652L192.271 96.5807L191.532 95.6882C191.953 95.0472 192.236 94.3427 192.387 93.6162L193.544 93.5072V91.2667L192.387 91.1577C192.236 90.4312 191.953 89.7272 191.532 89.0857L192.271 88.1932L190.687 86.6087L189.794 87.3477C189.153 86.9267 188.449 86.6432 187.722 86.4927L187.613 85.3357H185.373L185.264 86.4927C184.537 86.6437 183.833 86.9267 183.192 87.3477L182.299 86.6087L180.715 88.1932L181.454 89.0857ZM188.617 90.2187C189.738 91.3397 189.738 93.1577 188.617 94.2792C187.496 95.4007 185.678 95.4002 184.557 94.2792C183.435 93.1577 183.435 91.3402 184.557 90.2187C185.678 89.0972 187.496 89.0972 188.617 90.2187Z" fill="#F0F0F0"/>
<path d="M229.437 224.197C229.437 225.891 182.679 227.263 125 227.263C67.321 227.263 20.5625 225.891 20.5625 224.197C20.5625 222.504 67.3205 221.131 125 221.131C182.679 221.131 229.437 222.504 229.437 224.197Z" fill="#F5F5F5"/>
<path d="M83.0108 106.663C84.3944 102.87 82.4414 98.6735 78.6486 97.2899C74.8558 95.9062 70.6595 97.8592 69.2758 101.652C67.8922 105.445 69.8452 109.641 73.638 111.025C77.4308 112.408 81.6271 110.455 83.0108 106.663Z" fill="url(#paint0_linear_799_10371)"/>
<path d="M73.254 109.103L73.7495 110.918L71.6485 112.024L71.4055 109.701L73.254 109.103Z" fill="url(#paint1_linear_799_10371)"/>
<path d="M75.948 107.721C75.683 107.721 75.4615 107.635 75.2835 107.464C75.1055 107.292 75.0165 107.084 75.0165 106.838C75.0165 106.592 75.104 106.386 75.2785 106.221C75.453 106.056 75.6765 105.974 75.948 105.974C76.2195 105.974 76.443 106.056 76.6175 106.221C76.7925 106.386 76.8795 106.592 76.8795 106.838C76.8795 107.084 76.7905 107.292 76.6125 107.464C76.435 107.635 76.2135 107.721 75.948 107.721ZM76.55 105.285H75.3465L75.0455 100.849H76.8505L76.55 105.285Z" fill="white"/>
<path d="M71.402 96.8699C69.276 97.9329 67.757 100.125 67.509 102.488" stroke="url(#paint2_linear_799_10371)" stroke-width="0.363372" stroke-miterlimit="10" stroke-linecap="round" stroke-linejoin="round"/>
<path d="M67.4335 103.576C67.369 103.933 67.379 104.303 67.463 104.656" stroke="url(#paint3_linear_799_10371)" stroke-width="0.363372" stroke-miterlimit="10" stroke-linecap="round" stroke-linejoin="round"/>
<path d="M140.131 80.268L134.798 80.954L138.284 84.0085C131.029 90.5295 89.083 136.465 89.36 136.017L96.94 143.288L142.007 87.2715L145.505 90.3365L145.485 84.9595L145.466 79.5825L140.131 80.268Z" fill="url(#paint4_linear_799_10371)"/>
<path opacity="0.6" d="M140.131 80.268L134.798 80.954L138.284 84.0085C131.029 90.5295 89.083 136.465 89.36 136.017L96.94 143.288L142.007 87.2715L145.505 90.3365L145.485 84.9595L145.466 79.5825L140.131 80.268Z" fill="white"/>
<path d="M129.937 207.595H68.9795V222.56H129.937V207.595Z" fill="url(#paint5_linear_799_10371)"/>
<path d="M135.672 194.537H81.115V207.595H135.672V194.537Z" fill="url(#paint6_linear_799_10371)"/>
<path d="M139.786 182.2H89.4725V194.537H139.786V182.2Z" fill="url(#paint7_linear_799_10371)"/>
<path d="M144.389 169.538H98.588V182.2H144.389V169.538Z" fill="url(#paint8_linear_799_10371)"/>
<path d="M149.751 157.396H106.566V169.538H149.751V157.396Z" fill="url(#paint9_linear_799_10371)"/>
<path d="M154.189 147.245H114.63V157.395H154.189V147.245Z" fill="url(#paint10_linear_799_10371)"/>
<path d="M158.06 137.108H121.488V147.245H158.06V137.108Z" fill="url(#paint11_linear_799_10371)"/>
<path d="M160.845 128.606H128.159V137.354H160.845V128.606Z" fill="url(#paint12_linear_799_10371)"/>
<path d="M164.318 119.93H133.552V128.678H164.318V119.93Z" fill="url(#paint13_linear_799_10371)"/>
<path d="M166.595 111.358H139.839V120.107H166.595V111.358Z" fill="url(#paint14_linear_799_10371)"/>
<path d="M169.995 102.658H145.925V111.407H169.995V102.658Z" fill="url(#paint15_linear_799_10371)"/>
<path d="M173.575 96.1011H151.712V102.86H173.575V96.1011Z" fill="url(#paint16_linear_799_10371)"/>
<path d="M174.936 89.3201H156.003V96.0786H174.936V89.3201Z" fill="url(#paint17_linear_799_10371)"/>
<path d="M177.564 82.554H160.987V89.3125H177.564V82.554Z" fill="url(#paint18_linear_799_10371)"/>
<path opacity="0.3" d="M177.564 82.554H173.791V89.0785H177.564V82.554Z" fill="black"/>
<path d="M179.607 76.8416H165.47V82.6056H179.607V76.8416Z" fill="url(#paint19_linear_799_10371)"/>
<path opacity="0.3" d="M129.937 207.595H121.488V222.56H129.937V207.595Z" fill="black"/>
<path opacity="0.3" d="M135.672 194.529H127.224V207.595H135.672V194.529Z" fill="black"/>
<path opacity="0.3" d="M139.774 182.128H131.325V194.569H139.774V182.128Z" fill="black"/>
<path opacity="0.3" d="M144.415 169.385H135.966V182.288H144.415V169.385Z" fill="black"/>
<path opacity="0.3" d="M149.748 157.396H141.299V169.538H149.748V157.396Z" fill="black"/>
<path opacity="0.3" d="M154.188 147.245H145.74V157.395H154.188V147.245Z" fill="black"/>
<path opacity="0.3" d="M158.06 137.086H149.611V147.245H158.06V137.086Z" fill="black"/>
<path opacity="0.3" d="M160.847 128.81H153.217V137.355H160.847V128.81Z" fill="black"/>
<path opacity="0.3" d="M164.318 120.032H156.922V128.576H164.318V120.032Z" fill="black"/>
<path opacity="0.3" d="M166.6 111.419H160.243V119.964H166.6V111.419Z" fill="black"/>
<path opacity="0.3" d="M169.996 102.802H164.536V111.346H169.996V102.802Z" fill="black"/>
<path d="M68.8355 208.026C84.659 208.026 100.483 208.026 116.306 208.026C120.72 208.026 125.134 208.026 129.548 208.026C129.79 208.026 129.79 207.651 129.548 207.651C113.725 207.651 97.901 207.651 82.0775 207.651C77.6635 207.651 73.2495 207.651 68.8355 207.651C68.594 207.651 68.594 208.026 68.8355 208.026Z" fill="#263238"/>
<path d="M80.955 194.597C95.1965 194.597 109.438 194.597 123.679 194.597C127.677 194.597 131.674 194.597 135.672 194.597C135.913 194.597 135.913 194.222 135.672 194.222C121.43 194.222 107.189 194.222 92.948 194.222C88.9505 194.222 84.953 194.222 80.955 194.222C80.714 194.222 80.7135 194.597 80.955 194.597Z" fill="#263238"/>
<path d="M89.469 182.316C103.71 182.316 117.952 182.316 132.193 182.316C136.191 182.316 140.188 182.316 144.186 182.316C144.428 182.316 144.428 181.941 144.186 181.941C129.945 181.941 115.703 181.941 101.462 181.941C97.465 181.941 93.4675 181.941 89.4695 181.941C89.2275 181.941 89.227 182.316 89.469 182.316Z" fill="#263238"/>
<path d="M98.6265 169.573C110.523 169.573 122.42 169.573 134.316 169.573C137.674 169.573 141.031 169.573 144.389 169.573C144.631 169.573 144.631 169.198 144.389 169.198C132.493 169.198 120.596 169.198 108.699 169.198C105.342 169.198 101.984 169.198 98.6265 169.198C98.385 169.198 98.385 169.573 98.6265 169.573Z" fill="#263238"/>
<path d="M106.825 157.583C119.123 157.583 131.421 157.583 143.718 157.583C147.208 157.583 150.698 157.583 154.188 157.583C154.43 157.583 154.43 157.208 154.188 157.208C141.89 157.208 129.592 157.208 117.295 157.208C113.805 157.208 110.315 157.208 106.825 157.208C106.583 157.208 106.583 157.583 106.825 157.583Z" fill="#263238"/>
<path d="M114.81 147.432C126.06 147.432 137.31 147.432 148.56 147.432C151.727 147.432 154.894 147.432 158.06 147.432C158.302 147.432 158.302 147.057 158.06 147.057C146.81 147.057 135.56 147.057 124.31 147.057C121.144 147.057 117.977 147.057 114.81 147.057C114.569 147.057 114.568 147.432 114.81 147.432Z" fill="#263238"/>
<path d="M121.488 137.346C131.701 137.346 141.914 137.346 152.126 137.346C155.032 137.346 157.938 137.346 160.844 137.346C161.086 137.346 161.086 136.971 160.844 136.971C150.632 136.971 140.419 136.971 130.206 136.971C127.3 136.971 124.394 136.971 121.488 136.971C121.247 136.971 121.247 137.346 121.488 137.346Z" fill="#263238"/>
<path d="M128.176 128.998C137.565 128.998 146.953 128.998 156.342 128.998C159.001 128.998 161.66 128.998 164.319 128.998C164.56 128.998 164.56 128.623 164.319 128.623C154.93 128.623 145.541 128.623 136.152 128.623C133.493 128.623 130.835 128.623 128.176 128.623C127.934 128.623 127.934 128.998 128.176 128.998Z" fill="#263238"/>
<path d="M133.538 120.294C142.113 120.294 150.688 120.294 159.263 120.294C161.707 120.294 164.151 120.294 166.595 120.294C166.836 120.294 166.836 119.919 166.595 119.919C158.02 119.919 149.445 119.919 140.87 119.919C138.426 119.919 135.982 119.919 133.538 119.919C133.297 119.919 133.297 120.294 133.538 120.294Z" fill="#263238"/>
<path d="M139.8 111.595C149.865 111.595 159.93 111.595 169.996 111.595C170.237 111.595 170.237 111.22 169.996 111.22C159.93 111.22 149.865 111.22 139.8 111.22C139.558 111.22 139.558 111.595 139.8 111.595Z" fill="#263238"/>
<path d="M146.308 102.807C155.397 102.807 164.486 102.807 173.576 102.807C173.817 102.807 173.817 102.432 173.576 102.432C164.487 102.432 155.398 102.432 146.308 102.432C146.067 102.432 146.067 102.807 146.308 102.807Z" fill="#263238"/>
<path d="M151.765 96.2886C159.489 96.2886 167.212 96.2886 174.936 96.2886C175.178 96.2886 175.178 95.9136 174.936 95.9136C167.213 95.9136 159.489 95.9136 151.765 95.9136C151.524 95.9136 151.523 96.2886 151.765 96.2886Z" fill="#263238"/>
<path d="M156.062 89.5076C163.229 89.5076 170.396 89.5076 177.564 89.5076C177.805 89.5076 177.805 89.1326 177.564 89.1326C170.396 89.1326 163.229 89.1326 156.062 89.1326C155.82 89.1326 155.82 89.5076 156.062 89.5076Z" fill="#263238"/>
<path opacity="0.3" d="M173.575 96.3293H168.951V102.619H173.575V96.3293Z" fill="black"/>
<path opacity="0.3" d="M174.932 89.54H170.308V95.83H174.932V89.54Z" fill="black"/>
<path opacity="0.3" d="M179.607 76.825H175.834V82.6225H179.607V76.825Z" fill="black"/>
<path d="M161.195 82.7935C167.333 82.7935 173.47 82.7935 179.607 82.7935C179.849 82.7935 179.849 82.4185 179.607 82.4185C173.47 82.4185 167.333 82.4185 161.195 82.4185C160.954 82.4185 160.954 82.7935 161.195 82.7935Z" fill="#263238"/>
<path d="M53.223 210.749L56.6985 210.411L55.8585 218.413L52.3785 218.752L53.223 210.749Z" fill="#B97964"/>
<path d="M56.7881 216.947L55.4896 216.802C55.1956 216.769 54.9036 216.88 54.6966 217.086C53.8061 217.975 53.2966 217.544 52.6156 216.54C52.1061 216.425 51.8841 216.974 51.8201 217.121L50.3591 220.368C50.2336 220.639 50.3616 220.95 50.6451 221.063C50.6956 221.083 50.7486 221.096 50.8036 221.102C52.3806 221.278 53.1266 221.361 55.0891 221.58L61.0911 222.25C62.7271 222.433 63.2951 220.904 62.6426 220.683C59.7051 219.708 57.6826 218.621 56.8681 217.679C56.7161 217.513 56.9106 217.423 56.7881 216.947Z" fill="#263238"/>
<path d="M59.4661 218.216C59.6166 218.138 59.7201 217.998 59.7456 217.838C59.7696 217.753 59.7411 217.664 59.6716 217.608C59.3046 217.289 57.5761 217.829 57.3811 217.893C57.3601 217.898 57.3416 217.911 57.3316 217.93C57.3131 217.964 57.3266 218.005 57.3621 218.022C57.7481 218.157 58.1486 218.252 58.5571 218.307C58.8606 218.369 59.1791 218.337 59.4661 218.216ZM59.5526 217.714C59.5831 217.737 59.5946 217.776 59.5816 217.811C59.5581 217.926 59.4836 218.027 59.3776 218.087C58.9706 218.308 58.0971 218.096 57.6301 217.958C58.3451 217.751 59.3496 217.54 59.5526 217.714Z" fill="url(#paint20_linear_799_10371)"/>
<path d="M57.4151 218.044C57.9311 217.905 59.0636 217.258 59.0671 216.849C59.0711 216.763 59.0221 216.655 58.8061 216.603C57.9301 216.407 57.3266 217.883 57.3171 217.947C57.3046 217.972 57.3086 218.002 57.3276 218.022C57.3436 218.029 57.3611 218.031 57.3786 218.028L57.4151 218.044ZM58.7581 216.724C58.9211 216.759 58.9126 216.815 58.9096 216.835C58.9201 217.086 58.0861 217.636 57.5176 217.843C57.6796 217.501 58.1356 216.651 58.6991 216.714L58.7581 216.724Z" fill="url(#paint21_linear_799_10371)"/>
<path d="M57.5501 218C57.0946 218.008 56.6426 218.216 56.3486 218.552" stroke="url(#paint22_linear_799_10371)" stroke-width="0.363372" stroke-miterlimit="10" stroke-linecap="round" stroke-linejoin="round"/>
<path d="M58.273 218.667C57.817 218.675 57.3655 218.883 57.0715 219.219" stroke="url(#paint23_linear_799_10371)" stroke-width="0.363372" stroke-miterlimit="10" stroke-linecap="round" stroke-linejoin="round"/>
<path d="M59.2061 219.265C58.7506 219.273 58.2986 219.481 58.0051 219.817" stroke="url(#paint24_linear_799_10371)" stroke-width="0.363372" stroke-miterlimit="10" stroke-linecap="round" stroke-linejoin="round"/>
<path d="M16.2996 169.78L16.3946 171.35L33.8651 180.275L34.6031 178.958L16.2996 169.78Z" fill="url(#paint25_linear_799_10371)"/>
<path opacity="0.2" d="M16.2996 169.78L16.3946 171.35L33.8651 180.275L34.6031 178.958L16.2996 169.78Z" fill="black"/>
<path d="M29.097 159.651C29.097 159.651 31.1655 157.415 33.174 158.279C35.183 159.143 34.765 162.568 34.765 162.568L33.669 161.979C33.669 161.979 34.442 159.567 33.0105 158.977C31.579 158.386 29.861 160.155 29.861 160.155L29.249 159.695" fill="#263238"/>
<path d="M16.2996 169.78L17.1991 168.232L23.7051 157.036L40.5741 165.218L34.6031 178.958L16.2996 169.78Z" fill="url(#paint26_linear_799_10371)"/>
<path d="M34.0165 154.838C33.734 154.885 31.922 156.467 31.535 156.937C31.148 157.407 31.058 157.741 31.262 157.957C31.466 158.173 31.706 158.395 31.7775 158.406C31.849 158.418 31.4415 158.903 31.81 159.237C32.1785 159.571 32.402 159.551 32.402 159.551C32.402 159.551 32.169 160.321 32.6715 160.622C33.174 160.922 33.4465 160.709 33.53 160.759C33.6135 160.809 34.2425 159.974 34.2425 159.974L34.7145 161.038C34.7145 161.038 35.046 160.799 35.418 160.308C35.79 159.817 36.015 158.294 36.015 158.294L35.946 156.888L36.7405 155.014C36.7405 155.014 34.4305 154.316 34.404 154.367C34.3775 154.419 34.0165 154.838 34.0165 154.838Z" fill="#B97964"/>
<path opacity="0.2" d="M23.7051 157.036C23.7051 157.036 24.0151 166.043 29.0976 167.419C34.1801 168.795 40.5746 165.218 40.5746 165.218" fill="black"/>
<path d="M87.9086 118.983C87.9086 118.983 88.8321 116.66 89.2036 116.176C89.5751 115.692 90.5976 115.54 90.5976 115.54C90.5976 115.54 94.1706 113.553 94.3586 113.883C94.5466 114.214 93.9116 114.628 93.6166 114.874C93.3216 115.12 92.5746 115.577 92.5746 115.577C92.5746 115.577 92.5051 116.15 92.2066 116.286C92.2066 116.286 92.9231 116.444 92.5701 116.904C92.5701 116.904 93.2396 117.098 92.8981 117.764C92.8981 117.764 93.2291 118.383 92.8921 118.639C92.5551 118.894 91.8741 119.937 90.9226 120.204C89.9711 120.472 88.7626 121.114 88.7626 121.114L87.9086 118.983Z" fill="#B97964"/>
<path d="M90.612 115.689C91.217 115.703 91.822 115.684 92.425 115.634C92.3985 115.623 92.372 115.612 92.3455 115.601C92.3535 115.61 92.346 115.614 92.339 115.592C92.3415 115.601 92.3515 115.608 92.356 115.616C92.3765 115.648 92.3975 115.68 92.413 115.716C92.4455 115.791 92.4625 115.881 92.4305 115.961C92.37 116.111 92.184 116.182 92.043 116.227C91.855 116.288 91.659 116.321 91.465 116.357C91.124 116.42 90.6755 116.48 90.444 116.771C90.3315 116.913 90.3215 117.101 90.4365 117.244C90.5665 117.407 90.776 117.438 90.972 117.433C91.501 117.42 92.03 117.305 92.522 117.113C92.6555 117.061 92.5975 116.843 92.462 116.896C92.196 117 91.9215 117.081 91.6405 117.134C91.504 117.16 91.3665 117.18 91.228 117.192C91.09 117.205 90.9365 117.225 90.7985 117.201C90.7035 117.185 90.5725 117.126 90.576 117.01C90.5795 116.9 90.7085 116.823 90.793 116.778C90.992 116.671 91.2251 116.63 91.4446 116.588C91.6741 116.545 91.9075 116.51 92.129 116.435C92.3165 116.371 92.5165 116.273 92.615 116.092C92.7195 115.898 92.6675 115.602 92.5075 115.447C92.433 115.374 92.2785 115.421 92.1825 115.428C92.008 115.44 91.8335 115.45 91.659 115.456C91.3095 115.47 90.96 115.472 90.6105 115.464C90.4675 115.461 90.4675 115.686 90.612 115.689Z" fill="#A24E3F"/>
<path d="M90.7831 117.238C90.6046 117.36 90.4541 117.548 90.4476 117.773C90.4411 118.006 90.6576 118.173 90.8696 118.213C91.1811 118.271 91.5286 118.155 91.8336 118.098C92.1771 118.034 92.5211 117.969 92.8646 117.905C93.0066 117.878 92.9466 117.661 92.8046 117.688C92.2861 117.785 91.7686 117.888 91.2491 117.979C91.0831 118.009 90.7321 118.045 90.6741 117.816C90.6366 117.668 90.7896 117.506 90.8961 117.433C91.0156 117.351 90.9031 117.156 90.7831 117.238Z" fill="#A24E3F"/>
<path d="M91.1326 118.008C90.9636 118.065 90.8456 118.244 90.7866 118.404C90.7096 118.614 90.8196 118.805 91.0091 118.909C91.2541 119.042 91.5411 118.989 91.8046 118.961C92.1121 118.928 92.4201 118.894 92.7276 118.861C92.8701 118.846 92.8716 118.621 92.7276 118.636C92.4861 118.662 92.2451 118.688 92.0036 118.714C91.7811 118.738 91.5471 118.786 91.3226 118.769C91.2041 118.76 90.9541 118.683 90.9851 118.522C91.0036 118.425 91.0916 118.259 91.1921 118.225C91.3291 118.178 91.2701 117.961 91.1326 118.008Z" fill="#A24E3F"/>
<path d="M90.219 117.16C90.318 117.783 90.043 118.451 89.5355 118.824C89.42 118.909 89.532 119.105 89.649 119.019C90.2455 118.58 90.552 117.832 90.436 117.1C90.4135 116.958 90.1965 117.018 90.219 117.16Z" fill="#A24E3F"/>
<path d="M60.6881 127.585C58.5251 127.723 56.4976 127.154 55.0316 125.682C55.4806 125.241 55.7401 124.497 55.8981 123.907C56.2561 122.556 56.3711 121.165 56.2371 119.793C56.1801 118.999 56.0811 118.209 55.9411 117.427L58.0696 119.184L60.4216 121.099C60.2891 121.536 60.1921 121.982 60.1316 122.431C59.9841 123.689 59.8261 125.605 61.5096 125.989C61.9556 126.756 62.7626 127.509 60.6881 127.585Z" fill="#B97964"/>
<path opacity="0.2" d="M56.2225 120.834C56.2225 120.834 57.649 124.384 60.063 123.083L60.1525 122.273L56.2225 120.834Z" fill="black"/>
<path d="M54.8811 113.338C55.6396 111.032 58.1971 109.689 60.5926 110.339C63.8956 111.239 64.6826 115.828 64.1806 118.703C63.6211 121.904 59.6706 123.762 57.0031 121.617C55.2251 120.19 55.1416 118.349 54.7121 115.25C54.6186 114.613 54.6766 113.96 54.8811 113.338Z" fill="#B97964"/>
<path d="M65.0485 112.256C65.0485 112.256 64.749 112.615 64.463 112.515C64.7425 112.05 64.6995 111.478 64.355 111.075C64.355 111.075 64.155 111.568 63.9125 111.581C63.7525 110.424 63.2235 109.353 62.3955 108.511C60.958 106.951 56.3355 109.042 56.3355 109.042C56.3355 109.042 55.2125 108.111 53.4635 109.732C52.0615 111.032 51.9275 113.653 52.0725 114.78C52.6025 115.86 53.8315 116.897 55.487 117.41C56.286 116.479 56.3265 115.087 56.233 114.126C56.477 114.055 56.7035 113.926 56.888 113.744C57.604 113.04 57.035 110.628 59.9285 110.953C60.435 110.635 61.081 110.625 61.578 110.927C62.472 111.433 62.9855 114.253 64.2035 113.411C65.421 112.569 65.0485 112.256 65.0485 112.256Z" fill="#263238"/>
<path d="M59.6936 115.889C59.7336 116.243 60.0076 116.486 60.2541 116.436C60.5006 116.386 60.6381 116.06 60.5741 115.709C60.5106 115.358 60.2541 115.113 60.0136 115.162C59.7731 115.211 59.6291 115.532 59.6936 115.889Z" fill="#263238"/>
<path d="M62.771 115.507C62.811 115.861 63.091 116.104 63.3315 116.054C63.5725 116.005 63.7155 115.678 63.6515 115.327C63.588 114.976 63.3315 114.731 63.091 114.78C62.8505 114.829 62.7095 115.173 62.771 115.507Z" fill="#263238"/>
<path d="M63.7176 113.329C63.6676 113.369 63.6001 113.382 63.5401 113.362C63.1381 113.21 62.6791 113.251 62.3006 113.471C62.2236 113.525 62.1171 113.511 62.0626 113.439C62.0081 113.367 62.0266 113.265 62.1036 113.211L62.1041 113.21C62.5751 112.92 63.1571 112.862 63.6656 113.053C63.7541 113.082 63.7996 113.174 63.7671 113.259C63.7666 113.26 63.7661 113.262 63.7656 113.263C63.7536 113.287 63.7371 113.31 63.7176 113.329Z" fill="#263238"/>
<path d="M58.6236 114.441C58.5891 114.447 58.5541 114.442 58.5236 114.428C58.4496 114.375 58.4376 114.272 58.4961 114.2C58.4966 114.199 58.4976 114.198 58.4986 114.197C58.8406 113.771 59.3736 113.523 59.9271 113.533C60.0211 113.54 60.0886 113.619 60.0781 113.708C60.0656 113.797 59.9821 113.863 59.8891 113.858C59.4511 113.862 59.0346 114.064 58.7656 114.401C58.7261 114.433 58.6741 114.448 58.6236 114.441Z" fill="#263238"/>
<path d="M53.004 117.96C53.368 118.739 54.046 119.339 54.8895 119.628C56.0095 120.003 56.6815 119.053 56.467 117.995C56.267 117.057 55.4505 115.701 54.278 115.794C53.1055 115.886 52.57 116.997 53.004 117.96Z" fill="#B97964"/>
<path opacity="0.1" d="M55.6836 118.218C55.6116 117.64 55.2566 117.109 54.7426 116.808C54.5241 116.68 54.2216 116.599 54.0151 116.756" stroke="black" stroke-width="0.363372" stroke-miterlimit="10"/>
<path d="M61.2711 118.582C60.5686 118.523 59.8926 118.322 59.2871 117.992C59.2451 118.102 59.2201 118.217 59.2131 118.333C59.1941 118.539 59.2286 118.746 59.3131 118.933C59.4866 119.316 59.9206 119.689 60.9601 119.783C61.0366 119.793 61.1136 119.8 61.1911 119.803C61.3126 119.399 61.4641 119.003 61.6446 118.618C61.6446 118.618 61.5036 118.61 61.2711 118.582Z" fill="#263238"/>
<path d="M59.304 117.989C59.262 118.099 59.237 118.214 59.23 118.33C59.4965 118.643 60.167 118.832 61.1455 118.928L61.2885 118.579C60.5855 118.52 59.9095 118.319 59.304 117.989Z" fill="white"/>
<path d="M60.4386 119.256C60.0886 119.085 59.7071 118.976 59.3126 118.933C59.4861 119.317 59.9201 119.69 60.9596 119.783C60.8501 119.558 60.6676 119.373 60.4386 119.256Z" fill="#F54948"/>
<path d="M61.7491 115.233C62.2496 115.999 62.8616 116.692 63.5666 117.292C63.2171 117.644 62.7271 117.836 62.2281 117.816L61.7491 115.233Z" fill="#A24E3F"/>
<path d="M83.3311 197.162L86.6566 196.295L87.6326 204.318L84.3026 205.186L83.3311 197.162Z" fill="#B97964"/>
<path d="M88.213 202.729L86.9095 202.785C86.6145 202.798 86.353 202.952 86.1975 203.187C85.5255 204.2 84.9305 203.853 84.038 202.967C83.5135 202.931 83.42 203.508 83.39 203.663L82.69 207.09C82.6285 207.376 82.8235 207.663 83.126 207.732C83.18 207.744 83.235 207.748 83.2895 207.745C84.8725 207.677 85.621 207.645 87.5915 207.56L93.6165 207.301C95.259 207.23 95.471 205.634 94.783 205.516C91.6885 205.005 89.465 204.243 88.4565 203.439C88.2695 203.298 88.4395 203.18 88.213 202.729Z" fill="#263238"/>
<path d="M91.1196 203.57C91.2491 203.47 91.3191 203.316 91.3081 203.154C91.3126 203.067 91.2646 202.984 91.1841 202.939C90.7531 202.681 89.1826 203.478 89.0066 203.572C88.9866 203.58 88.9721 203.596 88.9661 203.615C88.9556 203.652 88.9781 203.691 89.0171 203.702C89.4246 203.775 89.8381 203.808 90.2506 203.8C90.5611 203.814 90.8656 203.734 91.1196 203.57ZM91.0911 203.062C91.1261 203.08 91.1461 203.116 91.1411 203.153C91.1436 203.27 91.0936 203.381 91.0036 203.457C90.6551 203.737 89.7521 203.662 89.2641 203.597C89.9176 203.284 90.8536 202.921 91.0911 203.062Z" fill="url(#paint27_linear_799_10371)"/>
<path d="M89.0731 203.716C89.5466 203.5 90.5101 202.687 90.4216 202.283C90.4061 202.198 90.3341 202.099 90.1106 202.08C89.2091 202.021 88.9501 203.57 88.9556 203.635C88.9491 203.662 88.9596 203.69 88.9826 203.707C88.9996 203.711 89.0176 203.711 89.0336 203.705L89.0731 203.716ZM90.0911 202.207C90.2581 202.216 90.2631 202.273 90.2646 202.294C90.3316 202.54 89.6386 203.21 89.1286 203.501C89.2101 203.139 89.4656 202.231 90.0311 202.206L90.0911 202.207Z" fill="url(#paint28_linear_799_10371)"/>
<path d="M89.1955 203.651C88.7515 203.729 88.3555 204.003 88.144 204.38" stroke="url(#paint29_linear_799_10371)" stroke-width="0.363372" stroke-miterlimit="10" stroke-linecap="round" stroke-linejoin="round"/>
<path d="M90.053 204.198C89.609 204.276 89.213 204.55 89.001 204.927" stroke="url(#paint30_linear_799_10371)" stroke-width="0.363372" stroke-miterlimit="10" stroke-linecap="round" stroke-linejoin="round"/>
<path d="M91.1006 204.645C90.6566 204.723 90.2606 204.997 90.0491 205.374" stroke="url(#paint31_linear_799_10371)" stroke-width="0.363372" stroke-miterlimit="10" stroke-linecap="round" stroke-linejoin="round"/>
<path d="M85.8875 187.577C85.25 183.667 84.343 179.274 82.6785 175.68C78.109 165.809 68.711 157.064 63.22 149.958L51.1965 155.451C56.76 160.832 63.3275 167.959 69.222 173.136C71.0825 174.77 73.007 177.267 74.6325 179.135C74.6325 179.135 77.366 184.912 78.2985 188.376C79.2855 192.044 80.9845 198.299 81.6685 202.206L88.144 200.667C87.7945 197.771 86.506 191.373 85.8875 187.577Z" fill="url(#paint32_linear_799_10371)"/>
<g opacity="0.2">
<path d="M85.8875 187.577C85.25 183.667 84.343 179.274 82.6785 175.68C78.109 165.809 68.711 157.064 63.22 149.958L51.1965 155.451C56.76 160.832 63.3275 167.959 69.222 173.136C71.0825 174.77 73.007 177.267 74.6325 179.135C74.6325 179.135 77.366 184.912 78.2985 188.376C79.2855 192.044 80.9845 198.299 81.6685 202.206L88.144 200.667C87.7945 197.771 86.506 191.373 85.8875 187.577Z" fill="black"/>
</g>
<path d="M66.5605 155.166C66.4695 155.534 63.023 186.507 61.414 192.421C59.805 198.334 58.0845 208.934 57.797 215.27L51.5885 215.963C51.5885 215.963 52.3155 206.235 53.27 189.229C54.2245 172.222 50.8005 161.689 50.2465 157.062C49.692 152.434 66.5605 155.166 66.5605 155.166Z" fill="url(#paint33_linear_799_10371)"/>
<path opacity="0.2" d="M66.5605 155.166C66.4695 155.534 63.023 186.507 61.414 192.421C59.805 198.334 58.0845 208.934 57.797 215.27L51.5885 215.963C51.5885 215.963 52.3155 206.235 53.27 189.229C54.2245 172.222 50.8005 161.689 50.2465 157.062C49.692 152.434 66.5605 155.166 66.5605 155.166Z" fill="black"/>
<path opacity="0.2" d="M64.881 169.116C64.9885 168.743 64.881 161.948 64.881 161.948L66.5605 159.225L65.812 162.165L67.102 171.221L64.881 169.116Z" fill="black"/>
<path d="M54.6031 124.938L61.9971 125.591C63.3546 125.648 65.2076 127.425 65.5401 129.544C67.0786 141.868 67.0795 152.851 67.0795 152.851C64.163 155.994 59.7931 154.872 49.7141 155.165L52.215 127.803C52.2485 126.463 53.7161 124.938 54.6031 124.938Z" fill="white"/>
<path d="M61.5681 125.51L61.0001 125.402L60.2731 123.747L59.3986 125.096L56.1606 122.192L54.7416 124.442L57.8901 128.769L61.1171 129.207L61.5681 125.51Z" fill="white"/>
<path d="M60.317 128.129C60.317 128.129 64.7675 147.969 64.7035 148.931C64.6395 149.892 63.5085 152.374 63.5085 152.374L60.6175 147.91L59.566 128.279L60.317 128.129Z" fill="url(#paint34_linear_799_10371)"/>
<path d="M59.5156 125.764C59.6156 125.789 60.5671 126.766 60.5671 126.766L60.2666 128.193L59.5156 128.344L58.5641 126.791L59.5156 125.764Z" fill="url(#paint35_linear_799_10371)"/>
<path opacity="0.2" d="M51.59 164.21C51.59 164.21 56.4825 164.887 58.665 165.021C60.847 165.154 61.248 165.502 61.426 164.616C61.604 163.729 61.572 151.75 60.8755 149.123C60.179 146.495 57.6855 132.092 57.6855 132.092L51.2715 162.568L51.59 164.21Z" fill="black"/>
<path d="M87.8106 117.989C87.8106 117.989 77.1786 123.014 73.8806 124.557C70.5826 126.099 65.0576 125.469 65.0576 125.469L66.3226 133.09C66.3226 133.09 73.6081 130.264 76.7581 128.778C82.1511 126.234 88.4441 122.054 89.4586 121.757L87.8106 117.989Z" fill="#263238"/>
<path d="M65.8086 125.533C66.0286 125.863 67.6806 145.765 67.7371 148.529C67.7936 151.293 70.4316 157.812 70.4316 157.812L66.3146 153.554C66.3146 153.554 64.8931 135.155 63.6631 132.258C62.1351 128.659 60.5676 124.417 60.5676 124.417L61.8526 125.202C64.0541 125.16 65.8086 125.533 65.8086 125.533Z" fill="#263238"/>
<path opacity="0.3" d="M61.8526 125.202L63.8026 128.107C64.0706 128.506 63.8861 129.05 63.4311 129.204L63.1351 129.305L64.5376 130.043L64.9116 139.766C64.9116 139.766 64.3001 134.258 64.0011 133.411C63.2196 131.198 60.5676 124.417 60.5676 124.417C60.6626 124.426 61.8526 125.202 61.8526 125.202Z" fill="black"/>
<path opacity="0.3" d="M66.7836 132.91L66.5076 129.207L68.2756 132.323L66.7836 132.91Z" fill="black"/>
<path d="M57.9325 131.733C57.9325 130.514 55.0111 123.542 55.0111 123.542L54.319 124.502L50.3215 126.125L48.8045 135.551C48.8025 136.233 49.848 147.231 49.848 147.231C49.801 148.028 47.1471 161.403 47.0731 162.173C47.0001 162.934 60.431 164.629 60.804 164.124C61.2655 163.499 57.9325 132.953 57.9325 131.733Z" fill="#263238"/>
<path d="M50.5 126.053C50.5 126.053 49.305 126.494 47.852 127.605C46.3995 128.716 42.622 138.21 41.1695 140.773C39.717 143.337 33.6345 153.798 33.8905 154.037C34.147 154.277 36.283 156.669 37.1375 156.242C37.992 155.814 44.378 147.098 46.7095 142.622C49.041 138.147 51.4695 134.33 51.665 134.188C51.8605 134.046 50.5 126.053 50.5 126.053Z" fill="#263238"/>
<path opacity="0.3" d="M55.0111 123.543L54.3191 124.502C54.3191 124.502 53.2555 128.17 53.9735 129.396L55.2281 129.933L54.4766 130.776L58.8591 141.01L57.8741 131.313C57.3696 129.286 56.2171 126.448 55.0111 123.543Z" fill="black"/>
<path opacity="0.3" d="M48.9536 138.542L51.1966 134.844L49.4806 143.321L48.9536 138.542Z" fill="black"/>
<g opacity="0.3">
<path d="M48.8151 153.265L53.7016 153.634V155.465L48.5081 154.926L48.8151 153.265Z" fill="black"/>
</g>
<path d="M196.412 61.506C200.844 51.045 195.956 38.9719 185.495 34.5401C175.034 30.1083 162.961 34.9959 158.529 45.4569C154.098 55.9179 158.985 67.9909 169.446 72.4227C179.907 76.8546 191.98 71.967 196.412 61.506Z" fill="url(#paint36_linear_799_10371)"/>
<path opacity="0.3" d="M196.412 61.506C200.844 51.045 195.956 38.9719 185.495 34.5401C175.034 30.1083 162.961 34.9959 158.529 45.4569C154.098 55.9179 158.985 67.9909 169.446 72.4227C179.907 76.8546 191.98 71.967 196.412 61.506Z" fill="black"/>
<path d="M196.332 54.8627C198.325 43.678 190.873 32.9956 179.689 31.003C168.504 29.0103 157.822 36.4619 155.829 47.6465C153.836 58.8312 161.288 69.5136 172.473 71.5063C183.657 73.4989 194.34 66.0474 196.332 54.8627Z" fill="url(#paint37_linear_799_10371)"/>
<path d="M191.4 57.6035C194.904 49.1421 190.886 39.4424 182.424 35.9384C173.963 32.4345 164.263 36.4532 160.759 44.9145C157.255 53.3759 161.274 63.0756 169.735 66.5796C178.197 70.0835 187.896 66.0648 191.4 57.6035Z" fill="white"/>
<path d="M186.979 55.2024C189.161 49.1779 186.047 42.5249 180.022 40.3425C173.998 38.1601 167.345 41.2746 165.162 47.2991C162.98 53.3235 166.095 59.9765 172.119 62.1589C178.143 64.3413 184.796 61.2268 186.979 55.2024Z" fill="url(#paint38_linear_799_10371)"/>
<path d="M183.303 52.5725C184.026 48.5823 181.379 44.7608 177.388 44.0369C173.398 43.3131 169.577 45.9609 168.853 49.951C168.129 53.9411 170.777 57.7626 174.767 58.4865C178.757 59.2104 182.579 56.5626 183.303 52.5725Z" fill="white"/>
<path d="M178.731 50.0959C179.339 51.5754 178.632 53.2674 177.152 53.8749C175.673 54.4824 173.981 53.7754 173.373 52.2959C172.766 50.8164 173.473 49.1244 174.952 48.5169C176.432 47.9099 178.124 48.6164 178.731 50.0959Z" fill="url(#paint39_linear_799_10371)"/>
<defs>
<linearGradient id="paint0_linear_799_10371" x1="69.2758" y1="101.652" x2="83.0108" y2="106.663" gradientUnits="userSpaceOnUse">
<stop stop-color="#0059B3"/>
<stop offset="1" stop-color="#003366"/>
</linearGradient>
<linearGradient id="paint1_linear_799_10371" x1="72.5775" y1="109.103" x2="72.5775" y2="112.024" gradientUnits="userSpaceOnUse">
<stop stop-color="#0059B3"/>
<stop offset="1" stop-color="#003366"/>
</linearGradient>
<linearGradient id="paint2_linear_799_10371" x1="69.4555" y1="96.8699" x2="69.4555" y2="102.488" gradientUnits="userSpaceOnUse">
<stop stop-color="#0059B3"/>
<stop offset="1" stop-color="#003366"/>
</linearGradient>
<linearGradient id="paint3_linear_799_10371" x1="67.4273" y1="103.576" x2="67.4273" y2="104.656" gradientUnits="userSpaceOnUse">
<stop stop-color="#0059B3"/>
<stop offset="1" stop-color="#003366"/>
</linearGradient>
<linearGradient id="paint4_linear_799_10371" x1="117.432" y1="79.5825" x2="117.432" y2="143.288" gradientUnits="userSpaceOnUse">
<stop stop-color="#0059B3"/>
<stop offset="1" stop-color="#003366"/>
</linearGradient>
<linearGradient id="paint5_linear_799_10371" x1="99.4585" y1="207.595" x2="99.4585" y2="222.56" gradientUnits="userSpaceOnUse">
<stop stop-color="#0059B3"/>
<stop offset="1" stop-color="#003366"/>
</linearGradient>
<linearGradient id="paint6_linear_799_10371" x1="108.393" y1="194.537" x2="108.393" y2="207.595" gradientUnits="userSpaceOnUse">
<stop stop-color="#0059B3"/>
<stop offset="1" stop-color="#003366"/>
</linearGradient>
<linearGradient id="paint7_linear_799_10371" x1="114.629" y1="182.2" x2="114.629" y2="194.537" gradientUnits="userSpaceOnUse">
<stop stop-color="#0059B3"/>
<stop offset="1" stop-color="#003366"/>
</linearGradient>
<linearGradient id="paint8_linear_799_10371" x1="121.488" y1="169.538" x2="121.488" y2="182.2" gradientUnits="userSpaceOnUse">
<stop stop-color="#0059B3"/>
<stop offset="1" stop-color="#003366"/>
</linearGradient>
<linearGradient id="paint9_linear_799_10371" x1="128.158" y1="157.396" x2="128.158" y2="169.538" gradientUnits="userSpaceOnUse">
<stop stop-color="#0059B3"/>
<stop offset="1" stop-color="#003366"/>
</linearGradient>
<linearGradient id="paint10_linear_799_10371" x1="134.409" y1="147.245" x2="134.409" y2="157.395" gradientUnits="userSpaceOnUse">
<stop stop-color="#0059B3"/>
<stop offset="1" stop-color="#003366"/>
</linearGradient>
<linearGradient id="paint11_linear_799_10371" x1="139.774" y1="137.108" x2="139.774" y2="147.245" gradientUnits="userSpaceOnUse">
<stop stop-color="#0059B3"/>
<stop offset="1" stop-color="#003366"/>
</linearGradient>
<linearGradient id="paint12_linear_799_10371" x1="144.502" y1="128.606" x2="144.502" y2="137.354" gradientUnits="userSpaceOnUse">
<stop stop-color="#0059B3"/>
<stop offset="1" stop-color="#003366"/>
</linearGradient>
<linearGradient id="paint13_linear_799_10371" x1="148.935" y1="119.93" x2="148.935" y2="128.678" gradientUnits="userSpaceOnUse">
<stop stop-color="#0059B3"/>
<stop offset="1" stop-color="#003366"/>
</linearGradient>
<linearGradient id="paint14_linear_799_10371" x1="153.217" y1="111.358" x2="153.217" y2="120.107" gradientUnits="userSpaceOnUse">
<stop stop-color="#0059B3"/>
<stop offset="1" stop-color="#003366"/>
</linearGradient>
<linearGradient id="paint15_linear_799_10371" x1="157.96" y1="102.658" x2="157.96" y2="111.407" gradientUnits="userSpaceOnUse">
<stop stop-color="#0059B3"/>
<stop offset="1" stop-color="#003366"/>
</linearGradient>
<linearGradient id="paint16_linear_799_10371" x1="162.644" y1="96.1011" x2="162.644" y2="102.86" gradientUnits="userSpaceOnUse">
<stop stop-color="#0059B3"/>
<stop offset="1" stop-color="#003366"/>
</linearGradient>
<linearGradient id="paint17_linear_799_10371" x1="165.47" y1="89.3201" x2="165.47" y2="96.0786" gradientUnits="userSpaceOnUse">
<stop stop-color="#0059B3"/>
<stop offset="1" stop-color="#003366"/>
</linearGradient>
<linearGradient id="paint18_linear_799_10371" x1="169.276" y1="82.554" x2="169.276" y2="89.3125" gradientUnits="userSpaceOnUse">
<stop stop-color="#0059B3"/>
<stop offset="1" stop-color="#003366"/>
</linearGradient>
<linearGradient id="paint19_linear_799_10371" x1="172.539" y1="76.8416" x2="172.539" y2="82.6056" gradientUnits="userSpaceOnUse">
<stop stop-color="#0059B3"/>
<stop offset="1" stop-color="#003366"/>
</linearGradient>
<linearGradient id="paint20_linear_799_10371" x1="58.5386" y1="217.508" x2="58.5386" y2="218.338" gradientUnits="userSpaceOnUse">
<stop stop-color="#0059B3"/>
<stop offset="1" stop-color="#003366"/>
</linearGradient>
<linearGradient id="paint21_linear_799_10371" x1="58.1886" y1="216.585" x2="58.1886" y2="218.044" gradientUnits="userSpaceOnUse">
<stop stop-color="#0059B3"/>
<stop offset="1" stop-color="#003366"/>
</linearGradient>
<linearGradient id="paint22_linear_799_10371" x1="56.9493" y1="218" x2="56.9493" y2="218.552" gradientUnits="userSpaceOnUse">
<stop stop-color="#0059B3"/>
<stop offset="1" stop-color="#003366"/>
</linearGradient>
<linearGradient id="paint23_linear_799_10371" x1="57.6723" y1="218.667" x2="57.6723" y2="219.219" gradientUnits="userSpaceOnUse">
<stop stop-color="#0059B3"/>
<stop offset="1" stop-color="#003366"/>
</linearGradient>
<linearGradient id="paint24_linear_799_10371" x1="58.6056" y1="219.265" x2="58.6056" y2="219.817" gradientUnits="userSpaceOnUse">
<stop stop-color="#0059B3"/>
<stop offset="1" stop-color="#003366"/>
</linearGradient>
<linearGradient id="paint25_linear_799_10371" x1="25.4513" y1="169.78" x2="25.4513" y2="180.275" gradientUnits="userSpaceOnUse">
<stop stop-color="#0059B3"/>
<stop offset="1" stop-color="#003366"/>
</linearGradient>
<linearGradient id="paint26_linear_799_10371" x1="28.4368" y1="157.036" x2="28.4368" y2="178.958" gradientUnits="userSpaceOnUse">
<stop stop-color="#0059B3"/>
<stop offset="1" stop-color="#003366"/>
</linearGradient>
<linearGradient id="paint27_linear_799_10371" x1="90.1364" y1="202.888" x2="90.1364" y2="203.801" gradientUnits="userSpaceOnUse">
<stop stop-color="#0059B3"/>
<stop offset="1" stop-color="#003366"/>
</linearGradient>
<linearGradient id="paint28_linear_799_10371" x1="89.6905" y1="202.078" x2="89.6905" y2="203.716" gradientUnits="userSpaceOnUse">
<stop stop-color="#0059B3"/>
<stop offset="1" stop-color="#003366"/>
</linearGradient>
<linearGradient id="paint29_linear_799_10371" x1="88.6698" y1="203.651" x2="88.6698" y2="204.38" gradientUnits="userSpaceOnUse">
<stop stop-color="#0059B3"/>
<stop offset="1" stop-color="#003366"/>
</linearGradient>
<linearGradient id="paint30_linear_799_10371" x1="89.527" y1="204.198" x2="89.527" y2="204.927" gradientUnits="userSpaceOnUse">
<stop stop-color="#0059B3"/>
<stop offset="1" stop-color="#003366"/>
</linearGradient>
<linearGradient id="paint31_linear_799_10371" x1="90.5748" y1="204.645" x2="90.5748" y2="205.374" gradientUnits="userSpaceOnUse">
<stop stop-color="#0059B3"/>
<stop offset="1" stop-color="#003366"/>
</linearGradient>
<linearGradient id="paint32_linear_799_10371" x1="69.6703" y1="149.958" x2="69.6703" y2="202.206" gradientUnits="userSpaceOnUse">
<stop stop-color="#0059B3"/>
<stop offset="1" stop-color="#003366"/>
</linearGradient>
<linearGradient id="paint33_linear_799_10371" x1="58.3968" y1="154.365" x2="58.3968" y2="215.963" gradientUnits="userSpaceOnUse">
<stop stop-color="#0059B3"/>
<stop offset="1" stop-color="#003366"/>
</linearGradient>
<linearGradient id="paint34_linear_799_10371" x1="62.1351" y1="128.129" x2="62.1351" y2="152.374" gradientUnits="userSpaceOnUse">
<stop stop-color="#0059B3"/>
<stop offset="1" stop-color="#003366"/>
</linearGradient>
<linearGradient id="paint35_linear_799_10371" x1="59.5656" y1="125.764" x2="59.5656" y2="128.344" gradientUnits="userSpaceOnUse">
<stop stop-color="#0059B3"/>
<stop offset="1" stop-color="#003366"/>
</linearGradient>
<linearGradient id="paint36_linear_799_10371" x1="158.529" y1="45.4569" x2="196.412" y2="61.506" gradientUnits="userSpaceOnUse">
<stop stop-color="#0059B3"/>
<stop offset="1" stop-color="#003366"/>
</linearGradient>
<linearGradient id="paint37_linear_799_10371" x1="155.829" y1="47.6465" x2="196.332" y2="54.8627" gradientUnits="userSpaceOnUse">
<stop stop-color="#0059B3"/>
<stop offset="1" stop-color="#003366"/>
</linearGradient>
<linearGradient id="paint38_linear_799_10371" x1="165.162" y1="47.2991" x2="186.979" y2="55.2024" gradientUnits="userSpaceOnUse">
<stop stop-color="#0059B3"/>
<stop offset="1" stop-color="#003366"/>
</linearGradient>
<linearGradient id="paint39_linear_799_10371" x1="176.052" y1="48.2993" x2="176.052" y2="54.0927" gradientUnits="userSpaceOnUse">
<stop stop-color="#0059B3"/>
<stop offset="1" stop-color="#003366"/>
</linearGradient>
</defs>
</svg>
