<svg width="250" height="220" viewBox="0 0 250 220" fill="none" xmlns="http://www.w3.org/2000/svg">
<g clip-path="url(#clip0_799_10965)">
<path d="M180.472 211.847C180.272 211.856 180.073 211.803 179.904 211.696C179.735 211.589 179.602 211.432 179.525 211.247C179.447 211.062 179.429 210.858 179.471 210.662C179.514 210.466 179.616 210.288 179.763 210.152L179.83 209.885C179.821 209.864 179.813 209.843 179.804 209.821C179.602 209.345 179.264 208.938 178.832 208.653C178.4 208.368 177.893 208.217 177.375 208.219C176.858 208.221 176.352 208.376 175.922 208.664C175.493 208.952 175.157 209.361 174.959 209.839C174.167 211.748 173.158 213.659 172.91 215.677C172.8 216.569 172.846 217.473 173.046 218.349C171.185 214.29 170.219 209.877 170.213 205.412C170.212 204.291 170.274 203.171 170.399 202.058C170.502 201.145 170.645 200.238 170.828 199.338C171.825 194.455 173.967 189.878 177.076 185.984C178.582 185.162 179.799 183.899 180.564 182.365C180.841 181.814 181.037 181.225 181.146 180.617C180.976 180.639 180.506 178.054 180.634 177.895C180.397 177.536 179.974 177.357 179.715 177.007C178.43 175.265 176.659 175.569 175.735 177.937C173.76 178.933 173.741 180.586 174.953 182.176C175.724 183.187 175.83 184.556 176.506 185.638C176.436 185.727 176.364 185.814 176.294 185.903C175.022 187.538 173.914 189.295 172.984 191.147C173.21 189.072 172.94 186.973 172.197 185.023C171.444 183.206 170.032 181.675 168.788 180.104C167.295 178.217 164.232 179.04 163.969 181.433C163.966 181.456 163.963 181.479 163.961 181.502C164.146 181.606 164.327 181.717 164.503 181.834C164.726 181.982 164.898 182.195 164.997 182.443C165.097 182.691 165.119 182.963 165.062 183.224C165.004 183.485 164.869 183.722 164.674 183.905C164.478 184.088 164.233 184.207 163.969 184.248L163.942 184.252C164.007 184.918 164.124 185.578 164.29 186.226C162.694 192.395 166.138 194.642 171.056 194.743C171.165 194.799 171.27 194.854 171.379 194.907C170.445 197.553 169.859 200.31 169.636 203.107C169.51 204.757 169.518 206.415 169.659 208.064L169.65 208.006C169.294 206.172 168.316 204.517 166.881 203.321C164.75 201.571 161.738 200.926 159.439 199.519C159.195 199.362 158.911 199.278 158.62 199.277C158.33 199.277 158.045 199.359 157.8 199.515C157.555 199.67 157.36 199.893 157.237 200.156C157.114 200.419 157.069 200.712 157.107 201C157.11 201.02 157.113 201.041 157.117 201.061C157.459 201.201 157.793 201.362 158.116 201.543C158.301 201.647 158.481 201.758 158.658 201.875C158.881 202.023 159.053 202.235 159.152 202.483C159.252 202.731 159.274 203.004 159.216 203.264C159.159 203.525 159.023 203.763 158.828 203.946C158.633 204.128 158.388 204.248 158.123 204.289L158.096 204.293C158.077 204.296 158.06 204.298 158.041 204.301C158.626 205.699 159.448 206.987 160.471 208.106C161.468 213.492 165.752 214.003 170.335 212.434H170.338C170.841 214.619 171.569 216.746 172.512 218.78H180.277C180.305 218.694 180.33 218.605 180.355 218.519C179.637 218.564 178.915 218.521 178.206 218.391C178.783 217.684 179.359 216.971 179.935 216.264C179.948 216.251 179.96 216.237 179.971 216.222C180.263 215.861 180.559 215.502 180.851 215.14L180.851 215.139C180.866 214.03 180.739 212.923 180.472 211.847Z" fill="#F2F2F2"/>
<path d="M124.849 89.0562C116.099 89.0562 107.545 86.4616 100.27 81.6004C92.9947 76.7392 87.3243 69.8298 83.9759 61.7459C80.6274 53.662 79.7513 44.7668 81.4584 36.185C83.1654 27.6032 87.3789 19.7203 93.566 13.5332C99.7531 7.34604 107.636 3.13255 116.218 1.42553C124.8 -0.281499 133.695 0.594607 141.779 3.94306C149.863 7.29151 156.772 12.9619 161.633 20.2372C166.494 27.5125 169.089 36.0659 169.089 44.8158C169.076 56.545 164.41 67.79 156.117 76.0838C147.823 84.3776 136.578 89.0429 124.849 89.0562ZM124.849 1.27216C116.237 1.27216 107.818 3.82595 100.657 8.61059C93.4964 13.3952 87.9153 20.1958 84.6196 28.1524C81.3238 36.109 80.4615 44.8642 82.1417 53.3108C83.8218 61.7574 87.9689 69.5162 94.0586 75.6059C100.148 81.6956 107.907 85.8427 116.354 87.5229C124.8 89.203 133.556 88.3407 141.512 85.045C149.469 81.7493 156.269 76.1681 161.054 69.0074C165.839 61.8467 168.392 53.428 168.392 44.8158C168.379 33.2713 163.787 22.2034 155.624 14.0402C147.461 5.87702 136.393 1.2852 124.849 1.27216Z" fill="#F2F2F2"/>
<path d="M129.703 60.8399H120.297C119.835 60.8399 119.392 60.6564 119.066 60.3298C118.739 60.0031 118.556 59.5601 118.556 59.0982C118.556 58.6363 118.739 58.1932 119.066 57.8666C119.392 57.54 119.835 57.3564 120.297 57.3564H129.703C130.165 57.3564 130.608 57.54 130.934 57.8666C131.261 58.1932 131.444 58.6363 131.444 59.0982C131.444 59.5601 131.261 60.0031 130.934 60.3298C130.608 60.6564 130.165 60.8399 129.703 60.8399Z" fill="#E6E6E6"/>
<path d="M131.863 111.391H118.137C117.462 111.391 116.816 111.124 116.339 110.647C115.862 110.17 115.595 109.524 115.595 108.849C115.595 108.175 115.862 107.529 116.339 107.052C116.816 106.575 117.462 106.307 118.137 106.307H131.863C132.538 106.307 133.184 106.575 133.661 107.052C134.138 107.529 134.405 108.175 134.405 108.849C134.405 109.524 134.138 110.17 133.661 110.647C133.184 111.124 132.538 111.391 131.863 111.391Z" fill="#004C99"/>
<path d="M170.882 100.736H79.118C78.3004 100.735 77.5165 100.41 76.9384 99.832C76.3602 99.2539 76.035 98.47 76.0341 97.6524V70.2949C76.035 69.4773 76.3602 68.6934 76.9384 68.1153C77.5165 67.5371 78.3004 67.2119 79.118 67.2109H170.882C171.7 67.2119 172.483 67.5371 173.062 68.1153C173.64 68.6934 173.965 69.4773 173.966 70.2949V97.6524C173.965 98.47 173.64 99.2539 173.062 99.832C172.483 100.41 171.7 100.735 170.882 100.736Z" fill="#E6E6E6"/>
<path d="M161.966 98.6564H81.1987C80.3811 98.6554 79.5972 98.3302 79.0191 97.752C78.4409 97.1739 78.1157 96.39 78.1147 95.5724V72.377C78.1157 71.5593 78.4409 70.7754 79.0191 70.1973C79.5972 69.6191 80.3811 69.2939 81.1987 69.293H168.802C169.619 69.2939 170.403 69.6191 170.981 70.1973C171.56 70.7754 171.885 71.5593 171.886 72.377V88.7366C171.883 91.3665 170.837 93.888 168.977 95.7476C167.117 97.6073 164.596 98.6534 161.966 98.6564Z" fill="white"/>
<path d="M134.106 77.5424H97.2238C97.0129 77.5424 96.8106 77.4586 96.6614 77.3094C96.5123 77.1603 96.4285 76.958 96.4285 76.747C96.4285 76.5361 96.5123 76.3338 96.6614 76.1846C96.8106 76.0355 97.0129 75.9517 97.2238 75.9517H134.106C134.317 75.9517 134.519 76.0355 134.668 76.1846C134.817 76.3338 134.901 76.5361 134.901 76.747C134.901 76.958 134.817 77.1603 134.668 77.3094C134.519 77.4586 134.317 77.5424 134.106 77.5424Z" fill="#004C99"/>
<path d="M152.776 80.7953H97.2238C97.0129 80.7953 96.8106 80.7115 96.6614 80.5624C96.5123 80.4132 96.4285 80.2109 96.4285 80C96.4285 79.789 96.5123 79.5867 96.6614 79.4376C96.8106 79.2884 97.0129 79.2046 97.2238 79.2046H152.776C152.987 79.2046 153.19 79.2884 153.339 79.4376C153.488 79.5867 153.572 79.789 153.572 80C153.572 80.2109 153.488 80.4132 153.339 80.5624C153.19 80.7115 152.987 80.7953 152.776 80.7953Z" fill="#E6E6E6"/>
<path d="M152.776 84.5294H97.2239C97.1193 84.5297 97.0157 84.5093 96.919 84.4694C96.8223 84.4295 96.7344 84.371 96.6604 84.2971C96.5863 84.2232 96.5276 84.1354 96.4875 84.0388C96.4474 83.9422 96.4268 83.8387 96.4268 83.7341C96.4268 83.6295 96.4474 83.5259 96.4875 83.4293C96.5276 83.3327 96.5863 83.245 96.6604 83.1711C96.7344 83.0972 96.8223 83.0387 96.919 82.9988C97.0157 82.9589 97.1193 82.9385 97.2239 82.9387H152.776C152.987 82.9392 153.189 83.0231 153.338 83.1723C153.486 83.3214 153.57 83.5234 153.57 83.7341C153.57 83.9447 153.486 84.1468 153.338 84.2959C153.189 84.445 152.987 84.529 152.776 84.5294Z" fill="#E6E6E6"/>
<path d="M152.776 88.2636H97.2239C97.1193 88.2638 97.0157 88.2434 96.919 88.2035C96.8223 88.1636 96.7344 88.1051 96.6604 88.0312C96.5863 87.9573 96.5276 87.8696 96.4875 87.773C96.4474 87.6764 96.4268 87.5728 96.4268 87.4682C96.4268 87.3636 96.4474 87.2601 96.4875 87.1635C96.5276 87.0668 96.5863 86.9791 96.6604 86.9052C96.7344 86.8313 96.8223 86.7728 96.919 86.7329C97.0157 86.693 97.1193 86.6726 97.2239 86.6729H152.776C152.987 86.6733 153.189 86.7573 153.338 86.9064C153.486 87.0555 153.57 87.2576 153.57 87.4682C153.57 87.6789 153.486 87.8809 153.338 88.03C153.189 88.1791 152.987 88.2631 152.776 88.2636Z" fill="#E6E6E6"/>
<path d="M152.776 91.9975H97.2239C97.1193 91.9977 97.0157 91.9773 96.919 91.9374C96.8223 91.8975 96.7344 91.839 96.6604 91.7651C96.5863 91.6912 96.5276 91.6035 96.4875 91.5069C96.4474 91.4103 96.4268 91.3067 96.4268 91.2021C96.4268 91.0975 96.4474 90.994 96.4875 90.8974C96.5276 90.8007 96.5863 90.713 96.6604 90.6391C96.7344 90.5652 96.8223 90.5067 96.919 90.4668C97.0157 90.4269 97.1193 90.4065 97.2239 90.4067H152.776C152.987 90.4072 153.189 90.4912 153.338 90.6403C153.486 90.7894 153.57 90.9914 153.57 91.2021C153.57 91.4128 153.486 91.6148 153.338 91.7639C153.189 91.913 152.987 91.997 152.776 91.9975Z" fill="#E6E6E6"/>
<path d="M201.586 215.102L197.858 215.101L196.085 200.722L201.587 200.723L201.586 215.102Z" fill="#A0616A"/>
<path d="M201.717 218.991L190.254 218.99V218.845C190.254 217.662 190.724 216.527 191.561 215.69C192.397 214.853 193.532 214.383 194.716 214.383L196.81 212.795L200.717 214.384L201.718 214.384L201.717 218.991Z" fill="#2F2E41"/>
<path d="M232.063 210.328L228.723 211.983L220.75 199.886L225.68 197.444L232.063 210.328Z" fill="#A0616A"/>
<path d="M233.907 213.755L223.635 218.844L223.571 218.714C223.046 217.653 222.963 216.428 223.341 215.307C223.72 214.185 224.528 213.26 225.588 212.735L226.759 210.382L230.965 210.071L231.862 209.626L233.907 213.755Z" fill="#2F2E41"/>
<path d="M190.543 137.813C190.543 137.813 186.299 143.728 189.362 153.948C192.425 164.168 190.706 173.305 191.565 175.138C192.425 176.97 194.156 178.71 192.726 180.099C191.296 181.488 190.543 182.617 191.672 182.994C192.802 183.37 196.567 209.726 196.567 209.726L202.967 210.103C202.967 210.103 205.286 197.86 202.809 187.98C202.809 187.98 203.353 180.807 202.219 178.7C201.085 176.593 201.307 178.494 201.384 175.849C201.427 173.937 201.706 172.037 202.214 170.193C202.591 168.686 202.809 153.507 202.809 153.507L209.04 173.65C209.29 174.344 209.384 175.085 209.315 175.819C209.161 176.857 209.159 178.408 209.348 178.95C209.537 179.493 209.748 179.607 209.642 180.679C209.537 181.752 222.078 204.36 222.078 204.36L228.309 200.18L222.17 180.358C221.56 179.683 221.053 178.922 220.664 178.099C219.911 176.593 219.881 176.51 220.272 175.422C220.664 174.334 220.664 172.214 220.664 171.58C220.664 170.946 221.055 142.143 216.153 137.907C211.251 133.671 190.543 137.813 190.543 137.813Z" fill="#2F2E41"/>
<path d="M213.56 91.9904L212.284 88.3595L208.801 84.876L202.375 84.1089L198.192 86.859L194.318 90.6782L188.597 138.173C188.597 138.173 215.623 148.593 219.164 139.849L213.56 91.9904Z" fill="#CCCCCC"/>
<path d="M215.751 91.9904L211.997 88.2366C211.997 88.2366 210.204 112.228 210.968 113.915C211.732 115.603 212.631 115.172 211.659 116.084C210.687 116.996 209.642 116.091 210.687 117.763C211.303 118.7 211.605 119.809 211.549 120.929C211.549 120.929 216.957 154.966 220.092 154.966C223.227 154.966 225.19 154.049 225.08 153.114C224.969 152.179 223.12 149.853 223.696 149.274C224.272 148.696 225.693 149.133 224.286 148.043C222.879 146.954 222.182 147.303 222.531 145.909C222.879 144.516 220.216 126.452 220.216 126.452L219.956 96.2806L215.751 91.9904Z" fill="#3F3D56"/>
<path d="M198.192 86.8589L193.331 87.5468L187.552 89.7528C187.552 89.7528 190.191 119.53 189.64 120.528C189.089 121.525 188.11 120.902 188.948 121.91C189.786 122.918 190.54 122.471 189.64 123.391C188.741 124.311 187.227 123.146 188.158 124.774C189.089 126.401 184.602 148.815 185.81 150.017C187.018 151.22 190.131 150.471 190.133 149.584C190.037 148.627 189.676 147.716 189.089 146.954C188.921 146.761 188.828 146.514 188.828 146.257C188.828 146.001 188.921 145.754 189.089 145.561C189.583 145.086 189.922 144.473 190.062 143.803C190.134 143.122 190.666 142.286 190.923 141.659C191.179 141.032 197.638 98.6062 197.638 98.6062L198.192 86.8589Z" fill="#3F3D56"/>
<path d="M177.449 110.305L179.642 109.161C176.904 106.691 170.112 102.651 170.112 102.651L158.405 94.7591C158.234 94.3557 157.959 94.0045 157.609 93.7409C157.259 93.4774 156.845 93.3107 156.41 93.2578C155.975 93.2048 155.534 93.2674 155.13 93.4393C154.727 93.6112 154.376 93.8862 154.113 94.2368C153.85 94.5874 153.684 95.0011 153.631 95.4363C153.579 95.8715 153.642 96.3128 153.814 96.7159C153.987 97.1189 154.262 97.4694 154.613 97.7321C154.964 97.9949 155.378 98.1605 155.813 98.2124L168.933 109.966L177.449 110.305Z" fill="#A0616A"/>
<path d="M193.474 101.597L193.497 91.9704L188.15 89.4128L174.663 103.687L173.618 102.99H171.179L165.257 109.957C165.257 109.957 168.411 111.826 169.969 111.066C171.527 110.305 171.381 111.398 171.381 111.398C171.612 111.689 171.934 111.893 172.296 111.978C172.657 112.063 173.037 112.024 173.373 111.867C174.663 111.35 177.101 112.744 177.101 112.744L193.474 101.597Z" fill="#3F3D56"/>
<path d="M206.291 81.8976C210.597 81.8976 214.089 78.4062 214.089 74.0993C214.089 69.7924 210.597 66.301 206.291 66.301C201.984 66.301 198.492 69.7924 198.492 74.0993C198.492 78.4062 201.984 81.8976 206.291 81.8976Z" fill="#A0616A"/>
<path d="M215.704 76.0791C214.968 77.5198 213.98 78.8172 212.787 79.9099C212.444 80.2993 212.007 80.5939 211.518 80.7657C211.272 80.8459 211.005 80.8372 210.765 80.7413C210.525 80.6454 210.326 80.4682 210.203 80.2407L210.058 80.0432C210.476 79.9154 210.87 79.7204 211.226 79.4658C211.402 79.3376 211.545 79.1691 211.643 78.9744C211.742 78.7797 211.792 78.5643 211.79 78.3462C211.778 78.1283 211.681 77.9237 211.521 77.7756C211.36 77.6274 211.149 77.5471 210.93 77.5516C210.443 77.6096 210.008 78.1784 209.571 77.9592C209.219 77.7799 209.269 77.2667 209.371 76.8792C209.913 74.8571 209.686 71.7227 208.905 71.6131C208.128 71.455 207.388 71.1521 206.724 70.7203C206.058 70.2879 205.315 69.989 204.536 69.8402C204.48 69.8329 204.422 69.8289 204.362 69.824C204.34 69.407 204.267 68.9943 204.146 68.5948C204.061 69.0166 203.932 69.4283 203.76 69.8228C203.084 69.9148 202.403 69.9493 201.721 69.9258C200.995 69.8415 198.909 71.5331 198.894 71.3003C198.871 70.8834 198.799 70.4707 198.677 70.0712C198.593 70.493 198.463 70.9047 198.291 71.2991C198.283 71.3152 198.28 71.3288 198.272 71.3449C198.05 70.8041 197.987 70.1994 197.992 70.651C197.526 67.7774 198.45 66.0472 200.809 64.3431C201.28 63.9673 201.838 63.7172 202.432 63.6163C202.729 63.5689 203.033 63.5987 203.315 63.7028C203.597 63.807 203.847 63.9819 204.042 64.2108C204.947 63.7318 205.964 63.5037 206.988 63.5501C208.011 63.5965 209.003 63.9156 209.862 64.4746C211.558 65.6111 212.896 66.3672 212.671 68.3995C214.278 68.5544 215.637 69.8458 216.145 71.3762C216.648 72.9092 216.387 74.6199 215.704 76.0791Z" fill="#2F2E41"/>
<path d="M225.658 116.714L220.064 115.912C218.172 119.076 217.499 127.498 217.499 127.498L212.024 140.512C211.661 140.758 211.37 141.095 211.179 141.49C210.988 141.885 210.905 142.323 210.937 142.76C210.97 143.197 211.117 143.618 211.363 143.98C211.61 144.343 211.948 144.634 212.343 144.824C212.738 145.014 213.176 145.097 213.613 145.064C214.05 145.031 214.471 144.884 214.833 144.637C215.195 144.389 215.485 144.051 215.675 143.656C215.865 143.261 215.947 142.823 215.914 142.386L224.904 127.238L225.658 116.714Z" fill="#A0616A"/>
<path d="M212.777 97.3135L215.147 94.0483L219.954 96.2822L223.952 111.705C223.952 111.705 226.872 113.605 226.249 114.945C225.626 116.285 225.295 117.367 225.939 118.135C226.583 118.903 228.458 118.959 227.061 120.211C225.665 121.464 226.86 124.736 226.86 124.736L225.522 127.723L217.161 127.375L212.777 97.3135Z" fill="#3F3D56"/>
<path d="M19.4163 145.146C19.9441 144.732 20.2894 144.128 20.3788 143.463C20.4683 142.799 20.2948 142.125 19.8953 141.586C19.8124 141.478 19.7206 141.377 19.621 141.284L23.1909 133.04L19.6454 129.757L15.9759 141.578C15.6218 142.021 15.4243 142.569 15.4143 143.136C15.4042 143.703 15.5822 144.258 15.9203 144.713C16.1152 144.97 16.3589 145.186 16.6374 145.349C16.9159 145.512 17.2238 145.619 17.5434 145.663C17.8631 145.707 18.1884 145.688 18.5006 145.606C18.8128 145.524 19.1059 145.382 19.3631 145.187C19.381 145.174 19.3988 145.16 19.4163 145.146Z" fill="#FFB6B6"/>
<path d="M40.1562 91.6689C40.1562 91.6689 37.5136 86.6452 31.3834 92.0704C25.2532 97.4956 18.0091 124.651 18.1498 125.672C18.2905 126.693 19.7888 126.289 17.8937 127.759C15.9985 129.229 14.9506 127.908 15.9985 129.229C17.0463 130.55 19.3897 131.949 17.3148 132.145C15.24 132.342 22.8461 135.614 22.8461 135.614C22.8461 135.614 24.0425 135.327 24.4095 132.566C24.6157 131.016 23.9171 130.135 25.1468 129.877C26.3766 129.619 25.2239 126.815 25.4009 126.374C25.5779 125.932 35.397 106.664 35.397 106.664L40.1562 91.6689Z" fill="#004C99"/>
<path d="M52.2242 214.359L56.6629 214.359L58.7749 197.236L52.2231 197.237L52.2242 214.359Z" fill="#FFB6B6"/>
<path d="M52.0676 218.991L65.7187 218.99V218.817C65.7186 217.408 65.1588 216.057 64.1624 215.06C63.1659 214.064 61.8145 213.504 60.4054 213.504H60.405L57.9115 211.612L53.259 213.504L52.0674 213.504L52.0676 218.991Z" fill="#2F2E41"/>
<path d="M21.1089 206.194L24.7401 208.747L36.3172 195.955L30.9571 192.187L21.1089 206.194Z" fill="#FFB6B6"/>
<path d="M18.3173 209.892L29.4843 217.744L29.5836 217.603C30.3941 216.45 30.7135 215.022 30.4715 213.634C30.2296 212.246 29.4461 211.011 28.2935 210.2L27.3416 207.218L22.4475 206.09L21.4727 205.404L18.3173 209.892Z" fill="#2F2E41"/>
<path d="M34.5371 129.174L34.1682 129.962C31.7437 135.142 31.1238 140.932 32.066 146.573C32.136 146.793 32.1227 147.031 32.0284 147.242C31.444 147.928 32.3608 150.905 32.8863 152.568L33.36 155.508C33.36 155.508 32.5746 158.239 33.7675 158.038C34.9605 157.838 33.184 160.75 34.322 161.48L37.2738 179.804L24.9584 200.102L29.5197 206.716L47.7647 183.225L47.9928 162.015L50.7296 179.12L50.9576 206.031L59.2557 205.149L62.2959 179.058L59.396 142.976L54.8347 127.331L34.5371 129.174Z" fill="#2F2E41"/>
<path d="M40.2384 82.197L46.9516 82.5167L50.1617 88.0625C51.5853 88.4896 52.8948 89.2309 53.9935 90.2318C55.0922 91.2326 55.9521 92.4675 56.5097 93.8451L58.6001 99.0096L56.2221 128.869C56.2221 128.869 55.7454 130.675 56.6231 130.412C57.5008 130.148 57.143 132.412 57.143 132.412L60.3779 144.853L30.9679 142.296L32.6009 129.114C32.6009 129.114 30.3304 129.187 31.9269 127.591C33.5233 125.994 34.2997 126.503 32.7661 124.615C31.2325 122.728 31.0045 121.36 31.0045 121.36L30.3203 112.009L29.1923 98.8496C29.0133 96.7615 29.3562 94.6617 30.19 92.7389C31.0239 90.8162 32.3225 89.1308 33.9693 87.8345L40.2384 82.197Z" fill="#004C99"/>
<path d="M43.7196 80.6571C48.4214 80.6571 52.233 76.8455 52.233 72.1436C52.233 67.4417 48.4214 63.6301 43.7196 63.6301C39.0177 63.6301 35.2061 67.4417 35.2061 72.1436C35.2061 76.8455 39.0177 80.6571 43.7196 80.6571Z" fill="#FFB6B6"/>
<path d="M40.43 79.9593C42.8731 79.8791 43.095 79.2338 45.538 79.1537C46.3159 79.1282 47.2339 79.0215 47.6099 78.3401C47.7194 78.0848 47.7681 77.8076 47.7523 77.5303C47.7365 77.253 47.6566 76.9831 47.5188 76.7419C47.24 76.2631 46.9888 75.7688 46.7662 75.2615C46.6321 74.8636 46.5969 74.439 46.6637 74.0244C46.7305 73.6099 46.8972 73.2179 47.1495 72.8822C47.4018 72.5466 47.732 72.2774 48.1116 72.0979C48.4912 71.9185 48.9088 71.8342 49.3283 71.8523C50.0717 71.8845 50.7699 72.2341 51.5113 72.298C52.5281 72.3856 54.7765 69.0285 54.3084 68.1216C53.8527 67.2389 52.9356 66.5729 52.7915 65.59C52.6972 64.9471 52.9626 64.3084 52.9988 63.6597C53.0526 62.6978 50.6144 64.8666 51.0609 64.013C52.1563 61.9189 41.8341 59.3229 40.1347 61.9459C39.4996 62.9262 38.3677 62.8593 37.3588 63.4481C36.6976 63.8339 35.028 65.1651 34.6484 65.9949C34.2996 66.8415 34.1348 67.7526 34.1649 68.6678C34.1496 72.924 34.798 76.8391 38.2311 79.3549" fill="#2F2E41"/>
<path d="M64.5987 144.78C64.0967 144.335 63.788 143.712 63.7384 143.043C63.6888 142.374 63.9021 141.712 64.3331 141.198C64.4223 141.095 64.5199 141 64.6249 140.913L61.5535 132.471L65.2887 129.405L68.2459 141.424C68.573 141.888 68.7374 142.446 68.7136 143.013C68.6898 143.579 68.4791 144.122 68.1143 144.556C67.9044 144.802 67.6483 145.003 67.3606 145.149C67.0728 145.295 66.7591 145.383 66.4374 145.408C66.1156 145.433 65.7921 145.394 65.4853 145.294C65.1785 145.194 64.8945 145.034 64.6494 144.825C64.6323 144.81 64.6154 144.795 64.5987 144.78Z" fill="#FFB6B6"/>
<path d="M47.0882 90.1602C47.0882 90.1602 50.0259 85.3032 55.8214 91.0847C61.6168 96.8662 67.2269 124.406 67.0255 125.417C66.8241 126.427 65.3525 125.935 67.1566 127.515C68.9607 129.095 70.0855 127.84 68.9607 129.095C67.8358 130.351 65.4132 131.608 67.4726 131.928C69.532 132.248 61.7441 135.06 61.7441 135.06C61.7441 135.06 60.567 134.702 60.3654 131.925C60.2522 130.365 61.002 129.528 59.7899 129.196C58.5778 128.865 59.8958 126.135 59.7454 125.684C59.5951 125.233 50.9438 105.412 50.9438 105.412L47.0882 90.1602Z" fill="#004C99"/>
<path d="M131.798 43.8649C131.799 45.2432 131.39 46.5907 130.625 47.7369C129.859 48.8831 128.771 49.7765 127.498 50.3043C126.225 50.8321 124.823 50.9704 123.472 50.7019C122.12 50.4333 120.878 49.7699 119.903 48.7956C118.928 47.8212 118.264 46.5797 117.995 45.2279C117.726 43.8762 117.863 42.475 118.391 41.2015C118.918 39.928 119.811 38.8394 120.956 38.0734C122.102 37.3073 123.449 36.8983 124.828 36.898C125.743 36.8967 126.65 37.0761 127.496 37.4257C128.342 37.7754 129.111 38.2885 129.758 38.9356C130.406 39.5827 130.919 40.3512 131.269 41.1971C131.619 42.0429 131.799 42.9495 131.798 43.8649Z" fill="#004C99"/>
<path d="M124.983 44.8749C126.33 44.8749 127.422 43.7832 127.422 42.4365C127.422 41.0898 126.33 39.998 124.983 39.998C123.636 39.998 122.545 41.0898 122.545 42.4365C122.545 43.7832 123.636 44.8749 124.983 44.8749Z" fill="white"/>
<path d="M127.597 45.7461H122.372C122.049 45.7464 121.739 45.875 121.51 46.1036C121.282 46.3322 121.153 46.6421 121.153 46.9653C121.227 48.0096 121.39 49.0456 121.64 50.0621C122.688 50.6021 123.856 50.8672 125.035 50.8325C126.213 50.7977 127.363 50.4644 128.377 49.8636C128.601 48.9108 128.748 47.9416 128.816 46.9653C128.816 46.6421 128.687 46.3322 128.459 46.1036C128.23 45.875 127.92 45.7464 127.597 45.7461Z" fill="white"/>
<path d="M1.83476e-06 219.186C-0.00016052 219.241 0.0104536 219.294 0.0312298 219.345C0.0520059 219.395 0.0825321 219.441 0.12106 219.479C0.159588 219.518 0.205356 219.549 0.255725 219.569C0.306095 219.59 0.360075 219.601 0.41456 219.601H249.585C249.695 219.601 249.801 219.557 249.879 219.479C249.956 219.401 250 219.296 250 219.186C250 219.076 249.956 218.971 249.879 218.893C249.801 218.815 249.695 218.771 249.585 218.771H0.41456C0.360075 218.771 0.306094 218.782 0.255725 218.803C0.205357 218.823 0.159593 218.854 0.121065 218.893C0.0825378 218.931 0.0520066 218.977 0.0312298 219.027C0.0104529 219.078 -0.000158671 219.132 1.83476e-06 219.186Z" fill="#CCCCCC"/>
<g clip-path="url(#clip1_799_10965)">
<path d="M132.621 206.715C131.865 205.656 130.841 204.881 129.554 204.591C128.432 204.338 127.278 204.382 126.137 204.39L111.711 204.502C110.475 204.511 109.291 205.582 109.348 206.864C109.405 208.136 110.386 209.237 111.711 209.227C115.937 209.194 120.162 209.162 124.388 209.129C125.384 209.122 126.381 209.104 127.378 209.107C127.601 209.108 127.824 209.119 128.048 209.122C128.102 209.123 128.141 209.122 128.169 209.121C128.175 209.123 128.181 209.125 128.19 209.127C128.307 209.159 128.427 209.181 128.544 209.212C128.503 209.213 128.62 209.286 128.679 209.311C128.687 209.327 128.704 209.355 128.733 209.399C128.773 209.474 128.892 209.703 128.897 209.696C129.075 210.147 129.223 210.611 129.338 211.083C129.612 212.123 129.673 212.341 129.712 213.317C129.762 214.551 130.763 215.739 132.075 215.68C133.312 215.625 134.491 214.64 134.438 213.317C134.347 211.088 133.956 208.584 132.621 206.715Z" fill="#F2F2F2"/>
<path d="M112.559 212.047C112.288 210.405 112.022 208.762 111.746 207.121C111.465 205.456 110.893 203.931 109.597 202.839C109.251 202.547 108.892 202.274 108.532 202.002C108.405 201.907 108.279 201.811 108.153 201.714C108.146 201.708 108.141 201.704 108.135 201.699C108.121 201.687 108.104 201.673 108.082 201.654C107.542 201.197 107.02 200.72 106.523 200.213C106.082 199.762 105.66 199.292 105.257 198.803C105.156 198.681 105.057 198.558 104.959 198.433C104.942 198.412 104.851 198.295 104.791 198.218C104.736 198.141 104.634 198.003 104.617 197.979C104.502 197.817 104.39 197.653 104.279 197.488C103.527 196.361 102.875 195.169 102.332 193.927C102.278 193.804 102.226 193.68 102.174 193.555C102.161 193.517 102.143 193.468 102.119 193.403C102.01 193.102 101.9 192.802 101.8 192.497C101.588 191.85 101.405 191.194 101.252 190.528C101.176 190.199 101.108 189.868 101.048 189.536C101.016 189.365 100.987 189.194 100.96 189.023C100.956 188.994 100.929 188.809 100.913 188.704C100.902 188.599 100.88 188.413 100.877 188.385C100.86 188.212 100.845 188.039 100.831 187.865C100.801 187.475 100.781 187.085 100.77 186.694C100.752 185.999 100.764 185.304 100.807 184.608C100.832 184.218 100.867 183.828 100.91 183.44C100.912 183.416 100.914 183.397 100.916 183.38C100.919 183.362 100.922 183.343 100.926 183.318C100.957 183.103 100.991 182.889 101.028 182.675C101.17 181.863 101.354 181.058 101.58 180.266C101.687 179.891 101.804 179.519 101.929 179.15C101.985 178.986 102.043 178.823 102.102 178.661C102.099 178.671 102.277 178.215 102.279 178.2C102.987 176.527 104.146 175.002 104.147 173.101C104.148 171.815 103.06 170.582 101.785 170.642C101.149 170.666 100.547 170.935 100.106 171.394C99.6655 171.853 99.4201 172.465 99.4218 173.101C99.4218 173.13 99.4217 173.155 99.4216 173.179C99.4097 173.219 99.3997 173.252 99.3908 173.282C99.2527 173.582 99.0836 173.867 98.932 174.16C98.517 174.961 98.1627 175.788 97.8262 176.627C97.2753 177.994 96.8536 179.409 96.5667 180.855C95.943 184.022 95.8946 187.275 96.4238 190.459C97.3399 196.043 100.361 201.388 104.561 204.981C104.925 205.293 105.299 205.594 105.676 205.889C105.831 206.011 105.989 206.131 106.147 206.25C106.222 206.307 106.531 206.551 106.395 206.432C106.688 206.682 106.811 206.808 106.886 206.992C106.897 207.034 106.912 207.092 106.932 207.171C106.985 207.378 107.035 207.585 107.077 207.796C107.443 209.634 107.697 211.504 108.002 213.355C108.212 214.626 109.777 215.454 110.908 215.073C112.225 214.629 112.784 213.409 112.559 212.047Z" fill="#F2F2F2"/>
<path d="M132.86 216.816C131.868 216.818 130.915 216.427 130.211 215.728C129.507 215.029 129.109 214.079 129.104 213.087V210.392C126.282 210.708 116.619 210.635 113.85 210.19V212.979C113.842 213.971 113.443 214.919 112.739 215.618C112.036 216.316 111.084 216.708 110.093 216.708C109.101 216.708 108.15 216.316 107.446 215.618C106.743 214.919 106.343 213.971 106.336 212.979V207.502C102.585 205.418 99.4573 202.371 97.2767 198.674C95.0962 194.978 93.9415 190.767 93.9318 186.476C93.9318 179.117 97.2666 172.253 103.081 167.643C106.862 164.635 111.455 162.826 116.271 162.449C116.925 162.398 117.583 162.372 118.226 162.372C120.493 162.372 130.722 162.722 133.288 163.46L139.14 157.654C139.226 157.567 139.336 157.508 139.456 157.484C139.575 157.46 139.699 157.473 139.812 157.52C139.926 157.565 140.023 157.643 140.091 157.745C140.159 157.846 140.195 157.966 140.194 158.088V159.011L141.333 157.882C141.419 157.796 141.529 157.737 141.648 157.713C141.768 157.689 141.892 157.701 142.005 157.748C142.118 157.793 142.215 157.872 142.284 157.973C142.352 158.075 142.388 158.194 142.387 158.317V168.633C145.323 171.281 147.561 174.611 148.902 178.33C150.244 182.049 150.647 186.042 150.076 189.954C149.506 193.866 147.979 197.577 145.631 200.757C143.283 203.938 140.187 206.491 136.617 208.189V213.087C136.612 214.079 136.214 215.029 135.51 215.728C134.805 216.427 133.853 216.818 132.86 216.816ZM129.399 210.057V213.087C129.406 214 129.774 214.873 130.423 215.517C131.071 216.16 131.947 216.52 132.86 216.52C133.774 216.52 134.65 216.16 135.298 215.517C135.946 214.873 136.314 214 136.322 213.087V208.003L136.406 207.963C140.412 206.062 143.813 203.088 146.231 199.371C149.312 194.628 150.593 188.939 149.843 183.333C149.093 177.727 146.36 172.575 142.14 168.809L142.091 168.765V158.317C142.092 158.253 142.074 158.191 142.038 158.138C142.003 158.085 141.952 158.045 141.893 158.022C141.834 157.997 141.769 157.99 141.706 158.002C141.644 158.015 141.586 158.046 141.541 158.092L139.898 159.719V158.088C139.899 158.024 139.881 157.962 139.846 157.909C139.81 157.857 139.759 157.816 139.7 157.793C139.641 157.768 139.576 157.761 139.513 157.774C139.45 157.786 139.393 157.818 139.348 157.863L133.371 163.794L133.286 163.768C130.9 163.021 120.511 162.667 118.226 162.667C117.591 162.667 116.941 162.693 116.295 162.743C111.537 163.116 106.999 164.903 103.265 167.874C97.5212 172.428 94.2271 179.208 94.2271 186.476C94.237 190.729 95.3855 194.902 97.5534 198.562C99.7213 202.221 102.83 205.234 106.555 207.286L106.631 207.328V212.979C106.639 213.892 107.007 214.765 107.655 215.408C108.304 216.051 109.18 216.412 110.093 216.412C111.006 216.412 111.882 216.051 112.53 215.408C113.179 214.765 113.547 213.892 113.554 212.979V209.836L113.729 209.869C116.218 210.337 126.699 210.411 129.232 210.079L129.399 210.057Z" fill="#3F3D56"/>
<path d="M122.311 140.811C119.625 140.812 117.044 141.858 115.116 143.728C113.187 145.598 112.062 148.145 111.979 150.83C111.976 150.935 111.974 151.041 111.974 151.147C111.974 153.192 112.58 155.19 113.716 156.89C114.852 158.59 116.466 159.915 118.355 160.697C120.244 161.48 122.322 161.684 124.328 161.286C126.333 160.887 128.175 159.902 129.62 158.457C131.066 157.011 132.05 155.169 132.449 153.164C132.848 151.159 132.643 149.08 131.861 147.192C131.079 145.303 129.754 143.688 128.054 142.553C126.354 141.417 124.355 140.811 122.311 140.811ZM122.311 161.189C119.649 161.186 117.096 160.127 115.214 158.245C113.331 156.362 112.272 153.81 112.269 151.147C112.269 151.01 112.272 150.874 112.278 150.74C112.358 148.773 113.015 146.873 114.166 145.276C115.317 143.679 116.912 142.456 118.753 141.758C120.594 141.06 122.599 140.919 124.52 141.352C126.44 141.785 128.191 142.773 129.554 144.193C130.918 145.613 131.834 147.403 132.188 149.339C132.543 151.276 132.32 153.274 131.549 155.085C130.777 156.896 129.49 158.44 127.847 159.525C126.205 160.61 124.28 161.189 122.311 161.189Z" fill="#3F3D56"/>
<path d="M131.023 151.147C131.023 153.458 130.106 155.674 128.472 157.308C126.838 158.942 124.622 159.86 122.311 159.86C120 159.86 117.784 158.942 116.15 157.308C114.516 155.674 113.598 153.458 113.598 151.147C113.598 150.871 113.612 150.599 113.637 150.331C113.847 148.101 114.908 146.037 116.599 144.569C118.29 143.1 120.482 142.339 122.72 142.444C124.957 142.55 127.068 143.512 128.614 145.133C130.161 146.753 131.023 148.907 131.023 151.147Z" fill="#E6E6E6"/>
<path d="M124.905 151.726C124.694 151.449 124.417 151.229 124.098 151.087C123.705 150.921 123.299 150.788 122.884 150.688V148.317C123.521 148.413 124.119 148.685 124.61 149.104L125.092 148.077C124.815 147.831 124.497 147.634 124.152 147.497C123.771 147.342 123.37 147.24 122.961 147.191V145.989H121.846V147.203C121.415 147.251 121 147.391 120.628 147.612C120.291 147.811 120.008 148.089 119.802 148.421C119.606 148.746 119.504 149.119 119.508 149.498C119.489 149.909 119.608 150.314 119.846 150.65C120.066 150.94 120.355 151.17 120.688 151.317C121.087 151.488 121.5 151.625 121.923 151.726V153.999C121.17 153.942 120.453 153.656 119.869 153.179L119.387 154.207C119.714 154.477 120.086 154.688 120.486 154.83C120.924 154.987 121.382 155.082 121.846 155.114V156.305H122.961V155.092C123.58 155.024 124.161 154.758 124.616 154.333C124.817 154.14 124.975 153.908 125.081 153.652C125.188 153.395 125.239 153.119 125.233 152.841C125.252 152.443 125.136 152.051 124.905 151.726ZM121.923 150.437C121.651 150.355 121.399 150.219 121.18 150.038C121.093 149.961 121.025 149.866 120.979 149.759C120.934 149.652 120.913 149.537 120.917 149.421C120.909 149.158 121.006 148.903 121.186 148.711C121.385 148.51 121.643 148.376 121.923 148.328V150.437ZM123.584 153.579C123.395 153.773 123.15 153.9 122.884 153.944V151.989C123.138 152.057 123.377 152.176 123.584 152.339C123.662 152.406 123.725 152.49 123.767 152.585C123.808 152.679 123.828 152.782 123.825 152.885C123.835 153.139 123.749 153.387 123.584 153.579Z" fill="#6C63FF"/>
<path d="M94.9508 179.094C92.8905 178.789 90.92 178.044 89.1737 176.909C88.3085 176.348 87.5076 175.693 86.7853 174.956C86.0723 174.229 85.3903 173.402 85.0372 172.434C84.6974 171.538 84.7149 170.546 85.0861 169.662C85.4522 168.784 86.1515 168.087 87.0307 167.724C87.9152 167.371 88.9838 167.334 89.8446 167.72C90.2548 167.9 90.6098 168.185 90.873 168.548C90.9954 168.715 91.086 168.903 91.1404 169.103C91.1908 169.284 91.1954 169.474 91.1537 169.658C91.1032 169.841 91.0142 170.011 90.8926 170.157C90.771 170.302 90.6197 170.42 90.4488 170.503C90.0725 170.696 89.6649 170.82 89.2449 170.87C88.8226 170.928 88.2159 170.98 87.8763 170.641C87.8064 170.574 87.7515 170.493 87.715 170.403C87.6895 170.334 87.6807 170.261 87.6895 170.188C87.6846 170.22 87.71 170.118 87.7086 170.122C87.7032 170.137 87.6799 170.174 87.713 170.117C87.7233 170.099 87.7348 170.081 87.7474 170.064C87.7362 170.078 87.7116 170.103 87.7556 170.061C87.7919 170.021 87.8387 169.992 87.8906 169.978C87.911 169.972 87.9318 169.967 87.9523 169.961C88.0043 169.947 87.9003 169.962 87.9536 169.96C87.9742 169.96 87.995 169.96 88.0155 169.959C88.0678 169.957 87.9639 169.945 88.014 169.958C88.0335 169.963 88.0527 169.967 88.0719 169.973C88.1136 169.987 88.0424 169.943 88.0706 169.976C88.1037 170.014 88.0359 169.938 88.0735 169.975C88.0922 169.994 88.1098 170.013 88.1263 170.034C88.1915 170.098 88.2795 170.134 88.3711 170.134C88.4627 170.134 88.5506 170.098 88.6158 170.034C88.6788 169.968 88.714 169.88 88.714 169.789C88.714 169.698 88.6788 169.61 88.6158 169.544C88.2745 169.121 87.6003 169.226 87.255 169.583C86.8147 170.039 86.9891 170.762 87.4174 171.16C87.9023 171.61 88.5891 171.642 89.2128 171.566C89.74 171.516 90.2537 171.371 90.7293 171.138C91.2018 170.905 91.5714 170.506 91.7665 170.017C91.8546 169.756 91.8862 169.479 91.8593 169.205C91.8324 168.931 91.7476 168.666 91.6105 168.427C91.0598 167.392 89.9195 166.861 88.7923 166.769C88.212 166.723 87.6284 166.793 87.0754 166.975C86.5223 167.157 86.0108 167.446 85.5703 167.827C84.7214 168.591 84.1986 169.652 84.1102 170.791C84.0118 171.972 84.4699 173.118 85.1378 174.071C85.8371 175.04 86.6715 175.903 87.6156 176.634C89.4614 178.108 91.6265 179.129 93.9376 179.615C94.2125 179.672 94.4889 179.721 94.7668 179.761C94.8552 179.783 94.9484 179.77 95.0275 179.725C95.1066 179.68 95.1657 179.606 95.1926 179.52C95.2163 179.431 95.2042 179.337 95.159 179.257C95.1138 179.177 95.039 179.119 94.9508 179.094Z" fill="#3F3D56"/>
<path d="M127.938 164.05C124.919 164.007 121.91 164.084 118.91 164.28C117.885 164.347 116.998 164.709 116.998 165.318C116.998 165.827 117.878 166.424 118.91 166.356C121.909 166.161 124.918 166.084 127.938 166.127C130.4 166.161 130.399 164.084 127.938 164.05Z" fill="#CCCCCC"/>
<path d="M123.476 166.024C123.15 166.024 115.487 166.012 115.487 164.953C115.487 163.895 123.15 163.882 123.476 163.882C123.803 163.882 131.466 163.895 131.466 164.953C131.466 166.012 123.803 166.024 123.476 166.024ZM115.786 164.953C115.996 165.274 118.813 165.728 123.476 165.728C128.14 165.728 130.957 165.274 131.166 164.953C130.957 164.632 128.14 164.178 123.476 164.178C118.813 164.178 115.996 164.632 115.786 164.953Z" fill="#3F3D56"/>
<path d="M144.979 177.393H139.452V178.419H144.979V177.393Z" fill="#3F3D56"/>
<path d="M179.512 216.885H70.4883C70.4418 216.885 70.3972 216.866 70.3643 216.833C70.3314 216.8 70.313 216.756 70.313 216.709C70.313 216.662 70.3314 216.618 70.3643 216.585C70.3972 216.552 70.4418 216.533 70.4883 216.533H179.512C179.558 216.533 179.603 216.552 179.636 216.585C179.669 216.618 179.687 216.662 179.687 216.709C179.687 216.756 179.669 216.8 179.636 216.833C179.603 216.866 179.558 216.885 179.512 216.885Z" fill="#3F3D56"/>
</g>
</g>
<defs>
<clipPath id="clip0_799_10965">
<rect width="250" height="219.025" fill="white" transform="translate(0 0.575439)"/>
</clipPath>
<clipPath id="clip1_799_10965">
<rect width="109.375" height="88.1844" fill="white" transform="translate(70.3125 128.7)"/>
</clipPath>
</defs>
</svg>
