<svg width="24" height="24" viewBox="0 0 24 24" fill="none" xmlns="http://www.w3.org/2000/svg">
<path d="M11.5625 5C13.303 5 14.9722 5.6914 16.2029 6.92211C17.4336 8.15282 18.125 9.82202 18.125 11.5625C18.125 13.303 17.4336 14.9722 16.2029 16.2029C14.9722 17.4336 13.303 18.125 11.5625 18.125C9.82202 18.125 8.15282 17.4336 6.92211 16.2029C5.6914 14.9722 5 13.303 5 11.5625C5 9.82202 5.6914 8.15282 6.92211 6.92211C8.15282 5.6914 9.82202 5 11.5625 5ZM10.745 12.8572L9.28719 11.3984C9.23493 11.3462 9.17288 11.3047 9.1046 11.2764C9.03631 11.2482 8.96313 11.2336 8.88922 11.2336C8.81531 11.2336 8.74212 11.2482 8.67384 11.2764C8.60556 11.3047 8.54351 11.3462 8.49125 11.3984C8.3857 11.504 8.32641 11.6471 8.32641 11.7964C8.32641 11.9457 8.3857 12.0888 8.49125 12.1944L10.3475 14.0506C10.3996 14.1032 10.4616 14.1448 10.5299 14.1733C10.5982 14.2017 10.6715 14.2164 10.7455 14.2164C10.8195 14.2164 10.8927 14.2017 10.961 14.1733C11.0293 14.1448 11.0913 14.1032 11.1434 14.0506L14.9872 10.2059C15.0401 10.1539 15.0823 10.0919 15.1112 10.0235C15.14 9.95506 15.1551 9.88161 15.1554 9.80736C15.1558 9.7331 15.1414 9.65952 15.1132 9.59084C15.0849 9.52217 15.0434 9.45976 14.9909 9.40723C14.9384 9.35469 14.8761 9.31306 14.8074 9.28475C14.7388 9.25643 14.6652 9.24199 14.591 9.24224C14.5167 9.2425 14.4432 9.25746 14.3748 9.28625C14.3064 9.31504 14.2443 9.3571 14.1922 9.41L10.745 12.8572Z" fill="#367C39"/>
</svg>
