<svg width="24" height="24" viewBox="0 0 24 24" fill="none" xmlns="http://www.w3.org/2000/svg">
<path d="M12.75 11.25H16.5V12.75H12.75V16.5H11.25V12.75H7.5V11.25H11.25V7.5H12.75V11.25ZM12 1.5C12.9688 1.5 13.8984 1.625 14.7891 1.875C15.6797 2.125 16.5156 2.47656 17.2969 2.92969C18.0781 3.38281 18.7852 3.92969 19.418 4.57031C20.0508 5.21094 20.5977 5.91797 21.0586 6.69141C21.5195 7.46484 21.875 8.30078 22.125 9.19922C22.375 10.0977 22.5 11.0312 22.5 12C22.5 12.9688 22.375 13.8984 22.125 14.7891C21.875 15.6797 21.5234 16.5156 21.0703 17.2969C20.6172 18.0781 20.0703 18.7852 19.4297 19.418C18.7891 20.0508 18.082 20.5977 17.3086 21.0586C16.5352 21.5195 15.6992 21.875 14.8008 22.125C13.9023 22.375 12.9688 22.5 12 22.5C11.0312 22.5 10.1016 22.375 9.21094 22.125C8.32031 21.875 7.48438 21.5234 6.70312 21.0703C5.92188 20.6172 5.21484 20.0703 4.58203 19.4297C3.94922 18.7891 3.40234 18.082 2.94141 17.3086C2.48047 16.5352 2.125 15.6992 1.875 14.8008C1.625 13.9023 1.5 12.9688 1.5 12C1.5 11.0312 1.625 10.1016 1.875 9.21094C2.125 8.32031 2.47656 7.48438 2.92969 6.70312C3.38281 5.92188 3.92969 5.21484 4.57031 4.58203C5.21094 3.94922 5.91797 3.40234 6.69141 2.94141C7.46484 2.48047 8.30078 2.125 9.19922 1.875C10.0977 1.625 11.0312 1.5 12 1.5ZM12 21C12.8281 21 13.625 20.8945 14.3906 20.6836C15.1562 20.4727 15.8711 20.168 16.5352 19.7695C17.1992 19.3711 17.8086 18.9023 18.3633 18.3633C18.918 17.8242 19.3867 17.2188 19.7695 16.5469C20.1523 15.875 20.4531 15.1562 20.6719 14.3906C20.8906 13.625 21 12.8281 21 12C21 11.1719 20.8945 10.375 20.6836 9.60938C20.4727 8.84375 20.168 8.12891 19.7695 7.46484C19.3711 6.80078 18.9023 6.19141 18.3633 5.63672C17.8242 5.08203 17.2188 4.61328 16.5469 4.23047C15.875 3.84766 15.1562 3.54688 14.3906 3.32812C13.625 3.10938 12.8281 3 12 3C11.1719 3 10.375 3.10547 9.60938 3.31641C8.84375 3.52734 8.12891 3.83203 7.46484 4.23047C6.80078 4.62891 6.19141 5.09766 5.63672 5.63672C5.08203 6.17578 4.61328 6.78125 4.23047 7.45312C3.84766 8.125 3.54688 8.84375 3.32812 9.60938C3.10938 10.375 3 11.1719 3 12C3 12.8281 3.10547 13.625 3.31641 14.3906C3.52734 15.1562 3.83203 15.8711 4.23047 16.5352C4.62891 17.1992 5.09766 17.8086 5.63672 18.3633C6.17578 18.918 6.78125 19.3867 7.45312 19.7695C8.125 20.1523 8.84375 20.4531 9.60938 20.6719C10.375 20.8906 11.1719 21 12 21Z" fill="#545454"/>
</svg>
