<svg width="24" height="24" viewBox="0 0 24 24" fill="none" xmlns="http://www.w3.org/2000/svg">
<path d="M13.6796 20.9232H10.3196C7.15197 20.9232 5.56773 20.9232 4.58409 19.8875C3.59961 18.8528 3.59961 17.1863 3.59961 13.8541V12.0869C3.59961 8.75469 3.59961 7.08817 4.58409 6.05344C5.56773 5.01783 7.15197 5.01783 10.3196 5.01783H13.6796C16.8472 5.01783 18.4315 5.01783 19.4151 6.05344C20.3996 7.08817 20.3996 8.75469 20.3996 12.0869V13.8541C20.3996 17.1863 20.3996 18.8528 19.4151 19.8875C18.8666 20.4654 18.1316 20.7208 17.0396 20.833M7.79961 5.01783V3.69238M16.1996 5.01783V3.69238M19.9796 9.43597H10.9496M3.59961 9.43597H6.85461" stroke="#7D7C7C" stroke-width="1.5" stroke-linecap="round"/>
<path d="M17.5 17.4358C17.5 17.5793 17.4443 17.7144 17.3491 17.812C17.2543 17.9092 17.1285 17.9615 17 17.9615C16.8715 17.9615 16.7457 17.9092 16.6509 17.812C16.5557 17.7144 16.5 17.5793 16.5 17.4358C16.5 17.2924 16.5557 17.1573 16.6509 17.0596C16.7457 16.9624 16.8715 16.9102 17 16.9102C17.1285 16.9102 17.2543 16.9624 17.3491 17.0596C17.4443 17.1573 17.5 17.2924 17.5 17.4358ZM7.34911 17.812L7.68356 18.1381L7.34911 17.812C7.25431 17.9092 7.12847 17.9615 7 17.9615C6.87153 17.9615 6.74569 17.9092 6.65089 17.812C6.55567 17.7143 6.5 17.5793 6.5 17.4358C6.5 17.2924 6.55567 17.1573 6.65089 17.0596C6.74569 16.9624 6.87153 16.9102 7 16.9102C7.12847 16.9102 7.25431 16.9624 7.34911 17.0596L7.68356 16.7335L7.34911 17.0596C7.44433 17.1573 7.5 17.2924 7.5 17.4358C7.5 17.5793 7.44433 17.7143 7.34911 17.812ZM17.5 13.3333C17.5 13.4767 17.4443 13.6118 17.3491 13.7094C17.2543 13.8067 17.1285 13.8589 17 13.8589C16.8715 13.8589 16.7457 13.8067 16.6509 13.7094C16.5557 13.6118 16.5 13.4767 16.5 13.3333C16.5 13.1898 16.5557 13.0547 16.6509 12.9571C16.7457 12.8598 16.8715 12.8076 17 12.8076C17.1285 12.8076 17.2543 12.8598 17.3491 12.9571C17.4443 13.0547 17.5 13.1898 17.5 13.3333ZM12.5 17.4358C12.5 17.5793 12.4443 17.7143 12.3491 17.812C12.2543 17.9092 12.1285 17.9615 12 17.9615C11.8715 17.9615 11.7457 17.9092 11.6509 17.812C11.5557 17.7143 11.5 17.5793 11.5 17.4358C11.5 17.2924 11.5557 17.1573 11.6509 17.0596C11.7457 16.9624 11.8715 16.9102 12 16.9102C12.1285 16.9102 12.2543 16.9624 12.3491 17.0596C12.4443 17.1573 12.5 17.2924 12.5 17.4358ZM12.5 13.3333C12.5 13.4767 12.4443 13.6118 12.3491 13.7094C12.2543 13.8067 12.1285 13.8589 12 13.8589C11.8715 13.8589 11.7457 13.8067 11.6509 13.7094C11.5557 13.6118 11.5 13.4767 11.5 13.3333C11.5 13.1898 11.5557 13.0547 11.6509 12.9571C11.7457 12.8598 11.8715 12.8076 12 12.8076C12.1285 12.8076 12.2543 12.8598 12.3491 12.9571C12.4443 13.0547 12.5 13.1898 12.5 13.3333ZM7.5 13.3333C7.5 13.4767 7.44433 13.6118 7.34911 13.7094C7.25431 13.8067 7.12846 13.8589 7 13.8589C6.87154 13.8589 6.74569 13.8067 6.65089 13.7094C6.55567 13.6118 6.5 13.4767 6.5 13.3333C6.5 13.1898 6.55567 13.0547 6.65089 12.9571C6.74569 12.8598 6.87154 12.8076 7 12.8076C7.12846 12.8076 7.25431 12.8598 7.34911 12.9571C7.44433 13.0547 7.5 13.1898 7.5 13.3333Z" fill="#7D7C7C" stroke="#7D7C7C"/>
</svg>
