<svg width="17" height="17" viewBox="0 0 17 17" fill="none" xmlns="http://www.w3.org/2000/svg">
<g clip-path="url(#clip0_2183_32435)">
<path d="M13.3224 1.04255L13.3219 1.04204C13.1121 0.833379 12.8283 0.716243 12.5325 0.716243C12.2367 0.716243 11.9529 0.833379 11.7431 1.04204L11.743 1.04222L1.91601 10.855L1.88727 10.8837L1.8781 10.9233L0.980878 14.7955L0.980867 14.7955L0.980491 14.7972C0.945033 14.9594 0.946248 15.1274 0.984049 15.289L1.12199 15.2568L0.984049 15.289C1.02185 15.4507 1.09528 15.6018 1.19898 15.7314C1.30268 15.8611 1.43402 15.9659 1.58342 16.0382C1.73065 16.1096 1.89176 16.1476 2.05529 16.1496C2.13054 16.1573 2.2064 16.157 2.28162 16.1489L2.28991 16.148L2.29804 16.1461L6.21276 15.2489L6.25244 15.2398L6.28124 15.211L16.094 5.40769L16.0943 5.40738C16.303 5.19767 16.4201 4.91386 16.4201 4.61802C16.4201 4.32218 16.303 4.03838 16.0943 3.82866L13.3224 1.04255ZM12.8608 6.94113L5.6387 14.1308L2.22796 14.8463L3.00435 11.5039L10.2279 4.30817L12.8608 6.94113ZM15.0919 4.62307L13.693 6.05511L11.0615 3.42359L12.503 1.99031L15.0919 4.62307Z" fill="#001B3E" stroke="#001B3E" stroke-width="0.283333"/>
</g>
<defs>
<clipPath id="clip0_2183_32435">
<rect width="17" height="17" fill="white"/>
</clipPath>
</defs>
</svg>
