<svg width="18" height="18" viewBox="0 0 18 18" fill="none" xmlns="http://www.w3.org/2000/svg">
<path d="M8.25 10.5V16.5H5.25C4.65326 16.5 4.08097 16.2629 3.65901 15.8409C3.23705 15.419 3 14.8467 3 14.25V11.25C3 11.051 3.07902 10.8603 3.21967 10.7196C3.36032 10.579 3.55109 10.5 3.75 10.5H8.25ZM14.25 10.5C14.4489 10.5 14.6397 10.579 14.7803 10.7196C14.921 10.8603 15 11.051 15 11.25V14.25C15 14.8467 14.7629 15.419 14.341 15.8409C13.919 16.2629 13.3467 16.5 12.75 16.5H9.75V10.5H14.25ZM12.375 1.49995C12.8179 1.49986 13.2536 1.61183 13.6416 1.82543C14.0295 2.03903 14.3572 2.34732 14.5939 2.7216C14.8307 3.09588 14.9689 3.52399 14.9957 3.96606C15.0225 4.40813 14.9371 4.8498 14.7472 5.24995H15C15.3978 5.24995 15.7794 5.40799 16.0607 5.68929C16.342 5.9706 16.5 6.35213 16.5 6.74995V7.49995C16.5 7.89778 16.342 8.27931 16.0607 8.56061C15.7794 8.84192 15.3978 8.99995 15 8.99995H9.75V5.24995H8.25V8.99995H3C2.60218 8.99995 2.22064 8.84192 1.93934 8.56061C1.65804 8.27931 1.5 7.89778 1.5 7.49995V6.74995C1.5 6.35213 1.65804 5.9706 1.93934 5.68929C2.22064 5.40799 2.60218 5.24995 3 5.24995H3.25275C3.08616 4.89832 2.99983 4.51405 3 4.12495C3 2.6752 4.17525 1.49995 5.61225 1.49995C6.9285 1.47745 8.09625 2.31895 8.898 3.70045L9 3.8827C9.77475 2.4472 10.92 1.5472 12.2183 1.50145L12.375 1.49995ZM5.625 2.99995C5.32663 2.99995 5.04048 3.11848 4.8295 3.32946C4.61853 3.54044 4.5 3.82658 4.5 4.12495C4.5 4.42332 4.61853 4.70947 4.8295 4.92045C5.04048 5.13143 5.32663 5.24995 5.625 5.24995H7.98225C7.4265 3.8212 6.5205 2.98495 5.625 2.99995ZM12.3622 2.99995C11.4773 2.98495 10.5735 3.82195 10.0177 5.24995H12.375C12.6734 5.24826 12.9588 5.12811 13.1686 4.91594C13.3784 4.70377 13.4953 4.41695 13.4936 4.11858C13.4919 3.82021 13.3718 3.53473 13.1596 3.32495C12.9474 3.11517 12.6606 2.99826 12.3622 2.99995Z" fill="#484C52"/>
</svg>
