<svg width="18" height="16" viewBox="0 0 18 16" fill="none" xmlns="http://www.w3.org/2000/svg">
<path d="M11.0816 6.09167L9.69385 5.71582L10.0986 8.95392H11.0816V6.09167Z" fill="#484C52"/>
<circle cx="5.6172" cy="7.36379" r="2.7466" fill="#484C52"/>
<path d="M17.3266 3.48982C17.3266 4.14448 16.8476 4.67519 16.2568 4.67519V2.30444C16.8476 2.30444 17.3266 2.83515 17.3266 3.48982Z" fill="#484C52"/>
<path d="M5.64626 10.5154C2.80406 10.5154 0.5 12.8194 0.5 15.6616H9.86735C9.43367 14.5341 9.37585 13.6957 9.66497 12.4467C8.72187 11.2693 7.27211 10.5154 5.64626 10.5154Z" fill="#484C52"/>
<rect x="7.84351" y="2.18872" width="0.636054" height="2.54422" fill="#484C52"/>
<path d="M9 1.95739L15.7653 0.280518V6.64106L9 4.96419V1.95739Z" fill="#484C52"/>
<path d="M15.1684 12.7942C15.1684 13.0678 15.0895 13.2871 14.9317 13.4519C14.7738 13.6168 14.5826 13.7256 14.3581 13.7782V14.1149C14.3581 14.2377 14.3458 14.3237 14.3213 14.3728C14.3002 14.4219 14.2669 14.4552 14.2213 14.4728C14.1792 14.4903 14.1213 14.4991 14.0477 14.4991C13.974 14.4991 13.9144 14.4903 13.8687 14.4728C13.8267 14.4552 13.7968 14.4236 13.7793 14.378C13.7547 14.3184 13.7425 14.229 13.7425 14.1097V13.7834C13.5986 13.7519 13.4688 13.6993 13.3531 13.6256C13.2373 13.5519 13.1566 13.487 13.111 13.4309L13.0426 13.3414C12.969 13.2467 12.9321 13.1643 12.9321 13.0941C12.9321 13.024 12.9918 12.931 13.111 12.8153C13.1812 12.7486 13.2549 12.7153 13.332 12.7153C13.4127 12.7153 13.5232 12.7854 13.6635 12.9258C13.7723 13.0591 13.8951 13.1257 14.0319 13.1257C14.2915 13.1257 14.4212 13.0187 14.4212 12.8047C14.4212 12.7276 14.3721 12.6679 14.2739 12.6258C14.1757 12.5837 14.0564 12.5469 13.9161 12.5153C13.7758 12.4802 13.6355 12.4346 13.4952 12.3785C13.3548 12.3224 13.2356 12.2259 13.1373 12.0891C13.0391 11.9523 12.99 11.7787 12.99 11.5682C12.99 11.3577 13.0567 11.1683 13.19 10.9999C13.3233 10.8315 13.5074 10.7228 13.7425 10.6737V10.379C13.7425 10.2597 13.753 10.1738 13.774 10.1212C13.8091 10.037 13.9021 9.99487 14.0529 9.99487C14.1476 9.99487 14.2178 10.0159 14.2634 10.058C14.3125 10.0966 14.3406 10.1387 14.3476 10.1843C14.3546 10.2299 14.3581 10.2966 14.3581 10.3843V10.6789C14.4563 10.7 14.5458 10.7298 14.6265 10.7684C14.7071 10.807 14.7633 10.8385 14.7948 10.8631L14.8422 10.9052L14.8632 10.921C14.9509 11.0017 14.9948 11.0683 14.9948 11.1209C14.9948 11.1735 14.9527 11.2612 14.8685 11.384C14.7878 11.5068 14.6984 11.5682 14.6002 11.5682C14.537 11.5682 14.4826 11.5524 14.437 11.5208C14.3949 11.4893 14.3616 11.4629 14.3371 11.4419C14.3125 11.4208 14.2897 11.4033 14.2687 11.3893C14.209 11.3507 14.1336 11.3314 14.0424 11.3314C13.9512 11.3314 13.8758 11.3542 13.8161 11.3998C13.7565 11.4419 13.7267 11.5015 13.7267 11.5787C13.7267 11.6559 13.7618 11.719 13.8319 11.7681C13.9056 11.8137 13.995 11.8453 14.1003 11.8628C14.2055 11.8769 14.3213 11.9032 14.4476 11.9418C14.5738 11.9769 14.6896 12.019 14.7948 12.0681C14.9001 12.1172 14.9878 12.2049 15.0579 12.3312C15.1316 12.4539 15.1684 12.6083 15.1684 12.7942Z" fill="#484C52"/>
<path d="M17.4998 12.2499C17.4998 14.166 15.9465 15.7193 14.0304 15.7193C12.1143 15.7193 10.561 14.166 10.561 12.2499C10.561 10.3338 12.1143 8.78052 14.0304 8.78052C15.9465 8.78052 17.4998 10.3338 17.4998 12.2499ZM11.1375 12.2499C11.1375 13.8476 12.4327 15.1428 14.0304 15.1428C15.6281 15.1428 16.9234 13.8476 16.9234 12.2499C16.9234 10.6522 15.6281 9.35697 14.0304 9.35697C12.4327 9.35697 11.1375 10.6522 11.1375 12.2499Z" fill="#484C52"/>
</svg>
