<svg width="18" height="22" viewBox="0 0 18 22" fill="none" xmlns="http://www.w3.org/2000/svg">
<path d="M9 12.375C8.32013 12.375 7.65552 12.1734 7.09023 11.7957C6.52494 11.418 6.08434 10.8811 5.82417 10.253C5.56399 9.62486 5.49592 8.93369 5.62855 8.26688C5.76119 7.60007 6.08858 6.98757 6.56932 6.50682C7.05007 6.02608 7.66257 5.69869 8.32938 5.56605C8.99619 5.43342 9.68736 5.50149 10.3155 5.76167C10.9436 6.02184 11.4805 6.46244 11.8582 7.02773C12.2359 7.59302 12.4375 8.25763 12.4375 8.9375C12.4364 9.84885 12.0739 10.7226 11.4295 11.367C10.7851 12.0114 9.91135 12.3739 9 12.375ZM9 6.875C8.59208 6.875 8.19331 6.99597 7.85414 7.2226C7.51496 7.44923 7.25061 7.77134 7.0945 8.14822C6.93839 8.52509 6.89755 8.93979 6.97713 9.33988C7.05671 9.73996 7.25315 10.1075 7.54159 10.3959C7.83004 10.6844 8.19754 10.8808 8.59763 10.9604C8.99771 11.04 9.41241 10.9991 9.78929 10.843C10.1662 10.6869 10.4883 10.4225 10.7149 10.0834C10.9415 9.74419 11.0625 9.34543 11.0625 8.9375C11.062 8.39066 10.8445 7.86637 10.4578 7.4797C10.0711 7.09302 9.54684 6.87555 9 6.875Z" fill="#A9A9A9"/>
<path d="M9 20.625L3.20025 13.7851C3.11966 13.6824 3.03991 13.579 2.961 13.475C1.9708 12.1697 1.43566 10.5759 1.4375 8.9375C1.4375 6.9318 2.23427 5.00825 3.65251 3.59001C5.07075 2.17176 6.9943 1.375 9 1.375C11.0057 1.375 12.9293 2.17176 14.3475 3.59001C15.7657 5.00825 16.5625 6.9318 16.5625 8.9375C16.5641 10.5751 16.0292 12.1681 15.0397 13.4729L15.039 13.475C15.039 13.475 14.8328 13.7459 14.8018 13.7823L9 20.625ZM4.05894 12.6466C4.05894 12.6466 4.21913 12.8583 4.25557 12.9037L9 18.4993L13.7506 12.8961C13.7809 12.8583 13.9418 12.6452 13.9424 12.6445C14.7518 11.5783 15.1891 10.2761 15.1875 8.9375C15.1875 7.29647 14.5356 5.72266 13.3752 4.56228C12.2148 3.4019 10.641 2.75 9 2.75C7.35898 2.75 5.78516 3.4019 4.62478 4.56228C3.4644 5.72266 2.8125 7.29647 2.8125 8.9375C2.81081 10.277 3.24869 11.58 4.05894 12.6466Z" fill="#A9A9A9"/>
</svg>
