<svg width="27" height="22" viewBox="0 0 27 22" fill="none" xmlns="http://www.w3.org/2000/svg">
<g clip-path="url(#clip0_3068_16638)">
<path d="M15 11.5C15 10.6716 14.3284 10 13.5 10C12.6716 10 12 10.6716 12 11.5C12 12.3284 12.6716 13 13.5 13C14.3284 13 15 12.3284 15 11.5Z" stroke="#79747E" stroke-width="1.47111" stroke-linecap="round" stroke-linejoin="round"/>
<path d="M6 11.5C6 10.6716 5.32843 10 4.5 10C3.67157 10 3 10.6716 3 11.5C3 12.3284 3.67157 13 4.5 13C5.32843 13 6 12.3284 6 11.5Z" stroke="#79747E" stroke-width="1.47111" stroke-linecap="round" stroke-linejoin="round"/>
<path d="M24 11.5C24 10.6716 23.3284 10 22.5 10C21.6716 10 21 10.6716 21 11.5C21 12.3284 21.6716 13 22.5 13C23.3284 13 24 12.3284 24 11.5Z" stroke="#79747E" stroke-width="1.47111" stroke-linecap="round" stroke-linejoin="round"/>
</g>
<defs>
<clipPath id="clip0_3068_16638">
<rect x="0.550781" y="21.3794" width="20.7591" height="25.9314" rx="4" transform="rotate(-90 0.550781 21.3794)" fill="white"/>
</clipPath>
</defs>
</svg>
