<svg width="18" height="18" viewBox="0 0 18 18" fill="none" xmlns="http://www.w3.org/2000/svg">
<path d="M8.25525 15.75H7.20375C4.515 15.75 3.171 15.75 2.3355 14.8987C1.5 14.0475 1.5 12.6773 1.5 9.9375C1.5 7.19775 1.5 5.8275 2.3355 4.97625C3.171 4.125 4.515 4.125 7.20375 4.125H10.056C12.7448 4.125 14.0895 4.125 14.925 4.97625C15.5677 5.631 15.7155 6.59325 15.75 8.25" stroke="#A9A9A9" stroke-linecap="round" stroke-linejoin="round"/>
<path d="M12 4.125L11.925 3.8925C11.5538 2.7375 11.3685 2.16 10.9268 1.83C10.4843 1.5 9.89775 1.5 8.7225 1.5H8.52525C7.3515 1.5 6.76425 1.5 6.3225 1.83C5.88 2.16 5.69475 2.7375 5.3235 3.8925L5.25 4.125M12.8333 9.94125C12.972 9.81375 13.041 9.75 13.125 9.75C13.209 9.75 13.278 9.81375 13.4168 9.94125L13.9515 10.434C14.016 10.4932 14.0483 10.5233 14.088 10.5375C14.1285 10.5525 14.172 10.551 14.2605 10.5472L14.982 10.5187C15.168 10.5112 15.261 10.5082 15.3248 10.5615C15.3885 10.6147 15.4013 10.707 15.426 10.8915L15.525 11.631C15.537 11.7165 15.5423 11.7585 15.5633 11.796C15.5843 11.832 15.618 11.8582 15.6855 11.9115L16.2675 12.369C16.4115 12.483 16.4835 12.5392 16.4978 12.6202C16.512 12.7012 16.4633 12.7792 16.3673 12.9352L15.9728 13.5705C15.9278 13.6432 15.9053 13.68 15.8978 13.7205C15.8903 13.761 15.8993 13.8038 15.9173 13.8878L16.074 14.6213C16.1115 14.8013 16.131 14.8913 16.0898 14.9633C16.0485 15.0353 15.9608 15.0637 15.786 15.1207L15.0915 15.3465C15.009 15.3735 14.967 15.387 14.9348 15.414C14.9025 15.4418 14.8823 15.4807 14.8425 15.558L14.5035 16.2112C14.4173 16.3785 14.3738 16.4617 14.295 16.4902C14.2163 16.5187 14.13 16.4828 13.956 16.4108L13.29 16.1348C13.2083 16.101 13.1678 16.0837 13.125 16.0837C13.0823 16.0837 13.0418 16.101 12.96 16.1348L12.294 16.4108C12.12 16.4828 12.0338 16.5187 11.955 16.4902C11.8763 16.4617 11.8328 16.3777 11.7465 16.2112L11.4075 15.558C11.367 15.4807 11.3475 15.4417 11.3153 15.4147C11.283 15.3877 11.241 15.3735 11.1585 15.3472L10.464 15.1207C10.2893 15.0637 10.2015 15.0353 10.1603 14.9633C10.119 14.8913 10.1378 14.802 10.176 14.6213L10.3335 13.8878C10.3508 13.8038 10.3598 13.7618 10.3523 13.7213C10.3369 13.667 10.3114 13.6161 10.2773 13.5712L9.8835 12.9352C9.786 12.7792 9.738 12.7012 9.75225 12.6202C9.7665 12.5392 9.8385 12.483 9.9825 12.3698L10.5645 11.9123C10.632 11.8583 10.6658 11.832 10.6868 11.7953C10.7078 11.7585 10.713 11.7165 10.7243 11.6302L10.824 10.8915C10.8488 10.7078 10.8615 10.6147 10.9253 10.5615C10.989 10.5082 11.082 10.5112 11.268 10.5187L11.9903 10.5472C12.078 10.551 12.1215 10.5525 12.162 10.5375C12.2018 10.5225 12.234 10.4932 12.2985 10.434L12.8333 9.94125Z" stroke="#A9A9A9" stroke-linecap="round" stroke-linejoin="round"/>
</svg>
