<svg width="147" height="175" viewBox="0 0 147 175" fill="none" xmlns="http://www.w3.org/2000/svg">
<path d="M55.957 78.4478L101.82 103.543" stroke="black"/>
<path d="M46.4385 107.869L117.396 146.809" stroke="black"/>
<path d="M91.436 78.4478L45.5732 103.543" stroke="black"/>
<path d="M100.955 107.869L29.997 146.809" stroke="black"/>
<path d="M43.8424 16.5762C43.8424 16.5762 35.1891 19.6049 34.7564 32.5849C34.3237 45.565 41.6791 51.1896 41.6791 51.1896" stroke="black" stroke-linecap="round"/>
<path d="M102.685 16.5762C102.685 16.5762 111.339 19.6049 111.771 32.5849C112.204 45.565 104.848 51.1896 104.848 51.1896" stroke="black" stroke-linecap="round"/>
<path d="M17.4496 1C17.4496 1 0.575571 11.8167 1.00824 33.4501C1.44091 55.0835 11.3922 65.9002 11.3922 65.9002" stroke="black" stroke-linecap="round"/>
<path d="M129.078 1C129.078 1 145.952 11.8167 145.519 33.4501C145.087 55.0835 135.135 65.9002 135.135 65.9002" stroke="black" stroke-linecap="round"/>
<path d="M70.6677 38.2095L22.6415 174.5H14.8535L64.1777 33.8828L70.6677 38.2095Z" fill="white" stroke="black"/>
<path d="M76.7251 38.2095L124.751 174.5H132.539L83.2151 33.8828L76.7251 38.2095Z" fill="white" stroke="black"/>
<circle cx="73.2639" cy="33.8828" r="11.6147" fill="white" stroke="#242021"/>
<circle cx="73.2639" cy="33.8826" r="5.55736" stroke="#242021"/>
</svg>
