<svg width="18" height="18" viewBox="0 0 18 18" fill="none" xmlns="http://www.w3.org/2000/svg">
<path d="M4.75 13.5C4.75 13.6989 4.82463 13.8897 4.95747 14.0303C5.0903 14.171 5.27047 14.25 5.45833 14.25L12.5417 14.25C12.7295 14.25 12.9097 14.171 13.0425 14.0303C13.1754 13.8897 13.25 13.6989 13.25 13.5C13.25 13.3011 13.1754 13.1103 13.0425 12.9697C12.9097 12.829 12.7295 12.75 12.5417 12.75L5.45833 12.75C5.27047 12.75 5.0903 12.829 4.95747 12.9697C4.82463 13.1103 4.75 13.3011 4.75 13.5ZM4.75 10.5C4.75 10.6989 4.82463 10.8897 4.95747 11.0303C5.0903 11.171 5.27047 11.25 5.45833 11.25L12.5417 11.25C12.7295 11.25 12.9097 11.171 13.0425 11.0303C13.1754 10.8897 13.25 10.6989 13.25 10.5C13.25 10.3011 13.1754 10.1103 13.0425 9.96967C12.9097 9.82902 12.7295 9.75 12.5417 9.75L5.45833 9.75C5.27047 9.75 5.0903 9.82902 4.95747 9.96967C4.82463 10.1103 4.75 10.3011 4.75 10.5ZM5.45833 8.25C5.27047 8.25 5.0903 8.17098 4.95747 8.03033C4.82463 7.88968 4.75 7.69891 4.75 7.5C4.75 7.30109 4.82463 7.11032 4.95747 6.96967C5.0903 6.82902 5.27047 6.75 5.45833 6.75L12.5417 6.75C12.7295 6.75 12.9097 6.82902 13.0425 6.96967C13.1754 7.11032 13.25 7.30109 13.25 7.5C13.25 7.69891 13.1754 7.88968 13.0425 8.03033C12.9097 8.17098 12.7295 8.25 12.5417 8.25L5.45833 8.25ZM4.75 4.5C4.75 4.69891 4.82463 4.88968 4.95747 5.03033C5.0903 5.17098 5.27047 5.25 5.45833 5.25L8.29167 5.25C8.47953 5.25 8.65969 5.17098 8.79253 5.03033C8.92537 4.88968 9 4.69891 9 4.5C9 4.30109 8.92537 4.11032 8.79253 3.96967C8.65969 3.82902 8.47953 3.75 8.29167 3.75L5.45833 3.75C5.27047 3.75 5.0903 3.82902 4.95747 3.96967C4.82463 4.11032 4.75 4.30109 4.75 4.5Z" fill="#484C52"/>
<path fill-rule="evenodd" clip-rule="evenodd" d="M1.91675 3C1.91675 2.40326 2.14063 1.83097 2.53915 1.40901C2.93766 0.987053 3.47816 0.75 4.04175 0.75H11.9569C12.7823 0.75 13.5713 1.09006 14.138 1.69013L15.2645 2.88287C15.7904 3.43976 16.0834 4.17674 16.0834 4.94274V15C16.0834 15.5967 15.8595 16.169 15.461 16.591C15.0625 17.0129 14.522 17.25 13.9584 17.25H4.04175C3.47816 17.25 2.93766 17.0129 2.53915 16.591C2.14063 16.169 1.91675 15.5967 1.91675 15V3ZM4.04175 2.25H11.1251H12.5417L14.6667 4.5V6V15C14.6667 15.1989 14.5921 15.3897 14.4593 15.5303C14.3264 15.671 14.1463 15.75 13.9584 15.75H4.04175C3.85389 15.75 3.67372 15.671 3.54088 15.5303C3.40804 15.3897 3.33341 15.1989 3.33341 15V3C3.33341 2.80109 3.40804 2.61032 3.54088 2.46967C3.67372 2.32902 3.85389 2.25 4.04175 2.25Z" fill="#484C52"/>
<path d="M12.5417 4.5V2.25H11.1251V6H14.6667V4.5H12.5417Z" fill="#484C52"/>
</svg>
