<svg width="18" height="18" viewBox="0 0 18 18" fill="none" xmlns="http://www.w3.org/2000/svg">
<path fill-rule="evenodd" clip-rule="evenodd" d="M16.0909 4.06199C16.1622 4.17015 16.1939 4.29958 16.1808 4.42843C16.1677 4.55729 16.1105 4.67767 16.0189 4.76924L9.12418 11.6632C9.05364 11.7337 8.96564 11.7842 8.86918 11.8095L5.99743 12.5595C5.9025 12.5843 5.80275 12.5838 5.70807 12.558C5.6134 12.5323 5.52709 12.4823 5.45772 12.4129C5.38835 12.3436 5.33833 12.2573 5.31262 12.1626C5.28692 12.0679 5.28642 11.9682 5.31118 11.8732L6.06118 9.00224C6.08307 8.91606 6.12437 8.83602 6.18193 8.76824L13.1022 1.85249C13.2076 1.74716 13.3506 1.68799 13.4997 1.68799C13.6487 1.68799 13.7917 1.74716 13.8972 1.85249L16.0189 3.97349C16.0458 4.0005 16.07 4.03015 16.0909 4.06199ZM14.8257 4.37099L13.4997 3.04574L7.11118 9.43424L6.64243 11.229L8.43718 10.7602L14.8257 4.37099Z" fill="#2979FF"/>
<path d="M14.7302 12.87C14.9352 11.118 15.0006 9.35244 14.9259 7.59004C14.9243 7.54852 14.9313 7.5071 14.9464 7.46839C14.9615 7.42968 14.9844 7.39449 15.0137 7.36504L15.7517 6.62704C15.7718 6.60676 15.7974 6.59273 15.8254 6.58665C15.8533 6.58056 15.8824 6.58267 15.9092 6.59273C15.936 6.60279 15.9593 6.62037 15.9763 6.64335C15.9933 6.66634 16.0034 6.69374 16.0052 6.72229C16.1441 8.81571 16.0914 10.9175 15.8477 13.0013C15.6707 14.5178 14.4527 15.7065 12.9429 15.8753C10.3219 16.1655 7.67692 16.1655 5.05593 15.8753C3.54693 15.7065 2.32818 14.5178 2.15118 13.0013C1.84023 10.3428 1.84023 7.65723 2.15118 4.99879C2.32818 3.48229 3.54618 2.29354 5.05593 2.12479C7.04521 1.9042 9.04948 1.85076 11.0477 1.96504C11.0763 1.96709 11.1037 1.9773 11.1267 1.99445C11.1496 2.0116 11.1672 2.03497 11.1773 2.0618C11.1874 2.08863 11.1896 2.1178 11.1837 2.14584C11.1777 2.17389 11.1638 2.19963 11.1437 2.22004L10.3989 2.96404C10.3698 2.9931 10.3349 3.01588 10.2966 3.03097C10.2583 3.04606 10.2173 3.05315 10.1762 3.05179C8.50875 2.99511 6.8394 3.05902 5.18118 3.24304C4.69664 3.29667 4.24432 3.51208 3.8973 3.85448C3.55027 4.19687 3.32881 4.64626 3.26868 5.13004C2.96797 7.70127 2.96797 10.2988 3.26868 12.87C3.32881 13.3538 3.55027 13.8032 3.8973 14.1456C4.24432 14.488 4.69664 14.7034 5.18118 14.757C7.69743 15.0383 10.3014 15.0383 12.8184 14.757C13.303 14.7034 13.7553 14.488 14.1023 14.1456C14.4493 13.8032 14.6701 13.3538 14.7302 12.87Z" fill="#2979FF"/>
</svg>
