<svg width="20" height="22" viewBox="0 0 20 22" fill="none" xmlns="http://www.w3.org/2000/svg">
<g clip-path="url(#clip0_5490_7554)">
<path d="M9.72063 8.48512C9.72063 9.87659 8.5974 10.9998 7.20592 10.9998C5.81445 10.9998 4.69122 9.87659 4.69122 8.48512C4.69122 7.09365 5.81445 5.97042 7.20592 5.97042C8.5974 5.97042 9.72063 7.09365 9.72063 8.48512ZM12.2353 17.7057H2.17651V16.0292C2.17651 14.1767 4.43137 12.6763 7.20592 12.6763C9.98048 12.6763 12.2353 14.1767 12.2353 16.0292M18.9412 10.9998V12.6763H11.3971V10.9998M18.9412 7.64689V9.32336H11.3971V7.64689M18.9412 4.29395V5.97042H11.3971V4.29395H18.9412Z" fill="#484C52"/>
</g>
<defs>
<clipPath id="clip0_5490_7554">
<rect width="19" height="20.1176" fill="white" transform="translate(0.5 0.941162)"/>
</clipPath>
</defs>
</svg>
