<svg width="18" height="18" viewBox="0 0 18 18" fill="none" xmlns="http://www.w3.org/2000/svg">
<path d="M12.4716 10.4183L12.8136 10.0786L12.0194 9.28059L11.6789 9.62034L12.4716 10.4183ZM13.9604 9.93609L15.3936 10.7153L15.9299 9.72684L14.4974 8.94834L13.9604 9.93609ZM15.6689 12.2633L14.6039 13.3231L15.3966 14.1203L16.4616 13.0613L15.6689 12.2633ZM13.9544 13.6636C12.8669 13.7656 10.0544 13.6748 7.00789 10.6463L6.21439 11.4436C9.53839 14.7488 12.7026 14.9108 14.0594 14.7841L13.9544 13.6636ZM7.00789 10.6463C4.10464 7.75884 3.62314 5.33109 3.56314 4.27734L2.43964 4.34109C2.51464 5.66709 3.11089 8.35809 6.21439 11.4436L7.00789 10.6463ZM8.03914 6.01134L8.25439 5.79684L7.46239 4.99959L7.24714 5.21334L8.03914 6.01134ZM8.42539 3.07059L7.48039 1.80759L6.57964 2.48259L7.52464 3.74484L8.42539 3.07059ZM4.29964 1.53234L3.12214 2.70234L3.91564 3.50034L5.09239 2.33034L4.29964 1.53234ZM7.64314 5.61234C7.24564 5.21334 7.24564 5.21334 7.24564 5.21484H7.24414L7.24189 5.21784C7.20624 5.25378 7.17433 5.29323 7.14664 5.33559C7.10614 5.39559 7.06189 5.47434 7.02439 5.57409C6.93309 5.83159 6.91035 6.1084 6.95839 6.37734C7.05889 7.02609 7.50589 7.88334 8.65039 9.02184L9.44389 8.22384C8.37214 7.15884 8.11714 6.51084 8.06989 6.20484C8.04739 6.05934 8.07064 5.98734 8.07739 5.97084C8.08189 5.96084 8.08189 5.95934 8.07739 5.96634C8.0707 5.97669 8.06317 5.98647 8.05489 5.99559L8.04739 6.00309L8.03989 6.00984L7.64314 5.61234ZM8.65039 9.02184C9.79564 10.1603 10.6574 10.6043 11.3069 10.7033C11.6391 10.7543 11.9069 10.7138 12.1101 10.6381C12.224 10.5964 12.3304 10.5367 12.4251 10.4611L12.4626 10.4273L12.4679 10.4228L12.4701 10.4206L12.4709 10.4191C12.4709 10.4191 12.4716 10.4183 12.0749 10.0193C11.6774 9.62034 11.6796 9.61959 11.6796 9.61959L11.6811 9.61809L11.6826 9.61659L11.6871 9.61284L11.6946 9.60534L11.7231 9.58284C11.7301 9.57834 11.7284 9.57884 11.7179 9.58434C11.6991 9.59109 11.6256 9.61434 11.4779 9.59184C11.1674 9.54384 10.5149 9.28884 9.44389 8.22384L8.65039 9.02184ZM7.48039 1.80684C6.71539 0.786842 5.21239 0.624842 4.29964 1.53234L5.09239 2.33034C5.49139 1.93359 6.19939 1.97484 6.57964 2.48259L7.48039 1.80684ZM3.56389 4.27809C3.54889 4.01859 3.66814 3.74709 3.91564 3.50109L3.12139 2.70309C2.71864 3.10359 2.40139 3.67059 2.43964 4.34109L3.56389 4.27809ZM14.6039 13.3231C14.3984 13.5286 14.1764 13.6441 13.9551 13.6643L14.0594 14.7841C14.6106 14.7323 15.0614 14.4548 15.3974 14.1211L14.6039 13.3231ZM8.25439 5.79684C8.99314 5.06259 9.04789 3.90234 8.42614 3.07134L7.52539 3.74559C7.82764 4.14984 7.78264 4.68009 7.46164 5.00034L8.25439 5.79684ZM15.3944 10.7161C16.0071 11.0491 16.1024 11.8336 15.6696 12.2641L16.4631 13.0613C17.4681 12.0616 17.1584 10.3943 15.9306 9.72759L15.3944 10.7161ZM12.8136 10.0793C13.1016 9.79284 13.5651 9.72234 13.9611 9.93684L14.4981 8.94909C13.6851 8.50659 12.6771 8.62884 12.0201 9.28134L12.8136 10.0793Z" fill="#A9A9A9"/>
</svg>
