<svg width="18" height="18" viewBox="0 0 18 18" fill="none" xmlns="http://www.w3.org/2000/svg">
<path fill-rule="evenodd" clip-rule="evenodd" d="M9.18748 11.25C7.94698 11.25 6.93748 10.2405 6.93748 9C6.93748 7.7595 7.94698 6.75 9.18748 6.75C10.428 6.75 11.4375 7.7595 11.4375 9C11.4375 10.2405 10.428 11.25 9.18748 11.25ZM14.823 9.6855C14.5777 9.54225 14.4307 9.2865 14.4307 9C14.4307 8.7135 14.5777 8.45775 14.8237 8.31525C15.8872 7.6965 16.2525 6.3225 15.639 5.25075C15.3397 4.73025 14.8575 4.35825 14.28 4.203C13.7055 4.05075 13.1055 4.13025 12.591 4.4295C12.348 4.572 12.0577 4.572 11.8132 4.43025C11.5657 4.2885 11.418 4.03125 11.418 3.744C11.418 2.50725 10.4175 1.5 9.18748 1.5C7.95673 1.5 6.95623 2.50725 6.95623 3.744C6.95623 4.032 6.80848 4.2885 6.56098 4.431C6.31798 4.5705 6.02773 4.572 5.78473 4.4295C5.26873 4.13025 4.66948 4.04925 4.09348 4.20375C3.51598 4.359 3.03448 4.731 2.73598 5.2515C2.12248 6.32325 2.48848 7.69725 3.55198 8.3145C3.79723 8.457 3.94348 8.7135 3.94348 9C3.94348 9.2865 3.79723 9.543 3.55198 9.68475C2.48848 10.3035 2.12248 11.6783 2.73598 12.7493C3.03448 13.269 3.51598 13.641 4.09273 13.7963C4.66798 13.95 5.26873 13.8705 5.78473 13.5712C6.02698 13.4287 6.31723 13.4287 6.56098 13.569C6.80848 13.7115 6.95623 13.968 6.95623 14.256C6.95623 15.4927 7.95673 16.5 9.18748 16.5C10.4175 16.5 11.418 15.4927 11.418 14.256C11.418 13.9688 11.5657 13.7115 11.8132 13.5697C12.057 13.4288 12.3472 13.4287 12.591 13.5712C13.1062 13.8705 13.7062 13.9485 14.28 13.797C14.8575 13.6418 15.3397 13.2698 15.639 12.7493C16.2525 11.6783 15.8872 10.3042 14.823 9.6855Z" fill="#484C52"/>
</svg>
