<svg width="33" height="34" viewBox="0 0 33 34" fill="none" xmlns="http://www.w3.org/2000/svg">
<path fill-rule="evenodd" clip-rule="evenodd" d="M0 17C0 12.6239 1.73839 8.42709 4.83274 5.33274C7.92709 2.23839 12.1239 0.5 16.5 0.5C20.8761 0.5 25.0729 2.23839 28.1673 5.33274C31.2616 8.42709 33 12.6239 33 17C33 21.3761 31.2616 25.5729 28.1673 28.6673C25.0729 31.7616 20.8761 33.5 16.5 33.5C12.1239 33.5 7.92709 31.7616 4.83274 28.6673C1.73839 25.5729 0 21.3761 0 17ZM15.5584 24.062L25.058 12.1864L23.342 10.8136L15.2416 20.9358L9.504 16.1552L8.096 17.8448L15.5584 24.062Z" fill="#4CAF50"/>
</svg>
